M48
; DRILL file {KiCad (5.1.5)-3} date 17/10/2021 2:29:15 PM
; FORMAT={-:-/ absolute / metric / decimal}
; #@! TF.CreationDate,2021-10-17T14:29:15-07:00
; #@! TF.GenerationSoftware,Kicad,Pcbnew,(5.1.5)-3
; #@! TF.FileFunction,Plated,1,2,PTH
FMAT,2
METRIC
T1C0.400
T2C0.762
T3C1.000
T4C1.020
T5C1.100
T6C1.900
T7C2.700
%
G90
G05
T1
X100.33Y-132.08
X100.584Y-144.272
X100.838Y-149.606
X100.838Y-154.178
X103.378Y-105.664
X105.664Y-159.766
X106.0Y-141.5
X107.8Y-126.0
X108.458Y-108.966
X108.712Y-102.108
X108.712Y-141.478
X110.998Y-132.334
X111.6Y-117.2
X112.068Y-124.768
X114.3Y-159.512
X119.126Y-102.108
X119.126Y-111.506
X122.225Y-142.2
X122.936Y-155.448
X123.19Y-130.048
X123.9Y-143.3
X125.6Y-111.4
X126.746Y-101.092
X129.54Y-123.952
X131.572Y-159.766
X136.7Y-109.5
X139.7Y-101.346
X139.954Y-155.702
X141.732Y-111.76
X141.986Y-124.206
X143.4Y-139.6
X144.399Y-112.395
X145.542Y-134.112
X148.844Y-159.512
X151.638Y-101.473
X152.908Y-134.112
X155.4Y-145.8
X156.21Y-110.617
X157.226Y-151.892
X157.8Y-143.5
X158.6Y-155.025
X161.036Y-101.346
X161.1Y-153.575
X164.846Y-123.19
X166.37Y-159.512
X168.148Y-143.256
X170.7Y-139.9
X170.815Y-101.473
X172.1Y-142.7
X172.2Y-141.1
X172.3Y-124.5
X173.2Y-125.8
X174.1Y-126.7
X177.546Y-129.794
X178.816Y-151.892
T2
X145.96Y-145.89
X148.5Y-143.35
X148.5Y-145.89
X151.04Y-145.89
X136.71Y-113.7
X139.25Y-113.7
X139.25Y-116.24
X141.79Y-113.7
X128.56Y-145.89
X131.1Y-143.35
X131.1Y-145.89
X133.64Y-145.89
X163.16Y-145.86
X165.7Y-143.32
X165.7Y-145.86
X168.24Y-145.86
X111.41Y-145.81
X113.95Y-143.27
X113.95Y-145.81
X116.49Y-145.81
X123.81Y-113.74
X126.35Y-113.74
X126.35Y-116.28
X128.89Y-113.74
T3
X107.58Y-150.15
X110.12Y-150.15
X112.66Y-150.15
X115.2Y-150.15
X117.74Y-150.15
X120.28Y-150.15
X153.289Y-113.03
X153.289Y-115.57
X153.289Y-118.11
X177.79Y-106.446
X177.79Y-108.986
X177.79Y-111.526
X162.56Y-113.03
X162.56Y-115.57
X162.56Y-118.11
X135.25Y-108.05
X137.79Y-108.05
X140.33Y-108.05
X142.87Y-108.05
X115.1Y-101.0
X115.1Y-103.54
X115.1Y-106.08
X115.1Y-108.62
X115.1Y-111.16
X115.1Y-113.7
X148.971Y-107.696
X151.511Y-107.696
X154.051Y-107.696
X100.52Y-118.5
X103.06Y-118.5
X105.6Y-118.5
X158.369Y-107.696
X160.909Y-107.696
X163.449Y-107.696
X166.37Y-113.03
X166.37Y-115.57
X166.37Y-118.11
X149.479Y-113.03
X149.479Y-115.57
X149.479Y-118.11
X167.894Y-107.696
X170.434Y-107.696
X172.974Y-107.696
X170.18Y-113.03
X170.18Y-115.57
X170.18Y-118.11
X157.099Y-113.03
X157.099Y-115.57
X157.099Y-118.11
X124.78Y-150.25
X127.32Y-150.25
X129.86Y-150.25
X132.4Y-150.25
X134.94Y-150.25
X137.48Y-150.25
X122.3Y-108.0
X124.84Y-108.0
X127.38Y-108.0
X129.92Y-108.0
X142.16Y-150.25
X144.7Y-150.25
X147.24Y-150.25
X149.78Y-150.25
X152.32Y-150.25
X154.86Y-150.25
X159.32Y-150.25
X161.86Y-150.25
X164.4Y-150.25
X166.94Y-150.25
X169.48Y-150.25
X172.02Y-150.25
X177.6Y-124.7
X177.6Y-135.7
T4
X137.67Y-122.37
X137.67Y-124.91
X137.67Y-127.45
X137.67Y-129.99
X137.67Y-132.53
X148.36Y-122.37
T5
X100.09Y-122.38
X100.09Y-137.62
X102.63Y-122.38
X102.63Y-124.92
X102.63Y-137.62
X105.17Y-122.38
X105.17Y-137.62
X107.71Y-122.38
X107.71Y-137.62
X110.25Y-122.38
X110.25Y-137.62
X112.79Y-122.38
X112.79Y-137.62
X115.33Y-122.38
X115.33Y-137.62
X117.87Y-122.38
X117.87Y-137.62
X120.41Y-122.38
X120.41Y-137.62
X122.95Y-122.38
X122.95Y-137.62
X125.49Y-122.38
X125.49Y-124.92
X125.49Y-127.46
X125.49Y-130.0
X125.49Y-132.54
X125.49Y-135.08
X125.49Y-137.62
X128.03Y-122.38
X128.03Y-124.92
X128.03Y-127.46
X128.03Y-130.0
X128.03Y-132.54
X128.03Y-135.08
X128.03Y-137.62
X130.57Y-122.38
X130.57Y-137.62
X133.11Y-122.38
X133.11Y-124.92
X133.11Y-127.46
X133.11Y-130.0
X133.11Y-132.54
X133.11Y-135.08
X133.11Y-137.62
T6
X167.6Y-127.7
X167.6Y-132.7
T7
X160.2Y-127.7
X160.2Y-132.7
T0
M30
