G04 #@! TF.GenerationSoftware,KiCad,Pcbnew,(5.1.5)-3*
G04 #@! TF.CreationDate,2022-01-20T10:14:01-08:00*
G04 #@! TF.ProjectId,teensy_breakout,7465656e-7379-45f6-9272-65616b6f7574,rev?*
G04 #@! TF.SameCoordinates,Original*
G04 #@! TF.FileFunction,Copper,L2,Bot*
G04 #@! TF.FilePolarity,Positive*
%FSLAX46Y46*%
G04 Gerber Fmt 4.6, Leading zero omitted, Abs format (unit mm)*
G04 Created by KiCad (PCBNEW (5.1.5)-3) date 2022-01-20 10:14:01*
%MOMM*%
%LPD*%
G04 APERTURE LIST*
%ADD10C,1.524000*%
%ADD11O,1.700000X1.700000*%
%ADD12R,1.700000X1.700000*%
%ADD13C,1.600000*%
%ADD14C,3.800000*%
%ADD15R,3.800000X3.800000*%
%ADD16C,3.500000*%
%ADD17R,3.500000X3.500000*%
%ADD18C,1.400000*%
%ADD19C,0.800000*%
%ADD20C,0.250000*%
%ADD21C,0.500000*%
%ADD22C,0.254000*%
G04 APERTURE END LIST*
D10*
X137670000Y-122370000D03*
X137670000Y-124910000D03*
X137670000Y-127450000D03*
X137670000Y-129990000D03*
X137670000Y-132530000D03*
X148360000Y-122370000D03*
X165700000Y-145860000D03*
X168240000Y-145860000D03*
X165700000Y-143320000D03*
X163160000Y-145860000D03*
X148500000Y-145890000D03*
X151040000Y-145890000D03*
X148500000Y-143350000D03*
X145960000Y-145890000D03*
X131100000Y-145890000D03*
X133640000Y-145890000D03*
X131100000Y-143350000D03*
X128560000Y-145890000D03*
X113950000Y-145810000D03*
X116490000Y-145810000D03*
X113950000Y-143270000D03*
X111410000Y-145810000D03*
X126350000Y-113740000D03*
X123810000Y-113740000D03*
X126350000Y-116280000D03*
X128890000Y-113740000D03*
X139250000Y-113700000D03*
X136710000Y-113700000D03*
X139250000Y-116240000D03*
X141790000Y-113700000D03*
D11*
X177789840Y-111526320D03*
X177789840Y-108986320D03*
D12*
X177789840Y-106446320D03*
D11*
X170180000Y-113030000D03*
X170180000Y-115570000D03*
D12*
X170180000Y-118110000D03*
D11*
X172974000Y-107696000D03*
X170434000Y-107696000D03*
D12*
X167894000Y-107696000D03*
D11*
X163449000Y-107696000D03*
X160909000Y-107696000D03*
D12*
X158369000Y-107696000D03*
D11*
X154051000Y-107696000D03*
X151511000Y-107696000D03*
D12*
X148971000Y-107696000D03*
D11*
X149479000Y-113030000D03*
X149479000Y-115570000D03*
D12*
X149479000Y-118110000D03*
D11*
X162560000Y-113030000D03*
X162560000Y-115570000D03*
D12*
X162560000Y-118110000D03*
D11*
X153289000Y-113030000D03*
X153289000Y-115570000D03*
D12*
X153289000Y-118110000D03*
D13*
X125490000Y-135080000D03*
X128030000Y-135080000D03*
X125490000Y-132540000D03*
X128030000Y-132540000D03*
X125490000Y-130000000D03*
X128030000Y-130000000D03*
X125490000Y-127460000D03*
X128030000Y-127460000D03*
X125490000Y-124920000D03*
X128030000Y-124920000D03*
X100090000Y-137620000D03*
X102630000Y-137620000D03*
X105170000Y-137620000D03*
X107710000Y-137620000D03*
X110250000Y-137620000D03*
X112790000Y-137620000D03*
X115330000Y-137620000D03*
X117870000Y-137620000D03*
X120410000Y-137620000D03*
X122950000Y-137620000D03*
X125490000Y-137620000D03*
X128030000Y-137620000D03*
X130570000Y-137620000D03*
X102630000Y-124920000D03*
X100090000Y-122380000D03*
X102630000Y-122380000D03*
X105170000Y-122380000D03*
X107710000Y-122380000D03*
X110250000Y-122380000D03*
X112790000Y-122380000D03*
X115330000Y-122380000D03*
X117870000Y-122380000D03*
X120410000Y-122380000D03*
X122950000Y-122380000D03*
X125490000Y-122380000D03*
X128030000Y-122380000D03*
X130570000Y-122380000D03*
X133110000Y-137620000D03*
X133110000Y-135080000D03*
X133110000Y-132540000D03*
X133110000Y-122380000D03*
X133110000Y-124920000D03*
X133110000Y-127460000D03*
X133110000Y-130000000D03*
D11*
X115100000Y-101000000D03*
X115100000Y-103540000D03*
X115100000Y-106080000D03*
X115100000Y-108620000D03*
X115100000Y-111160000D03*
D12*
X115100000Y-113700000D03*
D14*
X160200000Y-127700000D03*
D15*
X160200000Y-132700000D03*
D11*
X142160000Y-150250000D03*
X144700000Y-150250000D03*
X147240000Y-150250000D03*
X149780000Y-150250000D03*
X152320000Y-150250000D03*
D12*
X154860000Y-150250000D03*
D11*
X159320000Y-150250000D03*
X161860000Y-150250000D03*
X164400000Y-150250000D03*
X166940000Y-150250000D03*
X169480000Y-150250000D03*
D12*
X172020000Y-150250000D03*
D11*
X107580000Y-150150000D03*
X110120000Y-150150000D03*
X112660000Y-150150000D03*
X115200000Y-150150000D03*
X117740000Y-150150000D03*
D12*
X120280000Y-150150000D03*
D11*
X124780000Y-150250000D03*
X127320000Y-150250000D03*
X129860000Y-150250000D03*
X132400000Y-150250000D03*
X134940000Y-150250000D03*
D12*
X137480000Y-150250000D03*
D11*
X129920000Y-108000000D03*
X127380000Y-108000000D03*
X124840000Y-108000000D03*
D12*
X122300000Y-108000000D03*
D11*
X142870000Y-108050000D03*
X140330000Y-108050000D03*
X137790000Y-108050000D03*
D12*
X135250000Y-108050000D03*
D11*
X157099000Y-113030000D03*
X157099000Y-115570000D03*
D12*
X157099000Y-118110000D03*
D11*
X166370000Y-113030000D03*
X166370000Y-115570000D03*
D12*
X166370000Y-118110000D03*
D16*
X167600000Y-127700000D03*
D17*
X167600000Y-132700000D03*
D18*
X177600000Y-124700000D03*
X177600000Y-135700000D03*
D11*
X100520000Y-118500000D03*
X103060000Y-118500000D03*
D12*
X105600000Y-118500000D03*
D19*
X157800000Y-143500000D03*
X155400000Y-145800000D03*
X107800000Y-126000000D03*
X145542000Y-134112000D03*
X152908000Y-134112000D03*
X164846000Y-123190000D03*
X110998000Y-132334000D03*
X119126000Y-111506000D03*
X119126000Y-102108000D03*
X139700000Y-101346000D03*
X126746000Y-101092000D03*
X112067501Y-124767501D03*
X100584000Y-144272000D03*
X100838000Y-149606000D03*
X100838000Y-154178000D03*
X105664000Y-159766000D03*
X114300000Y-159512000D03*
X131572000Y-159766000D03*
X148844000Y-159512000D03*
X166370000Y-159512000D03*
X178816000Y-151892000D03*
X139954000Y-155702000D03*
X122936000Y-155448000D03*
X157226000Y-151892000D03*
X168148000Y-143256000D03*
X177546000Y-129794000D03*
X108458000Y-108966000D03*
X103378000Y-105664000D03*
X108712000Y-102108000D03*
X100330000Y-132080000D03*
X108712000Y-141478000D03*
X123190000Y-130048000D03*
X141986000Y-124206000D03*
X151638000Y-101473000D03*
X161036000Y-101346000D03*
X170815000Y-101473000D03*
X172200000Y-141100000D03*
X111600000Y-117200000D03*
X172100000Y-142700000D03*
X141732000Y-111760000D03*
X136700000Y-109500000D03*
X125600000Y-111400000D03*
X123900000Y-143300000D03*
X122225000Y-142200000D03*
X106000000Y-141500000D03*
X158600000Y-155025000D03*
X161100000Y-153575000D03*
X143400000Y-139600000D03*
X144399000Y-112395000D03*
X129540000Y-123952000D03*
X156210000Y-110617000D03*
X170700000Y-139900000D03*
X172300000Y-124500000D03*
X173200000Y-125800000D03*
X174100000Y-126700000D03*
D20*
X128744999Y-106824999D02*
X129070001Y-107150001D01*
X129070001Y-107150001D02*
X129920000Y-108000000D01*
X119435001Y-106824999D02*
X128744999Y-106824999D01*
X115100000Y-111160000D02*
X119435001Y-106824999D01*
X141694999Y-106874999D02*
X142020001Y-107200001D01*
X142020001Y-107200001D02*
X142870000Y-108050000D01*
X132247082Y-106874999D02*
X141694999Y-106874999D01*
X131122081Y-108000000D02*
X132247082Y-106874999D01*
X129920000Y-108000000D02*
X131122081Y-108000000D01*
X140740000Y-129990000D02*
X148360000Y-122370000D01*
X137670000Y-129990000D02*
X140740000Y-129990000D01*
X157800000Y-143500000D02*
X155500000Y-145800000D01*
X155500000Y-145800000D02*
X155400000Y-145800000D01*
X106250000Y-126000000D02*
X102630000Y-122380000D01*
X107800000Y-126000000D02*
X106250000Y-126000000D01*
D21*
X103060000Y-117297919D02*
X103457919Y-116900000D01*
X103060000Y-118500000D02*
X103060000Y-117297919D01*
X103457919Y-116900000D02*
X109200000Y-116900000D01*
X109200000Y-116900000D02*
X112650001Y-120350001D01*
X109200000Y-114520000D02*
X109200000Y-116900000D01*
X115100000Y-108620000D02*
X109200000Y-114520000D01*
X135550001Y-120350001D02*
X135500001Y-120350001D01*
X135500001Y-120350001D02*
X128890000Y-113740000D01*
X112650001Y-120350001D02*
X135550001Y-120350001D01*
X111410000Y-145810000D02*
X111410000Y-143190000D01*
X111410000Y-143190000D02*
X113500000Y-141100000D01*
X155800000Y-141100000D02*
X158400000Y-141100000D01*
X155800000Y-141100000D02*
X172200000Y-141100000D01*
X158400000Y-141100000D02*
X163160000Y-145860000D01*
X138100000Y-141100000D02*
X141170000Y-141100000D01*
X141170000Y-141100000D02*
X145960000Y-145890000D01*
X138100000Y-141100000D02*
X155800000Y-141100000D01*
X122800000Y-141100000D02*
X123770000Y-141100000D01*
X123770000Y-141100000D02*
X128560000Y-145890000D01*
X122800000Y-141100000D02*
X138100000Y-141100000D01*
X113500000Y-141100000D02*
X122800000Y-141100000D01*
X113500000Y-141100000D02*
X111879998Y-141100000D01*
X111879998Y-141100000D02*
X108960001Y-138180003D01*
X108960001Y-137019999D02*
X108960001Y-138180003D01*
X100090000Y-128149998D02*
X108960001Y-137019999D01*
X100090000Y-122380000D02*
X100090000Y-128149998D01*
X141790000Y-113700000D02*
X141790000Y-117671000D01*
X139110999Y-120350001D02*
X135500001Y-120350001D01*
X141790000Y-117671000D02*
X139110999Y-120350001D01*
X157779999Y-120350001D02*
X162560000Y-115570000D01*
X139110999Y-120350001D02*
X157779999Y-120350001D01*
X162560000Y-115570000D02*
X166370000Y-115570000D01*
X166370000Y-115570000D02*
X170180000Y-115570000D01*
X174223680Y-111526320D02*
X177789840Y-111526320D01*
X170180000Y-115570000D02*
X174223680Y-111526320D01*
X120350000Y-117200000D02*
X123810000Y-113740000D01*
X111600000Y-117200000D02*
X120350000Y-117200000D01*
X135948001Y-112938001D02*
X136710000Y-113700000D01*
X125022001Y-112527999D02*
X135537999Y-112527999D01*
X135537999Y-112527999D02*
X135948001Y-112938001D01*
X123810000Y-113740000D02*
X125022001Y-112527999D01*
X166500000Y-147600000D02*
X168240000Y-145860000D01*
X117567630Y-145810000D02*
X117577630Y-145800000D01*
X116490000Y-145810000D02*
X117567630Y-145810000D01*
X117577630Y-145800000D02*
X123700000Y-145800000D01*
X123700000Y-145800000D02*
X125500000Y-147600000D01*
X168240000Y-145860000D02*
X171400000Y-142700000D01*
X171400000Y-142700000D02*
X172100000Y-142700000D01*
X152750000Y-147600000D02*
X151040000Y-145890000D01*
X166500000Y-147600000D02*
X152750000Y-147600000D01*
X135350000Y-147600000D02*
X133640000Y-145890000D01*
X136200000Y-147600000D02*
X166500000Y-147600000D01*
X136200000Y-147600000D02*
X135350000Y-147600000D01*
X125500000Y-147600000D02*
X136200000Y-147600000D01*
X145542000Y-115570000D02*
X149479000Y-115570000D01*
X141732000Y-111760000D02*
X145542000Y-115570000D01*
X149479000Y-115570000D02*
X153289000Y-115570000D01*
X153289000Y-115570000D02*
X157099000Y-115570000D01*
X176439840Y-106446320D02*
X172309800Y-110576360D01*
X177789840Y-106446320D02*
X176439840Y-106446320D01*
X162092640Y-110576360D02*
X157099000Y-115570000D01*
X172309800Y-110576360D02*
X162092640Y-110576360D01*
D20*
X138880000Y-109500000D02*
X140330000Y-108050000D01*
X136700000Y-109500000D02*
X138880000Y-109500000D01*
X139250000Y-113700000D02*
X137650000Y-112100000D01*
X137650000Y-112100000D02*
X136700000Y-112100000D01*
X135250000Y-110650000D02*
X135250000Y-108050000D01*
X136700000Y-112100000D02*
X135250000Y-110650000D01*
X122300000Y-109100000D02*
X122300000Y-108000000D01*
X124600000Y-111400000D02*
X122300000Y-109100000D01*
X125600000Y-111400000D02*
X124600000Y-111400000D01*
X122800000Y-142200000D02*
X123900000Y-143300000D01*
X122225000Y-142200000D02*
X122800000Y-142200000D01*
X105410000Y-140400000D02*
X102630000Y-137620000D01*
X105410000Y-140400000D02*
X105410000Y-140410000D01*
X105410000Y-140410000D02*
X106000000Y-141000000D01*
X106000000Y-141000000D02*
X106000000Y-141500000D01*
X153495001Y-149074999D02*
X153169999Y-149400001D01*
X168304999Y-149074999D02*
X153495001Y-149074999D01*
X153169999Y-149400001D02*
X152320000Y-150250000D01*
X169480000Y-150250000D02*
X168304999Y-149074999D01*
X166940000Y-150250000D02*
X162890000Y-154300000D01*
X153830000Y-154300000D02*
X149780000Y-150250000D01*
X162890000Y-154300000D02*
X153830000Y-154300000D01*
X147240000Y-150250000D02*
X152015000Y-155025000D01*
X152015000Y-155025000D02*
X158600000Y-155025000D01*
X164400000Y-150275000D02*
X164400000Y-150250000D01*
X161100000Y-153575000D02*
X164400000Y-150275000D01*
X125490000Y-137620000D02*
X127470000Y-139600000D01*
X127470000Y-139600000D02*
X143400000Y-139600000D01*
X144399000Y-112395000D02*
X147066000Y-109728000D01*
X158242000Y-108796000D02*
X158242000Y-107696000D01*
X157310000Y-109728000D02*
X158242000Y-108796000D01*
X147066000Y-109728000D02*
X157310000Y-109728000D01*
X129093001Y-123505001D02*
X129540000Y-123952000D01*
X110250000Y-122380000D02*
X111375001Y-123505001D01*
X111375001Y-123505001D02*
X129093001Y-123505001D01*
X157057410Y-110617000D02*
X158073410Y-109601000D01*
X156210000Y-110617000D02*
X157057410Y-110617000D01*
X167894000Y-108796000D02*
X167894000Y-107696000D01*
X167089000Y-109601000D02*
X167894000Y-108796000D01*
X158073410Y-109601000D02*
X167089000Y-109601000D01*
X112955001Y-140325001D02*
X111049999Y-138419999D01*
X167086237Y-140325001D02*
X112955001Y-140325001D01*
X111049999Y-138419999D02*
X110250000Y-137620000D01*
X167511238Y-139900000D02*
X167086237Y-140325001D01*
X170700000Y-139900000D02*
X167511238Y-139900000D01*
X133650001Y-131414999D02*
X117863631Y-131414999D01*
X135852003Y-133617001D02*
X133650001Y-131414999D01*
X112790000Y-136488630D02*
X112790000Y-137620000D01*
X140265001Y-136365001D02*
X140265001Y-135465001D01*
X140265001Y-135465001D02*
X138417001Y-133617001D01*
X141600000Y-137700000D02*
X140265001Y-136365001D01*
X117863631Y-131414999D02*
X112790000Y-136488630D01*
X170500000Y-137700000D02*
X141600000Y-137700000D01*
X172300000Y-135900000D02*
X170500000Y-137700000D01*
X138417001Y-133617001D02*
X135852003Y-133617001D01*
X172300000Y-124500000D02*
X172300000Y-135900000D01*
X173200000Y-136000000D02*
X173200000Y-125800000D01*
X171000000Y-138200000D02*
X173200000Y-136000000D01*
X115330000Y-137620000D02*
X115330000Y-136170000D01*
X115330000Y-136170000D02*
X117834999Y-133665001D01*
X138300000Y-138200000D02*
X171000000Y-138200000D01*
X117834999Y-133665001D02*
X133765001Y-133665001D01*
X133765001Y-133665001D02*
X138300000Y-138200000D01*
X119284999Y-136205001D02*
X135205001Y-136205001D01*
X117870000Y-137620000D02*
X119284999Y-136205001D01*
X137874999Y-138874999D02*
X171025001Y-138874999D01*
X135205001Y-136205001D02*
X137874999Y-138874999D01*
X171025001Y-138874999D02*
X174100000Y-135800000D01*
X174100000Y-135800000D02*
X174100000Y-126700000D01*
D21*
X105600000Y-119850000D02*
X105600000Y-118500000D01*
X106459999Y-120709999D02*
X105600000Y-119850000D01*
X106459999Y-122980001D02*
X106459999Y-120709999D01*
X112229997Y-128749999D02*
X106459999Y-122980001D01*
X133889999Y-128749999D02*
X112229997Y-128749999D01*
X137670000Y-132530000D02*
X133889999Y-128749999D01*
D22*
G36*
X180648126Y-96726714D02*
G01*
X181271572Y-96914943D01*
X181846579Y-97220681D01*
X182351247Y-97632279D01*
X182766362Y-98134067D01*
X183076105Y-98706924D01*
X183268682Y-99329039D01*
X183340001Y-100007594D01*
X183340000Y-159967721D01*
X183273286Y-160648126D01*
X183085057Y-161271570D01*
X182779323Y-161846573D01*
X182367721Y-162351248D01*
X181865933Y-162766362D01*
X181293077Y-163076104D01*
X180670961Y-163268682D01*
X179992417Y-163340000D01*
X100032279Y-163340000D01*
X99351874Y-163273286D01*
X98728430Y-163085057D01*
X98153427Y-162779323D01*
X97648752Y-162367721D01*
X97233638Y-161865933D01*
X96923896Y-161293077D01*
X96731318Y-160670961D01*
X96660000Y-159992417D01*
X96660000Y-159779872D01*
X97765000Y-159779872D01*
X97765000Y-160220128D01*
X97850890Y-160651925D01*
X98019369Y-161058669D01*
X98263962Y-161424729D01*
X98575271Y-161736038D01*
X98941331Y-161980631D01*
X99348075Y-162149110D01*
X99779872Y-162235000D01*
X100220128Y-162235000D01*
X100651925Y-162149110D01*
X101058669Y-161980631D01*
X101424729Y-161736038D01*
X101736038Y-161424729D01*
X101980631Y-161058669D01*
X102149110Y-160651925D01*
X102235000Y-160220128D01*
X102235000Y-159779872D01*
X177765000Y-159779872D01*
X177765000Y-160220128D01*
X177850890Y-160651925D01*
X178019369Y-161058669D01*
X178263962Y-161424729D01*
X178575271Y-161736038D01*
X178941331Y-161980631D01*
X179348075Y-162149110D01*
X179779872Y-162235000D01*
X180220128Y-162235000D01*
X180651925Y-162149110D01*
X181058669Y-161980631D01*
X181424729Y-161736038D01*
X181736038Y-161424729D01*
X181980631Y-161058669D01*
X182149110Y-160651925D01*
X182235000Y-160220128D01*
X182235000Y-159779872D01*
X182149110Y-159348075D01*
X181980631Y-158941331D01*
X181736038Y-158575271D01*
X181424729Y-158263962D01*
X181058669Y-158019369D01*
X180651925Y-157850890D01*
X180220128Y-157765000D01*
X179779872Y-157765000D01*
X179348075Y-157850890D01*
X178941331Y-158019369D01*
X178575271Y-158263962D01*
X178263962Y-158575271D01*
X178019369Y-158941331D01*
X177850890Y-159348075D01*
X177765000Y-159779872D01*
X102235000Y-159779872D01*
X102149110Y-159348075D01*
X101980631Y-158941331D01*
X101736038Y-158575271D01*
X101424729Y-158263962D01*
X101058669Y-158019369D01*
X100651925Y-157850890D01*
X100220128Y-157765000D01*
X99779872Y-157765000D01*
X99348075Y-157850890D01*
X98941331Y-158019369D01*
X98575271Y-158263962D01*
X98263962Y-158575271D01*
X98019369Y-158941331D01*
X97850890Y-159348075D01*
X97765000Y-159779872D01*
X96660000Y-159779872D01*
X96660000Y-150506891D01*
X106138519Y-150506891D01*
X106235843Y-150781252D01*
X106384822Y-151031355D01*
X106579731Y-151247588D01*
X106813080Y-151421641D01*
X107075901Y-151546825D01*
X107223110Y-151591476D01*
X107453000Y-151470155D01*
X107453000Y-150277000D01*
X106259186Y-150277000D01*
X106138519Y-150506891D01*
X96660000Y-150506891D01*
X96660000Y-149793109D01*
X106138519Y-149793109D01*
X106259186Y-150023000D01*
X107453000Y-150023000D01*
X107453000Y-148829845D01*
X107707000Y-148829845D01*
X107707000Y-150023000D01*
X107727000Y-150023000D01*
X107727000Y-150277000D01*
X107707000Y-150277000D01*
X107707000Y-151470155D01*
X107936890Y-151591476D01*
X108084099Y-151546825D01*
X108346920Y-151421641D01*
X108580269Y-151247588D01*
X108775178Y-151031355D01*
X108844805Y-150914466D01*
X108966525Y-151096632D01*
X109173368Y-151303475D01*
X109416589Y-151465990D01*
X109686842Y-151577932D01*
X109973740Y-151635000D01*
X110266260Y-151635000D01*
X110553158Y-151577932D01*
X110823411Y-151465990D01*
X111066632Y-151303475D01*
X111273475Y-151096632D01*
X111390000Y-150922240D01*
X111506525Y-151096632D01*
X111713368Y-151303475D01*
X111956589Y-151465990D01*
X112226842Y-151577932D01*
X112513740Y-151635000D01*
X112806260Y-151635000D01*
X113093158Y-151577932D01*
X113363411Y-151465990D01*
X113606632Y-151303475D01*
X113813475Y-151096632D01*
X113930000Y-150922240D01*
X114046525Y-151096632D01*
X114253368Y-151303475D01*
X114496589Y-151465990D01*
X114766842Y-151577932D01*
X115053740Y-151635000D01*
X115346260Y-151635000D01*
X115633158Y-151577932D01*
X115903411Y-151465990D01*
X116146632Y-151303475D01*
X116353475Y-151096632D01*
X116470000Y-150922240D01*
X116586525Y-151096632D01*
X116793368Y-151303475D01*
X117036589Y-151465990D01*
X117306842Y-151577932D01*
X117593740Y-151635000D01*
X117886260Y-151635000D01*
X118173158Y-151577932D01*
X118443411Y-151465990D01*
X118686632Y-151303475D01*
X118818487Y-151171620D01*
X118840498Y-151244180D01*
X118899463Y-151354494D01*
X118978815Y-151451185D01*
X119075506Y-151530537D01*
X119185820Y-151589502D01*
X119305518Y-151625812D01*
X119430000Y-151638072D01*
X121130000Y-151638072D01*
X121254482Y-151625812D01*
X121374180Y-151589502D01*
X121484494Y-151530537D01*
X121581185Y-151451185D01*
X121660537Y-151354494D01*
X121719502Y-151244180D01*
X121755812Y-151124482D01*
X121768072Y-151000000D01*
X121768072Y-150606891D01*
X123338519Y-150606891D01*
X123435843Y-150881252D01*
X123584822Y-151131355D01*
X123779731Y-151347588D01*
X124013080Y-151521641D01*
X124275901Y-151646825D01*
X124423110Y-151691476D01*
X124653000Y-151570155D01*
X124653000Y-150377000D01*
X123459186Y-150377000D01*
X123338519Y-150606891D01*
X121768072Y-150606891D01*
X121768072Y-149893109D01*
X123338519Y-149893109D01*
X123459186Y-150123000D01*
X124653000Y-150123000D01*
X124653000Y-148929845D01*
X124907000Y-148929845D01*
X124907000Y-150123000D01*
X124927000Y-150123000D01*
X124927000Y-150377000D01*
X124907000Y-150377000D01*
X124907000Y-151570155D01*
X125136890Y-151691476D01*
X125284099Y-151646825D01*
X125546920Y-151521641D01*
X125780269Y-151347588D01*
X125975178Y-151131355D01*
X126044805Y-151014466D01*
X126166525Y-151196632D01*
X126373368Y-151403475D01*
X126616589Y-151565990D01*
X126886842Y-151677932D01*
X127173740Y-151735000D01*
X127466260Y-151735000D01*
X127753158Y-151677932D01*
X128023411Y-151565990D01*
X128266632Y-151403475D01*
X128473475Y-151196632D01*
X128590000Y-151022240D01*
X128706525Y-151196632D01*
X128913368Y-151403475D01*
X129156589Y-151565990D01*
X129426842Y-151677932D01*
X129713740Y-151735000D01*
X130006260Y-151735000D01*
X130293158Y-151677932D01*
X130563411Y-151565990D01*
X130806632Y-151403475D01*
X131013475Y-151196632D01*
X131130000Y-151022240D01*
X131246525Y-151196632D01*
X131453368Y-151403475D01*
X131696589Y-151565990D01*
X131966842Y-151677932D01*
X132253740Y-151735000D01*
X132546260Y-151735000D01*
X132833158Y-151677932D01*
X133103411Y-151565990D01*
X133346632Y-151403475D01*
X133553475Y-151196632D01*
X133670000Y-151022240D01*
X133786525Y-151196632D01*
X133993368Y-151403475D01*
X134236589Y-151565990D01*
X134506842Y-151677932D01*
X134793740Y-151735000D01*
X135086260Y-151735000D01*
X135373158Y-151677932D01*
X135643411Y-151565990D01*
X135886632Y-151403475D01*
X136018487Y-151271620D01*
X136040498Y-151344180D01*
X136099463Y-151454494D01*
X136178815Y-151551185D01*
X136275506Y-151630537D01*
X136385820Y-151689502D01*
X136505518Y-151725812D01*
X136630000Y-151738072D01*
X138330000Y-151738072D01*
X138454482Y-151725812D01*
X138574180Y-151689502D01*
X138684494Y-151630537D01*
X138781185Y-151551185D01*
X138860537Y-151454494D01*
X138919502Y-151344180D01*
X138955812Y-151224482D01*
X138968072Y-151100000D01*
X138968072Y-150606891D01*
X140718519Y-150606891D01*
X140815843Y-150881252D01*
X140964822Y-151131355D01*
X141159731Y-151347588D01*
X141393080Y-151521641D01*
X141655901Y-151646825D01*
X141803110Y-151691476D01*
X142033000Y-151570155D01*
X142033000Y-150377000D01*
X140839186Y-150377000D01*
X140718519Y-150606891D01*
X138968072Y-150606891D01*
X138968072Y-149893109D01*
X140718519Y-149893109D01*
X140839186Y-150123000D01*
X142033000Y-150123000D01*
X142033000Y-148929845D01*
X141803110Y-148808524D01*
X141655901Y-148853175D01*
X141393080Y-148978359D01*
X141159731Y-149152412D01*
X140964822Y-149368645D01*
X140815843Y-149618748D01*
X140718519Y-149893109D01*
X138968072Y-149893109D01*
X138968072Y-149400000D01*
X138955812Y-149275518D01*
X138919502Y-149155820D01*
X138860537Y-149045506D01*
X138781185Y-148948815D01*
X138684494Y-148869463D01*
X138574180Y-148810498D01*
X138454482Y-148774188D01*
X138330000Y-148761928D01*
X136630000Y-148761928D01*
X136505518Y-148774188D01*
X136385820Y-148810498D01*
X136275506Y-148869463D01*
X136178815Y-148948815D01*
X136099463Y-149045506D01*
X136040498Y-149155820D01*
X136018487Y-149228380D01*
X135886632Y-149096525D01*
X135643411Y-148934010D01*
X135373158Y-148822068D01*
X135086260Y-148765000D01*
X134793740Y-148765000D01*
X134506842Y-148822068D01*
X134236589Y-148934010D01*
X133993368Y-149096525D01*
X133786525Y-149303368D01*
X133670000Y-149477760D01*
X133553475Y-149303368D01*
X133346632Y-149096525D01*
X133103411Y-148934010D01*
X132833158Y-148822068D01*
X132546260Y-148765000D01*
X132253740Y-148765000D01*
X131966842Y-148822068D01*
X131696589Y-148934010D01*
X131453368Y-149096525D01*
X131246525Y-149303368D01*
X131130000Y-149477760D01*
X131013475Y-149303368D01*
X130806632Y-149096525D01*
X130563411Y-148934010D01*
X130293158Y-148822068D01*
X130006260Y-148765000D01*
X129713740Y-148765000D01*
X129426842Y-148822068D01*
X129156589Y-148934010D01*
X128913368Y-149096525D01*
X128706525Y-149303368D01*
X128590000Y-149477760D01*
X128473475Y-149303368D01*
X128266632Y-149096525D01*
X128023411Y-148934010D01*
X127753158Y-148822068D01*
X127466260Y-148765000D01*
X127173740Y-148765000D01*
X126886842Y-148822068D01*
X126616589Y-148934010D01*
X126373368Y-149096525D01*
X126166525Y-149303368D01*
X126044805Y-149485534D01*
X125975178Y-149368645D01*
X125780269Y-149152412D01*
X125546920Y-148978359D01*
X125284099Y-148853175D01*
X125136890Y-148808524D01*
X124907000Y-148929845D01*
X124653000Y-148929845D01*
X124423110Y-148808524D01*
X124275901Y-148853175D01*
X124013080Y-148978359D01*
X123779731Y-149152412D01*
X123584822Y-149368645D01*
X123435843Y-149618748D01*
X123338519Y-149893109D01*
X121768072Y-149893109D01*
X121768072Y-149300000D01*
X121755812Y-149175518D01*
X121719502Y-149055820D01*
X121660537Y-148945506D01*
X121581185Y-148848815D01*
X121484494Y-148769463D01*
X121374180Y-148710498D01*
X121254482Y-148674188D01*
X121130000Y-148661928D01*
X119430000Y-148661928D01*
X119305518Y-148674188D01*
X119185820Y-148710498D01*
X119075506Y-148769463D01*
X118978815Y-148848815D01*
X118899463Y-148945506D01*
X118840498Y-149055820D01*
X118818487Y-149128380D01*
X118686632Y-148996525D01*
X118443411Y-148834010D01*
X118173158Y-148722068D01*
X117886260Y-148665000D01*
X117593740Y-148665000D01*
X117306842Y-148722068D01*
X117036589Y-148834010D01*
X116793368Y-148996525D01*
X116586525Y-149203368D01*
X116470000Y-149377760D01*
X116353475Y-149203368D01*
X116146632Y-148996525D01*
X115903411Y-148834010D01*
X115633158Y-148722068D01*
X115346260Y-148665000D01*
X115053740Y-148665000D01*
X114766842Y-148722068D01*
X114496589Y-148834010D01*
X114253368Y-148996525D01*
X114046525Y-149203368D01*
X113930000Y-149377760D01*
X113813475Y-149203368D01*
X113606632Y-148996525D01*
X113363411Y-148834010D01*
X113093158Y-148722068D01*
X112806260Y-148665000D01*
X112513740Y-148665000D01*
X112226842Y-148722068D01*
X111956589Y-148834010D01*
X111713368Y-148996525D01*
X111506525Y-149203368D01*
X111390000Y-149377760D01*
X111273475Y-149203368D01*
X111066632Y-148996525D01*
X110823411Y-148834010D01*
X110553158Y-148722068D01*
X110266260Y-148665000D01*
X109973740Y-148665000D01*
X109686842Y-148722068D01*
X109416589Y-148834010D01*
X109173368Y-148996525D01*
X108966525Y-149203368D01*
X108844805Y-149385534D01*
X108775178Y-149268645D01*
X108580269Y-149052412D01*
X108346920Y-148878359D01*
X108084099Y-148753175D01*
X107936890Y-148708524D01*
X107707000Y-148829845D01*
X107453000Y-148829845D01*
X107223110Y-148708524D01*
X107075901Y-148753175D01*
X106813080Y-148878359D01*
X106579731Y-149052412D01*
X106384822Y-149268645D01*
X106235843Y-149518748D01*
X106138519Y-149793109D01*
X96660000Y-149793109D01*
X96660000Y-122238665D01*
X98655000Y-122238665D01*
X98655000Y-122521335D01*
X98710147Y-122798574D01*
X98818320Y-123059727D01*
X98975363Y-123294759D01*
X99175241Y-123494637D01*
X99205000Y-123514521D01*
X99205001Y-128106519D01*
X99200719Y-128149998D01*
X99217805Y-128323488D01*
X99268412Y-128490311D01*
X99350590Y-128644057D01*
X99433468Y-128745044D01*
X99433471Y-128745047D01*
X99461184Y-128778815D01*
X99494952Y-128806528D01*
X107034848Y-136346425D01*
X107030273Y-136348320D01*
X106795241Y-136505363D01*
X106595363Y-136705241D01*
X106440000Y-136937759D01*
X106284637Y-136705241D01*
X106084759Y-136505363D01*
X105849727Y-136348320D01*
X105588574Y-136240147D01*
X105311335Y-136185000D01*
X105028665Y-136185000D01*
X104751426Y-136240147D01*
X104490273Y-136348320D01*
X104255241Y-136505363D01*
X104055363Y-136705241D01*
X103900000Y-136937759D01*
X103744637Y-136705241D01*
X103544759Y-136505363D01*
X103309727Y-136348320D01*
X103048574Y-136240147D01*
X102771335Y-136185000D01*
X102488665Y-136185000D01*
X102211426Y-136240147D01*
X101950273Y-136348320D01*
X101715241Y-136505363D01*
X101515363Y-136705241D01*
X101360000Y-136937759D01*
X101204637Y-136705241D01*
X101004759Y-136505363D01*
X100769727Y-136348320D01*
X100508574Y-136240147D01*
X100231335Y-136185000D01*
X99948665Y-136185000D01*
X99671426Y-136240147D01*
X99410273Y-136348320D01*
X99175241Y-136505363D01*
X98975363Y-136705241D01*
X98818320Y-136940273D01*
X98710147Y-137201426D01*
X98655000Y-137478665D01*
X98655000Y-137761335D01*
X98710147Y-138038574D01*
X98818320Y-138299727D01*
X98975363Y-138534759D01*
X99175241Y-138734637D01*
X99410273Y-138891680D01*
X99671426Y-138999853D01*
X99948665Y-139055000D01*
X100231335Y-139055000D01*
X100508574Y-138999853D01*
X100769727Y-138891680D01*
X101004759Y-138734637D01*
X101204637Y-138534759D01*
X101360000Y-138302241D01*
X101515363Y-138534759D01*
X101715241Y-138734637D01*
X101950273Y-138891680D01*
X102211426Y-138999853D01*
X102488665Y-139055000D01*
X102771335Y-139055000D01*
X102953886Y-139018688D01*
X104800435Y-140865237D01*
X104869999Y-140950001D01*
X104899001Y-140973802D01*
X105039490Y-141114291D01*
X105004774Y-141198102D01*
X104965000Y-141398061D01*
X104965000Y-141601939D01*
X105004774Y-141801898D01*
X105082795Y-141990256D01*
X105196063Y-142159774D01*
X105340226Y-142303937D01*
X105509744Y-142417205D01*
X105698102Y-142495226D01*
X105898061Y-142535000D01*
X106101939Y-142535000D01*
X106301898Y-142495226D01*
X106490256Y-142417205D01*
X106659774Y-142303937D01*
X106803937Y-142159774D01*
X106917205Y-141990256D01*
X106995226Y-141801898D01*
X107035000Y-141601939D01*
X107035000Y-141398061D01*
X106995226Y-141198102D01*
X106917205Y-141009744D01*
X106803937Y-140840226D01*
X106720386Y-140756675D01*
X106705546Y-140707753D01*
X106702602Y-140702246D01*
X106634974Y-140575723D01*
X106563799Y-140488997D01*
X106540001Y-140459999D01*
X106511004Y-140436202D01*
X106019569Y-139944768D01*
X105950001Y-139859999D01*
X105921004Y-139836202D01*
X105139802Y-139055000D01*
X105311335Y-139055000D01*
X105588574Y-138999853D01*
X105849727Y-138891680D01*
X106084759Y-138734637D01*
X106284637Y-138534759D01*
X106440000Y-138302241D01*
X106595363Y-138534759D01*
X106795241Y-138734637D01*
X107030273Y-138891680D01*
X107291426Y-138999853D01*
X107568665Y-139055000D01*
X107851335Y-139055000D01*
X108128574Y-138999853D01*
X108389727Y-138891680D01*
X108407934Y-138879514D01*
X111223466Y-141695047D01*
X111251181Y-141728817D01*
X111284949Y-141756530D01*
X111284951Y-141756532D01*
X111316953Y-141782795D01*
X111385939Y-141839411D01*
X111466142Y-141882280D01*
X110814951Y-142533471D01*
X110781184Y-142561183D01*
X110753471Y-142594951D01*
X110753468Y-142594954D01*
X110670590Y-142695941D01*
X110588412Y-142849687D01*
X110537805Y-143016510D01*
X110520719Y-143190000D01*
X110525001Y-143233479D01*
X110525000Y-144721181D01*
X110519465Y-144724880D01*
X110324880Y-144919465D01*
X110171995Y-145148273D01*
X110066686Y-145402510D01*
X110013000Y-145672408D01*
X110013000Y-145947592D01*
X110066686Y-146217490D01*
X110171995Y-146471727D01*
X110324880Y-146700535D01*
X110519465Y-146895120D01*
X110748273Y-147048005D01*
X111002510Y-147153314D01*
X111272408Y-147207000D01*
X111547592Y-147207000D01*
X111817490Y-147153314D01*
X112071727Y-147048005D01*
X112300535Y-146895120D01*
X112495120Y-146700535D01*
X112648005Y-146471727D01*
X112680000Y-146394485D01*
X112711995Y-146471727D01*
X112864880Y-146700535D01*
X113059465Y-146895120D01*
X113288273Y-147048005D01*
X113542510Y-147153314D01*
X113812408Y-147207000D01*
X114087592Y-147207000D01*
X114357490Y-147153314D01*
X114611727Y-147048005D01*
X114840535Y-146895120D01*
X115035120Y-146700535D01*
X115188005Y-146471727D01*
X115220000Y-146394485D01*
X115251995Y-146471727D01*
X115404880Y-146700535D01*
X115599465Y-146895120D01*
X115828273Y-147048005D01*
X116082510Y-147153314D01*
X116352408Y-147207000D01*
X116627592Y-147207000D01*
X116897490Y-147153314D01*
X117151727Y-147048005D01*
X117380535Y-146895120D01*
X117575120Y-146700535D01*
X117576545Y-146698403D01*
X117611099Y-146695000D01*
X117611107Y-146695000D01*
X117712640Y-146685000D01*
X123333422Y-146685000D01*
X124843470Y-148195049D01*
X124871183Y-148228817D01*
X124904951Y-148256530D01*
X124904953Y-148256532D01*
X124971716Y-148311323D01*
X125005941Y-148339411D01*
X125159687Y-148421589D01*
X125326510Y-148472195D01*
X125456523Y-148485000D01*
X125456533Y-148485000D01*
X125499999Y-148489281D01*
X125543465Y-148485000D01*
X135306533Y-148485000D01*
X135349999Y-148489281D01*
X135393465Y-148485000D01*
X152706533Y-148485000D01*
X152749999Y-148489281D01*
X152793465Y-148485000D01*
X153015923Y-148485000D01*
X152955000Y-148534998D01*
X152931197Y-148564002D01*
X152686408Y-148808791D01*
X152466260Y-148765000D01*
X152173740Y-148765000D01*
X151886842Y-148822068D01*
X151616589Y-148934010D01*
X151373368Y-149096525D01*
X151166525Y-149303368D01*
X151050000Y-149477760D01*
X150933475Y-149303368D01*
X150726632Y-149096525D01*
X150483411Y-148934010D01*
X150213158Y-148822068D01*
X149926260Y-148765000D01*
X149633740Y-148765000D01*
X149346842Y-148822068D01*
X149076589Y-148934010D01*
X148833368Y-149096525D01*
X148626525Y-149303368D01*
X148510000Y-149477760D01*
X148393475Y-149303368D01*
X148186632Y-149096525D01*
X147943411Y-148934010D01*
X147673158Y-148822068D01*
X147386260Y-148765000D01*
X147093740Y-148765000D01*
X146806842Y-148822068D01*
X146536589Y-148934010D01*
X146293368Y-149096525D01*
X146086525Y-149303368D01*
X145970000Y-149477760D01*
X145853475Y-149303368D01*
X145646632Y-149096525D01*
X145403411Y-148934010D01*
X145133158Y-148822068D01*
X144846260Y-148765000D01*
X144553740Y-148765000D01*
X144266842Y-148822068D01*
X143996589Y-148934010D01*
X143753368Y-149096525D01*
X143546525Y-149303368D01*
X143424805Y-149485534D01*
X143355178Y-149368645D01*
X143160269Y-149152412D01*
X142926920Y-148978359D01*
X142664099Y-148853175D01*
X142516890Y-148808524D01*
X142287000Y-148929845D01*
X142287000Y-150123000D01*
X142307000Y-150123000D01*
X142307000Y-150377000D01*
X142287000Y-150377000D01*
X142287000Y-151570155D01*
X142516890Y-151691476D01*
X142664099Y-151646825D01*
X142926920Y-151521641D01*
X143160269Y-151347588D01*
X143355178Y-151131355D01*
X143424805Y-151014466D01*
X143546525Y-151196632D01*
X143753368Y-151403475D01*
X143996589Y-151565990D01*
X144266842Y-151677932D01*
X144553740Y-151735000D01*
X144846260Y-151735000D01*
X145133158Y-151677932D01*
X145403411Y-151565990D01*
X145646632Y-151403475D01*
X145853475Y-151196632D01*
X145970000Y-151022240D01*
X146086525Y-151196632D01*
X146293368Y-151403475D01*
X146536589Y-151565990D01*
X146806842Y-151677932D01*
X147093740Y-151735000D01*
X147386260Y-151735000D01*
X147606408Y-151691209D01*
X151451201Y-155536003D01*
X151474999Y-155565001D01*
X151590724Y-155659974D01*
X151722753Y-155730546D01*
X151866014Y-155774003D01*
X151977667Y-155785000D01*
X151977675Y-155785000D01*
X152015000Y-155788676D01*
X152052325Y-155785000D01*
X157896289Y-155785000D01*
X157940226Y-155828937D01*
X158109744Y-155942205D01*
X158298102Y-156020226D01*
X158498061Y-156060000D01*
X158701939Y-156060000D01*
X158901898Y-156020226D01*
X159090256Y-155942205D01*
X159259774Y-155828937D01*
X159403937Y-155684774D01*
X159517205Y-155515256D01*
X159595226Y-155326898D01*
X159635000Y-155126939D01*
X159635000Y-155060000D01*
X162852678Y-155060000D01*
X162890000Y-155063676D01*
X162927322Y-155060000D01*
X162927333Y-155060000D01*
X163038986Y-155049003D01*
X163182247Y-155005546D01*
X163314276Y-154934974D01*
X163430001Y-154840001D01*
X163453804Y-154810997D01*
X166573592Y-151691210D01*
X166793740Y-151735000D01*
X167086260Y-151735000D01*
X167373158Y-151677932D01*
X167643411Y-151565990D01*
X167886632Y-151403475D01*
X168093475Y-151196632D01*
X168210000Y-151022240D01*
X168326525Y-151196632D01*
X168533368Y-151403475D01*
X168776589Y-151565990D01*
X169046842Y-151677932D01*
X169333740Y-151735000D01*
X169626260Y-151735000D01*
X169913158Y-151677932D01*
X170183411Y-151565990D01*
X170426632Y-151403475D01*
X170558487Y-151271620D01*
X170580498Y-151344180D01*
X170639463Y-151454494D01*
X170718815Y-151551185D01*
X170815506Y-151630537D01*
X170925820Y-151689502D01*
X171045518Y-151725812D01*
X171170000Y-151738072D01*
X172870000Y-151738072D01*
X172994482Y-151725812D01*
X173114180Y-151689502D01*
X173224494Y-151630537D01*
X173321185Y-151551185D01*
X173400537Y-151454494D01*
X173459502Y-151344180D01*
X173495812Y-151224482D01*
X173508072Y-151100000D01*
X173508072Y-149400000D01*
X173495812Y-149275518D01*
X173459502Y-149155820D01*
X173400537Y-149045506D01*
X173321185Y-148948815D01*
X173224494Y-148869463D01*
X173114180Y-148810498D01*
X172994482Y-148774188D01*
X172870000Y-148761928D01*
X171170000Y-148761928D01*
X171045518Y-148774188D01*
X170925820Y-148810498D01*
X170815506Y-148869463D01*
X170718815Y-148948815D01*
X170639463Y-149045506D01*
X170580498Y-149155820D01*
X170558487Y-149228380D01*
X170426632Y-149096525D01*
X170183411Y-148934010D01*
X169913158Y-148822068D01*
X169626260Y-148765000D01*
X169333740Y-148765000D01*
X169113592Y-148808791D01*
X168868803Y-148564002D01*
X168845000Y-148534998D01*
X168729275Y-148440025D01*
X168597246Y-148369453D01*
X168453985Y-148325996D01*
X168342332Y-148314999D01*
X168342321Y-148314999D01*
X168304999Y-148311323D01*
X168267677Y-148314999D01*
X167023805Y-148314999D01*
X167128817Y-148228817D01*
X167156534Y-148195044D01*
X168095878Y-147255701D01*
X168102408Y-147257000D01*
X168377592Y-147257000D01*
X168647490Y-147203314D01*
X168901727Y-147098005D01*
X169130535Y-146945120D01*
X169325120Y-146750535D01*
X169478005Y-146521727D01*
X169583314Y-146267490D01*
X169637000Y-145997592D01*
X169637000Y-145722408D01*
X169635701Y-145715877D01*
X171697870Y-143653708D01*
X171798102Y-143695226D01*
X171998061Y-143735000D01*
X172201939Y-143735000D01*
X172401898Y-143695226D01*
X172590256Y-143617205D01*
X172759774Y-143503937D01*
X172903937Y-143359774D01*
X173017205Y-143190256D01*
X173095226Y-143001898D01*
X173135000Y-142801939D01*
X173135000Y-142598061D01*
X173095226Y-142398102D01*
X173017205Y-142209744D01*
X172903937Y-142040226D01*
X172804548Y-141940837D01*
X172859774Y-141903937D01*
X173003937Y-141759774D01*
X173117205Y-141590256D01*
X173195226Y-141401898D01*
X173235000Y-141201939D01*
X173235000Y-140998061D01*
X173195226Y-140798102D01*
X173117205Y-140609744D01*
X173003937Y-140440226D01*
X172859774Y-140296063D01*
X172690256Y-140182795D01*
X172501898Y-140104774D01*
X172301939Y-140065000D01*
X172098061Y-140065000D01*
X171898102Y-140104774D01*
X171709744Y-140182795D01*
X171697383Y-140191054D01*
X171735000Y-140001939D01*
X171735000Y-139798061D01*
X171695226Y-139598102D01*
X171617205Y-139409744D01*
X171596317Y-139378484D01*
X174611004Y-136363798D01*
X174640001Y-136340001D01*
X174734974Y-136224276D01*
X174805546Y-136092247D01*
X174849003Y-135948986D01*
X174860000Y-135837333D01*
X174860000Y-135837324D01*
X174863676Y-135800001D01*
X174860000Y-135762678D01*
X174860000Y-135568514D01*
X176265000Y-135568514D01*
X176265000Y-135831486D01*
X176316304Y-136089405D01*
X176416939Y-136332359D01*
X176563038Y-136551013D01*
X176748987Y-136736962D01*
X176967641Y-136883061D01*
X177210595Y-136983696D01*
X177468514Y-137035000D01*
X177731486Y-137035000D01*
X177989405Y-136983696D01*
X178232359Y-136883061D01*
X178451013Y-136736962D01*
X178636962Y-136551013D01*
X178783061Y-136332359D01*
X178883696Y-136089405D01*
X178935000Y-135831486D01*
X178935000Y-135568514D01*
X178883696Y-135310595D01*
X178783061Y-135067641D01*
X178636962Y-134848987D01*
X178451013Y-134663038D01*
X178232359Y-134516939D01*
X177989405Y-134416304D01*
X177731486Y-134365000D01*
X177468514Y-134365000D01*
X177210595Y-134416304D01*
X176967641Y-134516939D01*
X176748987Y-134663038D01*
X176563038Y-134848987D01*
X176416939Y-135067641D01*
X176316304Y-135310595D01*
X176265000Y-135568514D01*
X174860000Y-135568514D01*
X174860000Y-127403711D01*
X174903937Y-127359774D01*
X175017205Y-127190256D01*
X175095226Y-127001898D01*
X175135000Y-126801939D01*
X175135000Y-126598061D01*
X175095226Y-126398102D01*
X175017205Y-126209744D01*
X174903937Y-126040226D01*
X174759774Y-125896063D01*
X174590256Y-125782795D01*
X174401898Y-125704774D01*
X174229515Y-125670485D01*
X174195226Y-125498102D01*
X174117205Y-125309744D01*
X174003937Y-125140226D01*
X173859774Y-124996063D01*
X173690256Y-124882795D01*
X173501898Y-124804774D01*
X173302542Y-124765120D01*
X173335000Y-124601939D01*
X173335000Y-124568514D01*
X176265000Y-124568514D01*
X176265000Y-124831486D01*
X176316304Y-125089405D01*
X176416939Y-125332359D01*
X176563038Y-125551013D01*
X176748987Y-125736962D01*
X176967641Y-125883061D01*
X177210595Y-125983696D01*
X177468514Y-126035000D01*
X177731486Y-126035000D01*
X177989405Y-125983696D01*
X178232359Y-125883061D01*
X178451013Y-125736962D01*
X178636962Y-125551013D01*
X178783061Y-125332359D01*
X178883696Y-125089405D01*
X178935000Y-124831486D01*
X178935000Y-124568514D01*
X178883696Y-124310595D01*
X178783061Y-124067641D01*
X178636962Y-123848987D01*
X178451013Y-123663038D01*
X178232359Y-123516939D01*
X177989405Y-123416304D01*
X177731486Y-123365000D01*
X177468514Y-123365000D01*
X177210595Y-123416304D01*
X176967641Y-123516939D01*
X176748987Y-123663038D01*
X176563038Y-123848987D01*
X176416939Y-124067641D01*
X176316304Y-124310595D01*
X176265000Y-124568514D01*
X173335000Y-124568514D01*
X173335000Y-124398061D01*
X173295226Y-124198102D01*
X173217205Y-124009744D01*
X173103937Y-123840226D01*
X172959774Y-123696063D01*
X172790256Y-123582795D01*
X172601898Y-123504774D01*
X172401939Y-123465000D01*
X172198061Y-123465000D01*
X171998102Y-123504774D01*
X171809744Y-123582795D01*
X171640226Y-123696063D01*
X171496063Y-123840226D01*
X171382795Y-124009744D01*
X171304774Y-124198102D01*
X171265000Y-124398061D01*
X171265000Y-124601939D01*
X171304774Y-124801898D01*
X171382795Y-124990256D01*
X171496063Y-125159774D01*
X171540000Y-125203711D01*
X171540001Y-135585196D01*
X170185199Y-136940000D01*
X141914802Y-136940000D01*
X141025001Y-136050200D01*
X141025001Y-135502326D01*
X141028677Y-135465001D01*
X141025001Y-135427676D01*
X141025001Y-135427668D01*
X141014004Y-135316015D01*
X140970547Y-135172754D01*
X140899975Y-135040725D01*
X140805002Y-134925000D01*
X140776004Y-134901202D01*
X140474802Y-134600000D01*
X157661928Y-134600000D01*
X157674188Y-134724482D01*
X157710498Y-134844180D01*
X157769463Y-134954494D01*
X157848815Y-135051185D01*
X157945506Y-135130537D01*
X158055820Y-135189502D01*
X158175518Y-135225812D01*
X158300000Y-135238072D01*
X159914250Y-135235000D01*
X160073000Y-135076250D01*
X160073000Y-132827000D01*
X160327000Y-132827000D01*
X160327000Y-135076250D01*
X160485750Y-135235000D01*
X162100000Y-135238072D01*
X162224482Y-135225812D01*
X162344180Y-135189502D01*
X162454494Y-135130537D01*
X162551185Y-135051185D01*
X162630537Y-134954494D01*
X162689502Y-134844180D01*
X162725812Y-134724482D01*
X162738072Y-134600000D01*
X162737787Y-134450000D01*
X165211928Y-134450000D01*
X165224188Y-134574482D01*
X165260498Y-134694180D01*
X165319463Y-134804494D01*
X165398815Y-134901185D01*
X165495506Y-134980537D01*
X165605820Y-135039502D01*
X165725518Y-135075812D01*
X165850000Y-135088072D01*
X167314250Y-135085000D01*
X167473000Y-134926250D01*
X167473000Y-132827000D01*
X167727000Y-132827000D01*
X167727000Y-134926250D01*
X167885750Y-135085000D01*
X169350000Y-135088072D01*
X169474482Y-135075812D01*
X169594180Y-135039502D01*
X169704494Y-134980537D01*
X169801185Y-134901185D01*
X169880537Y-134804494D01*
X169939502Y-134694180D01*
X169975812Y-134574482D01*
X169988072Y-134450000D01*
X169985000Y-132985750D01*
X169826250Y-132827000D01*
X167727000Y-132827000D01*
X167473000Y-132827000D01*
X165373750Y-132827000D01*
X165215000Y-132985750D01*
X165211928Y-134450000D01*
X162737787Y-134450000D01*
X162735000Y-132985750D01*
X162576250Y-132827000D01*
X160327000Y-132827000D01*
X160073000Y-132827000D01*
X157823750Y-132827000D01*
X157665000Y-132985750D01*
X157661928Y-134600000D01*
X140474802Y-134600000D01*
X138980805Y-133106004D01*
X138957002Y-133077000D01*
X138955901Y-133076096D01*
X139013314Y-132937490D01*
X139067000Y-132667592D01*
X139067000Y-132392408D01*
X139013314Y-132122510D01*
X138908005Y-131868273D01*
X138755120Y-131639465D01*
X138560535Y-131444880D01*
X138331727Y-131291995D01*
X138260057Y-131262308D01*
X138273023Y-131257636D01*
X138388980Y-131195656D01*
X138455960Y-130955565D01*
X138300395Y-130800000D01*
X157661928Y-130800000D01*
X157665000Y-132414250D01*
X157823750Y-132573000D01*
X160073000Y-132573000D01*
X160073000Y-132553000D01*
X160327000Y-132553000D01*
X160327000Y-132573000D01*
X162576250Y-132573000D01*
X162735000Y-132414250D01*
X162737786Y-130950000D01*
X165211928Y-130950000D01*
X165215000Y-132414250D01*
X165373750Y-132573000D01*
X167473000Y-132573000D01*
X167473000Y-130473750D01*
X167727000Y-130473750D01*
X167727000Y-132573000D01*
X169826250Y-132573000D01*
X169985000Y-132414250D01*
X169988072Y-130950000D01*
X169975812Y-130825518D01*
X169939502Y-130705820D01*
X169880537Y-130595506D01*
X169801185Y-130498815D01*
X169704494Y-130419463D01*
X169594180Y-130360498D01*
X169474482Y-130324188D01*
X169350000Y-130311928D01*
X167885750Y-130315000D01*
X167727000Y-130473750D01*
X167473000Y-130473750D01*
X167314250Y-130315000D01*
X165850000Y-130311928D01*
X165725518Y-130324188D01*
X165605820Y-130360498D01*
X165495506Y-130419463D01*
X165398815Y-130498815D01*
X165319463Y-130595506D01*
X165260498Y-130705820D01*
X165224188Y-130825518D01*
X165211928Y-130950000D01*
X162737786Y-130950000D01*
X162738072Y-130800000D01*
X162725812Y-130675518D01*
X162689502Y-130555820D01*
X162630537Y-130445506D01*
X162551185Y-130348815D01*
X162454494Y-130269463D01*
X162344180Y-130210498D01*
X162224482Y-130174188D01*
X162100000Y-130161928D01*
X160804643Y-130164393D01*
X160939432Y-130137582D01*
X161400773Y-129946488D01*
X161815968Y-129669063D01*
X162169063Y-129315968D01*
X162446488Y-128900773D01*
X162637582Y-128439432D01*
X162735000Y-127949676D01*
X162735000Y-127465098D01*
X165215000Y-127465098D01*
X165215000Y-127934902D01*
X165306654Y-128395679D01*
X165486440Y-128829721D01*
X165747450Y-129220349D01*
X166079651Y-129552550D01*
X166470279Y-129813560D01*
X166904321Y-129993346D01*
X167365098Y-130085000D01*
X167834902Y-130085000D01*
X168295679Y-129993346D01*
X168729721Y-129813560D01*
X169120349Y-129552550D01*
X169452550Y-129220349D01*
X169713560Y-128829721D01*
X169893346Y-128395679D01*
X169985000Y-127934902D01*
X169985000Y-127465098D01*
X169893346Y-127004321D01*
X169713560Y-126570279D01*
X169452550Y-126179651D01*
X169120349Y-125847450D01*
X168729721Y-125586440D01*
X168295679Y-125406654D01*
X167834902Y-125315000D01*
X167365098Y-125315000D01*
X166904321Y-125406654D01*
X166470279Y-125586440D01*
X166079651Y-125847450D01*
X165747450Y-126179651D01*
X165486440Y-126570279D01*
X165306654Y-127004321D01*
X165215000Y-127465098D01*
X162735000Y-127465098D01*
X162735000Y-127450324D01*
X162637582Y-126960568D01*
X162446488Y-126499227D01*
X162169063Y-126084032D01*
X161815968Y-125730937D01*
X161400773Y-125453512D01*
X160939432Y-125262418D01*
X160449676Y-125165000D01*
X159950324Y-125165000D01*
X159460568Y-125262418D01*
X158999227Y-125453512D01*
X158584032Y-125730937D01*
X158230937Y-126084032D01*
X157953512Y-126499227D01*
X157762418Y-126960568D01*
X157665000Y-127450324D01*
X157665000Y-127949676D01*
X157762418Y-128439432D01*
X157953512Y-128900773D01*
X158230937Y-129315968D01*
X158584032Y-129669063D01*
X158999227Y-129946488D01*
X159460568Y-130137582D01*
X159595357Y-130164393D01*
X158300000Y-130161928D01*
X158175518Y-130174188D01*
X158055820Y-130210498D01*
X157945506Y-130269463D01*
X157848815Y-130348815D01*
X157769463Y-130445506D01*
X157710498Y-130555820D01*
X157674188Y-130675518D01*
X157661928Y-130800000D01*
X138300395Y-130800000D01*
X137670000Y-130169605D01*
X137655858Y-130183748D01*
X137476253Y-130004143D01*
X137490395Y-129990000D01*
X137849605Y-129990000D01*
X138635565Y-130775960D01*
X138875656Y-130708980D01*
X138992756Y-130459952D01*
X139059023Y-130192865D01*
X139071910Y-129917983D01*
X139030922Y-129645867D01*
X138937636Y-129386977D01*
X138875656Y-129271020D01*
X138635565Y-129204040D01*
X137849605Y-129990000D01*
X137490395Y-129990000D01*
X136704435Y-129204040D01*
X136464344Y-129271020D01*
X136347244Y-129520048D01*
X136280977Y-129787135D01*
X136276397Y-129884819D01*
X134546533Y-128154955D01*
X134518816Y-128121182D01*
X134422204Y-128041894D01*
X134489853Y-127878574D01*
X134545000Y-127601335D01*
X134545000Y-127318665D01*
X134489853Y-127041426D01*
X134381680Y-126780273D01*
X134224637Y-126545241D01*
X134024759Y-126345363D01*
X133792241Y-126190000D01*
X134024759Y-126034637D01*
X134224637Y-125834759D01*
X134381680Y-125599727D01*
X134489853Y-125338574D01*
X134545000Y-125061335D01*
X134545000Y-124778665D01*
X134489853Y-124501426D01*
X134381680Y-124240273D01*
X134224637Y-124005241D01*
X134024759Y-123805363D01*
X133792241Y-123650000D01*
X134024759Y-123494637D01*
X134224637Y-123294759D01*
X134381680Y-123059727D01*
X134489853Y-122798574D01*
X134545000Y-122521335D01*
X134545000Y-122238665D01*
X134489853Y-121961426D01*
X134381680Y-121700273D01*
X134224637Y-121465241D01*
X134024759Y-121265363D01*
X133979319Y-121235001D01*
X135456534Y-121235001D01*
X135500000Y-121239282D01*
X135543467Y-121235001D01*
X136854114Y-121235001D01*
X136779465Y-121284880D01*
X136584880Y-121479465D01*
X136431995Y-121708273D01*
X136326686Y-121962510D01*
X136273000Y-122232408D01*
X136273000Y-122507592D01*
X136326686Y-122777490D01*
X136431995Y-123031727D01*
X136584880Y-123260535D01*
X136779465Y-123455120D01*
X137008273Y-123608005D01*
X137085515Y-123640000D01*
X137008273Y-123671995D01*
X136779465Y-123824880D01*
X136584880Y-124019465D01*
X136431995Y-124248273D01*
X136326686Y-124502510D01*
X136273000Y-124772408D01*
X136273000Y-125047592D01*
X136326686Y-125317490D01*
X136431995Y-125571727D01*
X136584880Y-125800535D01*
X136779465Y-125995120D01*
X137008273Y-126148005D01*
X137085515Y-126180000D01*
X137008273Y-126211995D01*
X136779465Y-126364880D01*
X136584880Y-126559465D01*
X136431995Y-126788273D01*
X136326686Y-127042510D01*
X136273000Y-127312408D01*
X136273000Y-127587592D01*
X136326686Y-127857490D01*
X136431995Y-128111727D01*
X136584880Y-128340535D01*
X136779465Y-128535120D01*
X137008273Y-128688005D01*
X137079943Y-128717692D01*
X137066977Y-128722364D01*
X136951020Y-128784344D01*
X136884040Y-129024435D01*
X137670000Y-129810395D01*
X138455960Y-129024435D01*
X138388980Y-128784344D01*
X138253240Y-128720515D01*
X138331727Y-128688005D01*
X138560535Y-128535120D01*
X138755120Y-128340535D01*
X138908005Y-128111727D01*
X139013314Y-127857490D01*
X139067000Y-127587592D01*
X139067000Y-127312408D01*
X139013314Y-127042510D01*
X138908005Y-126788273D01*
X138755120Y-126559465D01*
X138560535Y-126364880D01*
X138331727Y-126211995D01*
X138254485Y-126180000D01*
X138331727Y-126148005D01*
X138560535Y-125995120D01*
X138755120Y-125800535D01*
X138908005Y-125571727D01*
X139013314Y-125317490D01*
X139067000Y-125047592D01*
X139067000Y-124772408D01*
X139013314Y-124502510D01*
X138908005Y-124248273D01*
X138755120Y-124019465D01*
X138560535Y-123824880D01*
X138331727Y-123671995D01*
X138254485Y-123640000D01*
X138331727Y-123608005D01*
X138560535Y-123455120D01*
X138680090Y-123335565D01*
X147574040Y-123335565D01*
X147641020Y-123575656D01*
X147890048Y-123692756D01*
X148157135Y-123759023D01*
X148432017Y-123771910D01*
X148704133Y-123730922D01*
X148963023Y-123637636D01*
X149078980Y-123575656D01*
X149145960Y-123335565D01*
X149049362Y-123238967D01*
X150265000Y-123238967D01*
X150265000Y-123561033D01*
X150327832Y-123876912D01*
X150451082Y-124174463D01*
X150630013Y-124442252D01*
X150857748Y-124669987D01*
X151125537Y-124848918D01*
X151423088Y-124972168D01*
X151738967Y-125035000D01*
X152061033Y-125035000D01*
X152376912Y-124972168D01*
X152674463Y-124848918D01*
X152942252Y-124669987D01*
X153169987Y-124442252D01*
X153348918Y-124174463D01*
X153472168Y-123876912D01*
X153535000Y-123561033D01*
X153535000Y-123238967D01*
X153472168Y-122923088D01*
X153348918Y-122625537D01*
X153169987Y-122357748D01*
X152942252Y-122130013D01*
X152674463Y-121951082D01*
X152376912Y-121827832D01*
X152061033Y-121765000D01*
X151738967Y-121765000D01*
X151423088Y-121827832D01*
X151125537Y-121951082D01*
X150857748Y-122130013D01*
X150630013Y-122357748D01*
X150451082Y-122625537D01*
X150327832Y-122923088D01*
X150265000Y-123238967D01*
X149049362Y-123238967D01*
X148360000Y-122549605D01*
X147574040Y-123335565D01*
X138680090Y-123335565D01*
X138755120Y-123260535D01*
X138908005Y-123031727D01*
X139013314Y-122777490D01*
X139067000Y-122507592D01*
X139067000Y-122442017D01*
X146958090Y-122442017D01*
X146999078Y-122714133D01*
X147092364Y-122973023D01*
X147154344Y-123088980D01*
X147394435Y-123155960D01*
X148180395Y-122370000D01*
X148539605Y-122370000D01*
X149325565Y-123155960D01*
X149565656Y-123088980D01*
X149682756Y-122839952D01*
X149749023Y-122572865D01*
X149761910Y-122297983D01*
X149720922Y-122025867D01*
X149627636Y-121766977D01*
X149565656Y-121651020D01*
X149325565Y-121584040D01*
X148539605Y-122370000D01*
X148180395Y-122370000D01*
X147394435Y-121584040D01*
X147154344Y-121651020D01*
X147037244Y-121900048D01*
X146970977Y-122167135D01*
X146958090Y-122442017D01*
X139067000Y-122442017D01*
X139067000Y-122232408D01*
X139013314Y-121962510D01*
X138908005Y-121708273D01*
X138755120Y-121479465D01*
X138560535Y-121284880D01*
X138485886Y-121235001D01*
X139067530Y-121235001D01*
X139110999Y-121239282D01*
X139154468Y-121235001D01*
X147621308Y-121235001D01*
X147574040Y-121404435D01*
X148360000Y-122190395D01*
X149145960Y-121404435D01*
X149098692Y-121235001D01*
X157736530Y-121235001D01*
X157779999Y-121239282D01*
X157823468Y-121235001D01*
X157823476Y-121235001D01*
X157953489Y-121222196D01*
X158120312Y-121171590D01*
X158274058Y-121089412D01*
X158408816Y-120978818D01*
X158436533Y-120945045D01*
X161144577Y-118237002D01*
X161233748Y-118237002D01*
X161075000Y-118395750D01*
X161071928Y-118960000D01*
X161084188Y-119084482D01*
X161120498Y-119204180D01*
X161179463Y-119314494D01*
X161258815Y-119411185D01*
X161355506Y-119490537D01*
X161465820Y-119549502D01*
X161585518Y-119585812D01*
X161710000Y-119598072D01*
X162274250Y-119595000D01*
X162433000Y-119436250D01*
X162433000Y-118237000D01*
X162687000Y-118237000D01*
X162687000Y-119436250D01*
X162845750Y-119595000D01*
X163410000Y-119598072D01*
X163534482Y-119585812D01*
X163654180Y-119549502D01*
X163764494Y-119490537D01*
X163861185Y-119411185D01*
X163940537Y-119314494D01*
X163999502Y-119204180D01*
X164035812Y-119084482D01*
X164048072Y-118960000D01*
X164881928Y-118960000D01*
X164894188Y-119084482D01*
X164930498Y-119204180D01*
X164989463Y-119314494D01*
X165068815Y-119411185D01*
X165165506Y-119490537D01*
X165275820Y-119549502D01*
X165395518Y-119585812D01*
X165520000Y-119598072D01*
X166084250Y-119595000D01*
X166243000Y-119436250D01*
X166243000Y-118237000D01*
X166497000Y-118237000D01*
X166497000Y-119436250D01*
X166655750Y-119595000D01*
X167220000Y-119598072D01*
X167344482Y-119585812D01*
X167464180Y-119549502D01*
X167574494Y-119490537D01*
X167671185Y-119411185D01*
X167750537Y-119314494D01*
X167809502Y-119204180D01*
X167845812Y-119084482D01*
X167858072Y-118960000D01*
X168691928Y-118960000D01*
X168704188Y-119084482D01*
X168740498Y-119204180D01*
X168799463Y-119314494D01*
X168878815Y-119411185D01*
X168975506Y-119490537D01*
X169085820Y-119549502D01*
X169205518Y-119585812D01*
X169330000Y-119598072D01*
X169894250Y-119595000D01*
X170053000Y-119436250D01*
X170053000Y-118237000D01*
X170307000Y-118237000D01*
X170307000Y-119436250D01*
X170465750Y-119595000D01*
X171030000Y-119598072D01*
X171154482Y-119585812D01*
X171274180Y-119549502D01*
X171384494Y-119490537D01*
X171481185Y-119411185D01*
X171560537Y-119314494D01*
X171619502Y-119204180D01*
X171655812Y-119084482D01*
X171668072Y-118960000D01*
X171665000Y-118395750D01*
X171506250Y-118237000D01*
X170307000Y-118237000D01*
X170053000Y-118237000D01*
X168853750Y-118237000D01*
X168695000Y-118395750D01*
X168691928Y-118960000D01*
X167858072Y-118960000D01*
X167855000Y-118395750D01*
X167696250Y-118237000D01*
X166497000Y-118237000D01*
X166243000Y-118237000D01*
X165043750Y-118237000D01*
X164885000Y-118395750D01*
X164881928Y-118960000D01*
X164048072Y-118960000D01*
X164045000Y-118395750D01*
X163886250Y-118237000D01*
X162687000Y-118237000D01*
X162433000Y-118237000D01*
X162413000Y-118237000D01*
X162413000Y-117983000D01*
X162433000Y-117983000D01*
X162433000Y-117963000D01*
X162687000Y-117963000D01*
X162687000Y-117983000D01*
X163886250Y-117983000D01*
X164045000Y-117824250D01*
X164048072Y-117260000D01*
X164035812Y-117135518D01*
X163999502Y-117015820D01*
X163940537Y-116905506D01*
X163861185Y-116808815D01*
X163764494Y-116729463D01*
X163654180Y-116670498D01*
X163581620Y-116648487D01*
X163713475Y-116516632D01*
X163754656Y-116455000D01*
X165175344Y-116455000D01*
X165216525Y-116516632D01*
X165348380Y-116648487D01*
X165275820Y-116670498D01*
X165165506Y-116729463D01*
X165068815Y-116808815D01*
X164989463Y-116905506D01*
X164930498Y-117015820D01*
X164894188Y-117135518D01*
X164881928Y-117260000D01*
X164885000Y-117824250D01*
X165043750Y-117983000D01*
X166243000Y-117983000D01*
X166243000Y-117963000D01*
X166497000Y-117963000D01*
X166497000Y-117983000D01*
X167696250Y-117983000D01*
X167855000Y-117824250D01*
X167858072Y-117260000D01*
X167845812Y-117135518D01*
X167809502Y-117015820D01*
X167750537Y-116905506D01*
X167671185Y-116808815D01*
X167574494Y-116729463D01*
X167464180Y-116670498D01*
X167391620Y-116648487D01*
X167523475Y-116516632D01*
X167564656Y-116455000D01*
X168985344Y-116455000D01*
X169026525Y-116516632D01*
X169158380Y-116648487D01*
X169085820Y-116670498D01*
X168975506Y-116729463D01*
X168878815Y-116808815D01*
X168799463Y-116905506D01*
X168740498Y-117015820D01*
X168704188Y-117135518D01*
X168691928Y-117260000D01*
X168695000Y-117824250D01*
X168853750Y-117983000D01*
X170053000Y-117983000D01*
X170053000Y-117963000D01*
X170307000Y-117963000D01*
X170307000Y-117983000D01*
X171506250Y-117983000D01*
X171665000Y-117824250D01*
X171668072Y-117260000D01*
X171655812Y-117135518D01*
X171619502Y-117015820D01*
X171560537Y-116905506D01*
X171481185Y-116808815D01*
X171384494Y-116729463D01*
X171274180Y-116670498D01*
X171201620Y-116648487D01*
X171333475Y-116516632D01*
X171495990Y-116273411D01*
X171607932Y-116003158D01*
X171665000Y-115716260D01*
X171665000Y-115423740D01*
X171650539Y-115351039D01*
X174590259Y-112411320D01*
X176595184Y-112411320D01*
X176636365Y-112472952D01*
X176843208Y-112679795D01*
X177086429Y-112842310D01*
X177356682Y-112954252D01*
X177643580Y-113011320D01*
X177936100Y-113011320D01*
X178222998Y-112954252D01*
X178493251Y-112842310D01*
X178736472Y-112679795D01*
X178943315Y-112472952D01*
X179105830Y-112229731D01*
X179217772Y-111959478D01*
X179274840Y-111672580D01*
X179274840Y-111380060D01*
X179217772Y-111093162D01*
X179105830Y-110822909D01*
X178943315Y-110579688D01*
X178736472Y-110372845D01*
X178562080Y-110256320D01*
X178736472Y-110139795D01*
X178943315Y-109932952D01*
X179105830Y-109689731D01*
X179217772Y-109419478D01*
X179274840Y-109132580D01*
X179274840Y-108840060D01*
X179217772Y-108553162D01*
X179105830Y-108282909D01*
X178943315Y-108039688D01*
X178811460Y-107907833D01*
X178884020Y-107885822D01*
X178994334Y-107826857D01*
X179091025Y-107747505D01*
X179170377Y-107650814D01*
X179229342Y-107540500D01*
X179265652Y-107420802D01*
X179277912Y-107296320D01*
X179277912Y-105596320D01*
X179265652Y-105471838D01*
X179229342Y-105352140D01*
X179170377Y-105241826D01*
X179091025Y-105145135D01*
X178994334Y-105065783D01*
X178884020Y-105006818D01*
X178764322Y-104970508D01*
X178639840Y-104958248D01*
X176939840Y-104958248D01*
X176815358Y-104970508D01*
X176695660Y-105006818D01*
X176585346Y-105065783D01*
X176488655Y-105145135D01*
X176409303Y-105241826D01*
X176350338Y-105352140D01*
X176314028Y-105471838D01*
X176304322Y-105570385D01*
X176266350Y-105574125D01*
X176099526Y-105624731D01*
X175945781Y-105706909D01*
X175844793Y-105789788D01*
X175844791Y-105789790D01*
X175811023Y-105817503D01*
X175783310Y-105851271D01*
X174384057Y-107250524D01*
X174318157Y-107064748D01*
X174169178Y-106814645D01*
X173974269Y-106598412D01*
X173740920Y-106424359D01*
X173478099Y-106299175D01*
X173330890Y-106254524D01*
X173101000Y-106375845D01*
X173101000Y-107569000D01*
X173121000Y-107569000D01*
X173121000Y-107823000D01*
X173101000Y-107823000D01*
X173101000Y-107843000D01*
X172847000Y-107843000D01*
X172847000Y-107823000D01*
X172827000Y-107823000D01*
X172827000Y-107569000D01*
X172847000Y-107569000D01*
X172847000Y-106375845D01*
X172617110Y-106254524D01*
X172469901Y-106299175D01*
X172207080Y-106424359D01*
X171973731Y-106598412D01*
X171778822Y-106814645D01*
X171709195Y-106931534D01*
X171587475Y-106749368D01*
X171380632Y-106542525D01*
X171137411Y-106380010D01*
X170867158Y-106268068D01*
X170580260Y-106211000D01*
X170287740Y-106211000D01*
X170000842Y-106268068D01*
X169730589Y-106380010D01*
X169487368Y-106542525D01*
X169355513Y-106674380D01*
X169333502Y-106601820D01*
X169274537Y-106491506D01*
X169195185Y-106394815D01*
X169098494Y-106315463D01*
X168988180Y-106256498D01*
X168868482Y-106220188D01*
X168744000Y-106207928D01*
X167044000Y-106207928D01*
X166919518Y-106220188D01*
X166799820Y-106256498D01*
X166689506Y-106315463D01*
X166592815Y-106394815D01*
X166513463Y-106491506D01*
X166454498Y-106601820D01*
X166418188Y-106721518D01*
X166405928Y-106846000D01*
X166405928Y-108546000D01*
X166418188Y-108670482D01*
X166454498Y-108790180D01*
X166481662Y-108841000D01*
X164385705Y-108841000D01*
X164449269Y-108793588D01*
X164644178Y-108577355D01*
X164793157Y-108327252D01*
X164890481Y-108052891D01*
X164769814Y-107823000D01*
X163576000Y-107823000D01*
X163576000Y-107843000D01*
X163322000Y-107843000D01*
X163322000Y-107823000D01*
X163302000Y-107823000D01*
X163302000Y-107569000D01*
X163322000Y-107569000D01*
X163322000Y-106375845D01*
X163576000Y-106375845D01*
X163576000Y-107569000D01*
X164769814Y-107569000D01*
X164890481Y-107339109D01*
X164793157Y-107064748D01*
X164644178Y-106814645D01*
X164449269Y-106598412D01*
X164215920Y-106424359D01*
X163953099Y-106299175D01*
X163805890Y-106254524D01*
X163576000Y-106375845D01*
X163322000Y-106375845D01*
X163092110Y-106254524D01*
X162944901Y-106299175D01*
X162682080Y-106424359D01*
X162448731Y-106598412D01*
X162253822Y-106814645D01*
X162184195Y-106931534D01*
X162062475Y-106749368D01*
X161855632Y-106542525D01*
X161612411Y-106380010D01*
X161342158Y-106268068D01*
X161055260Y-106211000D01*
X160762740Y-106211000D01*
X160475842Y-106268068D01*
X160205589Y-106380010D01*
X159962368Y-106542525D01*
X159830513Y-106674380D01*
X159808502Y-106601820D01*
X159749537Y-106491506D01*
X159670185Y-106394815D01*
X159573494Y-106315463D01*
X159463180Y-106256498D01*
X159343482Y-106220188D01*
X159219000Y-106207928D01*
X157519000Y-106207928D01*
X157394518Y-106220188D01*
X157274820Y-106256498D01*
X157164506Y-106315463D01*
X157067815Y-106394815D01*
X156988463Y-106491506D01*
X156929498Y-106601820D01*
X156893188Y-106721518D01*
X156880928Y-106846000D01*
X156880928Y-108546000D01*
X156893188Y-108670482D01*
X156929498Y-108790180D01*
X156988463Y-108900494D01*
X157021928Y-108941271D01*
X156995199Y-108968000D01*
X154817166Y-108968000D01*
X154817920Y-108967641D01*
X155051269Y-108793588D01*
X155246178Y-108577355D01*
X155395157Y-108327252D01*
X155492481Y-108052891D01*
X155371814Y-107823000D01*
X154178000Y-107823000D01*
X154178000Y-107843000D01*
X153924000Y-107843000D01*
X153924000Y-107823000D01*
X153904000Y-107823000D01*
X153904000Y-107569000D01*
X153924000Y-107569000D01*
X153924000Y-106375845D01*
X154178000Y-106375845D01*
X154178000Y-107569000D01*
X155371814Y-107569000D01*
X155492481Y-107339109D01*
X155395157Y-107064748D01*
X155246178Y-106814645D01*
X155051269Y-106598412D01*
X154817920Y-106424359D01*
X154555099Y-106299175D01*
X154407890Y-106254524D01*
X154178000Y-106375845D01*
X153924000Y-106375845D01*
X153694110Y-106254524D01*
X153546901Y-106299175D01*
X153284080Y-106424359D01*
X153050731Y-106598412D01*
X152855822Y-106814645D01*
X152786195Y-106931534D01*
X152664475Y-106749368D01*
X152457632Y-106542525D01*
X152214411Y-106380010D01*
X151944158Y-106268068D01*
X151657260Y-106211000D01*
X151364740Y-106211000D01*
X151077842Y-106268068D01*
X150807589Y-106380010D01*
X150564368Y-106542525D01*
X150432513Y-106674380D01*
X150410502Y-106601820D01*
X150351537Y-106491506D01*
X150272185Y-106394815D01*
X150175494Y-106315463D01*
X150065180Y-106256498D01*
X149945482Y-106220188D01*
X149821000Y-106207928D01*
X148121000Y-106207928D01*
X147996518Y-106220188D01*
X147876820Y-106256498D01*
X147766506Y-106315463D01*
X147669815Y-106394815D01*
X147590463Y-106491506D01*
X147531498Y-106601820D01*
X147495188Y-106721518D01*
X147482928Y-106846000D01*
X147482928Y-108546000D01*
X147495188Y-108670482D01*
X147531498Y-108790180D01*
X147590463Y-108900494D01*
X147645864Y-108968000D01*
X147103333Y-108968000D01*
X147066000Y-108964323D01*
X147028667Y-108968000D01*
X146917014Y-108978997D01*
X146773753Y-109022454D01*
X146641724Y-109093026D01*
X146525999Y-109187999D01*
X146502201Y-109216997D01*
X144359199Y-111360000D01*
X144297061Y-111360000D01*
X144097102Y-111399774D01*
X143908744Y-111477795D01*
X143739226Y-111591063D01*
X143595063Y-111735226D01*
X143481795Y-111904744D01*
X143403774Y-112093102D01*
X143389324Y-112165746D01*
X142738535Y-111514957D01*
X142727226Y-111458102D01*
X142649205Y-111269744D01*
X142535937Y-111100226D01*
X142391774Y-110956063D01*
X142222256Y-110842795D01*
X142033898Y-110764774D01*
X141833939Y-110725000D01*
X141630061Y-110725000D01*
X141430102Y-110764774D01*
X141241744Y-110842795D01*
X141072226Y-110956063D01*
X140928063Y-111100226D01*
X140814795Y-111269744D01*
X140736774Y-111458102D01*
X140697000Y-111658061D01*
X140697000Y-111861939D01*
X140736774Y-112061898D01*
X140814795Y-112250256D01*
X140928063Y-112419774D01*
X141033566Y-112525277D01*
X140899465Y-112614880D01*
X140704880Y-112809465D01*
X140551995Y-113038273D01*
X140520000Y-113115515D01*
X140488005Y-113038273D01*
X140335120Y-112809465D01*
X140140535Y-112614880D01*
X139911727Y-112461995D01*
X139657490Y-112356686D01*
X139387592Y-112303000D01*
X139112408Y-112303000D01*
X138958430Y-112333628D01*
X138213804Y-111589003D01*
X138190001Y-111559999D01*
X138074276Y-111465026D01*
X137942247Y-111394454D01*
X137798986Y-111350997D01*
X137687333Y-111340000D01*
X137687322Y-111340000D01*
X137650000Y-111336324D01*
X137612678Y-111340000D01*
X137014802Y-111340000D01*
X136010000Y-110335199D01*
X136010000Y-110273711D01*
X136040226Y-110303937D01*
X136209744Y-110417205D01*
X136398102Y-110495226D01*
X136598061Y-110535000D01*
X136801939Y-110535000D01*
X137001898Y-110495226D01*
X137190256Y-110417205D01*
X137359774Y-110303937D01*
X137403711Y-110260000D01*
X138842678Y-110260000D01*
X138880000Y-110263676D01*
X138917322Y-110260000D01*
X138917333Y-110260000D01*
X139028986Y-110249003D01*
X139172247Y-110205546D01*
X139304276Y-110134974D01*
X139420001Y-110040001D01*
X139443804Y-110010997D01*
X139963592Y-109491209D01*
X140183740Y-109535000D01*
X140476260Y-109535000D01*
X140763158Y-109477932D01*
X141033411Y-109365990D01*
X141276632Y-109203475D01*
X141483475Y-108996632D01*
X141605195Y-108814466D01*
X141674822Y-108931355D01*
X141869731Y-109147588D01*
X142103080Y-109321641D01*
X142365901Y-109446825D01*
X142513110Y-109491476D01*
X142743000Y-109370155D01*
X142743000Y-108177000D01*
X142997000Y-108177000D01*
X142997000Y-109370155D01*
X143226890Y-109491476D01*
X143374099Y-109446825D01*
X143636920Y-109321641D01*
X143870269Y-109147588D01*
X144065178Y-108931355D01*
X144214157Y-108681252D01*
X144311481Y-108406891D01*
X144190814Y-108177000D01*
X142997000Y-108177000D01*
X142743000Y-108177000D01*
X142723000Y-108177000D01*
X142723000Y-107923000D01*
X142743000Y-107923000D01*
X142743000Y-106729845D01*
X142997000Y-106729845D01*
X142997000Y-107923000D01*
X144190814Y-107923000D01*
X144311481Y-107693109D01*
X144214157Y-107418748D01*
X144065178Y-107168645D01*
X143870269Y-106952412D01*
X143636920Y-106778359D01*
X143374099Y-106653175D01*
X143226890Y-106608524D01*
X142997000Y-106729845D01*
X142743000Y-106729845D01*
X142513110Y-106608524D01*
X142365901Y-106653175D01*
X142103080Y-106778359D01*
X141869731Y-106952412D01*
X141674822Y-107168645D01*
X141605195Y-107285534D01*
X141483475Y-107103368D01*
X141276632Y-106896525D01*
X141033411Y-106734010D01*
X140763158Y-106622068D01*
X140476260Y-106565000D01*
X140183740Y-106565000D01*
X139896842Y-106622068D01*
X139626589Y-106734010D01*
X139383368Y-106896525D01*
X139176525Y-107103368D01*
X139060000Y-107277760D01*
X138943475Y-107103368D01*
X138736632Y-106896525D01*
X138493411Y-106734010D01*
X138223158Y-106622068D01*
X137936260Y-106565000D01*
X137643740Y-106565000D01*
X137356842Y-106622068D01*
X137086589Y-106734010D01*
X136843368Y-106896525D01*
X136711513Y-107028380D01*
X136689502Y-106955820D01*
X136630537Y-106845506D01*
X136551185Y-106748815D01*
X136454494Y-106669463D01*
X136344180Y-106610498D01*
X136224482Y-106574188D01*
X136100000Y-106561928D01*
X134400000Y-106561928D01*
X134275518Y-106574188D01*
X134155820Y-106610498D01*
X134045506Y-106669463D01*
X133948815Y-106748815D01*
X133869463Y-106845506D01*
X133810498Y-106955820D01*
X133774188Y-107075518D01*
X133761928Y-107200000D01*
X133761928Y-108900000D01*
X133774188Y-109024482D01*
X133810498Y-109144180D01*
X133869463Y-109254494D01*
X133948815Y-109351185D01*
X134045506Y-109430537D01*
X134155820Y-109489502D01*
X134275518Y-109525812D01*
X134400000Y-109538072D01*
X134490000Y-109538072D01*
X134490000Y-110612677D01*
X134486324Y-110650000D01*
X134490000Y-110687322D01*
X134490000Y-110687332D01*
X134500997Y-110798985D01*
X134530882Y-110897503D01*
X134544454Y-110942246D01*
X134615026Y-111074276D01*
X134642500Y-111107753D01*
X134709999Y-111190001D01*
X134739003Y-111213804D01*
X135168198Y-111642999D01*
X126606942Y-111642999D01*
X126635000Y-111501939D01*
X126635000Y-111298061D01*
X126595226Y-111098102D01*
X126517205Y-110909744D01*
X126403937Y-110740226D01*
X126259774Y-110596063D01*
X126090256Y-110482795D01*
X125901898Y-110404774D01*
X125701939Y-110365000D01*
X125498061Y-110365000D01*
X125298102Y-110404774D01*
X125109744Y-110482795D01*
X124940226Y-110596063D01*
X124905545Y-110630744D01*
X123587345Y-109312543D01*
X123601185Y-109301185D01*
X123680537Y-109204494D01*
X123739502Y-109094180D01*
X123761513Y-109021620D01*
X123893368Y-109153475D01*
X124136589Y-109315990D01*
X124406842Y-109427932D01*
X124693740Y-109485000D01*
X124986260Y-109485000D01*
X125273158Y-109427932D01*
X125543411Y-109315990D01*
X125786632Y-109153475D01*
X125993475Y-108946632D01*
X126110000Y-108772240D01*
X126226525Y-108946632D01*
X126433368Y-109153475D01*
X126676589Y-109315990D01*
X126946842Y-109427932D01*
X127233740Y-109485000D01*
X127526260Y-109485000D01*
X127813158Y-109427932D01*
X128083411Y-109315990D01*
X128326632Y-109153475D01*
X128533475Y-108946632D01*
X128655195Y-108764466D01*
X128724822Y-108881355D01*
X128919731Y-109097588D01*
X129153080Y-109271641D01*
X129415901Y-109396825D01*
X129563110Y-109441476D01*
X129793000Y-109320155D01*
X129793000Y-108127000D01*
X130047000Y-108127000D01*
X130047000Y-109320155D01*
X130276890Y-109441476D01*
X130424099Y-109396825D01*
X130686920Y-109271641D01*
X130920269Y-109097588D01*
X131115178Y-108881355D01*
X131264157Y-108631252D01*
X131361481Y-108356891D01*
X131240814Y-108127000D01*
X130047000Y-108127000D01*
X129793000Y-108127000D01*
X129773000Y-108127000D01*
X129773000Y-107873000D01*
X129793000Y-107873000D01*
X129793000Y-106679845D01*
X130047000Y-106679845D01*
X130047000Y-107873000D01*
X131240814Y-107873000D01*
X131361481Y-107643109D01*
X131264157Y-107368748D01*
X131115178Y-107118645D01*
X130920269Y-106902412D01*
X130686920Y-106728359D01*
X130424099Y-106603175D01*
X130276890Y-106558524D01*
X130047000Y-106679845D01*
X129793000Y-106679845D01*
X129563110Y-106558524D01*
X129415901Y-106603175D01*
X129153080Y-106728359D01*
X128919731Y-106902412D01*
X128724822Y-107118645D01*
X128655195Y-107235534D01*
X128533475Y-107053368D01*
X128326632Y-106846525D01*
X128083411Y-106684010D01*
X127813158Y-106572068D01*
X127526260Y-106515000D01*
X127233740Y-106515000D01*
X126946842Y-106572068D01*
X126676589Y-106684010D01*
X126433368Y-106846525D01*
X126226525Y-107053368D01*
X126110000Y-107227760D01*
X125993475Y-107053368D01*
X125786632Y-106846525D01*
X125543411Y-106684010D01*
X125273158Y-106572068D01*
X124986260Y-106515000D01*
X124693740Y-106515000D01*
X124406842Y-106572068D01*
X124136589Y-106684010D01*
X123893368Y-106846525D01*
X123761513Y-106978380D01*
X123739502Y-106905820D01*
X123680537Y-106795506D01*
X123601185Y-106698815D01*
X123504494Y-106619463D01*
X123394180Y-106560498D01*
X123274482Y-106524188D01*
X123150000Y-106511928D01*
X121450000Y-106511928D01*
X121325518Y-106524188D01*
X121205820Y-106560498D01*
X121095506Y-106619463D01*
X120998815Y-106698815D01*
X120919463Y-106795506D01*
X120860498Y-106905820D01*
X120824188Y-107025518D01*
X120811928Y-107150000D01*
X120811928Y-108850000D01*
X120824188Y-108974482D01*
X120860498Y-109094180D01*
X120919463Y-109204494D01*
X120998815Y-109301185D01*
X121095506Y-109380537D01*
X121205820Y-109439502D01*
X121325518Y-109475812D01*
X121450000Y-109488072D01*
X121645674Y-109488072D01*
X121665026Y-109524276D01*
X121694079Y-109559677D01*
X121759999Y-109640001D01*
X121789003Y-109663804D01*
X124036201Y-111911003D01*
X124059999Y-111940001D01*
X124175724Y-112034974D01*
X124232891Y-112065531D01*
X123954122Y-112344299D01*
X123947592Y-112343000D01*
X123672408Y-112343000D01*
X123402510Y-112396686D01*
X123148273Y-112501995D01*
X122919465Y-112654880D01*
X122724880Y-112849465D01*
X122571995Y-113078273D01*
X122466686Y-113332510D01*
X122413000Y-113602408D01*
X122413000Y-113877592D01*
X122414299Y-113884122D01*
X119983422Y-116315000D01*
X112138454Y-116315000D01*
X112090256Y-116282795D01*
X111901898Y-116204774D01*
X111701939Y-116165000D01*
X111498061Y-116165000D01*
X111298102Y-116204774D01*
X111109744Y-116282795D01*
X110940226Y-116396063D01*
X110796063Y-116540226D01*
X110682795Y-116709744D01*
X110604774Y-116898102D01*
X110579042Y-117027464D01*
X110085000Y-116533422D01*
X110085000Y-114886578D01*
X113684577Y-111287002D01*
X113779844Y-111287002D01*
X113658524Y-111516890D01*
X113703175Y-111664099D01*
X113828359Y-111926920D01*
X114002412Y-112160269D01*
X114086466Y-112236034D01*
X114005820Y-112260498D01*
X113895506Y-112319463D01*
X113798815Y-112398815D01*
X113719463Y-112495506D01*
X113660498Y-112605820D01*
X113624188Y-112725518D01*
X113611928Y-112850000D01*
X113611928Y-114550000D01*
X113624188Y-114674482D01*
X113660498Y-114794180D01*
X113719463Y-114904494D01*
X113798815Y-115001185D01*
X113895506Y-115080537D01*
X114005820Y-115139502D01*
X114125518Y-115175812D01*
X114250000Y-115188072D01*
X115950000Y-115188072D01*
X116074482Y-115175812D01*
X116194180Y-115139502D01*
X116304494Y-115080537D01*
X116401185Y-115001185D01*
X116480537Y-114904494D01*
X116539502Y-114794180D01*
X116575812Y-114674482D01*
X116588072Y-114550000D01*
X116588072Y-112850000D01*
X116575812Y-112725518D01*
X116539502Y-112605820D01*
X116480537Y-112495506D01*
X116401185Y-112398815D01*
X116304494Y-112319463D01*
X116194180Y-112260498D01*
X116113534Y-112236034D01*
X116197588Y-112160269D01*
X116371641Y-111926920D01*
X116496825Y-111664099D01*
X116541476Y-111516890D01*
X116420155Y-111287000D01*
X115227000Y-111287000D01*
X115227000Y-111307000D01*
X114973000Y-111307000D01*
X114973000Y-111287000D01*
X114953000Y-111287000D01*
X114953000Y-111033000D01*
X114973000Y-111033000D01*
X114973000Y-111013000D01*
X115227000Y-111013000D01*
X115227000Y-111033000D01*
X116420155Y-111033000D01*
X116541476Y-110803110D01*
X116496825Y-110655901D01*
X116371641Y-110393080D01*
X116197588Y-110159731D01*
X115981355Y-109964822D01*
X115864466Y-109895195D01*
X116046632Y-109773475D01*
X116253475Y-109566632D01*
X116415990Y-109323411D01*
X116527932Y-109053158D01*
X116585000Y-108766260D01*
X116585000Y-108473740D01*
X116527932Y-108186842D01*
X116415990Y-107916589D01*
X116253475Y-107673368D01*
X116046632Y-107466525D01*
X115872240Y-107350000D01*
X116046632Y-107233475D01*
X116253475Y-107026632D01*
X116415990Y-106783411D01*
X116527932Y-106513158D01*
X116585000Y-106226260D01*
X116585000Y-105933740D01*
X116527932Y-105646842D01*
X116415990Y-105376589D01*
X116253475Y-105133368D01*
X116046632Y-104926525D01*
X115872240Y-104810000D01*
X116046632Y-104693475D01*
X116253475Y-104486632D01*
X116415990Y-104243411D01*
X116527932Y-103973158D01*
X116585000Y-103686260D01*
X116585000Y-103393740D01*
X116527932Y-103106842D01*
X116415990Y-102836589D01*
X116253475Y-102593368D01*
X116046632Y-102386525D01*
X115872240Y-102270000D01*
X116046632Y-102153475D01*
X116253475Y-101946632D01*
X116415990Y-101703411D01*
X116527932Y-101433158D01*
X116585000Y-101146260D01*
X116585000Y-100853740D01*
X116527932Y-100566842D01*
X116415990Y-100296589D01*
X116253475Y-100053368D01*
X116046632Y-99846525D01*
X115946879Y-99779872D01*
X177765000Y-99779872D01*
X177765000Y-100220128D01*
X177850890Y-100651925D01*
X178019369Y-101058669D01*
X178263962Y-101424729D01*
X178575271Y-101736038D01*
X178941331Y-101980631D01*
X179348075Y-102149110D01*
X179779872Y-102235000D01*
X180220128Y-102235000D01*
X180651925Y-102149110D01*
X181058669Y-101980631D01*
X181424729Y-101736038D01*
X181736038Y-101424729D01*
X181980631Y-101058669D01*
X182149110Y-100651925D01*
X182235000Y-100220128D01*
X182235000Y-99779872D01*
X182149110Y-99348075D01*
X181980631Y-98941331D01*
X181736038Y-98575271D01*
X181424729Y-98263962D01*
X181058669Y-98019369D01*
X180651925Y-97850890D01*
X180220128Y-97765000D01*
X179779872Y-97765000D01*
X179348075Y-97850890D01*
X178941331Y-98019369D01*
X178575271Y-98263962D01*
X178263962Y-98575271D01*
X178019369Y-98941331D01*
X177850890Y-99348075D01*
X177765000Y-99779872D01*
X115946879Y-99779872D01*
X115803411Y-99684010D01*
X115533158Y-99572068D01*
X115246260Y-99515000D01*
X114953740Y-99515000D01*
X114666842Y-99572068D01*
X114396589Y-99684010D01*
X114153368Y-99846525D01*
X113946525Y-100053368D01*
X113784010Y-100296589D01*
X113672068Y-100566842D01*
X113615000Y-100853740D01*
X113615000Y-101146260D01*
X113672068Y-101433158D01*
X113784010Y-101703411D01*
X113946525Y-101946632D01*
X114153368Y-102153475D01*
X114327760Y-102270000D01*
X114153368Y-102386525D01*
X113946525Y-102593368D01*
X113784010Y-102836589D01*
X113672068Y-103106842D01*
X113615000Y-103393740D01*
X113615000Y-103686260D01*
X113672068Y-103973158D01*
X113784010Y-104243411D01*
X113946525Y-104486632D01*
X114153368Y-104693475D01*
X114327760Y-104810000D01*
X114153368Y-104926525D01*
X113946525Y-105133368D01*
X113784010Y-105376589D01*
X113672068Y-105646842D01*
X113615000Y-105933740D01*
X113615000Y-106226260D01*
X113672068Y-106513158D01*
X113784010Y-106783411D01*
X113946525Y-107026632D01*
X114153368Y-107233475D01*
X114327760Y-107350000D01*
X114153368Y-107466525D01*
X113946525Y-107673368D01*
X113784010Y-107916589D01*
X113672068Y-108186842D01*
X113615000Y-108473740D01*
X113615000Y-108766260D01*
X113629461Y-108838960D01*
X108604956Y-113863466D01*
X108571183Y-113891183D01*
X108460589Y-114025942D01*
X108378411Y-114179688D01*
X108352896Y-114263799D01*
X108331283Y-114335047D01*
X108327805Y-114346511D01*
X108315000Y-114476524D01*
X108315000Y-114476531D01*
X108310719Y-114520000D01*
X108315000Y-114563469D01*
X108315001Y-116015000D01*
X103501384Y-116015000D01*
X103457918Y-116010719D01*
X103414452Y-116015000D01*
X103414442Y-116015000D01*
X103284429Y-116027805D01*
X103117606Y-116078411D01*
X102963860Y-116160589D01*
X102829102Y-116271183D01*
X102801385Y-116304956D01*
X102464952Y-116641389D01*
X102431184Y-116669102D01*
X102403471Y-116702870D01*
X102403468Y-116702873D01*
X102320590Y-116803860D01*
X102238412Y-116957606D01*
X102187805Y-117124429D01*
X102170719Y-117297919D01*
X102171669Y-117307569D01*
X102113368Y-117346525D01*
X101906525Y-117553368D01*
X101790000Y-117727760D01*
X101673475Y-117553368D01*
X101466632Y-117346525D01*
X101223411Y-117184010D01*
X100953158Y-117072068D01*
X100666260Y-117015000D01*
X100373740Y-117015000D01*
X100086842Y-117072068D01*
X99816589Y-117184010D01*
X99573368Y-117346525D01*
X99366525Y-117553368D01*
X99204010Y-117796589D01*
X99092068Y-118066842D01*
X99035000Y-118353740D01*
X99035000Y-118646260D01*
X99092068Y-118933158D01*
X99204010Y-119203411D01*
X99366525Y-119446632D01*
X99573368Y-119653475D01*
X99816589Y-119815990D01*
X100086842Y-119927932D01*
X100373740Y-119985000D01*
X100666260Y-119985000D01*
X100953158Y-119927932D01*
X101223411Y-119815990D01*
X101466632Y-119653475D01*
X101673475Y-119446632D01*
X101790000Y-119272240D01*
X101906525Y-119446632D01*
X102113368Y-119653475D01*
X102356589Y-119815990D01*
X102626842Y-119927932D01*
X102913740Y-119985000D01*
X103206260Y-119985000D01*
X103493158Y-119927932D01*
X103763411Y-119815990D01*
X104006632Y-119653475D01*
X104138487Y-119521620D01*
X104160498Y-119594180D01*
X104219463Y-119704494D01*
X104298815Y-119801185D01*
X104395506Y-119880537D01*
X104505820Y-119939502D01*
X104625518Y-119975812D01*
X104724065Y-119985518D01*
X104727805Y-120023489D01*
X104778411Y-120190312D01*
X104860589Y-120344058D01*
X104971183Y-120478817D01*
X105004956Y-120506534D01*
X105476219Y-120977798D01*
X105311335Y-120945000D01*
X105028665Y-120945000D01*
X104751426Y-121000147D01*
X104490273Y-121108320D01*
X104255241Y-121265363D01*
X104055363Y-121465241D01*
X103899085Y-121699128D01*
X103866671Y-121638486D01*
X103622702Y-121566903D01*
X102809605Y-122380000D01*
X103622702Y-123193097D01*
X103866671Y-123121514D01*
X103897194Y-123057008D01*
X103898320Y-123059727D01*
X104055363Y-123294759D01*
X104255241Y-123494637D01*
X104490273Y-123651680D01*
X104751426Y-123759853D01*
X105028665Y-123815000D01*
X105311335Y-123815000D01*
X105588574Y-123759853D01*
X105849727Y-123651680D01*
X105867934Y-123639514D01*
X111573467Y-129345048D01*
X111601180Y-129378816D01*
X111634948Y-129406529D01*
X111634950Y-129406531D01*
X111706449Y-129465209D01*
X111735938Y-129489410D01*
X111889684Y-129571588D01*
X112056507Y-129622194D01*
X112186520Y-129634999D01*
X112186530Y-129634999D01*
X112229996Y-129639280D01*
X112273462Y-129634999D01*
X124099491Y-129634999D01*
X124055000Y-129858665D01*
X124055000Y-130141335D01*
X124110147Y-130418574D01*
X124208077Y-130654999D01*
X117900956Y-130654999D01*
X117863631Y-130651323D01*
X117826306Y-130654999D01*
X117826298Y-130654999D01*
X117714645Y-130665996D01*
X117571384Y-130709453D01*
X117439355Y-130780025D01*
X117323630Y-130874998D01*
X117299832Y-130903996D01*
X112279003Y-135924826D01*
X112249999Y-135948629D01*
X112203735Y-136005002D01*
X112155026Y-136064354D01*
X112109789Y-136148986D01*
X112084454Y-136196384D01*
X112040997Y-136339645D01*
X112035202Y-136398481D01*
X111875241Y-136505363D01*
X111675363Y-136705241D01*
X111520000Y-136937759D01*
X111364637Y-136705241D01*
X111164759Y-136505363D01*
X110929727Y-136348320D01*
X110668574Y-136240147D01*
X110391335Y-136185000D01*
X110108665Y-136185000D01*
X109831426Y-136240147D01*
X109570273Y-136348320D01*
X109552066Y-136360485D01*
X100975000Y-127783420D01*
X100975000Y-124778665D01*
X101195000Y-124778665D01*
X101195000Y-125061335D01*
X101250147Y-125338574D01*
X101358320Y-125599727D01*
X101515363Y-125834759D01*
X101715241Y-126034637D01*
X101950273Y-126191680D01*
X102211426Y-126299853D01*
X102488665Y-126355000D01*
X102771335Y-126355000D01*
X103048574Y-126299853D01*
X103309727Y-126191680D01*
X103544759Y-126034637D01*
X103744637Y-125834759D01*
X103901680Y-125599727D01*
X104009853Y-125338574D01*
X104065000Y-125061335D01*
X104065000Y-124778665D01*
X104009853Y-124501426D01*
X103901680Y-124240273D01*
X103744637Y-124005241D01*
X103544759Y-123805363D01*
X103310872Y-123649085D01*
X103371514Y-123616671D01*
X103443097Y-123372702D01*
X102630000Y-122559605D01*
X101816903Y-123372702D01*
X101888486Y-123616671D01*
X101952992Y-123647194D01*
X101950273Y-123648320D01*
X101715241Y-123805363D01*
X101515363Y-124005241D01*
X101358320Y-124240273D01*
X101250147Y-124501426D01*
X101195000Y-124778665D01*
X100975000Y-124778665D01*
X100975000Y-123514521D01*
X101004759Y-123494637D01*
X101204637Y-123294759D01*
X101360915Y-123060872D01*
X101393329Y-123121514D01*
X101637298Y-123193097D01*
X102450395Y-122380000D01*
X101637298Y-121566903D01*
X101393329Y-121638486D01*
X101362806Y-121702992D01*
X101361680Y-121700273D01*
X101204637Y-121465241D01*
X101126694Y-121387298D01*
X101816903Y-121387298D01*
X102630000Y-122200395D01*
X103443097Y-121387298D01*
X103371514Y-121143329D01*
X103116004Y-121022429D01*
X102841816Y-120953700D01*
X102559488Y-120939783D01*
X102279870Y-120981213D01*
X102013708Y-121076397D01*
X101888486Y-121143329D01*
X101816903Y-121387298D01*
X101126694Y-121387298D01*
X101004759Y-121265363D01*
X100769727Y-121108320D01*
X100508574Y-121000147D01*
X100231335Y-120945000D01*
X99948665Y-120945000D01*
X99671426Y-121000147D01*
X99410273Y-121108320D01*
X99175241Y-121265363D01*
X98975363Y-121465241D01*
X98818320Y-121700273D01*
X98710147Y-121961426D01*
X98655000Y-122238665D01*
X96660000Y-122238665D01*
X96660000Y-100032278D01*
X96684748Y-99779872D01*
X97765000Y-99779872D01*
X97765000Y-100220128D01*
X97850890Y-100651925D01*
X98019369Y-101058669D01*
X98263962Y-101424729D01*
X98575271Y-101736038D01*
X98941331Y-101980631D01*
X99348075Y-102149110D01*
X99779872Y-102235000D01*
X100220128Y-102235000D01*
X100651925Y-102149110D01*
X101058669Y-101980631D01*
X101424729Y-101736038D01*
X101736038Y-101424729D01*
X101980631Y-101058669D01*
X102149110Y-100651925D01*
X102235000Y-100220128D01*
X102235000Y-99779872D01*
X102149110Y-99348075D01*
X101980631Y-98941331D01*
X101736038Y-98575271D01*
X101424729Y-98263962D01*
X101058669Y-98019369D01*
X100651925Y-97850890D01*
X100220128Y-97765000D01*
X99779872Y-97765000D01*
X99348075Y-97850890D01*
X98941331Y-98019369D01*
X98575271Y-98263962D01*
X98263962Y-98575271D01*
X98019369Y-98941331D01*
X97850890Y-99348075D01*
X97765000Y-99779872D01*
X96684748Y-99779872D01*
X96726714Y-99351874D01*
X96914943Y-98728428D01*
X97220681Y-98153421D01*
X97632279Y-97648753D01*
X98134067Y-97233638D01*
X98706924Y-96923895D01*
X99329039Y-96731318D01*
X100007584Y-96660000D01*
X179967722Y-96660000D01*
X180648126Y-96726714D01*
G37*
X180648126Y-96726714D02*
X181271572Y-96914943D01*
X181846579Y-97220681D01*
X182351247Y-97632279D01*
X182766362Y-98134067D01*
X183076105Y-98706924D01*
X183268682Y-99329039D01*
X183340001Y-100007594D01*
X183340000Y-159967721D01*
X183273286Y-160648126D01*
X183085057Y-161271570D01*
X182779323Y-161846573D01*
X182367721Y-162351248D01*
X181865933Y-162766362D01*
X181293077Y-163076104D01*
X180670961Y-163268682D01*
X179992417Y-163340000D01*
X100032279Y-163340000D01*
X99351874Y-163273286D01*
X98728430Y-163085057D01*
X98153427Y-162779323D01*
X97648752Y-162367721D01*
X97233638Y-161865933D01*
X96923896Y-161293077D01*
X96731318Y-160670961D01*
X96660000Y-159992417D01*
X96660000Y-159779872D01*
X97765000Y-159779872D01*
X97765000Y-160220128D01*
X97850890Y-160651925D01*
X98019369Y-161058669D01*
X98263962Y-161424729D01*
X98575271Y-161736038D01*
X98941331Y-161980631D01*
X99348075Y-162149110D01*
X99779872Y-162235000D01*
X100220128Y-162235000D01*
X100651925Y-162149110D01*
X101058669Y-161980631D01*
X101424729Y-161736038D01*
X101736038Y-161424729D01*
X101980631Y-161058669D01*
X102149110Y-160651925D01*
X102235000Y-160220128D01*
X102235000Y-159779872D01*
X177765000Y-159779872D01*
X177765000Y-160220128D01*
X177850890Y-160651925D01*
X178019369Y-161058669D01*
X178263962Y-161424729D01*
X178575271Y-161736038D01*
X178941331Y-161980631D01*
X179348075Y-162149110D01*
X179779872Y-162235000D01*
X180220128Y-162235000D01*
X180651925Y-162149110D01*
X181058669Y-161980631D01*
X181424729Y-161736038D01*
X181736038Y-161424729D01*
X181980631Y-161058669D01*
X182149110Y-160651925D01*
X182235000Y-160220128D01*
X182235000Y-159779872D01*
X182149110Y-159348075D01*
X181980631Y-158941331D01*
X181736038Y-158575271D01*
X181424729Y-158263962D01*
X181058669Y-158019369D01*
X180651925Y-157850890D01*
X180220128Y-157765000D01*
X179779872Y-157765000D01*
X179348075Y-157850890D01*
X178941331Y-158019369D01*
X178575271Y-158263962D01*
X178263962Y-158575271D01*
X178019369Y-158941331D01*
X177850890Y-159348075D01*
X177765000Y-159779872D01*
X102235000Y-159779872D01*
X102149110Y-159348075D01*
X101980631Y-158941331D01*
X101736038Y-158575271D01*
X101424729Y-158263962D01*
X101058669Y-158019369D01*
X100651925Y-157850890D01*
X100220128Y-157765000D01*
X99779872Y-157765000D01*
X99348075Y-157850890D01*
X98941331Y-158019369D01*
X98575271Y-158263962D01*
X98263962Y-158575271D01*
X98019369Y-158941331D01*
X97850890Y-159348075D01*
X97765000Y-159779872D01*
X96660000Y-159779872D01*
X96660000Y-150506891D01*
X106138519Y-150506891D01*
X106235843Y-150781252D01*
X106384822Y-151031355D01*
X106579731Y-151247588D01*
X106813080Y-151421641D01*
X107075901Y-151546825D01*
X107223110Y-151591476D01*
X107453000Y-151470155D01*
X107453000Y-150277000D01*
X106259186Y-150277000D01*
X106138519Y-150506891D01*
X96660000Y-150506891D01*
X96660000Y-149793109D01*
X106138519Y-149793109D01*
X106259186Y-150023000D01*
X107453000Y-150023000D01*
X107453000Y-148829845D01*
X107707000Y-148829845D01*
X107707000Y-150023000D01*
X107727000Y-150023000D01*
X107727000Y-150277000D01*
X107707000Y-150277000D01*
X107707000Y-151470155D01*
X107936890Y-151591476D01*
X108084099Y-151546825D01*
X108346920Y-151421641D01*
X108580269Y-151247588D01*
X108775178Y-151031355D01*
X108844805Y-150914466D01*
X108966525Y-151096632D01*
X109173368Y-151303475D01*
X109416589Y-151465990D01*
X109686842Y-151577932D01*
X109973740Y-151635000D01*
X110266260Y-151635000D01*
X110553158Y-151577932D01*
X110823411Y-151465990D01*
X111066632Y-151303475D01*
X111273475Y-151096632D01*
X111390000Y-150922240D01*
X111506525Y-151096632D01*
X111713368Y-151303475D01*
X111956589Y-151465990D01*
X112226842Y-151577932D01*
X112513740Y-151635000D01*
X112806260Y-151635000D01*
X113093158Y-151577932D01*
X113363411Y-151465990D01*
X113606632Y-151303475D01*
X113813475Y-151096632D01*
X113930000Y-150922240D01*
X114046525Y-151096632D01*
X114253368Y-151303475D01*
X114496589Y-151465990D01*
X114766842Y-151577932D01*
X115053740Y-151635000D01*
X115346260Y-151635000D01*
X115633158Y-151577932D01*
X115903411Y-151465990D01*
X116146632Y-151303475D01*
X116353475Y-151096632D01*
X116470000Y-150922240D01*
X116586525Y-151096632D01*
X116793368Y-151303475D01*
X117036589Y-151465990D01*
X117306842Y-151577932D01*
X117593740Y-151635000D01*
X117886260Y-151635000D01*
X118173158Y-151577932D01*
X118443411Y-151465990D01*
X118686632Y-151303475D01*
X118818487Y-151171620D01*
X118840498Y-151244180D01*
X118899463Y-151354494D01*
X118978815Y-151451185D01*
X119075506Y-151530537D01*
X119185820Y-151589502D01*
X119305518Y-151625812D01*
X119430000Y-151638072D01*
X121130000Y-151638072D01*
X121254482Y-151625812D01*
X121374180Y-151589502D01*
X121484494Y-151530537D01*
X121581185Y-151451185D01*
X121660537Y-151354494D01*
X121719502Y-151244180D01*
X121755812Y-151124482D01*
X121768072Y-151000000D01*
X121768072Y-150606891D01*
X123338519Y-150606891D01*
X123435843Y-150881252D01*
X123584822Y-151131355D01*
X123779731Y-151347588D01*
X124013080Y-151521641D01*
X124275901Y-151646825D01*
X124423110Y-151691476D01*
X124653000Y-151570155D01*
X124653000Y-150377000D01*
X123459186Y-150377000D01*
X123338519Y-150606891D01*
X121768072Y-150606891D01*
X121768072Y-149893109D01*
X123338519Y-149893109D01*
X123459186Y-150123000D01*
X124653000Y-150123000D01*
X124653000Y-148929845D01*
X124907000Y-148929845D01*
X124907000Y-150123000D01*
X124927000Y-150123000D01*
X124927000Y-150377000D01*
X124907000Y-150377000D01*
X124907000Y-151570155D01*
X125136890Y-151691476D01*
X125284099Y-151646825D01*
X125546920Y-151521641D01*
X125780269Y-151347588D01*
X125975178Y-151131355D01*
X126044805Y-151014466D01*
X126166525Y-151196632D01*
X126373368Y-151403475D01*
X126616589Y-151565990D01*
X126886842Y-151677932D01*
X127173740Y-151735000D01*
X127466260Y-151735000D01*
X127753158Y-151677932D01*
X128023411Y-151565990D01*
X128266632Y-151403475D01*
X128473475Y-151196632D01*
X128590000Y-151022240D01*
X128706525Y-151196632D01*
X128913368Y-151403475D01*
X129156589Y-151565990D01*
X129426842Y-151677932D01*
X129713740Y-151735000D01*
X130006260Y-151735000D01*
X130293158Y-151677932D01*
X130563411Y-151565990D01*
X130806632Y-151403475D01*
X131013475Y-151196632D01*
X131130000Y-151022240D01*
X131246525Y-151196632D01*
X131453368Y-151403475D01*
X131696589Y-151565990D01*
X131966842Y-151677932D01*
X132253740Y-151735000D01*
X132546260Y-151735000D01*
X132833158Y-151677932D01*
X133103411Y-151565990D01*
X133346632Y-151403475D01*
X133553475Y-151196632D01*
X133670000Y-151022240D01*
X133786525Y-151196632D01*
X133993368Y-151403475D01*
X134236589Y-151565990D01*
X134506842Y-151677932D01*
X134793740Y-151735000D01*
X135086260Y-151735000D01*
X135373158Y-151677932D01*
X135643411Y-151565990D01*
X135886632Y-151403475D01*
X136018487Y-151271620D01*
X136040498Y-151344180D01*
X136099463Y-151454494D01*
X136178815Y-151551185D01*
X136275506Y-151630537D01*
X136385820Y-151689502D01*
X136505518Y-151725812D01*
X136630000Y-151738072D01*
X138330000Y-151738072D01*
X138454482Y-151725812D01*
X138574180Y-151689502D01*
X138684494Y-151630537D01*
X138781185Y-151551185D01*
X138860537Y-151454494D01*
X138919502Y-151344180D01*
X138955812Y-151224482D01*
X138968072Y-151100000D01*
X138968072Y-150606891D01*
X140718519Y-150606891D01*
X140815843Y-150881252D01*
X140964822Y-151131355D01*
X141159731Y-151347588D01*
X141393080Y-151521641D01*
X141655901Y-151646825D01*
X141803110Y-151691476D01*
X142033000Y-151570155D01*
X142033000Y-150377000D01*
X140839186Y-150377000D01*
X140718519Y-150606891D01*
X138968072Y-150606891D01*
X138968072Y-149893109D01*
X140718519Y-149893109D01*
X140839186Y-150123000D01*
X142033000Y-150123000D01*
X142033000Y-148929845D01*
X141803110Y-148808524D01*
X141655901Y-148853175D01*
X141393080Y-148978359D01*
X141159731Y-149152412D01*
X140964822Y-149368645D01*
X140815843Y-149618748D01*
X140718519Y-149893109D01*
X138968072Y-149893109D01*
X138968072Y-149400000D01*
X138955812Y-149275518D01*
X138919502Y-149155820D01*
X138860537Y-149045506D01*
X138781185Y-148948815D01*
X138684494Y-148869463D01*
X138574180Y-148810498D01*
X138454482Y-148774188D01*
X138330000Y-148761928D01*
X136630000Y-148761928D01*
X136505518Y-148774188D01*
X136385820Y-148810498D01*
X136275506Y-148869463D01*
X136178815Y-148948815D01*
X136099463Y-149045506D01*
X136040498Y-149155820D01*
X136018487Y-149228380D01*
X135886632Y-149096525D01*
X135643411Y-148934010D01*
X135373158Y-148822068D01*
X135086260Y-148765000D01*
X134793740Y-148765000D01*
X134506842Y-148822068D01*
X134236589Y-148934010D01*
X133993368Y-149096525D01*
X133786525Y-149303368D01*
X133670000Y-149477760D01*
X133553475Y-149303368D01*
X133346632Y-149096525D01*
X133103411Y-148934010D01*
X132833158Y-148822068D01*
X132546260Y-148765000D01*
X132253740Y-148765000D01*
X131966842Y-148822068D01*
X131696589Y-148934010D01*
X131453368Y-149096525D01*
X131246525Y-149303368D01*
X131130000Y-149477760D01*
X131013475Y-149303368D01*
X130806632Y-149096525D01*
X130563411Y-148934010D01*
X130293158Y-148822068D01*
X130006260Y-148765000D01*
X129713740Y-148765000D01*
X129426842Y-148822068D01*
X129156589Y-148934010D01*
X128913368Y-149096525D01*
X128706525Y-149303368D01*
X128590000Y-149477760D01*
X128473475Y-149303368D01*
X128266632Y-149096525D01*
X128023411Y-148934010D01*
X127753158Y-148822068D01*
X127466260Y-148765000D01*
X127173740Y-148765000D01*
X126886842Y-148822068D01*
X126616589Y-148934010D01*
X126373368Y-149096525D01*
X126166525Y-149303368D01*
X126044805Y-149485534D01*
X125975178Y-149368645D01*
X125780269Y-149152412D01*
X125546920Y-148978359D01*
X125284099Y-148853175D01*
X125136890Y-148808524D01*
X124907000Y-148929845D01*
X124653000Y-148929845D01*
X124423110Y-148808524D01*
X124275901Y-148853175D01*
X124013080Y-148978359D01*
X123779731Y-149152412D01*
X123584822Y-149368645D01*
X123435843Y-149618748D01*
X123338519Y-149893109D01*
X121768072Y-149893109D01*
X121768072Y-149300000D01*
X121755812Y-149175518D01*
X121719502Y-149055820D01*
X121660537Y-148945506D01*
X121581185Y-148848815D01*
X121484494Y-148769463D01*
X121374180Y-148710498D01*
X121254482Y-148674188D01*
X121130000Y-148661928D01*
X119430000Y-148661928D01*
X119305518Y-148674188D01*
X119185820Y-148710498D01*
X119075506Y-148769463D01*
X118978815Y-148848815D01*
X118899463Y-148945506D01*
X118840498Y-149055820D01*
X118818487Y-149128380D01*
X118686632Y-148996525D01*
X118443411Y-148834010D01*
X118173158Y-148722068D01*
X117886260Y-148665000D01*
X117593740Y-148665000D01*
X117306842Y-148722068D01*
X117036589Y-148834010D01*
X116793368Y-148996525D01*
X116586525Y-149203368D01*
X116470000Y-149377760D01*
X116353475Y-149203368D01*
X116146632Y-148996525D01*
X115903411Y-148834010D01*
X115633158Y-148722068D01*
X115346260Y-148665000D01*
X115053740Y-148665000D01*
X114766842Y-148722068D01*
X114496589Y-148834010D01*
X114253368Y-148996525D01*
X114046525Y-149203368D01*
X113930000Y-149377760D01*
X113813475Y-149203368D01*
X113606632Y-148996525D01*
X113363411Y-148834010D01*
X113093158Y-148722068D01*
X112806260Y-148665000D01*
X112513740Y-148665000D01*
X112226842Y-148722068D01*
X111956589Y-148834010D01*
X111713368Y-148996525D01*
X111506525Y-149203368D01*
X111390000Y-149377760D01*
X111273475Y-149203368D01*
X111066632Y-148996525D01*
X110823411Y-148834010D01*
X110553158Y-148722068D01*
X110266260Y-148665000D01*
X109973740Y-148665000D01*
X109686842Y-148722068D01*
X109416589Y-148834010D01*
X109173368Y-148996525D01*
X108966525Y-149203368D01*
X108844805Y-149385534D01*
X108775178Y-149268645D01*
X108580269Y-149052412D01*
X108346920Y-148878359D01*
X108084099Y-148753175D01*
X107936890Y-148708524D01*
X107707000Y-148829845D01*
X107453000Y-148829845D01*
X107223110Y-148708524D01*
X107075901Y-148753175D01*
X106813080Y-148878359D01*
X106579731Y-149052412D01*
X106384822Y-149268645D01*
X106235843Y-149518748D01*
X106138519Y-149793109D01*
X96660000Y-149793109D01*
X96660000Y-122238665D01*
X98655000Y-122238665D01*
X98655000Y-122521335D01*
X98710147Y-122798574D01*
X98818320Y-123059727D01*
X98975363Y-123294759D01*
X99175241Y-123494637D01*
X99205000Y-123514521D01*
X99205001Y-128106519D01*
X99200719Y-128149998D01*
X99217805Y-128323488D01*
X99268412Y-128490311D01*
X99350590Y-128644057D01*
X99433468Y-128745044D01*
X99433471Y-128745047D01*
X99461184Y-128778815D01*
X99494952Y-128806528D01*
X107034848Y-136346425D01*
X107030273Y-136348320D01*
X106795241Y-136505363D01*
X106595363Y-136705241D01*
X106440000Y-136937759D01*
X106284637Y-136705241D01*
X106084759Y-136505363D01*
X105849727Y-136348320D01*
X105588574Y-136240147D01*
X105311335Y-136185000D01*
X105028665Y-136185000D01*
X104751426Y-136240147D01*
X104490273Y-136348320D01*
X104255241Y-136505363D01*
X104055363Y-136705241D01*
X103900000Y-136937759D01*
X103744637Y-136705241D01*
X103544759Y-136505363D01*
X103309727Y-136348320D01*
X103048574Y-136240147D01*
X102771335Y-136185000D01*
X102488665Y-136185000D01*
X102211426Y-136240147D01*
X101950273Y-136348320D01*
X101715241Y-136505363D01*
X101515363Y-136705241D01*
X101360000Y-136937759D01*
X101204637Y-136705241D01*
X101004759Y-136505363D01*
X100769727Y-136348320D01*
X100508574Y-136240147D01*
X100231335Y-136185000D01*
X99948665Y-136185000D01*
X99671426Y-136240147D01*
X99410273Y-136348320D01*
X99175241Y-136505363D01*
X98975363Y-136705241D01*
X98818320Y-136940273D01*
X98710147Y-137201426D01*
X98655000Y-137478665D01*
X98655000Y-137761335D01*
X98710147Y-138038574D01*
X98818320Y-138299727D01*
X98975363Y-138534759D01*
X99175241Y-138734637D01*
X99410273Y-138891680D01*
X99671426Y-138999853D01*
X99948665Y-139055000D01*
X100231335Y-139055000D01*
X100508574Y-138999853D01*
X100769727Y-138891680D01*
X101004759Y-138734637D01*
X101204637Y-138534759D01*
X101360000Y-138302241D01*
X101515363Y-138534759D01*
X101715241Y-138734637D01*
X101950273Y-138891680D01*
X102211426Y-138999853D01*
X102488665Y-139055000D01*
X102771335Y-139055000D01*
X102953886Y-139018688D01*
X104800435Y-140865237D01*
X104869999Y-140950001D01*
X104899001Y-140973802D01*
X105039490Y-141114291D01*
X105004774Y-141198102D01*
X104965000Y-141398061D01*
X104965000Y-141601939D01*
X105004774Y-141801898D01*
X105082795Y-141990256D01*
X105196063Y-142159774D01*
X105340226Y-142303937D01*
X105509744Y-142417205D01*
X105698102Y-142495226D01*
X105898061Y-142535000D01*
X106101939Y-142535000D01*
X106301898Y-142495226D01*
X106490256Y-142417205D01*
X106659774Y-142303937D01*
X106803937Y-142159774D01*
X106917205Y-141990256D01*
X106995226Y-141801898D01*
X107035000Y-141601939D01*
X107035000Y-141398061D01*
X106995226Y-141198102D01*
X106917205Y-141009744D01*
X106803937Y-140840226D01*
X106720386Y-140756675D01*
X106705546Y-140707753D01*
X106702602Y-140702246D01*
X106634974Y-140575723D01*
X106563799Y-140488997D01*
X106540001Y-140459999D01*
X106511004Y-140436202D01*
X106019569Y-139944768D01*
X105950001Y-139859999D01*
X105921004Y-139836202D01*
X105139802Y-139055000D01*
X105311335Y-139055000D01*
X105588574Y-138999853D01*
X105849727Y-138891680D01*
X106084759Y-138734637D01*
X106284637Y-138534759D01*
X106440000Y-138302241D01*
X106595363Y-138534759D01*
X106795241Y-138734637D01*
X107030273Y-138891680D01*
X107291426Y-138999853D01*
X107568665Y-139055000D01*
X107851335Y-139055000D01*
X108128574Y-138999853D01*
X108389727Y-138891680D01*
X108407934Y-138879514D01*
X111223466Y-141695047D01*
X111251181Y-141728817D01*
X111284949Y-141756530D01*
X111284951Y-141756532D01*
X111316953Y-141782795D01*
X111385939Y-141839411D01*
X111466142Y-141882280D01*
X110814951Y-142533471D01*
X110781184Y-142561183D01*
X110753471Y-142594951D01*
X110753468Y-142594954D01*
X110670590Y-142695941D01*
X110588412Y-142849687D01*
X110537805Y-143016510D01*
X110520719Y-143190000D01*
X110525001Y-143233479D01*
X110525000Y-144721181D01*
X110519465Y-144724880D01*
X110324880Y-144919465D01*
X110171995Y-145148273D01*
X110066686Y-145402510D01*
X110013000Y-145672408D01*
X110013000Y-145947592D01*
X110066686Y-146217490D01*
X110171995Y-146471727D01*
X110324880Y-146700535D01*
X110519465Y-146895120D01*
X110748273Y-147048005D01*
X111002510Y-147153314D01*
X111272408Y-147207000D01*
X111547592Y-147207000D01*
X111817490Y-147153314D01*
X112071727Y-147048005D01*
X112300535Y-146895120D01*
X112495120Y-146700535D01*
X112648005Y-146471727D01*
X112680000Y-146394485D01*
X112711995Y-146471727D01*
X112864880Y-146700535D01*
X113059465Y-146895120D01*
X113288273Y-147048005D01*
X113542510Y-147153314D01*
X113812408Y-147207000D01*
X114087592Y-147207000D01*
X114357490Y-147153314D01*
X114611727Y-147048005D01*
X114840535Y-146895120D01*
X115035120Y-146700535D01*
X115188005Y-146471727D01*
X115220000Y-146394485D01*
X115251995Y-146471727D01*
X115404880Y-146700535D01*
X115599465Y-146895120D01*
X115828273Y-147048005D01*
X116082510Y-147153314D01*
X116352408Y-147207000D01*
X116627592Y-147207000D01*
X116897490Y-147153314D01*
X117151727Y-147048005D01*
X117380535Y-146895120D01*
X117575120Y-146700535D01*
X117576545Y-146698403D01*
X117611099Y-146695000D01*
X117611107Y-146695000D01*
X117712640Y-146685000D01*
X123333422Y-146685000D01*
X124843470Y-148195049D01*
X124871183Y-148228817D01*
X124904951Y-148256530D01*
X124904953Y-148256532D01*
X124971716Y-148311323D01*
X125005941Y-148339411D01*
X125159687Y-148421589D01*
X125326510Y-148472195D01*
X125456523Y-148485000D01*
X125456533Y-148485000D01*
X125499999Y-148489281D01*
X125543465Y-148485000D01*
X135306533Y-148485000D01*
X135349999Y-148489281D01*
X135393465Y-148485000D01*
X152706533Y-148485000D01*
X152749999Y-148489281D01*
X152793465Y-148485000D01*
X153015923Y-148485000D01*
X152955000Y-148534998D01*
X152931197Y-148564002D01*
X152686408Y-148808791D01*
X152466260Y-148765000D01*
X152173740Y-148765000D01*
X151886842Y-148822068D01*
X151616589Y-148934010D01*
X151373368Y-149096525D01*
X151166525Y-149303368D01*
X151050000Y-149477760D01*
X150933475Y-149303368D01*
X150726632Y-149096525D01*
X150483411Y-148934010D01*
X150213158Y-148822068D01*
X149926260Y-148765000D01*
X149633740Y-148765000D01*
X149346842Y-148822068D01*
X149076589Y-148934010D01*
X148833368Y-149096525D01*
X148626525Y-149303368D01*
X148510000Y-149477760D01*
X148393475Y-149303368D01*
X148186632Y-149096525D01*
X147943411Y-148934010D01*
X147673158Y-148822068D01*
X147386260Y-148765000D01*
X147093740Y-148765000D01*
X146806842Y-148822068D01*
X146536589Y-148934010D01*
X146293368Y-149096525D01*
X146086525Y-149303368D01*
X145970000Y-149477760D01*
X145853475Y-149303368D01*
X145646632Y-149096525D01*
X145403411Y-148934010D01*
X145133158Y-148822068D01*
X144846260Y-148765000D01*
X144553740Y-148765000D01*
X144266842Y-148822068D01*
X143996589Y-148934010D01*
X143753368Y-149096525D01*
X143546525Y-149303368D01*
X143424805Y-149485534D01*
X143355178Y-149368645D01*
X143160269Y-149152412D01*
X142926920Y-148978359D01*
X142664099Y-148853175D01*
X142516890Y-148808524D01*
X142287000Y-148929845D01*
X142287000Y-150123000D01*
X142307000Y-150123000D01*
X142307000Y-150377000D01*
X142287000Y-150377000D01*
X142287000Y-151570155D01*
X142516890Y-151691476D01*
X142664099Y-151646825D01*
X142926920Y-151521641D01*
X143160269Y-151347588D01*
X143355178Y-151131355D01*
X143424805Y-151014466D01*
X143546525Y-151196632D01*
X143753368Y-151403475D01*
X143996589Y-151565990D01*
X144266842Y-151677932D01*
X144553740Y-151735000D01*
X144846260Y-151735000D01*
X145133158Y-151677932D01*
X145403411Y-151565990D01*
X145646632Y-151403475D01*
X145853475Y-151196632D01*
X145970000Y-151022240D01*
X146086525Y-151196632D01*
X146293368Y-151403475D01*
X146536589Y-151565990D01*
X146806842Y-151677932D01*
X147093740Y-151735000D01*
X147386260Y-151735000D01*
X147606408Y-151691209D01*
X151451201Y-155536003D01*
X151474999Y-155565001D01*
X151590724Y-155659974D01*
X151722753Y-155730546D01*
X151866014Y-155774003D01*
X151977667Y-155785000D01*
X151977675Y-155785000D01*
X152015000Y-155788676D01*
X152052325Y-155785000D01*
X157896289Y-155785000D01*
X157940226Y-155828937D01*
X158109744Y-155942205D01*
X158298102Y-156020226D01*
X158498061Y-156060000D01*
X158701939Y-156060000D01*
X158901898Y-156020226D01*
X159090256Y-155942205D01*
X159259774Y-155828937D01*
X159403937Y-155684774D01*
X159517205Y-155515256D01*
X159595226Y-155326898D01*
X159635000Y-155126939D01*
X159635000Y-155060000D01*
X162852678Y-155060000D01*
X162890000Y-155063676D01*
X162927322Y-155060000D01*
X162927333Y-155060000D01*
X163038986Y-155049003D01*
X163182247Y-155005546D01*
X163314276Y-154934974D01*
X163430001Y-154840001D01*
X163453804Y-154810997D01*
X166573592Y-151691210D01*
X166793740Y-151735000D01*
X167086260Y-151735000D01*
X167373158Y-151677932D01*
X167643411Y-151565990D01*
X167886632Y-151403475D01*
X168093475Y-151196632D01*
X168210000Y-151022240D01*
X168326525Y-151196632D01*
X168533368Y-151403475D01*
X168776589Y-151565990D01*
X169046842Y-151677932D01*
X169333740Y-151735000D01*
X169626260Y-151735000D01*
X169913158Y-151677932D01*
X170183411Y-151565990D01*
X170426632Y-151403475D01*
X170558487Y-151271620D01*
X170580498Y-151344180D01*
X170639463Y-151454494D01*
X170718815Y-151551185D01*
X170815506Y-151630537D01*
X170925820Y-151689502D01*
X171045518Y-151725812D01*
X171170000Y-151738072D01*
X172870000Y-151738072D01*
X172994482Y-151725812D01*
X173114180Y-151689502D01*
X173224494Y-151630537D01*
X173321185Y-151551185D01*
X173400537Y-151454494D01*
X173459502Y-151344180D01*
X173495812Y-151224482D01*
X173508072Y-151100000D01*
X173508072Y-149400000D01*
X173495812Y-149275518D01*
X173459502Y-149155820D01*
X173400537Y-149045506D01*
X173321185Y-148948815D01*
X173224494Y-148869463D01*
X173114180Y-148810498D01*
X172994482Y-148774188D01*
X172870000Y-148761928D01*
X171170000Y-148761928D01*
X171045518Y-148774188D01*
X170925820Y-148810498D01*
X170815506Y-148869463D01*
X170718815Y-148948815D01*
X170639463Y-149045506D01*
X170580498Y-149155820D01*
X170558487Y-149228380D01*
X170426632Y-149096525D01*
X170183411Y-148934010D01*
X169913158Y-148822068D01*
X169626260Y-148765000D01*
X169333740Y-148765000D01*
X169113592Y-148808791D01*
X168868803Y-148564002D01*
X168845000Y-148534998D01*
X168729275Y-148440025D01*
X168597246Y-148369453D01*
X168453985Y-148325996D01*
X168342332Y-148314999D01*
X168342321Y-148314999D01*
X168304999Y-148311323D01*
X168267677Y-148314999D01*
X167023805Y-148314999D01*
X167128817Y-148228817D01*
X167156534Y-148195044D01*
X168095878Y-147255701D01*
X168102408Y-147257000D01*
X168377592Y-147257000D01*
X168647490Y-147203314D01*
X168901727Y-147098005D01*
X169130535Y-146945120D01*
X169325120Y-146750535D01*
X169478005Y-146521727D01*
X169583314Y-146267490D01*
X169637000Y-145997592D01*
X169637000Y-145722408D01*
X169635701Y-145715877D01*
X171697870Y-143653708D01*
X171798102Y-143695226D01*
X171998061Y-143735000D01*
X172201939Y-143735000D01*
X172401898Y-143695226D01*
X172590256Y-143617205D01*
X172759774Y-143503937D01*
X172903937Y-143359774D01*
X173017205Y-143190256D01*
X173095226Y-143001898D01*
X173135000Y-142801939D01*
X173135000Y-142598061D01*
X173095226Y-142398102D01*
X173017205Y-142209744D01*
X172903937Y-142040226D01*
X172804548Y-141940837D01*
X172859774Y-141903937D01*
X173003937Y-141759774D01*
X173117205Y-141590256D01*
X173195226Y-141401898D01*
X173235000Y-141201939D01*
X173235000Y-140998061D01*
X173195226Y-140798102D01*
X173117205Y-140609744D01*
X173003937Y-140440226D01*
X172859774Y-140296063D01*
X172690256Y-140182795D01*
X172501898Y-140104774D01*
X172301939Y-140065000D01*
X172098061Y-140065000D01*
X171898102Y-140104774D01*
X171709744Y-140182795D01*
X171697383Y-140191054D01*
X171735000Y-140001939D01*
X171735000Y-139798061D01*
X171695226Y-139598102D01*
X171617205Y-139409744D01*
X171596317Y-139378484D01*
X174611004Y-136363798D01*
X174640001Y-136340001D01*
X174734974Y-136224276D01*
X174805546Y-136092247D01*
X174849003Y-135948986D01*
X174860000Y-135837333D01*
X174860000Y-135837324D01*
X174863676Y-135800001D01*
X174860000Y-135762678D01*
X174860000Y-135568514D01*
X176265000Y-135568514D01*
X176265000Y-135831486D01*
X176316304Y-136089405D01*
X176416939Y-136332359D01*
X176563038Y-136551013D01*
X176748987Y-136736962D01*
X176967641Y-136883061D01*
X177210595Y-136983696D01*
X177468514Y-137035000D01*
X177731486Y-137035000D01*
X177989405Y-136983696D01*
X178232359Y-136883061D01*
X178451013Y-136736962D01*
X178636962Y-136551013D01*
X178783061Y-136332359D01*
X178883696Y-136089405D01*
X178935000Y-135831486D01*
X178935000Y-135568514D01*
X178883696Y-135310595D01*
X178783061Y-135067641D01*
X178636962Y-134848987D01*
X178451013Y-134663038D01*
X178232359Y-134516939D01*
X177989405Y-134416304D01*
X177731486Y-134365000D01*
X177468514Y-134365000D01*
X177210595Y-134416304D01*
X176967641Y-134516939D01*
X176748987Y-134663038D01*
X176563038Y-134848987D01*
X176416939Y-135067641D01*
X176316304Y-135310595D01*
X176265000Y-135568514D01*
X174860000Y-135568514D01*
X174860000Y-127403711D01*
X174903937Y-127359774D01*
X175017205Y-127190256D01*
X175095226Y-127001898D01*
X175135000Y-126801939D01*
X175135000Y-126598061D01*
X175095226Y-126398102D01*
X175017205Y-126209744D01*
X174903937Y-126040226D01*
X174759774Y-125896063D01*
X174590256Y-125782795D01*
X174401898Y-125704774D01*
X174229515Y-125670485D01*
X174195226Y-125498102D01*
X174117205Y-125309744D01*
X174003937Y-125140226D01*
X173859774Y-124996063D01*
X173690256Y-124882795D01*
X173501898Y-124804774D01*
X173302542Y-124765120D01*
X173335000Y-124601939D01*
X173335000Y-124568514D01*
X176265000Y-124568514D01*
X176265000Y-124831486D01*
X176316304Y-125089405D01*
X176416939Y-125332359D01*
X176563038Y-125551013D01*
X176748987Y-125736962D01*
X176967641Y-125883061D01*
X177210595Y-125983696D01*
X177468514Y-126035000D01*
X177731486Y-126035000D01*
X177989405Y-125983696D01*
X178232359Y-125883061D01*
X178451013Y-125736962D01*
X178636962Y-125551013D01*
X178783061Y-125332359D01*
X178883696Y-125089405D01*
X178935000Y-124831486D01*
X178935000Y-124568514D01*
X178883696Y-124310595D01*
X178783061Y-124067641D01*
X178636962Y-123848987D01*
X178451013Y-123663038D01*
X178232359Y-123516939D01*
X177989405Y-123416304D01*
X177731486Y-123365000D01*
X177468514Y-123365000D01*
X177210595Y-123416304D01*
X176967641Y-123516939D01*
X176748987Y-123663038D01*
X176563038Y-123848987D01*
X176416939Y-124067641D01*
X176316304Y-124310595D01*
X176265000Y-124568514D01*
X173335000Y-124568514D01*
X173335000Y-124398061D01*
X173295226Y-124198102D01*
X173217205Y-124009744D01*
X173103937Y-123840226D01*
X172959774Y-123696063D01*
X172790256Y-123582795D01*
X172601898Y-123504774D01*
X172401939Y-123465000D01*
X172198061Y-123465000D01*
X171998102Y-123504774D01*
X171809744Y-123582795D01*
X171640226Y-123696063D01*
X171496063Y-123840226D01*
X171382795Y-124009744D01*
X171304774Y-124198102D01*
X171265000Y-124398061D01*
X171265000Y-124601939D01*
X171304774Y-124801898D01*
X171382795Y-124990256D01*
X171496063Y-125159774D01*
X171540000Y-125203711D01*
X171540001Y-135585196D01*
X170185199Y-136940000D01*
X141914802Y-136940000D01*
X141025001Y-136050200D01*
X141025001Y-135502326D01*
X141028677Y-135465001D01*
X141025001Y-135427676D01*
X141025001Y-135427668D01*
X141014004Y-135316015D01*
X140970547Y-135172754D01*
X140899975Y-135040725D01*
X140805002Y-134925000D01*
X140776004Y-134901202D01*
X140474802Y-134600000D01*
X157661928Y-134600000D01*
X157674188Y-134724482D01*
X157710498Y-134844180D01*
X157769463Y-134954494D01*
X157848815Y-135051185D01*
X157945506Y-135130537D01*
X158055820Y-135189502D01*
X158175518Y-135225812D01*
X158300000Y-135238072D01*
X159914250Y-135235000D01*
X160073000Y-135076250D01*
X160073000Y-132827000D01*
X160327000Y-132827000D01*
X160327000Y-135076250D01*
X160485750Y-135235000D01*
X162100000Y-135238072D01*
X162224482Y-135225812D01*
X162344180Y-135189502D01*
X162454494Y-135130537D01*
X162551185Y-135051185D01*
X162630537Y-134954494D01*
X162689502Y-134844180D01*
X162725812Y-134724482D01*
X162738072Y-134600000D01*
X162737787Y-134450000D01*
X165211928Y-134450000D01*
X165224188Y-134574482D01*
X165260498Y-134694180D01*
X165319463Y-134804494D01*
X165398815Y-134901185D01*
X165495506Y-134980537D01*
X165605820Y-135039502D01*
X165725518Y-135075812D01*
X165850000Y-135088072D01*
X167314250Y-135085000D01*
X167473000Y-134926250D01*
X167473000Y-132827000D01*
X167727000Y-132827000D01*
X167727000Y-134926250D01*
X167885750Y-135085000D01*
X169350000Y-135088072D01*
X169474482Y-135075812D01*
X169594180Y-135039502D01*
X169704494Y-134980537D01*
X169801185Y-134901185D01*
X169880537Y-134804494D01*
X169939502Y-134694180D01*
X169975812Y-134574482D01*
X169988072Y-134450000D01*
X169985000Y-132985750D01*
X169826250Y-132827000D01*
X167727000Y-132827000D01*
X167473000Y-132827000D01*
X165373750Y-132827000D01*
X165215000Y-132985750D01*
X165211928Y-134450000D01*
X162737787Y-134450000D01*
X162735000Y-132985750D01*
X162576250Y-132827000D01*
X160327000Y-132827000D01*
X160073000Y-132827000D01*
X157823750Y-132827000D01*
X157665000Y-132985750D01*
X157661928Y-134600000D01*
X140474802Y-134600000D01*
X138980805Y-133106004D01*
X138957002Y-133077000D01*
X138955901Y-133076096D01*
X139013314Y-132937490D01*
X139067000Y-132667592D01*
X139067000Y-132392408D01*
X139013314Y-132122510D01*
X138908005Y-131868273D01*
X138755120Y-131639465D01*
X138560535Y-131444880D01*
X138331727Y-131291995D01*
X138260057Y-131262308D01*
X138273023Y-131257636D01*
X138388980Y-131195656D01*
X138455960Y-130955565D01*
X138300395Y-130800000D01*
X157661928Y-130800000D01*
X157665000Y-132414250D01*
X157823750Y-132573000D01*
X160073000Y-132573000D01*
X160073000Y-132553000D01*
X160327000Y-132553000D01*
X160327000Y-132573000D01*
X162576250Y-132573000D01*
X162735000Y-132414250D01*
X162737786Y-130950000D01*
X165211928Y-130950000D01*
X165215000Y-132414250D01*
X165373750Y-132573000D01*
X167473000Y-132573000D01*
X167473000Y-130473750D01*
X167727000Y-130473750D01*
X167727000Y-132573000D01*
X169826250Y-132573000D01*
X169985000Y-132414250D01*
X169988072Y-130950000D01*
X169975812Y-130825518D01*
X169939502Y-130705820D01*
X169880537Y-130595506D01*
X169801185Y-130498815D01*
X169704494Y-130419463D01*
X169594180Y-130360498D01*
X169474482Y-130324188D01*
X169350000Y-130311928D01*
X167885750Y-130315000D01*
X167727000Y-130473750D01*
X167473000Y-130473750D01*
X167314250Y-130315000D01*
X165850000Y-130311928D01*
X165725518Y-130324188D01*
X165605820Y-130360498D01*
X165495506Y-130419463D01*
X165398815Y-130498815D01*
X165319463Y-130595506D01*
X165260498Y-130705820D01*
X165224188Y-130825518D01*
X165211928Y-130950000D01*
X162737786Y-130950000D01*
X162738072Y-130800000D01*
X162725812Y-130675518D01*
X162689502Y-130555820D01*
X162630537Y-130445506D01*
X162551185Y-130348815D01*
X162454494Y-130269463D01*
X162344180Y-130210498D01*
X162224482Y-130174188D01*
X162100000Y-130161928D01*
X160804643Y-130164393D01*
X160939432Y-130137582D01*
X161400773Y-129946488D01*
X161815968Y-129669063D01*
X162169063Y-129315968D01*
X162446488Y-128900773D01*
X162637582Y-128439432D01*
X162735000Y-127949676D01*
X162735000Y-127465098D01*
X165215000Y-127465098D01*
X165215000Y-127934902D01*
X165306654Y-128395679D01*
X165486440Y-128829721D01*
X165747450Y-129220349D01*
X166079651Y-129552550D01*
X166470279Y-129813560D01*
X166904321Y-129993346D01*
X167365098Y-130085000D01*
X167834902Y-130085000D01*
X168295679Y-129993346D01*
X168729721Y-129813560D01*
X169120349Y-129552550D01*
X169452550Y-129220349D01*
X169713560Y-128829721D01*
X169893346Y-128395679D01*
X169985000Y-127934902D01*
X169985000Y-127465098D01*
X169893346Y-127004321D01*
X169713560Y-126570279D01*
X169452550Y-126179651D01*
X169120349Y-125847450D01*
X168729721Y-125586440D01*
X168295679Y-125406654D01*
X167834902Y-125315000D01*
X167365098Y-125315000D01*
X166904321Y-125406654D01*
X166470279Y-125586440D01*
X166079651Y-125847450D01*
X165747450Y-126179651D01*
X165486440Y-126570279D01*
X165306654Y-127004321D01*
X165215000Y-127465098D01*
X162735000Y-127465098D01*
X162735000Y-127450324D01*
X162637582Y-126960568D01*
X162446488Y-126499227D01*
X162169063Y-126084032D01*
X161815968Y-125730937D01*
X161400773Y-125453512D01*
X160939432Y-125262418D01*
X160449676Y-125165000D01*
X159950324Y-125165000D01*
X159460568Y-125262418D01*
X158999227Y-125453512D01*
X158584032Y-125730937D01*
X158230937Y-126084032D01*
X157953512Y-126499227D01*
X157762418Y-126960568D01*
X157665000Y-127450324D01*
X157665000Y-127949676D01*
X157762418Y-128439432D01*
X157953512Y-128900773D01*
X158230937Y-129315968D01*
X158584032Y-129669063D01*
X158999227Y-129946488D01*
X159460568Y-130137582D01*
X159595357Y-130164393D01*
X158300000Y-130161928D01*
X158175518Y-130174188D01*
X158055820Y-130210498D01*
X157945506Y-130269463D01*
X157848815Y-130348815D01*
X157769463Y-130445506D01*
X157710498Y-130555820D01*
X157674188Y-130675518D01*
X157661928Y-130800000D01*
X138300395Y-130800000D01*
X137670000Y-130169605D01*
X137655858Y-130183748D01*
X137476253Y-130004143D01*
X137490395Y-129990000D01*
X137849605Y-129990000D01*
X138635565Y-130775960D01*
X138875656Y-130708980D01*
X138992756Y-130459952D01*
X139059023Y-130192865D01*
X139071910Y-129917983D01*
X139030922Y-129645867D01*
X138937636Y-129386977D01*
X138875656Y-129271020D01*
X138635565Y-129204040D01*
X137849605Y-129990000D01*
X137490395Y-129990000D01*
X136704435Y-129204040D01*
X136464344Y-129271020D01*
X136347244Y-129520048D01*
X136280977Y-129787135D01*
X136276397Y-129884819D01*
X134546533Y-128154955D01*
X134518816Y-128121182D01*
X134422204Y-128041894D01*
X134489853Y-127878574D01*
X134545000Y-127601335D01*
X134545000Y-127318665D01*
X134489853Y-127041426D01*
X134381680Y-126780273D01*
X134224637Y-126545241D01*
X134024759Y-126345363D01*
X133792241Y-126190000D01*
X134024759Y-126034637D01*
X134224637Y-125834759D01*
X134381680Y-125599727D01*
X134489853Y-125338574D01*
X134545000Y-125061335D01*
X134545000Y-124778665D01*
X134489853Y-124501426D01*
X134381680Y-124240273D01*
X134224637Y-124005241D01*
X134024759Y-123805363D01*
X133792241Y-123650000D01*
X134024759Y-123494637D01*
X134224637Y-123294759D01*
X134381680Y-123059727D01*
X134489853Y-122798574D01*
X134545000Y-122521335D01*
X134545000Y-122238665D01*
X134489853Y-121961426D01*
X134381680Y-121700273D01*
X134224637Y-121465241D01*
X134024759Y-121265363D01*
X133979319Y-121235001D01*
X135456534Y-121235001D01*
X135500000Y-121239282D01*
X135543467Y-121235001D01*
X136854114Y-121235001D01*
X136779465Y-121284880D01*
X136584880Y-121479465D01*
X136431995Y-121708273D01*
X136326686Y-121962510D01*
X136273000Y-122232408D01*
X136273000Y-122507592D01*
X136326686Y-122777490D01*
X136431995Y-123031727D01*
X136584880Y-123260535D01*
X136779465Y-123455120D01*
X137008273Y-123608005D01*
X137085515Y-123640000D01*
X137008273Y-123671995D01*
X136779465Y-123824880D01*
X136584880Y-124019465D01*
X136431995Y-124248273D01*
X136326686Y-124502510D01*
X136273000Y-124772408D01*
X136273000Y-125047592D01*
X136326686Y-125317490D01*
X136431995Y-125571727D01*
X136584880Y-125800535D01*
X136779465Y-125995120D01*
X137008273Y-126148005D01*
X137085515Y-126180000D01*
X137008273Y-126211995D01*
X136779465Y-126364880D01*
X136584880Y-126559465D01*
X136431995Y-126788273D01*
X136326686Y-127042510D01*
X136273000Y-127312408D01*
X136273000Y-127587592D01*
X136326686Y-127857490D01*
X136431995Y-128111727D01*
X136584880Y-128340535D01*
X136779465Y-128535120D01*
X137008273Y-128688005D01*
X137079943Y-128717692D01*
X137066977Y-128722364D01*
X136951020Y-128784344D01*
X136884040Y-129024435D01*
X137670000Y-129810395D01*
X138455960Y-129024435D01*
X138388980Y-128784344D01*
X138253240Y-128720515D01*
X138331727Y-128688005D01*
X138560535Y-128535120D01*
X138755120Y-128340535D01*
X138908005Y-128111727D01*
X139013314Y-127857490D01*
X139067000Y-127587592D01*
X139067000Y-127312408D01*
X139013314Y-127042510D01*
X138908005Y-126788273D01*
X138755120Y-126559465D01*
X138560535Y-126364880D01*
X138331727Y-126211995D01*
X138254485Y-126180000D01*
X138331727Y-126148005D01*
X138560535Y-125995120D01*
X138755120Y-125800535D01*
X138908005Y-125571727D01*
X139013314Y-125317490D01*
X139067000Y-125047592D01*
X139067000Y-124772408D01*
X139013314Y-124502510D01*
X138908005Y-124248273D01*
X138755120Y-124019465D01*
X138560535Y-123824880D01*
X138331727Y-123671995D01*
X138254485Y-123640000D01*
X138331727Y-123608005D01*
X138560535Y-123455120D01*
X138680090Y-123335565D01*
X147574040Y-123335565D01*
X147641020Y-123575656D01*
X147890048Y-123692756D01*
X148157135Y-123759023D01*
X148432017Y-123771910D01*
X148704133Y-123730922D01*
X148963023Y-123637636D01*
X149078980Y-123575656D01*
X149145960Y-123335565D01*
X149049362Y-123238967D01*
X150265000Y-123238967D01*
X150265000Y-123561033D01*
X150327832Y-123876912D01*
X150451082Y-124174463D01*
X150630013Y-124442252D01*
X150857748Y-124669987D01*
X151125537Y-124848918D01*
X151423088Y-124972168D01*
X151738967Y-125035000D01*
X152061033Y-125035000D01*
X152376912Y-124972168D01*
X152674463Y-124848918D01*
X152942252Y-124669987D01*
X153169987Y-124442252D01*
X153348918Y-124174463D01*
X153472168Y-123876912D01*
X153535000Y-123561033D01*
X153535000Y-123238967D01*
X153472168Y-122923088D01*
X153348918Y-122625537D01*
X153169987Y-122357748D01*
X152942252Y-122130013D01*
X152674463Y-121951082D01*
X152376912Y-121827832D01*
X152061033Y-121765000D01*
X151738967Y-121765000D01*
X151423088Y-121827832D01*
X151125537Y-121951082D01*
X150857748Y-122130013D01*
X150630013Y-122357748D01*
X150451082Y-122625537D01*
X150327832Y-122923088D01*
X150265000Y-123238967D01*
X149049362Y-123238967D01*
X148360000Y-122549605D01*
X147574040Y-123335565D01*
X138680090Y-123335565D01*
X138755120Y-123260535D01*
X138908005Y-123031727D01*
X139013314Y-122777490D01*
X139067000Y-122507592D01*
X139067000Y-122442017D01*
X146958090Y-122442017D01*
X146999078Y-122714133D01*
X147092364Y-122973023D01*
X147154344Y-123088980D01*
X147394435Y-123155960D01*
X148180395Y-122370000D01*
X148539605Y-122370000D01*
X149325565Y-123155960D01*
X149565656Y-123088980D01*
X149682756Y-122839952D01*
X149749023Y-122572865D01*
X149761910Y-122297983D01*
X149720922Y-122025867D01*
X149627636Y-121766977D01*
X149565656Y-121651020D01*
X149325565Y-121584040D01*
X148539605Y-122370000D01*
X148180395Y-122370000D01*
X147394435Y-121584040D01*
X147154344Y-121651020D01*
X147037244Y-121900048D01*
X146970977Y-122167135D01*
X146958090Y-122442017D01*
X139067000Y-122442017D01*
X139067000Y-122232408D01*
X139013314Y-121962510D01*
X138908005Y-121708273D01*
X138755120Y-121479465D01*
X138560535Y-121284880D01*
X138485886Y-121235001D01*
X139067530Y-121235001D01*
X139110999Y-121239282D01*
X139154468Y-121235001D01*
X147621308Y-121235001D01*
X147574040Y-121404435D01*
X148360000Y-122190395D01*
X149145960Y-121404435D01*
X149098692Y-121235001D01*
X157736530Y-121235001D01*
X157779999Y-121239282D01*
X157823468Y-121235001D01*
X157823476Y-121235001D01*
X157953489Y-121222196D01*
X158120312Y-121171590D01*
X158274058Y-121089412D01*
X158408816Y-120978818D01*
X158436533Y-120945045D01*
X161144577Y-118237002D01*
X161233748Y-118237002D01*
X161075000Y-118395750D01*
X161071928Y-118960000D01*
X161084188Y-119084482D01*
X161120498Y-119204180D01*
X161179463Y-119314494D01*
X161258815Y-119411185D01*
X161355506Y-119490537D01*
X161465820Y-119549502D01*
X161585518Y-119585812D01*
X161710000Y-119598072D01*
X162274250Y-119595000D01*
X162433000Y-119436250D01*
X162433000Y-118237000D01*
X162687000Y-118237000D01*
X162687000Y-119436250D01*
X162845750Y-119595000D01*
X163410000Y-119598072D01*
X163534482Y-119585812D01*
X163654180Y-119549502D01*
X163764494Y-119490537D01*
X163861185Y-119411185D01*
X163940537Y-119314494D01*
X163999502Y-119204180D01*
X164035812Y-119084482D01*
X164048072Y-118960000D01*
X164881928Y-118960000D01*
X164894188Y-119084482D01*
X164930498Y-119204180D01*
X164989463Y-119314494D01*
X165068815Y-119411185D01*
X165165506Y-119490537D01*
X165275820Y-119549502D01*
X165395518Y-119585812D01*
X165520000Y-119598072D01*
X166084250Y-119595000D01*
X166243000Y-119436250D01*
X166243000Y-118237000D01*
X166497000Y-118237000D01*
X166497000Y-119436250D01*
X166655750Y-119595000D01*
X167220000Y-119598072D01*
X167344482Y-119585812D01*
X167464180Y-119549502D01*
X167574494Y-119490537D01*
X167671185Y-119411185D01*
X167750537Y-119314494D01*
X167809502Y-119204180D01*
X167845812Y-119084482D01*
X167858072Y-118960000D01*
X168691928Y-118960000D01*
X168704188Y-119084482D01*
X168740498Y-119204180D01*
X168799463Y-119314494D01*
X168878815Y-119411185D01*
X168975506Y-119490537D01*
X169085820Y-119549502D01*
X169205518Y-119585812D01*
X169330000Y-119598072D01*
X169894250Y-119595000D01*
X170053000Y-119436250D01*
X170053000Y-118237000D01*
X170307000Y-118237000D01*
X170307000Y-119436250D01*
X170465750Y-119595000D01*
X171030000Y-119598072D01*
X171154482Y-119585812D01*
X171274180Y-119549502D01*
X171384494Y-119490537D01*
X171481185Y-119411185D01*
X171560537Y-119314494D01*
X171619502Y-119204180D01*
X171655812Y-119084482D01*
X171668072Y-118960000D01*
X171665000Y-118395750D01*
X171506250Y-118237000D01*
X170307000Y-118237000D01*
X170053000Y-118237000D01*
X168853750Y-118237000D01*
X168695000Y-118395750D01*
X168691928Y-118960000D01*
X167858072Y-118960000D01*
X167855000Y-118395750D01*
X167696250Y-118237000D01*
X166497000Y-118237000D01*
X166243000Y-118237000D01*
X165043750Y-118237000D01*
X164885000Y-118395750D01*
X164881928Y-118960000D01*
X164048072Y-118960000D01*
X164045000Y-118395750D01*
X163886250Y-118237000D01*
X162687000Y-118237000D01*
X162433000Y-118237000D01*
X162413000Y-118237000D01*
X162413000Y-117983000D01*
X162433000Y-117983000D01*
X162433000Y-117963000D01*
X162687000Y-117963000D01*
X162687000Y-117983000D01*
X163886250Y-117983000D01*
X164045000Y-117824250D01*
X164048072Y-117260000D01*
X164035812Y-117135518D01*
X163999502Y-117015820D01*
X163940537Y-116905506D01*
X163861185Y-116808815D01*
X163764494Y-116729463D01*
X163654180Y-116670498D01*
X163581620Y-116648487D01*
X163713475Y-116516632D01*
X163754656Y-116455000D01*
X165175344Y-116455000D01*
X165216525Y-116516632D01*
X165348380Y-116648487D01*
X165275820Y-116670498D01*
X165165506Y-116729463D01*
X165068815Y-116808815D01*
X164989463Y-116905506D01*
X164930498Y-117015820D01*
X164894188Y-117135518D01*
X164881928Y-117260000D01*
X164885000Y-117824250D01*
X165043750Y-117983000D01*
X166243000Y-117983000D01*
X166243000Y-117963000D01*
X166497000Y-117963000D01*
X166497000Y-117983000D01*
X167696250Y-117983000D01*
X167855000Y-117824250D01*
X167858072Y-117260000D01*
X167845812Y-117135518D01*
X167809502Y-117015820D01*
X167750537Y-116905506D01*
X167671185Y-116808815D01*
X167574494Y-116729463D01*
X167464180Y-116670498D01*
X167391620Y-116648487D01*
X167523475Y-116516632D01*
X167564656Y-116455000D01*
X168985344Y-116455000D01*
X169026525Y-116516632D01*
X169158380Y-116648487D01*
X169085820Y-116670498D01*
X168975506Y-116729463D01*
X168878815Y-116808815D01*
X168799463Y-116905506D01*
X168740498Y-117015820D01*
X168704188Y-117135518D01*
X168691928Y-117260000D01*
X168695000Y-117824250D01*
X168853750Y-117983000D01*
X170053000Y-117983000D01*
X170053000Y-117963000D01*
X170307000Y-117963000D01*
X170307000Y-117983000D01*
X171506250Y-117983000D01*
X171665000Y-117824250D01*
X171668072Y-117260000D01*
X171655812Y-117135518D01*
X171619502Y-117015820D01*
X171560537Y-116905506D01*
X171481185Y-116808815D01*
X171384494Y-116729463D01*
X171274180Y-116670498D01*
X171201620Y-116648487D01*
X171333475Y-116516632D01*
X171495990Y-116273411D01*
X171607932Y-116003158D01*
X171665000Y-115716260D01*
X171665000Y-115423740D01*
X171650539Y-115351039D01*
X174590259Y-112411320D01*
X176595184Y-112411320D01*
X176636365Y-112472952D01*
X176843208Y-112679795D01*
X177086429Y-112842310D01*
X177356682Y-112954252D01*
X177643580Y-113011320D01*
X177936100Y-113011320D01*
X178222998Y-112954252D01*
X178493251Y-112842310D01*
X178736472Y-112679795D01*
X178943315Y-112472952D01*
X179105830Y-112229731D01*
X179217772Y-111959478D01*
X179274840Y-111672580D01*
X179274840Y-111380060D01*
X179217772Y-111093162D01*
X179105830Y-110822909D01*
X178943315Y-110579688D01*
X178736472Y-110372845D01*
X178562080Y-110256320D01*
X178736472Y-110139795D01*
X178943315Y-109932952D01*
X179105830Y-109689731D01*
X179217772Y-109419478D01*
X179274840Y-109132580D01*
X179274840Y-108840060D01*
X179217772Y-108553162D01*
X179105830Y-108282909D01*
X178943315Y-108039688D01*
X178811460Y-107907833D01*
X178884020Y-107885822D01*
X178994334Y-107826857D01*
X179091025Y-107747505D01*
X179170377Y-107650814D01*
X179229342Y-107540500D01*
X179265652Y-107420802D01*
X179277912Y-107296320D01*
X179277912Y-105596320D01*
X179265652Y-105471838D01*
X179229342Y-105352140D01*
X179170377Y-105241826D01*
X179091025Y-105145135D01*
X178994334Y-105065783D01*
X178884020Y-105006818D01*
X178764322Y-104970508D01*
X178639840Y-104958248D01*
X176939840Y-104958248D01*
X176815358Y-104970508D01*
X176695660Y-105006818D01*
X176585346Y-105065783D01*
X176488655Y-105145135D01*
X176409303Y-105241826D01*
X176350338Y-105352140D01*
X176314028Y-105471838D01*
X176304322Y-105570385D01*
X176266350Y-105574125D01*
X176099526Y-105624731D01*
X175945781Y-105706909D01*
X175844793Y-105789788D01*
X175844791Y-105789790D01*
X175811023Y-105817503D01*
X175783310Y-105851271D01*
X174384057Y-107250524D01*
X174318157Y-107064748D01*
X174169178Y-106814645D01*
X173974269Y-106598412D01*
X173740920Y-106424359D01*
X173478099Y-106299175D01*
X173330890Y-106254524D01*
X173101000Y-106375845D01*
X173101000Y-107569000D01*
X173121000Y-107569000D01*
X173121000Y-107823000D01*
X173101000Y-107823000D01*
X173101000Y-107843000D01*
X172847000Y-107843000D01*
X172847000Y-107823000D01*
X172827000Y-107823000D01*
X172827000Y-107569000D01*
X172847000Y-107569000D01*
X172847000Y-106375845D01*
X172617110Y-106254524D01*
X172469901Y-106299175D01*
X172207080Y-106424359D01*
X171973731Y-106598412D01*
X171778822Y-106814645D01*
X171709195Y-106931534D01*
X171587475Y-106749368D01*
X171380632Y-106542525D01*
X171137411Y-106380010D01*
X170867158Y-106268068D01*
X170580260Y-106211000D01*
X170287740Y-106211000D01*
X170000842Y-106268068D01*
X169730589Y-106380010D01*
X169487368Y-106542525D01*
X169355513Y-106674380D01*
X169333502Y-106601820D01*
X169274537Y-106491506D01*
X169195185Y-106394815D01*
X169098494Y-106315463D01*
X168988180Y-106256498D01*
X168868482Y-106220188D01*
X168744000Y-106207928D01*
X167044000Y-106207928D01*
X166919518Y-106220188D01*
X166799820Y-106256498D01*
X166689506Y-106315463D01*
X166592815Y-106394815D01*
X166513463Y-106491506D01*
X166454498Y-106601820D01*
X166418188Y-106721518D01*
X166405928Y-106846000D01*
X166405928Y-108546000D01*
X166418188Y-108670482D01*
X166454498Y-108790180D01*
X166481662Y-108841000D01*
X164385705Y-108841000D01*
X164449269Y-108793588D01*
X164644178Y-108577355D01*
X164793157Y-108327252D01*
X164890481Y-108052891D01*
X164769814Y-107823000D01*
X163576000Y-107823000D01*
X163576000Y-107843000D01*
X163322000Y-107843000D01*
X163322000Y-107823000D01*
X163302000Y-107823000D01*
X163302000Y-107569000D01*
X163322000Y-107569000D01*
X163322000Y-106375845D01*
X163576000Y-106375845D01*
X163576000Y-107569000D01*
X164769814Y-107569000D01*
X164890481Y-107339109D01*
X164793157Y-107064748D01*
X164644178Y-106814645D01*
X164449269Y-106598412D01*
X164215920Y-106424359D01*
X163953099Y-106299175D01*
X163805890Y-106254524D01*
X163576000Y-106375845D01*
X163322000Y-106375845D01*
X163092110Y-106254524D01*
X162944901Y-106299175D01*
X162682080Y-106424359D01*
X162448731Y-106598412D01*
X162253822Y-106814645D01*
X162184195Y-106931534D01*
X162062475Y-106749368D01*
X161855632Y-106542525D01*
X161612411Y-106380010D01*
X161342158Y-106268068D01*
X161055260Y-106211000D01*
X160762740Y-106211000D01*
X160475842Y-106268068D01*
X160205589Y-106380010D01*
X159962368Y-106542525D01*
X159830513Y-106674380D01*
X159808502Y-106601820D01*
X159749537Y-106491506D01*
X159670185Y-106394815D01*
X159573494Y-106315463D01*
X159463180Y-106256498D01*
X159343482Y-106220188D01*
X159219000Y-106207928D01*
X157519000Y-106207928D01*
X157394518Y-106220188D01*
X157274820Y-106256498D01*
X157164506Y-106315463D01*
X157067815Y-106394815D01*
X156988463Y-106491506D01*
X156929498Y-106601820D01*
X156893188Y-106721518D01*
X156880928Y-106846000D01*
X156880928Y-108546000D01*
X156893188Y-108670482D01*
X156929498Y-108790180D01*
X156988463Y-108900494D01*
X157021928Y-108941271D01*
X156995199Y-108968000D01*
X154817166Y-108968000D01*
X154817920Y-108967641D01*
X155051269Y-108793588D01*
X155246178Y-108577355D01*
X155395157Y-108327252D01*
X155492481Y-108052891D01*
X155371814Y-107823000D01*
X154178000Y-107823000D01*
X154178000Y-107843000D01*
X153924000Y-107843000D01*
X153924000Y-107823000D01*
X153904000Y-107823000D01*
X153904000Y-107569000D01*
X153924000Y-107569000D01*
X153924000Y-106375845D01*
X154178000Y-106375845D01*
X154178000Y-107569000D01*
X155371814Y-107569000D01*
X155492481Y-107339109D01*
X155395157Y-107064748D01*
X155246178Y-106814645D01*
X155051269Y-106598412D01*
X154817920Y-106424359D01*
X154555099Y-106299175D01*
X154407890Y-106254524D01*
X154178000Y-106375845D01*
X153924000Y-106375845D01*
X153694110Y-106254524D01*
X153546901Y-106299175D01*
X153284080Y-106424359D01*
X153050731Y-106598412D01*
X152855822Y-106814645D01*
X152786195Y-106931534D01*
X152664475Y-106749368D01*
X152457632Y-106542525D01*
X152214411Y-106380010D01*
X151944158Y-106268068D01*
X151657260Y-106211000D01*
X151364740Y-106211000D01*
X151077842Y-106268068D01*
X150807589Y-106380010D01*
X150564368Y-106542525D01*
X150432513Y-106674380D01*
X150410502Y-106601820D01*
X150351537Y-106491506D01*
X150272185Y-106394815D01*
X150175494Y-106315463D01*
X150065180Y-106256498D01*
X149945482Y-106220188D01*
X149821000Y-106207928D01*
X148121000Y-106207928D01*
X147996518Y-106220188D01*
X147876820Y-106256498D01*
X147766506Y-106315463D01*
X147669815Y-106394815D01*
X147590463Y-106491506D01*
X147531498Y-106601820D01*
X147495188Y-106721518D01*
X147482928Y-106846000D01*
X147482928Y-108546000D01*
X147495188Y-108670482D01*
X147531498Y-108790180D01*
X147590463Y-108900494D01*
X147645864Y-108968000D01*
X147103333Y-108968000D01*
X147066000Y-108964323D01*
X147028667Y-108968000D01*
X146917014Y-108978997D01*
X146773753Y-109022454D01*
X146641724Y-109093026D01*
X146525999Y-109187999D01*
X146502201Y-109216997D01*
X144359199Y-111360000D01*
X144297061Y-111360000D01*
X144097102Y-111399774D01*
X143908744Y-111477795D01*
X143739226Y-111591063D01*
X143595063Y-111735226D01*
X143481795Y-111904744D01*
X143403774Y-112093102D01*
X143389324Y-112165746D01*
X142738535Y-111514957D01*
X142727226Y-111458102D01*
X142649205Y-111269744D01*
X142535937Y-111100226D01*
X142391774Y-110956063D01*
X142222256Y-110842795D01*
X142033898Y-110764774D01*
X141833939Y-110725000D01*
X141630061Y-110725000D01*
X141430102Y-110764774D01*
X141241744Y-110842795D01*
X141072226Y-110956063D01*
X140928063Y-111100226D01*
X140814795Y-111269744D01*
X140736774Y-111458102D01*
X140697000Y-111658061D01*
X140697000Y-111861939D01*
X140736774Y-112061898D01*
X140814795Y-112250256D01*
X140928063Y-112419774D01*
X141033566Y-112525277D01*
X140899465Y-112614880D01*
X140704880Y-112809465D01*
X140551995Y-113038273D01*
X140520000Y-113115515D01*
X140488005Y-113038273D01*
X140335120Y-112809465D01*
X140140535Y-112614880D01*
X139911727Y-112461995D01*
X139657490Y-112356686D01*
X139387592Y-112303000D01*
X139112408Y-112303000D01*
X138958430Y-112333628D01*
X138213804Y-111589003D01*
X138190001Y-111559999D01*
X138074276Y-111465026D01*
X137942247Y-111394454D01*
X137798986Y-111350997D01*
X137687333Y-111340000D01*
X137687322Y-111340000D01*
X137650000Y-111336324D01*
X137612678Y-111340000D01*
X137014802Y-111340000D01*
X136010000Y-110335199D01*
X136010000Y-110273711D01*
X136040226Y-110303937D01*
X136209744Y-110417205D01*
X136398102Y-110495226D01*
X136598061Y-110535000D01*
X136801939Y-110535000D01*
X137001898Y-110495226D01*
X137190256Y-110417205D01*
X137359774Y-110303937D01*
X137403711Y-110260000D01*
X138842678Y-110260000D01*
X138880000Y-110263676D01*
X138917322Y-110260000D01*
X138917333Y-110260000D01*
X139028986Y-110249003D01*
X139172247Y-110205546D01*
X139304276Y-110134974D01*
X139420001Y-110040001D01*
X139443804Y-110010997D01*
X139963592Y-109491209D01*
X140183740Y-109535000D01*
X140476260Y-109535000D01*
X140763158Y-109477932D01*
X141033411Y-109365990D01*
X141276632Y-109203475D01*
X141483475Y-108996632D01*
X141605195Y-108814466D01*
X141674822Y-108931355D01*
X141869731Y-109147588D01*
X142103080Y-109321641D01*
X142365901Y-109446825D01*
X142513110Y-109491476D01*
X142743000Y-109370155D01*
X142743000Y-108177000D01*
X142997000Y-108177000D01*
X142997000Y-109370155D01*
X143226890Y-109491476D01*
X143374099Y-109446825D01*
X143636920Y-109321641D01*
X143870269Y-109147588D01*
X144065178Y-108931355D01*
X144214157Y-108681252D01*
X144311481Y-108406891D01*
X144190814Y-108177000D01*
X142997000Y-108177000D01*
X142743000Y-108177000D01*
X142723000Y-108177000D01*
X142723000Y-107923000D01*
X142743000Y-107923000D01*
X142743000Y-106729845D01*
X142997000Y-106729845D01*
X142997000Y-107923000D01*
X144190814Y-107923000D01*
X144311481Y-107693109D01*
X144214157Y-107418748D01*
X144065178Y-107168645D01*
X143870269Y-106952412D01*
X143636920Y-106778359D01*
X143374099Y-106653175D01*
X143226890Y-106608524D01*
X142997000Y-106729845D01*
X142743000Y-106729845D01*
X142513110Y-106608524D01*
X142365901Y-106653175D01*
X142103080Y-106778359D01*
X141869731Y-106952412D01*
X141674822Y-107168645D01*
X141605195Y-107285534D01*
X141483475Y-107103368D01*
X141276632Y-106896525D01*
X141033411Y-106734010D01*
X140763158Y-106622068D01*
X140476260Y-106565000D01*
X140183740Y-106565000D01*
X139896842Y-106622068D01*
X139626589Y-106734010D01*
X139383368Y-106896525D01*
X139176525Y-107103368D01*
X139060000Y-107277760D01*
X138943475Y-107103368D01*
X138736632Y-106896525D01*
X138493411Y-106734010D01*
X138223158Y-106622068D01*
X137936260Y-106565000D01*
X137643740Y-106565000D01*
X137356842Y-106622068D01*
X137086589Y-106734010D01*
X136843368Y-106896525D01*
X136711513Y-107028380D01*
X136689502Y-106955820D01*
X136630537Y-106845506D01*
X136551185Y-106748815D01*
X136454494Y-106669463D01*
X136344180Y-106610498D01*
X136224482Y-106574188D01*
X136100000Y-106561928D01*
X134400000Y-106561928D01*
X134275518Y-106574188D01*
X134155820Y-106610498D01*
X134045506Y-106669463D01*
X133948815Y-106748815D01*
X133869463Y-106845506D01*
X133810498Y-106955820D01*
X133774188Y-107075518D01*
X133761928Y-107200000D01*
X133761928Y-108900000D01*
X133774188Y-109024482D01*
X133810498Y-109144180D01*
X133869463Y-109254494D01*
X133948815Y-109351185D01*
X134045506Y-109430537D01*
X134155820Y-109489502D01*
X134275518Y-109525812D01*
X134400000Y-109538072D01*
X134490000Y-109538072D01*
X134490000Y-110612677D01*
X134486324Y-110650000D01*
X134490000Y-110687322D01*
X134490000Y-110687332D01*
X134500997Y-110798985D01*
X134530882Y-110897503D01*
X134544454Y-110942246D01*
X134615026Y-111074276D01*
X134642500Y-111107753D01*
X134709999Y-111190001D01*
X134739003Y-111213804D01*
X135168198Y-111642999D01*
X126606942Y-111642999D01*
X126635000Y-111501939D01*
X126635000Y-111298061D01*
X126595226Y-111098102D01*
X126517205Y-110909744D01*
X126403937Y-110740226D01*
X126259774Y-110596063D01*
X126090256Y-110482795D01*
X125901898Y-110404774D01*
X125701939Y-110365000D01*
X125498061Y-110365000D01*
X125298102Y-110404774D01*
X125109744Y-110482795D01*
X124940226Y-110596063D01*
X124905545Y-110630744D01*
X123587345Y-109312543D01*
X123601185Y-109301185D01*
X123680537Y-109204494D01*
X123739502Y-109094180D01*
X123761513Y-109021620D01*
X123893368Y-109153475D01*
X124136589Y-109315990D01*
X124406842Y-109427932D01*
X124693740Y-109485000D01*
X124986260Y-109485000D01*
X125273158Y-109427932D01*
X125543411Y-109315990D01*
X125786632Y-109153475D01*
X125993475Y-108946632D01*
X126110000Y-108772240D01*
X126226525Y-108946632D01*
X126433368Y-109153475D01*
X126676589Y-109315990D01*
X126946842Y-109427932D01*
X127233740Y-109485000D01*
X127526260Y-109485000D01*
X127813158Y-109427932D01*
X128083411Y-109315990D01*
X128326632Y-109153475D01*
X128533475Y-108946632D01*
X128655195Y-108764466D01*
X128724822Y-108881355D01*
X128919731Y-109097588D01*
X129153080Y-109271641D01*
X129415901Y-109396825D01*
X129563110Y-109441476D01*
X129793000Y-109320155D01*
X129793000Y-108127000D01*
X130047000Y-108127000D01*
X130047000Y-109320155D01*
X130276890Y-109441476D01*
X130424099Y-109396825D01*
X130686920Y-109271641D01*
X130920269Y-109097588D01*
X131115178Y-108881355D01*
X131264157Y-108631252D01*
X131361481Y-108356891D01*
X131240814Y-108127000D01*
X130047000Y-108127000D01*
X129793000Y-108127000D01*
X129773000Y-108127000D01*
X129773000Y-107873000D01*
X129793000Y-107873000D01*
X129793000Y-106679845D01*
X130047000Y-106679845D01*
X130047000Y-107873000D01*
X131240814Y-107873000D01*
X131361481Y-107643109D01*
X131264157Y-107368748D01*
X131115178Y-107118645D01*
X130920269Y-106902412D01*
X130686920Y-106728359D01*
X130424099Y-106603175D01*
X130276890Y-106558524D01*
X130047000Y-106679845D01*
X129793000Y-106679845D01*
X129563110Y-106558524D01*
X129415901Y-106603175D01*
X129153080Y-106728359D01*
X128919731Y-106902412D01*
X128724822Y-107118645D01*
X128655195Y-107235534D01*
X128533475Y-107053368D01*
X128326632Y-106846525D01*
X128083411Y-106684010D01*
X127813158Y-106572068D01*
X127526260Y-106515000D01*
X127233740Y-106515000D01*
X126946842Y-106572068D01*
X126676589Y-106684010D01*
X126433368Y-106846525D01*
X126226525Y-107053368D01*
X126110000Y-107227760D01*
X125993475Y-107053368D01*
X125786632Y-106846525D01*
X125543411Y-106684010D01*
X125273158Y-106572068D01*
X124986260Y-106515000D01*
X124693740Y-106515000D01*
X124406842Y-106572068D01*
X124136589Y-106684010D01*
X123893368Y-106846525D01*
X123761513Y-106978380D01*
X123739502Y-106905820D01*
X123680537Y-106795506D01*
X123601185Y-106698815D01*
X123504494Y-106619463D01*
X123394180Y-106560498D01*
X123274482Y-106524188D01*
X123150000Y-106511928D01*
X121450000Y-106511928D01*
X121325518Y-106524188D01*
X121205820Y-106560498D01*
X121095506Y-106619463D01*
X120998815Y-106698815D01*
X120919463Y-106795506D01*
X120860498Y-106905820D01*
X120824188Y-107025518D01*
X120811928Y-107150000D01*
X120811928Y-108850000D01*
X120824188Y-108974482D01*
X120860498Y-109094180D01*
X120919463Y-109204494D01*
X120998815Y-109301185D01*
X121095506Y-109380537D01*
X121205820Y-109439502D01*
X121325518Y-109475812D01*
X121450000Y-109488072D01*
X121645674Y-109488072D01*
X121665026Y-109524276D01*
X121694079Y-109559677D01*
X121759999Y-109640001D01*
X121789003Y-109663804D01*
X124036201Y-111911003D01*
X124059999Y-111940001D01*
X124175724Y-112034974D01*
X124232891Y-112065531D01*
X123954122Y-112344299D01*
X123947592Y-112343000D01*
X123672408Y-112343000D01*
X123402510Y-112396686D01*
X123148273Y-112501995D01*
X122919465Y-112654880D01*
X122724880Y-112849465D01*
X122571995Y-113078273D01*
X122466686Y-113332510D01*
X122413000Y-113602408D01*
X122413000Y-113877592D01*
X122414299Y-113884122D01*
X119983422Y-116315000D01*
X112138454Y-116315000D01*
X112090256Y-116282795D01*
X111901898Y-116204774D01*
X111701939Y-116165000D01*
X111498061Y-116165000D01*
X111298102Y-116204774D01*
X111109744Y-116282795D01*
X110940226Y-116396063D01*
X110796063Y-116540226D01*
X110682795Y-116709744D01*
X110604774Y-116898102D01*
X110579042Y-117027464D01*
X110085000Y-116533422D01*
X110085000Y-114886578D01*
X113684577Y-111287002D01*
X113779844Y-111287002D01*
X113658524Y-111516890D01*
X113703175Y-111664099D01*
X113828359Y-111926920D01*
X114002412Y-112160269D01*
X114086466Y-112236034D01*
X114005820Y-112260498D01*
X113895506Y-112319463D01*
X113798815Y-112398815D01*
X113719463Y-112495506D01*
X113660498Y-112605820D01*
X113624188Y-112725518D01*
X113611928Y-112850000D01*
X113611928Y-114550000D01*
X113624188Y-114674482D01*
X113660498Y-114794180D01*
X113719463Y-114904494D01*
X113798815Y-115001185D01*
X113895506Y-115080537D01*
X114005820Y-115139502D01*
X114125518Y-115175812D01*
X114250000Y-115188072D01*
X115950000Y-115188072D01*
X116074482Y-115175812D01*
X116194180Y-115139502D01*
X116304494Y-115080537D01*
X116401185Y-115001185D01*
X116480537Y-114904494D01*
X116539502Y-114794180D01*
X116575812Y-114674482D01*
X116588072Y-114550000D01*
X116588072Y-112850000D01*
X116575812Y-112725518D01*
X116539502Y-112605820D01*
X116480537Y-112495506D01*
X116401185Y-112398815D01*
X116304494Y-112319463D01*
X116194180Y-112260498D01*
X116113534Y-112236034D01*
X116197588Y-112160269D01*
X116371641Y-111926920D01*
X116496825Y-111664099D01*
X116541476Y-111516890D01*
X116420155Y-111287000D01*
X115227000Y-111287000D01*
X115227000Y-111307000D01*
X114973000Y-111307000D01*
X114973000Y-111287000D01*
X114953000Y-111287000D01*
X114953000Y-111033000D01*
X114973000Y-111033000D01*
X114973000Y-111013000D01*
X115227000Y-111013000D01*
X115227000Y-111033000D01*
X116420155Y-111033000D01*
X116541476Y-110803110D01*
X116496825Y-110655901D01*
X116371641Y-110393080D01*
X116197588Y-110159731D01*
X115981355Y-109964822D01*
X115864466Y-109895195D01*
X116046632Y-109773475D01*
X116253475Y-109566632D01*
X116415990Y-109323411D01*
X116527932Y-109053158D01*
X116585000Y-108766260D01*
X116585000Y-108473740D01*
X116527932Y-108186842D01*
X116415990Y-107916589D01*
X116253475Y-107673368D01*
X116046632Y-107466525D01*
X115872240Y-107350000D01*
X116046632Y-107233475D01*
X116253475Y-107026632D01*
X116415990Y-106783411D01*
X116527932Y-106513158D01*
X116585000Y-106226260D01*
X116585000Y-105933740D01*
X116527932Y-105646842D01*
X116415990Y-105376589D01*
X116253475Y-105133368D01*
X116046632Y-104926525D01*
X115872240Y-104810000D01*
X116046632Y-104693475D01*
X116253475Y-104486632D01*
X116415990Y-104243411D01*
X116527932Y-103973158D01*
X116585000Y-103686260D01*
X116585000Y-103393740D01*
X116527932Y-103106842D01*
X116415990Y-102836589D01*
X116253475Y-102593368D01*
X116046632Y-102386525D01*
X115872240Y-102270000D01*
X116046632Y-102153475D01*
X116253475Y-101946632D01*
X116415990Y-101703411D01*
X116527932Y-101433158D01*
X116585000Y-101146260D01*
X116585000Y-100853740D01*
X116527932Y-100566842D01*
X116415990Y-100296589D01*
X116253475Y-100053368D01*
X116046632Y-99846525D01*
X115946879Y-99779872D01*
X177765000Y-99779872D01*
X177765000Y-100220128D01*
X177850890Y-100651925D01*
X178019369Y-101058669D01*
X178263962Y-101424729D01*
X178575271Y-101736038D01*
X178941331Y-101980631D01*
X179348075Y-102149110D01*
X179779872Y-102235000D01*
X180220128Y-102235000D01*
X180651925Y-102149110D01*
X181058669Y-101980631D01*
X181424729Y-101736038D01*
X181736038Y-101424729D01*
X181980631Y-101058669D01*
X182149110Y-100651925D01*
X182235000Y-100220128D01*
X182235000Y-99779872D01*
X182149110Y-99348075D01*
X181980631Y-98941331D01*
X181736038Y-98575271D01*
X181424729Y-98263962D01*
X181058669Y-98019369D01*
X180651925Y-97850890D01*
X180220128Y-97765000D01*
X179779872Y-97765000D01*
X179348075Y-97850890D01*
X178941331Y-98019369D01*
X178575271Y-98263962D01*
X178263962Y-98575271D01*
X178019369Y-98941331D01*
X177850890Y-99348075D01*
X177765000Y-99779872D01*
X115946879Y-99779872D01*
X115803411Y-99684010D01*
X115533158Y-99572068D01*
X115246260Y-99515000D01*
X114953740Y-99515000D01*
X114666842Y-99572068D01*
X114396589Y-99684010D01*
X114153368Y-99846525D01*
X113946525Y-100053368D01*
X113784010Y-100296589D01*
X113672068Y-100566842D01*
X113615000Y-100853740D01*
X113615000Y-101146260D01*
X113672068Y-101433158D01*
X113784010Y-101703411D01*
X113946525Y-101946632D01*
X114153368Y-102153475D01*
X114327760Y-102270000D01*
X114153368Y-102386525D01*
X113946525Y-102593368D01*
X113784010Y-102836589D01*
X113672068Y-103106842D01*
X113615000Y-103393740D01*
X113615000Y-103686260D01*
X113672068Y-103973158D01*
X113784010Y-104243411D01*
X113946525Y-104486632D01*
X114153368Y-104693475D01*
X114327760Y-104810000D01*
X114153368Y-104926525D01*
X113946525Y-105133368D01*
X113784010Y-105376589D01*
X113672068Y-105646842D01*
X113615000Y-105933740D01*
X113615000Y-106226260D01*
X113672068Y-106513158D01*
X113784010Y-106783411D01*
X113946525Y-107026632D01*
X114153368Y-107233475D01*
X114327760Y-107350000D01*
X114153368Y-107466525D01*
X113946525Y-107673368D01*
X113784010Y-107916589D01*
X113672068Y-108186842D01*
X113615000Y-108473740D01*
X113615000Y-108766260D01*
X113629461Y-108838960D01*
X108604956Y-113863466D01*
X108571183Y-113891183D01*
X108460589Y-114025942D01*
X108378411Y-114179688D01*
X108352896Y-114263799D01*
X108331283Y-114335047D01*
X108327805Y-114346511D01*
X108315000Y-114476524D01*
X108315000Y-114476531D01*
X108310719Y-114520000D01*
X108315000Y-114563469D01*
X108315001Y-116015000D01*
X103501384Y-116015000D01*
X103457918Y-116010719D01*
X103414452Y-116015000D01*
X103414442Y-116015000D01*
X103284429Y-116027805D01*
X103117606Y-116078411D01*
X102963860Y-116160589D01*
X102829102Y-116271183D01*
X102801385Y-116304956D01*
X102464952Y-116641389D01*
X102431184Y-116669102D01*
X102403471Y-116702870D01*
X102403468Y-116702873D01*
X102320590Y-116803860D01*
X102238412Y-116957606D01*
X102187805Y-117124429D01*
X102170719Y-117297919D01*
X102171669Y-117307569D01*
X102113368Y-117346525D01*
X101906525Y-117553368D01*
X101790000Y-117727760D01*
X101673475Y-117553368D01*
X101466632Y-117346525D01*
X101223411Y-117184010D01*
X100953158Y-117072068D01*
X100666260Y-117015000D01*
X100373740Y-117015000D01*
X100086842Y-117072068D01*
X99816589Y-117184010D01*
X99573368Y-117346525D01*
X99366525Y-117553368D01*
X99204010Y-117796589D01*
X99092068Y-118066842D01*
X99035000Y-118353740D01*
X99035000Y-118646260D01*
X99092068Y-118933158D01*
X99204010Y-119203411D01*
X99366525Y-119446632D01*
X99573368Y-119653475D01*
X99816589Y-119815990D01*
X100086842Y-119927932D01*
X100373740Y-119985000D01*
X100666260Y-119985000D01*
X100953158Y-119927932D01*
X101223411Y-119815990D01*
X101466632Y-119653475D01*
X101673475Y-119446632D01*
X101790000Y-119272240D01*
X101906525Y-119446632D01*
X102113368Y-119653475D01*
X102356589Y-119815990D01*
X102626842Y-119927932D01*
X102913740Y-119985000D01*
X103206260Y-119985000D01*
X103493158Y-119927932D01*
X103763411Y-119815990D01*
X104006632Y-119653475D01*
X104138487Y-119521620D01*
X104160498Y-119594180D01*
X104219463Y-119704494D01*
X104298815Y-119801185D01*
X104395506Y-119880537D01*
X104505820Y-119939502D01*
X104625518Y-119975812D01*
X104724065Y-119985518D01*
X104727805Y-120023489D01*
X104778411Y-120190312D01*
X104860589Y-120344058D01*
X104971183Y-120478817D01*
X105004956Y-120506534D01*
X105476219Y-120977798D01*
X105311335Y-120945000D01*
X105028665Y-120945000D01*
X104751426Y-121000147D01*
X104490273Y-121108320D01*
X104255241Y-121265363D01*
X104055363Y-121465241D01*
X103899085Y-121699128D01*
X103866671Y-121638486D01*
X103622702Y-121566903D01*
X102809605Y-122380000D01*
X103622702Y-123193097D01*
X103866671Y-123121514D01*
X103897194Y-123057008D01*
X103898320Y-123059727D01*
X104055363Y-123294759D01*
X104255241Y-123494637D01*
X104490273Y-123651680D01*
X104751426Y-123759853D01*
X105028665Y-123815000D01*
X105311335Y-123815000D01*
X105588574Y-123759853D01*
X105849727Y-123651680D01*
X105867934Y-123639514D01*
X111573467Y-129345048D01*
X111601180Y-129378816D01*
X111634948Y-129406529D01*
X111634950Y-129406531D01*
X111706449Y-129465209D01*
X111735938Y-129489410D01*
X111889684Y-129571588D01*
X112056507Y-129622194D01*
X112186520Y-129634999D01*
X112186530Y-129634999D01*
X112229996Y-129639280D01*
X112273462Y-129634999D01*
X124099491Y-129634999D01*
X124055000Y-129858665D01*
X124055000Y-130141335D01*
X124110147Y-130418574D01*
X124208077Y-130654999D01*
X117900956Y-130654999D01*
X117863631Y-130651323D01*
X117826306Y-130654999D01*
X117826298Y-130654999D01*
X117714645Y-130665996D01*
X117571384Y-130709453D01*
X117439355Y-130780025D01*
X117323630Y-130874998D01*
X117299832Y-130903996D01*
X112279003Y-135924826D01*
X112249999Y-135948629D01*
X112203735Y-136005002D01*
X112155026Y-136064354D01*
X112109789Y-136148986D01*
X112084454Y-136196384D01*
X112040997Y-136339645D01*
X112035202Y-136398481D01*
X111875241Y-136505363D01*
X111675363Y-136705241D01*
X111520000Y-136937759D01*
X111364637Y-136705241D01*
X111164759Y-136505363D01*
X110929727Y-136348320D01*
X110668574Y-136240147D01*
X110391335Y-136185000D01*
X110108665Y-136185000D01*
X109831426Y-136240147D01*
X109570273Y-136348320D01*
X109552066Y-136360485D01*
X100975000Y-127783420D01*
X100975000Y-124778665D01*
X101195000Y-124778665D01*
X101195000Y-125061335D01*
X101250147Y-125338574D01*
X101358320Y-125599727D01*
X101515363Y-125834759D01*
X101715241Y-126034637D01*
X101950273Y-126191680D01*
X102211426Y-126299853D01*
X102488665Y-126355000D01*
X102771335Y-126355000D01*
X103048574Y-126299853D01*
X103309727Y-126191680D01*
X103544759Y-126034637D01*
X103744637Y-125834759D01*
X103901680Y-125599727D01*
X104009853Y-125338574D01*
X104065000Y-125061335D01*
X104065000Y-124778665D01*
X104009853Y-124501426D01*
X103901680Y-124240273D01*
X103744637Y-124005241D01*
X103544759Y-123805363D01*
X103310872Y-123649085D01*
X103371514Y-123616671D01*
X103443097Y-123372702D01*
X102630000Y-122559605D01*
X101816903Y-123372702D01*
X101888486Y-123616671D01*
X101952992Y-123647194D01*
X101950273Y-123648320D01*
X101715241Y-123805363D01*
X101515363Y-124005241D01*
X101358320Y-124240273D01*
X101250147Y-124501426D01*
X101195000Y-124778665D01*
X100975000Y-124778665D01*
X100975000Y-123514521D01*
X101004759Y-123494637D01*
X101204637Y-123294759D01*
X101360915Y-123060872D01*
X101393329Y-123121514D01*
X101637298Y-123193097D01*
X102450395Y-122380000D01*
X101637298Y-121566903D01*
X101393329Y-121638486D01*
X101362806Y-121702992D01*
X101361680Y-121700273D01*
X101204637Y-121465241D01*
X101126694Y-121387298D01*
X101816903Y-121387298D01*
X102630000Y-122200395D01*
X103443097Y-121387298D01*
X103371514Y-121143329D01*
X103116004Y-121022429D01*
X102841816Y-120953700D01*
X102559488Y-120939783D01*
X102279870Y-120981213D01*
X102013708Y-121076397D01*
X101888486Y-121143329D01*
X101816903Y-121387298D01*
X101126694Y-121387298D01*
X101004759Y-121265363D01*
X100769727Y-121108320D01*
X100508574Y-121000147D01*
X100231335Y-120945000D01*
X99948665Y-120945000D01*
X99671426Y-121000147D01*
X99410273Y-121108320D01*
X99175241Y-121265363D01*
X98975363Y-121465241D01*
X98818320Y-121700273D01*
X98710147Y-121961426D01*
X98655000Y-122238665D01*
X96660000Y-122238665D01*
X96660000Y-100032278D01*
X96684748Y-99779872D01*
X97765000Y-99779872D01*
X97765000Y-100220128D01*
X97850890Y-100651925D01*
X98019369Y-101058669D01*
X98263962Y-101424729D01*
X98575271Y-101736038D01*
X98941331Y-101980631D01*
X99348075Y-102149110D01*
X99779872Y-102235000D01*
X100220128Y-102235000D01*
X100651925Y-102149110D01*
X101058669Y-101980631D01*
X101424729Y-101736038D01*
X101736038Y-101424729D01*
X101980631Y-101058669D01*
X102149110Y-100651925D01*
X102235000Y-100220128D01*
X102235000Y-99779872D01*
X102149110Y-99348075D01*
X101980631Y-98941331D01*
X101736038Y-98575271D01*
X101424729Y-98263962D01*
X101058669Y-98019369D01*
X100651925Y-97850890D01*
X100220128Y-97765000D01*
X99779872Y-97765000D01*
X99348075Y-97850890D01*
X98941331Y-98019369D01*
X98575271Y-98263962D01*
X98263962Y-98575271D01*
X98019369Y-98941331D01*
X97850890Y-99348075D01*
X97765000Y-99779872D01*
X96684748Y-99779872D01*
X96726714Y-99351874D01*
X96914943Y-98728428D01*
X97220681Y-98153421D01*
X97632279Y-97648753D01*
X98134067Y-97233638D01*
X98706924Y-96923895D01*
X99329039Y-96731318D01*
X100007584Y-96660000D01*
X179967722Y-96660000D01*
X180648126Y-96726714D01*
G36*
X157878519Y-149893109D02*
G01*
X157999186Y-150123000D01*
X159193000Y-150123000D01*
X159193000Y-150103000D01*
X159447000Y-150103000D01*
X159447000Y-150123000D01*
X159467000Y-150123000D01*
X159467000Y-150377000D01*
X159447000Y-150377000D01*
X159447000Y-151570155D01*
X159676890Y-151691476D01*
X159824099Y-151646825D01*
X160086920Y-151521641D01*
X160320269Y-151347588D01*
X160515178Y-151131355D01*
X160584805Y-151014466D01*
X160706525Y-151196632D01*
X160913368Y-151403475D01*
X161156589Y-151565990D01*
X161426842Y-151677932D01*
X161713740Y-151735000D01*
X161865199Y-151735000D01*
X161060199Y-152540000D01*
X160998061Y-152540000D01*
X160798102Y-152579774D01*
X160609744Y-152657795D01*
X160440226Y-152771063D01*
X160296063Y-152915226D01*
X160182795Y-153084744D01*
X160104774Y-153273102D01*
X160065000Y-153473061D01*
X160065000Y-153540000D01*
X154144802Y-153540000D01*
X152339801Y-151735000D01*
X152466260Y-151735000D01*
X152753158Y-151677932D01*
X153023411Y-151565990D01*
X153266632Y-151403475D01*
X153398487Y-151271620D01*
X153420498Y-151344180D01*
X153479463Y-151454494D01*
X153558815Y-151551185D01*
X153655506Y-151630537D01*
X153765820Y-151689502D01*
X153885518Y-151725812D01*
X154010000Y-151738072D01*
X155710000Y-151738072D01*
X155834482Y-151725812D01*
X155954180Y-151689502D01*
X156064494Y-151630537D01*
X156161185Y-151551185D01*
X156240537Y-151454494D01*
X156299502Y-151344180D01*
X156335812Y-151224482D01*
X156348072Y-151100000D01*
X156348072Y-150606891D01*
X157878519Y-150606891D01*
X157975843Y-150881252D01*
X158124822Y-151131355D01*
X158319731Y-151347588D01*
X158553080Y-151521641D01*
X158815901Y-151646825D01*
X158963110Y-151691476D01*
X159193000Y-151570155D01*
X159193000Y-150377000D01*
X157999186Y-150377000D01*
X157878519Y-150606891D01*
X156348072Y-150606891D01*
X156348072Y-149834999D01*
X157899132Y-149834999D01*
X157878519Y-149893109D01*
G37*
X157878519Y-149893109D02*
X157999186Y-150123000D01*
X159193000Y-150123000D01*
X159193000Y-150103000D01*
X159447000Y-150103000D01*
X159447000Y-150123000D01*
X159467000Y-150123000D01*
X159467000Y-150377000D01*
X159447000Y-150377000D01*
X159447000Y-151570155D01*
X159676890Y-151691476D01*
X159824099Y-151646825D01*
X160086920Y-151521641D01*
X160320269Y-151347588D01*
X160515178Y-151131355D01*
X160584805Y-151014466D01*
X160706525Y-151196632D01*
X160913368Y-151403475D01*
X161156589Y-151565990D01*
X161426842Y-151677932D01*
X161713740Y-151735000D01*
X161865199Y-151735000D01*
X161060199Y-152540000D01*
X160998061Y-152540000D01*
X160798102Y-152579774D01*
X160609744Y-152657795D01*
X160440226Y-152771063D01*
X160296063Y-152915226D01*
X160182795Y-153084744D01*
X160104774Y-153273102D01*
X160065000Y-153473061D01*
X160065000Y-153540000D01*
X154144802Y-153540000D01*
X152339801Y-151735000D01*
X152466260Y-151735000D01*
X152753158Y-151677932D01*
X153023411Y-151565990D01*
X153266632Y-151403475D01*
X153398487Y-151271620D01*
X153420498Y-151344180D01*
X153479463Y-151454494D01*
X153558815Y-151551185D01*
X153655506Y-151630537D01*
X153765820Y-151689502D01*
X153885518Y-151725812D01*
X154010000Y-151738072D01*
X155710000Y-151738072D01*
X155834482Y-151725812D01*
X155954180Y-151689502D01*
X156064494Y-151630537D01*
X156161185Y-151551185D01*
X156240537Y-151454494D01*
X156299502Y-151344180D01*
X156335812Y-151224482D01*
X156348072Y-151100000D01*
X156348072Y-150606891D01*
X157878519Y-150606891D01*
X157975843Y-150881252D01*
X158124822Y-151131355D01*
X158319731Y-151347588D01*
X158553080Y-151521641D01*
X158815901Y-151646825D01*
X158963110Y-151691476D01*
X159193000Y-151570155D01*
X159193000Y-150377000D01*
X157999186Y-150377000D01*
X157878519Y-150606891D01*
X156348072Y-150606891D01*
X156348072Y-149834999D01*
X157899132Y-149834999D01*
X157878519Y-149893109D01*
G36*
X161764299Y-145715878D02*
G01*
X161763000Y-145722408D01*
X161763000Y-145997592D01*
X161816686Y-146267490D01*
X161921995Y-146521727D01*
X162051136Y-146715000D01*
X153116579Y-146715000D01*
X152435701Y-146034123D01*
X152437000Y-146027592D01*
X152437000Y-145752408D01*
X152383314Y-145482510D01*
X152278005Y-145228273D01*
X152125120Y-144999465D01*
X151930535Y-144804880D01*
X151701727Y-144651995D01*
X151447490Y-144546686D01*
X151177592Y-144493000D01*
X150902408Y-144493000D01*
X150632510Y-144546686D01*
X150378273Y-144651995D01*
X150149465Y-144804880D01*
X149954880Y-144999465D01*
X149801995Y-145228273D01*
X149770000Y-145305515D01*
X149738005Y-145228273D01*
X149585120Y-144999465D01*
X149390535Y-144804880D01*
X149161727Y-144651995D01*
X149084485Y-144620000D01*
X149161727Y-144588005D01*
X149390535Y-144435120D01*
X149585120Y-144240535D01*
X149738005Y-144011727D01*
X149843314Y-143757490D01*
X149897000Y-143487592D01*
X149897000Y-143212408D01*
X149843314Y-142942510D01*
X149738005Y-142688273D01*
X149585120Y-142459465D01*
X149390535Y-142264880D01*
X149161727Y-142111995D01*
X148907490Y-142006686D01*
X148798467Y-141985000D01*
X158033422Y-141985000D01*
X161764299Y-145715878D01*
G37*
X161764299Y-145715878D02*
X161763000Y-145722408D01*
X161763000Y-145997592D01*
X161816686Y-146267490D01*
X161921995Y-146521727D01*
X162051136Y-146715000D01*
X153116579Y-146715000D01*
X152435701Y-146034123D01*
X152437000Y-146027592D01*
X152437000Y-145752408D01*
X152383314Y-145482510D01*
X152278005Y-145228273D01*
X152125120Y-144999465D01*
X151930535Y-144804880D01*
X151701727Y-144651995D01*
X151447490Y-144546686D01*
X151177592Y-144493000D01*
X150902408Y-144493000D01*
X150632510Y-144546686D01*
X150378273Y-144651995D01*
X150149465Y-144804880D01*
X149954880Y-144999465D01*
X149801995Y-145228273D01*
X149770000Y-145305515D01*
X149738005Y-145228273D01*
X149585120Y-144999465D01*
X149390535Y-144804880D01*
X149161727Y-144651995D01*
X149084485Y-144620000D01*
X149161727Y-144588005D01*
X149390535Y-144435120D01*
X149585120Y-144240535D01*
X149738005Y-144011727D01*
X149843314Y-143757490D01*
X149897000Y-143487592D01*
X149897000Y-143212408D01*
X149843314Y-142942510D01*
X149738005Y-142688273D01*
X149585120Y-142459465D01*
X149390535Y-142264880D01*
X149161727Y-142111995D01*
X148907490Y-142006686D01*
X148798467Y-141985000D01*
X158033422Y-141985000D01*
X161764299Y-145715878D01*
G36*
X170804953Y-142043468D02*
G01*
X170804951Y-142043470D01*
X170771183Y-142071183D01*
X170743470Y-142104951D01*
X168384123Y-144464299D01*
X168377592Y-144463000D01*
X168102408Y-144463000D01*
X167832510Y-144516686D01*
X167578273Y-144621995D01*
X167349465Y-144774880D01*
X167154880Y-144969465D01*
X167001995Y-145198273D01*
X166970000Y-145275515D01*
X166938005Y-145198273D01*
X166785120Y-144969465D01*
X166590535Y-144774880D01*
X166361727Y-144621995D01*
X166284485Y-144590000D01*
X166361727Y-144558005D01*
X166590535Y-144405120D01*
X166785120Y-144210535D01*
X166938005Y-143981727D01*
X167043314Y-143727490D01*
X167097000Y-143457592D01*
X167097000Y-143182408D01*
X167043314Y-142912510D01*
X166938005Y-142658273D01*
X166785120Y-142429465D01*
X166590535Y-142234880D01*
X166361727Y-142081995D01*
X166127562Y-141985000D01*
X170876196Y-141985000D01*
X170804953Y-142043468D01*
G37*
X170804953Y-142043468D02*
X170804951Y-142043470D01*
X170771183Y-142071183D01*
X170743470Y-142104951D01*
X168384123Y-144464299D01*
X168377592Y-144463000D01*
X168102408Y-144463000D01*
X167832510Y-144516686D01*
X167578273Y-144621995D01*
X167349465Y-144774880D01*
X167154880Y-144969465D01*
X167001995Y-145198273D01*
X166970000Y-145275515D01*
X166938005Y-145198273D01*
X166785120Y-144969465D01*
X166590535Y-144774880D01*
X166361727Y-144621995D01*
X166284485Y-144590000D01*
X166361727Y-144558005D01*
X166590535Y-144405120D01*
X166785120Y-144210535D01*
X166938005Y-143981727D01*
X167043314Y-143727490D01*
X167097000Y-143457592D01*
X167097000Y-143182408D01*
X167043314Y-142912510D01*
X166938005Y-142658273D01*
X166785120Y-142429465D01*
X166590535Y-142234880D01*
X166361727Y-142081995D01*
X166127562Y-141985000D01*
X170876196Y-141985000D01*
X170804953Y-142043468D01*
G36*
X109135363Y-123294759D02*
G01*
X109335241Y-123494637D01*
X109570273Y-123651680D01*
X109831426Y-123759853D01*
X110108665Y-123815000D01*
X110391335Y-123815000D01*
X110573886Y-123778688D01*
X110811201Y-124016003D01*
X110835000Y-124045002D01*
X110950725Y-124139975D01*
X111082754Y-124210547D01*
X111226015Y-124254004D01*
X111337668Y-124265001D01*
X111337676Y-124265001D01*
X111375001Y-124268677D01*
X111412326Y-124265001D01*
X124208077Y-124265001D01*
X124110147Y-124501426D01*
X124055000Y-124778665D01*
X124055000Y-125061335D01*
X124110147Y-125338574D01*
X124218320Y-125599727D01*
X124375363Y-125834759D01*
X124575241Y-126034637D01*
X124807759Y-126190000D01*
X124575241Y-126345363D01*
X124375363Y-126545241D01*
X124218320Y-126780273D01*
X124110147Y-127041426D01*
X124055000Y-127318665D01*
X124055000Y-127601335D01*
X124107447Y-127864999D01*
X112596576Y-127864999D01*
X108385151Y-123653575D01*
X108389727Y-123651680D01*
X108624759Y-123494637D01*
X108824637Y-123294759D01*
X108980000Y-123062241D01*
X109135363Y-123294759D01*
G37*
X109135363Y-123294759D02*
X109335241Y-123494637D01*
X109570273Y-123651680D01*
X109831426Y-123759853D01*
X110108665Y-123815000D01*
X110391335Y-123815000D01*
X110573886Y-123778688D01*
X110811201Y-124016003D01*
X110835000Y-124045002D01*
X110950725Y-124139975D01*
X111082754Y-124210547D01*
X111226015Y-124254004D01*
X111337668Y-124265001D01*
X111337676Y-124265001D01*
X111375001Y-124268677D01*
X111412326Y-124265001D01*
X124208077Y-124265001D01*
X124110147Y-124501426D01*
X124055000Y-124778665D01*
X124055000Y-125061335D01*
X124110147Y-125338574D01*
X124218320Y-125599727D01*
X124375363Y-125834759D01*
X124575241Y-126034637D01*
X124807759Y-126190000D01*
X124575241Y-126345363D01*
X124375363Y-126545241D01*
X124218320Y-126780273D01*
X124110147Y-127041426D01*
X124055000Y-127318665D01*
X124055000Y-127601335D01*
X124107447Y-127864999D01*
X112596576Y-127864999D01*
X108385151Y-123653575D01*
X108389727Y-123651680D01*
X108624759Y-123494637D01*
X108824637Y-123294759D01*
X108980000Y-123062241D01*
X109135363Y-123294759D01*
G36*
X176488655Y-107747505D02*
G01*
X176585346Y-107826857D01*
X176695660Y-107885822D01*
X176768220Y-107907833D01*
X176636365Y-108039688D01*
X176473850Y-108282909D01*
X176361908Y-108553162D01*
X176304840Y-108840060D01*
X176304840Y-109132580D01*
X176361908Y-109419478D01*
X176473850Y-109689731D01*
X176636365Y-109932952D01*
X176843208Y-110139795D01*
X177017600Y-110256320D01*
X176843208Y-110372845D01*
X176636365Y-110579688D01*
X176595184Y-110641320D01*
X174267145Y-110641320D01*
X174223679Y-110637039D01*
X174180213Y-110641320D01*
X174180203Y-110641320D01*
X174050190Y-110654125D01*
X173883367Y-110704731D01*
X173729621Y-110786909D01*
X173714905Y-110798986D01*
X173628633Y-110869788D01*
X173628631Y-110869790D01*
X173594863Y-110897503D01*
X173567150Y-110931271D01*
X171595424Y-112902998D01*
X171500156Y-112902998D01*
X171621476Y-112673110D01*
X171576825Y-112525901D01*
X171451641Y-112263080D01*
X171277588Y-112029731D01*
X171061355Y-111834822D01*
X170811252Y-111685843D01*
X170536891Y-111588519D01*
X170307000Y-111709186D01*
X170307000Y-112903000D01*
X170327000Y-112903000D01*
X170327000Y-113157000D01*
X170307000Y-113157000D01*
X170307000Y-113177000D01*
X170053000Y-113177000D01*
X170053000Y-113157000D01*
X168859845Y-113157000D01*
X168738524Y-113386890D01*
X168783175Y-113534099D01*
X168908359Y-113796920D01*
X169082412Y-114030269D01*
X169298645Y-114225178D01*
X169415534Y-114294805D01*
X169233368Y-114416525D01*
X169026525Y-114623368D01*
X168985344Y-114685000D01*
X167564656Y-114685000D01*
X167523475Y-114623368D01*
X167316632Y-114416525D01*
X167134466Y-114294805D01*
X167251355Y-114225178D01*
X167467588Y-114030269D01*
X167641641Y-113796920D01*
X167766825Y-113534099D01*
X167811476Y-113386890D01*
X167690155Y-113157000D01*
X166497000Y-113157000D01*
X166497000Y-113177000D01*
X166243000Y-113177000D01*
X166243000Y-113157000D01*
X165049845Y-113157000D01*
X164928524Y-113386890D01*
X164973175Y-113534099D01*
X165098359Y-113796920D01*
X165272412Y-114030269D01*
X165488645Y-114225178D01*
X165605534Y-114294805D01*
X165423368Y-114416525D01*
X165216525Y-114623368D01*
X165175344Y-114685000D01*
X163754656Y-114685000D01*
X163713475Y-114623368D01*
X163506632Y-114416525D01*
X163324466Y-114294805D01*
X163441355Y-114225178D01*
X163657588Y-114030269D01*
X163831641Y-113796920D01*
X163956825Y-113534099D01*
X164001476Y-113386890D01*
X163880155Y-113157000D01*
X162687000Y-113157000D01*
X162687000Y-113177000D01*
X162433000Y-113177000D01*
X162433000Y-113157000D01*
X161239845Y-113157000D01*
X161118524Y-113386890D01*
X161163175Y-113534099D01*
X161288359Y-113796920D01*
X161462412Y-114030269D01*
X161678645Y-114225178D01*
X161795534Y-114294805D01*
X161613368Y-114416525D01*
X161406525Y-114623368D01*
X161244010Y-114866589D01*
X161132068Y-115136842D01*
X161075000Y-115423740D01*
X161075000Y-115716260D01*
X161089461Y-115788960D01*
X158533336Y-118345086D01*
X158425250Y-118237000D01*
X157226000Y-118237000D01*
X157226000Y-118257000D01*
X156972000Y-118257000D01*
X156972000Y-118237000D01*
X155772750Y-118237000D01*
X155614000Y-118395750D01*
X155610928Y-118960000D01*
X155623188Y-119084482D01*
X155659498Y-119204180D01*
X155718463Y-119314494D01*
X155797815Y-119411185D01*
X155863390Y-119465001D01*
X154524610Y-119465001D01*
X154590185Y-119411185D01*
X154669537Y-119314494D01*
X154728502Y-119204180D01*
X154764812Y-119084482D01*
X154777072Y-118960000D01*
X154774000Y-118395750D01*
X154615250Y-118237000D01*
X153416000Y-118237000D01*
X153416000Y-118257000D01*
X153162000Y-118257000D01*
X153162000Y-118237000D01*
X151962750Y-118237000D01*
X151804000Y-118395750D01*
X151800928Y-118960000D01*
X151813188Y-119084482D01*
X151849498Y-119204180D01*
X151908463Y-119314494D01*
X151987815Y-119411185D01*
X152053390Y-119465001D01*
X150714610Y-119465001D01*
X150780185Y-119411185D01*
X150859537Y-119314494D01*
X150918502Y-119204180D01*
X150954812Y-119084482D01*
X150967072Y-118960000D01*
X150964000Y-118395750D01*
X150805250Y-118237000D01*
X149606000Y-118237000D01*
X149606000Y-118257000D01*
X149352000Y-118257000D01*
X149352000Y-118237000D01*
X148152750Y-118237000D01*
X147994000Y-118395750D01*
X147990928Y-118960000D01*
X148003188Y-119084482D01*
X148039498Y-119204180D01*
X148098463Y-119314494D01*
X148177815Y-119411185D01*
X148243390Y-119465001D01*
X141247578Y-119465001D01*
X142385049Y-118327530D01*
X142418817Y-118299817D01*
X142472012Y-118235000D01*
X142529411Y-118165059D01*
X142611589Y-118011314D01*
X142662195Y-117844490D01*
X142664188Y-117824250D01*
X142675000Y-117714477D01*
X142675000Y-117714469D01*
X142679281Y-117671000D01*
X142675000Y-117627531D01*
X142675000Y-114788818D01*
X142680535Y-114785120D01*
X142875120Y-114590535D01*
X143028005Y-114361727D01*
X143043863Y-114323442D01*
X144885468Y-116165047D01*
X144913183Y-116198817D01*
X144946951Y-116226530D01*
X144946953Y-116226532D01*
X145047941Y-116309411D01*
X145201686Y-116391589D01*
X145287406Y-116417592D01*
X145368510Y-116442195D01*
X145498523Y-116455000D01*
X145498531Y-116455000D01*
X145542000Y-116459281D01*
X145585469Y-116455000D01*
X148284344Y-116455000D01*
X148325525Y-116516632D01*
X148457380Y-116648487D01*
X148384820Y-116670498D01*
X148274506Y-116729463D01*
X148177815Y-116808815D01*
X148098463Y-116905506D01*
X148039498Y-117015820D01*
X148003188Y-117135518D01*
X147990928Y-117260000D01*
X147994000Y-117824250D01*
X148152750Y-117983000D01*
X149352000Y-117983000D01*
X149352000Y-117963000D01*
X149606000Y-117963000D01*
X149606000Y-117983000D01*
X150805250Y-117983000D01*
X150964000Y-117824250D01*
X150967072Y-117260000D01*
X150954812Y-117135518D01*
X150918502Y-117015820D01*
X150859537Y-116905506D01*
X150780185Y-116808815D01*
X150683494Y-116729463D01*
X150573180Y-116670498D01*
X150500620Y-116648487D01*
X150632475Y-116516632D01*
X150673656Y-116455000D01*
X152094344Y-116455000D01*
X152135525Y-116516632D01*
X152267380Y-116648487D01*
X152194820Y-116670498D01*
X152084506Y-116729463D01*
X151987815Y-116808815D01*
X151908463Y-116905506D01*
X151849498Y-117015820D01*
X151813188Y-117135518D01*
X151800928Y-117260000D01*
X151804000Y-117824250D01*
X151962750Y-117983000D01*
X153162000Y-117983000D01*
X153162000Y-117963000D01*
X153416000Y-117963000D01*
X153416000Y-117983000D01*
X154615250Y-117983000D01*
X154774000Y-117824250D01*
X154777072Y-117260000D01*
X154764812Y-117135518D01*
X154728502Y-117015820D01*
X154669537Y-116905506D01*
X154590185Y-116808815D01*
X154493494Y-116729463D01*
X154383180Y-116670498D01*
X154310620Y-116648487D01*
X154442475Y-116516632D01*
X154483656Y-116455000D01*
X155904344Y-116455000D01*
X155945525Y-116516632D01*
X156077380Y-116648487D01*
X156004820Y-116670498D01*
X155894506Y-116729463D01*
X155797815Y-116808815D01*
X155718463Y-116905506D01*
X155659498Y-117015820D01*
X155623188Y-117135518D01*
X155610928Y-117260000D01*
X155614000Y-117824250D01*
X155772750Y-117983000D01*
X156972000Y-117983000D01*
X156972000Y-117963000D01*
X157226000Y-117963000D01*
X157226000Y-117983000D01*
X158425250Y-117983000D01*
X158584000Y-117824250D01*
X158587072Y-117260000D01*
X158574812Y-117135518D01*
X158538502Y-117015820D01*
X158479537Y-116905506D01*
X158400185Y-116808815D01*
X158303494Y-116729463D01*
X158193180Y-116670498D01*
X158120620Y-116648487D01*
X158252475Y-116516632D01*
X158414990Y-116273411D01*
X158526932Y-116003158D01*
X158584000Y-115716260D01*
X158584000Y-115423740D01*
X158569539Y-115351039D01*
X161163066Y-112757513D01*
X161239845Y-112903000D01*
X162433000Y-112903000D01*
X162433000Y-111709186D01*
X162687000Y-111709186D01*
X162687000Y-112903000D01*
X163880155Y-112903000D01*
X164001476Y-112673110D01*
X164928524Y-112673110D01*
X165049845Y-112903000D01*
X166243000Y-112903000D01*
X166243000Y-111709186D01*
X166497000Y-111709186D01*
X166497000Y-112903000D01*
X167690155Y-112903000D01*
X167811476Y-112673110D01*
X168738524Y-112673110D01*
X168859845Y-112903000D01*
X170053000Y-112903000D01*
X170053000Y-111709186D01*
X169823109Y-111588519D01*
X169548748Y-111685843D01*
X169298645Y-111834822D01*
X169082412Y-112029731D01*
X168908359Y-112263080D01*
X168783175Y-112525901D01*
X168738524Y-112673110D01*
X167811476Y-112673110D01*
X167766825Y-112525901D01*
X167641641Y-112263080D01*
X167467588Y-112029731D01*
X167251355Y-111834822D01*
X167001252Y-111685843D01*
X166726891Y-111588519D01*
X166497000Y-111709186D01*
X166243000Y-111709186D01*
X166013109Y-111588519D01*
X165738748Y-111685843D01*
X165488645Y-111834822D01*
X165272412Y-112029731D01*
X165098359Y-112263080D01*
X164973175Y-112525901D01*
X164928524Y-112673110D01*
X164001476Y-112673110D01*
X163956825Y-112525901D01*
X163831641Y-112263080D01*
X163657588Y-112029731D01*
X163441355Y-111834822D01*
X163191252Y-111685843D01*
X162916891Y-111588519D01*
X162687000Y-111709186D01*
X162433000Y-111709186D01*
X162287673Y-111632906D01*
X162459219Y-111461360D01*
X172266331Y-111461360D01*
X172309800Y-111465641D01*
X172353269Y-111461360D01*
X172353277Y-111461360D01*
X172483290Y-111448555D01*
X172650113Y-111397949D01*
X172803859Y-111315771D01*
X172938617Y-111205177D01*
X172966334Y-111171404D01*
X176444291Y-107693448D01*
X176488655Y-107747505D01*
G37*
X176488655Y-107747505D02*
X176585346Y-107826857D01*
X176695660Y-107885822D01*
X176768220Y-107907833D01*
X176636365Y-108039688D01*
X176473850Y-108282909D01*
X176361908Y-108553162D01*
X176304840Y-108840060D01*
X176304840Y-109132580D01*
X176361908Y-109419478D01*
X176473850Y-109689731D01*
X176636365Y-109932952D01*
X176843208Y-110139795D01*
X177017600Y-110256320D01*
X176843208Y-110372845D01*
X176636365Y-110579688D01*
X176595184Y-110641320D01*
X174267145Y-110641320D01*
X174223679Y-110637039D01*
X174180213Y-110641320D01*
X174180203Y-110641320D01*
X174050190Y-110654125D01*
X173883367Y-110704731D01*
X173729621Y-110786909D01*
X173714905Y-110798986D01*
X173628633Y-110869788D01*
X173628631Y-110869790D01*
X173594863Y-110897503D01*
X173567150Y-110931271D01*
X171595424Y-112902998D01*
X171500156Y-112902998D01*
X171621476Y-112673110D01*
X171576825Y-112525901D01*
X171451641Y-112263080D01*
X171277588Y-112029731D01*
X171061355Y-111834822D01*
X170811252Y-111685843D01*
X170536891Y-111588519D01*
X170307000Y-111709186D01*
X170307000Y-112903000D01*
X170327000Y-112903000D01*
X170327000Y-113157000D01*
X170307000Y-113157000D01*
X170307000Y-113177000D01*
X170053000Y-113177000D01*
X170053000Y-113157000D01*
X168859845Y-113157000D01*
X168738524Y-113386890D01*
X168783175Y-113534099D01*
X168908359Y-113796920D01*
X169082412Y-114030269D01*
X169298645Y-114225178D01*
X169415534Y-114294805D01*
X169233368Y-114416525D01*
X169026525Y-114623368D01*
X168985344Y-114685000D01*
X167564656Y-114685000D01*
X167523475Y-114623368D01*
X167316632Y-114416525D01*
X167134466Y-114294805D01*
X167251355Y-114225178D01*
X167467588Y-114030269D01*
X167641641Y-113796920D01*
X167766825Y-113534099D01*
X167811476Y-113386890D01*
X167690155Y-113157000D01*
X166497000Y-113157000D01*
X166497000Y-113177000D01*
X166243000Y-113177000D01*
X166243000Y-113157000D01*
X165049845Y-113157000D01*
X164928524Y-113386890D01*
X164973175Y-113534099D01*
X165098359Y-113796920D01*
X165272412Y-114030269D01*
X165488645Y-114225178D01*
X165605534Y-114294805D01*
X165423368Y-114416525D01*
X165216525Y-114623368D01*
X165175344Y-114685000D01*
X163754656Y-114685000D01*
X163713475Y-114623368D01*
X163506632Y-114416525D01*
X163324466Y-114294805D01*
X163441355Y-114225178D01*
X163657588Y-114030269D01*
X163831641Y-113796920D01*
X163956825Y-113534099D01*
X164001476Y-113386890D01*
X163880155Y-113157000D01*
X162687000Y-113157000D01*
X162687000Y-113177000D01*
X162433000Y-113177000D01*
X162433000Y-113157000D01*
X161239845Y-113157000D01*
X161118524Y-113386890D01*
X161163175Y-113534099D01*
X161288359Y-113796920D01*
X161462412Y-114030269D01*
X161678645Y-114225178D01*
X161795534Y-114294805D01*
X161613368Y-114416525D01*
X161406525Y-114623368D01*
X161244010Y-114866589D01*
X161132068Y-115136842D01*
X161075000Y-115423740D01*
X161075000Y-115716260D01*
X161089461Y-115788960D01*
X158533336Y-118345086D01*
X158425250Y-118237000D01*
X157226000Y-118237000D01*
X157226000Y-118257000D01*
X156972000Y-118257000D01*
X156972000Y-118237000D01*
X155772750Y-118237000D01*
X155614000Y-118395750D01*
X155610928Y-118960000D01*
X155623188Y-119084482D01*
X155659498Y-119204180D01*
X155718463Y-119314494D01*
X155797815Y-119411185D01*
X155863390Y-119465001D01*
X154524610Y-119465001D01*
X154590185Y-119411185D01*
X154669537Y-119314494D01*
X154728502Y-119204180D01*
X154764812Y-119084482D01*
X154777072Y-118960000D01*
X154774000Y-118395750D01*
X154615250Y-118237000D01*
X153416000Y-118237000D01*
X153416000Y-118257000D01*
X153162000Y-118257000D01*
X153162000Y-118237000D01*
X151962750Y-118237000D01*
X151804000Y-118395750D01*
X151800928Y-118960000D01*
X151813188Y-119084482D01*
X151849498Y-119204180D01*
X151908463Y-119314494D01*
X151987815Y-119411185D01*
X152053390Y-119465001D01*
X150714610Y-119465001D01*
X150780185Y-119411185D01*
X150859537Y-119314494D01*
X150918502Y-119204180D01*
X150954812Y-119084482D01*
X150967072Y-118960000D01*
X150964000Y-118395750D01*
X150805250Y-118237000D01*
X149606000Y-118237000D01*
X149606000Y-118257000D01*
X149352000Y-118257000D01*
X149352000Y-118237000D01*
X148152750Y-118237000D01*
X147994000Y-118395750D01*
X147990928Y-118960000D01*
X148003188Y-119084482D01*
X148039498Y-119204180D01*
X148098463Y-119314494D01*
X148177815Y-119411185D01*
X148243390Y-119465001D01*
X141247578Y-119465001D01*
X142385049Y-118327530D01*
X142418817Y-118299817D01*
X142472012Y-118235000D01*
X142529411Y-118165059D01*
X142611589Y-118011314D01*
X142662195Y-117844490D01*
X142664188Y-117824250D01*
X142675000Y-117714477D01*
X142675000Y-117714469D01*
X142679281Y-117671000D01*
X142675000Y-117627531D01*
X142675000Y-114788818D01*
X142680535Y-114785120D01*
X142875120Y-114590535D01*
X143028005Y-114361727D01*
X143043863Y-114323442D01*
X144885468Y-116165047D01*
X144913183Y-116198817D01*
X144946951Y-116226530D01*
X144946953Y-116226532D01*
X145047941Y-116309411D01*
X145201686Y-116391589D01*
X145287406Y-116417592D01*
X145368510Y-116442195D01*
X145498523Y-116455000D01*
X145498531Y-116455000D01*
X145542000Y-116459281D01*
X145585469Y-116455000D01*
X148284344Y-116455000D01*
X148325525Y-116516632D01*
X148457380Y-116648487D01*
X148384820Y-116670498D01*
X148274506Y-116729463D01*
X148177815Y-116808815D01*
X148098463Y-116905506D01*
X148039498Y-117015820D01*
X148003188Y-117135518D01*
X147990928Y-117260000D01*
X147994000Y-117824250D01*
X148152750Y-117983000D01*
X149352000Y-117983000D01*
X149352000Y-117963000D01*
X149606000Y-117963000D01*
X149606000Y-117983000D01*
X150805250Y-117983000D01*
X150964000Y-117824250D01*
X150967072Y-117260000D01*
X150954812Y-117135518D01*
X150918502Y-117015820D01*
X150859537Y-116905506D01*
X150780185Y-116808815D01*
X150683494Y-116729463D01*
X150573180Y-116670498D01*
X150500620Y-116648487D01*
X150632475Y-116516632D01*
X150673656Y-116455000D01*
X152094344Y-116455000D01*
X152135525Y-116516632D01*
X152267380Y-116648487D01*
X152194820Y-116670498D01*
X152084506Y-116729463D01*
X151987815Y-116808815D01*
X151908463Y-116905506D01*
X151849498Y-117015820D01*
X151813188Y-117135518D01*
X151800928Y-117260000D01*
X151804000Y-117824250D01*
X151962750Y-117983000D01*
X153162000Y-117983000D01*
X153162000Y-117963000D01*
X153416000Y-117963000D01*
X153416000Y-117983000D01*
X154615250Y-117983000D01*
X154774000Y-117824250D01*
X154777072Y-117260000D01*
X154764812Y-117135518D01*
X154728502Y-117015820D01*
X154669537Y-116905506D01*
X154590185Y-116808815D01*
X154493494Y-116729463D01*
X154383180Y-116670498D01*
X154310620Y-116648487D01*
X154442475Y-116516632D01*
X154483656Y-116455000D01*
X155904344Y-116455000D01*
X155945525Y-116516632D01*
X156077380Y-116648487D01*
X156004820Y-116670498D01*
X155894506Y-116729463D01*
X155797815Y-116808815D01*
X155718463Y-116905506D01*
X155659498Y-117015820D01*
X155623188Y-117135518D01*
X155610928Y-117260000D01*
X155614000Y-117824250D01*
X155772750Y-117983000D01*
X156972000Y-117983000D01*
X156972000Y-117963000D01*
X157226000Y-117963000D01*
X157226000Y-117983000D01*
X158425250Y-117983000D01*
X158584000Y-117824250D01*
X158587072Y-117260000D01*
X158574812Y-117135518D01*
X158538502Y-117015820D01*
X158479537Y-116905506D01*
X158400185Y-116808815D01*
X158303494Y-116729463D01*
X158193180Y-116670498D01*
X158120620Y-116648487D01*
X158252475Y-116516632D01*
X158414990Y-116273411D01*
X158526932Y-116003158D01*
X158584000Y-115716260D01*
X158584000Y-115423740D01*
X158569539Y-115351039D01*
X161163066Y-112757513D01*
X161239845Y-112903000D01*
X162433000Y-112903000D01*
X162433000Y-111709186D01*
X162687000Y-111709186D01*
X162687000Y-112903000D01*
X163880155Y-112903000D01*
X164001476Y-112673110D01*
X164928524Y-112673110D01*
X165049845Y-112903000D01*
X166243000Y-112903000D01*
X166243000Y-111709186D01*
X166497000Y-111709186D01*
X166497000Y-112903000D01*
X167690155Y-112903000D01*
X167811476Y-112673110D01*
X168738524Y-112673110D01*
X168859845Y-112903000D01*
X170053000Y-112903000D01*
X170053000Y-111709186D01*
X169823109Y-111588519D01*
X169548748Y-111685843D01*
X169298645Y-111834822D01*
X169082412Y-112029731D01*
X168908359Y-112263080D01*
X168783175Y-112525901D01*
X168738524Y-112673110D01*
X167811476Y-112673110D01*
X167766825Y-112525901D01*
X167641641Y-112263080D01*
X167467588Y-112029731D01*
X167251355Y-111834822D01*
X167001252Y-111685843D01*
X166726891Y-111588519D01*
X166497000Y-111709186D01*
X166243000Y-111709186D01*
X166013109Y-111588519D01*
X165738748Y-111685843D01*
X165488645Y-111834822D01*
X165272412Y-112029731D01*
X165098359Y-112263080D01*
X164973175Y-112525901D01*
X164928524Y-112673110D01*
X164001476Y-112673110D01*
X163956825Y-112525901D01*
X163831641Y-112263080D01*
X163657588Y-112029731D01*
X163441355Y-111834822D01*
X163191252Y-111685843D01*
X162916891Y-111588519D01*
X162687000Y-111709186D01*
X162433000Y-111709186D01*
X162287673Y-111632906D01*
X162459219Y-111461360D01*
X172266331Y-111461360D01*
X172309800Y-111465641D01*
X172353269Y-111461360D01*
X172353277Y-111461360D01*
X172483290Y-111448555D01*
X172650113Y-111397949D01*
X172803859Y-111315771D01*
X172938617Y-111205177D01*
X172966334Y-111171404D01*
X176444291Y-107693448D01*
X176488655Y-107747505D01*
G36*
X158514424Y-112902998D02*
G01*
X158419156Y-112902998D01*
X158540476Y-112673110D01*
X158495825Y-112525901D01*
X158370641Y-112263080D01*
X158196588Y-112029731D01*
X157980355Y-111834822D01*
X157730252Y-111685843D01*
X157455891Y-111588519D01*
X157226000Y-111709186D01*
X157226000Y-112903000D01*
X157246000Y-112903000D01*
X157246000Y-113157000D01*
X157226000Y-113157000D01*
X157226000Y-113177000D01*
X156972000Y-113177000D01*
X156972000Y-113157000D01*
X155778845Y-113157000D01*
X155657524Y-113386890D01*
X155702175Y-113534099D01*
X155827359Y-113796920D01*
X156001412Y-114030269D01*
X156217645Y-114225178D01*
X156334534Y-114294805D01*
X156152368Y-114416525D01*
X155945525Y-114623368D01*
X155904344Y-114685000D01*
X154483656Y-114685000D01*
X154442475Y-114623368D01*
X154235632Y-114416525D01*
X154053466Y-114294805D01*
X154170355Y-114225178D01*
X154386588Y-114030269D01*
X154560641Y-113796920D01*
X154685825Y-113534099D01*
X154730476Y-113386890D01*
X154609155Y-113157000D01*
X153416000Y-113157000D01*
X153416000Y-113177000D01*
X153162000Y-113177000D01*
X153162000Y-113157000D01*
X151968845Y-113157000D01*
X151847524Y-113386890D01*
X151892175Y-113534099D01*
X152017359Y-113796920D01*
X152191412Y-114030269D01*
X152407645Y-114225178D01*
X152524534Y-114294805D01*
X152342368Y-114416525D01*
X152135525Y-114623368D01*
X152094344Y-114685000D01*
X150673656Y-114685000D01*
X150632475Y-114623368D01*
X150425632Y-114416525D01*
X150243466Y-114294805D01*
X150360355Y-114225178D01*
X150576588Y-114030269D01*
X150750641Y-113796920D01*
X150875825Y-113534099D01*
X150920476Y-113386890D01*
X150799155Y-113157000D01*
X149606000Y-113157000D01*
X149606000Y-113177000D01*
X149352000Y-113177000D01*
X149352000Y-113157000D01*
X148158845Y-113157000D01*
X148037524Y-113386890D01*
X148082175Y-113534099D01*
X148207359Y-113796920D01*
X148381412Y-114030269D01*
X148597645Y-114225178D01*
X148714534Y-114294805D01*
X148532368Y-114416525D01*
X148325525Y-114623368D01*
X148284344Y-114685000D01*
X145908579Y-114685000D01*
X144628254Y-113404676D01*
X144700898Y-113390226D01*
X144889256Y-113312205D01*
X145058774Y-113198937D01*
X145202937Y-113054774D01*
X145316205Y-112885256D01*
X145394226Y-112696898D01*
X145398957Y-112673110D01*
X148037524Y-112673110D01*
X148158845Y-112903000D01*
X149352000Y-112903000D01*
X149352000Y-111709186D01*
X149606000Y-111709186D01*
X149606000Y-112903000D01*
X150799155Y-112903000D01*
X150920476Y-112673110D01*
X151847524Y-112673110D01*
X151968845Y-112903000D01*
X153162000Y-112903000D01*
X153162000Y-111709186D01*
X153416000Y-111709186D01*
X153416000Y-112903000D01*
X154609155Y-112903000D01*
X154730476Y-112673110D01*
X155657524Y-112673110D01*
X155778845Y-112903000D01*
X156972000Y-112903000D01*
X156972000Y-111709186D01*
X156742109Y-111588519D01*
X156467748Y-111685843D01*
X156217645Y-111834822D01*
X156001412Y-112029731D01*
X155827359Y-112263080D01*
X155702175Y-112525901D01*
X155657524Y-112673110D01*
X154730476Y-112673110D01*
X154685825Y-112525901D01*
X154560641Y-112263080D01*
X154386588Y-112029731D01*
X154170355Y-111834822D01*
X153920252Y-111685843D01*
X153645891Y-111588519D01*
X153416000Y-111709186D01*
X153162000Y-111709186D01*
X152932109Y-111588519D01*
X152657748Y-111685843D01*
X152407645Y-111834822D01*
X152191412Y-112029731D01*
X152017359Y-112263080D01*
X151892175Y-112525901D01*
X151847524Y-112673110D01*
X150920476Y-112673110D01*
X150875825Y-112525901D01*
X150750641Y-112263080D01*
X150576588Y-112029731D01*
X150360355Y-111834822D01*
X150110252Y-111685843D01*
X149835891Y-111588519D01*
X149606000Y-111709186D01*
X149352000Y-111709186D01*
X149122109Y-111588519D01*
X148847748Y-111685843D01*
X148597645Y-111834822D01*
X148381412Y-112029731D01*
X148207359Y-112263080D01*
X148082175Y-112525901D01*
X148037524Y-112673110D01*
X145398957Y-112673110D01*
X145434000Y-112496939D01*
X145434000Y-112434801D01*
X147380802Y-110488000D01*
X155180383Y-110488000D01*
X155175000Y-110515061D01*
X155175000Y-110718939D01*
X155214774Y-110918898D01*
X155292795Y-111107256D01*
X155406063Y-111276774D01*
X155550226Y-111420937D01*
X155719744Y-111534205D01*
X155908102Y-111612226D01*
X156108061Y-111652000D01*
X156311939Y-111652000D01*
X156511898Y-111612226D01*
X156700256Y-111534205D01*
X156869774Y-111420937D01*
X156913711Y-111377000D01*
X157020088Y-111377000D01*
X157057410Y-111380676D01*
X157094732Y-111377000D01*
X157094743Y-111377000D01*
X157206396Y-111366003D01*
X157349657Y-111322546D01*
X157481686Y-111251974D01*
X157597411Y-111157001D01*
X157621214Y-111127998D01*
X158388212Y-110361000D01*
X161056421Y-110361000D01*
X158514424Y-112902998D01*
G37*
X158514424Y-112902998D02*
X158419156Y-112902998D01*
X158540476Y-112673110D01*
X158495825Y-112525901D01*
X158370641Y-112263080D01*
X158196588Y-112029731D01*
X157980355Y-111834822D01*
X157730252Y-111685843D01*
X157455891Y-111588519D01*
X157226000Y-111709186D01*
X157226000Y-112903000D01*
X157246000Y-112903000D01*
X157246000Y-113157000D01*
X157226000Y-113157000D01*
X157226000Y-113177000D01*
X156972000Y-113177000D01*
X156972000Y-113157000D01*
X155778845Y-113157000D01*
X155657524Y-113386890D01*
X155702175Y-113534099D01*
X155827359Y-113796920D01*
X156001412Y-114030269D01*
X156217645Y-114225178D01*
X156334534Y-114294805D01*
X156152368Y-114416525D01*
X155945525Y-114623368D01*
X155904344Y-114685000D01*
X154483656Y-114685000D01*
X154442475Y-114623368D01*
X154235632Y-114416525D01*
X154053466Y-114294805D01*
X154170355Y-114225178D01*
X154386588Y-114030269D01*
X154560641Y-113796920D01*
X154685825Y-113534099D01*
X154730476Y-113386890D01*
X154609155Y-113157000D01*
X153416000Y-113157000D01*
X153416000Y-113177000D01*
X153162000Y-113177000D01*
X153162000Y-113157000D01*
X151968845Y-113157000D01*
X151847524Y-113386890D01*
X151892175Y-113534099D01*
X152017359Y-113796920D01*
X152191412Y-114030269D01*
X152407645Y-114225178D01*
X152524534Y-114294805D01*
X152342368Y-114416525D01*
X152135525Y-114623368D01*
X152094344Y-114685000D01*
X150673656Y-114685000D01*
X150632475Y-114623368D01*
X150425632Y-114416525D01*
X150243466Y-114294805D01*
X150360355Y-114225178D01*
X150576588Y-114030269D01*
X150750641Y-113796920D01*
X150875825Y-113534099D01*
X150920476Y-113386890D01*
X150799155Y-113157000D01*
X149606000Y-113157000D01*
X149606000Y-113177000D01*
X149352000Y-113177000D01*
X149352000Y-113157000D01*
X148158845Y-113157000D01*
X148037524Y-113386890D01*
X148082175Y-113534099D01*
X148207359Y-113796920D01*
X148381412Y-114030269D01*
X148597645Y-114225178D01*
X148714534Y-114294805D01*
X148532368Y-114416525D01*
X148325525Y-114623368D01*
X148284344Y-114685000D01*
X145908579Y-114685000D01*
X144628254Y-113404676D01*
X144700898Y-113390226D01*
X144889256Y-113312205D01*
X145058774Y-113198937D01*
X145202937Y-113054774D01*
X145316205Y-112885256D01*
X145394226Y-112696898D01*
X145398957Y-112673110D01*
X148037524Y-112673110D01*
X148158845Y-112903000D01*
X149352000Y-112903000D01*
X149352000Y-111709186D01*
X149606000Y-111709186D01*
X149606000Y-112903000D01*
X150799155Y-112903000D01*
X150920476Y-112673110D01*
X151847524Y-112673110D01*
X151968845Y-112903000D01*
X153162000Y-112903000D01*
X153162000Y-111709186D01*
X153416000Y-111709186D01*
X153416000Y-112903000D01*
X154609155Y-112903000D01*
X154730476Y-112673110D01*
X155657524Y-112673110D01*
X155778845Y-112903000D01*
X156972000Y-112903000D01*
X156972000Y-111709186D01*
X156742109Y-111588519D01*
X156467748Y-111685843D01*
X156217645Y-111834822D01*
X156001412Y-112029731D01*
X155827359Y-112263080D01*
X155702175Y-112525901D01*
X155657524Y-112673110D01*
X154730476Y-112673110D01*
X154685825Y-112525901D01*
X154560641Y-112263080D01*
X154386588Y-112029731D01*
X154170355Y-111834822D01*
X153920252Y-111685843D01*
X153645891Y-111588519D01*
X153416000Y-111709186D01*
X153162000Y-111709186D01*
X152932109Y-111588519D01*
X152657748Y-111685843D01*
X152407645Y-111834822D01*
X152191412Y-112029731D01*
X152017359Y-112263080D01*
X151892175Y-112525901D01*
X151847524Y-112673110D01*
X150920476Y-112673110D01*
X150875825Y-112525901D01*
X150750641Y-112263080D01*
X150576588Y-112029731D01*
X150360355Y-111834822D01*
X150110252Y-111685843D01*
X149835891Y-111588519D01*
X149606000Y-111709186D01*
X149352000Y-111709186D01*
X149122109Y-111588519D01*
X148847748Y-111685843D01*
X148597645Y-111834822D01*
X148381412Y-112029731D01*
X148207359Y-112263080D01*
X148082175Y-112525901D01*
X148037524Y-112673110D01*
X145398957Y-112673110D01*
X145434000Y-112496939D01*
X145434000Y-112434801D01*
X147380802Y-110488000D01*
X155180383Y-110488000D01*
X155175000Y-110515061D01*
X155175000Y-110718939D01*
X155214774Y-110918898D01*
X155292795Y-111107256D01*
X155406063Y-111276774D01*
X155550226Y-111420937D01*
X155719744Y-111534205D01*
X155908102Y-111612226D01*
X156108061Y-111652000D01*
X156311939Y-111652000D01*
X156511898Y-111612226D01*
X156700256Y-111534205D01*
X156869774Y-111420937D01*
X156913711Y-111377000D01*
X157020088Y-111377000D01*
X157057410Y-111380676D01*
X157094732Y-111377000D01*
X157094743Y-111377000D01*
X157206396Y-111366003D01*
X157349657Y-111322546D01*
X157481686Y-111251974D01*
X157597411Y-111157001D01*
X157621214Y-111127998D01*
X158388212Y-110361000D01*
X161056421Y-110361000D01*
X158514424Y-112902998D01*
M02*
