G04 #@! TF.GenerationSoftware,KiCad,Pcbnew,(5.1.5)-3*
G04 #@! TF.CreationDate,2022-01-20T10:09:34-08:00*
G04 #@! TF.ProjectId,teensy_breakout,7465656e-7379-45f6-9272-65616b6f7574,rev?*
G04 #@! TF.SameCoordinates,Original*
G04 #@! TF.FileFunction,Soldermask,Bot*
G04 #@! TF.FilePolarity,Negative*
%FSLAX46Y46*%
G04 Gerber Fmt 4.6, Leading zero omitted, Abs format (unit mm)*
G04 Created by KiCad (PCBNEW (5.1.5)-3) date 2022-01-20 10:09:34*
%MOMM*%
%LPD*%
G04 APERTURE LIST*
%ADD10C,0.100000*%
G04 APERTURE END LIST*
D10*
G36*
X180375256Y-158391298D02*
G01*
X180481579Y-158412447D01*
X180782042Y-158536903D01*
X181052451Y-158717585D01*
X181282415Y-158947549D01*
X181463097Y-159217958D01*
X181587553Y-159518421D01*
X181651000Y-159837391D01*
X181651000Y-160162609D01*
X181587553Y-160481579D01*
X181463097Y-160782042D01*
X181282415Y-161052451D01*
X181052451Y-161282415D01*
X180782042Y-161463097D01*
X180481579Y-161587553D01*
X180375256Y-161608702D01*
X180162611Y-161651000D01*
X179837389Y-161651000D01*
X179624744Y-161608702D01*
X179518421Y-161587553D01*
X179217958Y-161463097D01*
X178947549Y-161282415D01*
X178717585Y-161052451D01*
X178536903Y-160782042D01*
X178412447Y-160481579D01*
X178349000Y-160162609D01*
X178349000Y-159837391D01*
X178412447Y-159518421D01*
X178536903Y-159217958D01*
X178717585Y-158947549D01*
X178947549Y-158717585D01*
X179217958Y-158536903D01*
X179518421Y-158412447D01*
X179624744Y-158391298D01*
X179837389Y-158349000D01*
X180162611Y-158349000D01*
X180375256Y-158391298D01*
G37*
G36*
X100375256Y-158391298D02*
G01*
X100481579Y-158412447D01*
X100782042Y-158536903D01*
X101052451Y-158717585D01*
X101282415Y-158947549D01*
X101463097Y-159217958D01*
X101587553Y-159518421D01*
X101651000Y-159837391D01*
X101651000Y-160162609D01*
X101587553Y-160481579D01*
X101463097Y-160782042D01*
X101282415Y-161052451D01*
X101052451Y-161282415D01*
X100782042Y-161463097D01*
X100481579Y-161587553D01*
X100375256Y-161608702D01*
X100162611Y-161651000D01*
X99837389Y-161651000D01*
X99624744Y-161608702D01*
X99518421Y-161587553D01*
X99217958Y-161463097D01*
X98947549Y-161282415D01*
X98717585Y-161052451D01*
X98536903Y-160782042D01*
X98412447Y-160481579D01*
X98349000Y-160162609D01*
X98349000Y-159837391D01*
X98412447Y-159518421D01*
X98536903Y-159217958D01*
X98717585Y-158947549D01*
X98947549Y-158717585D01*
X99217958Y-158536903D01*
X99518421Y-158412447D01*
X99624744Y-158391298D01*
X99837389Y-158349000D01*
X100162611Y-158349000D01*
X100375256Y-158391298D01*
G37*
G36*
X127421531Y-149351544D02*
G01*
X127582812Y-149383624D01*
X127746784Y-149451544D01*
X127894354Y-149550147D01*
X128019853Y-149675646D01*
X128118456Y-149823216D01*
X128186376Y-149987188D01*
X128221000Y-150161259D01*
X128221000Y-150338741D01*
X128186376Y-150512812D01*
X128118456Y-150676784D01*
X128019853Y-150824354D01*
X127894354Y-150949853D01*
X127746784Y-151048456D01*
X127582812Y-151116376D01*
X127433512Y-151146073D01*
X127408742Y-151151000D01*
X127231258Y-151151000D01*
X127206488Y-151146073D01*
X127057188Y-151116376D01*
X126893216Y-151048456D01*
X126745646Y-150949853D01*
X126620147Y-150824354D01*
X126521544Y-150676784D01*
X126453624Y-150512812D01*
X126419000Y-150338741D01*
X126419000Y-150161259D01*
X126453624Y-149987188D01*
X126521544Y-149823216D01*
X126620147Y-149675646D01*
X126745646Y-149550147D01*
X126893216Y-149451544D01*
X127057188Y-149383624D01*
X127218469Y-149351544D01*
X127231258Y-149349000D01*
X127408742Y-149349000D01*
X127421531Y-149351544D01*
G37*
G36*
X167041531Y-149351544D02*
G01*
X167202812Y-149383624D01*
X167366784Y-149451544D01*
X167514354Y-149550147D01*
X167639853Y-149675646D01*
X167738456Y-149823216D01*
X167806376Y-149987188D01*
X167841000Y-150161259D01*
X167841000Y-150338741D01*
X167806376Y-150512812D01*
X167738456Y-150676784D01*
X167639853Y-150824354D01*
X167514354Y-150949853D01*
X167366784Y-151048456D01*
X167202812Y-151116376D01*
X167053512Y-151146073D01*
X167028742Y-151151000D01*
X166851258Y-151151000D01*
X166826488Y-151146073D01*
X166677188Y-151116376D01*
X166513216Y-151048456D01*
X166365646Y-150949853D01*
X166240147Y-150824354D01*
X166141544Y-150676784D01*
X166073624Y-150512812D01*
X166039000Y-150338741D01*
X166039000Y-150161259D01*
X166073624Y-149987188D01*
X166141544Y-149823216D01*
X166240147Y-149675646D01*
X166365646Y-149550147D01*
X166513216Y-149451544D01*
X166677188Y-149383624D01*
X166838469Y-149351544D01*
X166851258Y-149349000D01*
X167028742Y-149349000D01*
X167041531Y-149351544D01*
G37*
G36*
X124881531Y-149351544D02*
G01*
X125042812Y-149383624D01*
X125206784Y-149451544D01*
X125354354Y-149550147D01*
X125479853Y-149675646D01*
X125578456Y-149823216D01*
X125646376Y-149987188D01*
X125681000Y-150161259D01*
X125681000Y-150338741D01*
X125646376Y-150512812D01*
X125578456Y-150676784D01*
X125479853Y-150824354D01*
X125354354Y-150949853D01*
X125206784Y-151048456D01*
X125042812Y-151116376D01*
X124893512Y-151146073D01*
X124868742Y-151151000D01*
X124691258Y-151151000D01*
X124666488Y-151146073D01*
X124517188Y-151116376D01*
X124353216Y-151048456D01*
X124205646Y-150949853D01*
X124080147Y-150824354D01*
X123981544Y-150676784D01*
X123913624Y-150512812D01*
X123879000Y-150338741D01*
X123879000Y-150161259D01*
X123913624Y-149987188D01*
X123981544Y-149823216D01*
X124080147Y-149675646D01*
X124205646Y-149550147D01*
X124353216Y-149451544D01*
X124517188Y-149383624D01*
X124678469Y-149351544D01*
X124691258Y-149349000D01*
X124868742Y-149349000D01*
X124881531Y-149351544D01*
G37*
G36*
X142261531Y-149351544D02*
G01*
X142422812Y-149383624D01*
X142586784Y-149451544D01*
X142734354Y-149550147D01*
X142859853Y-149675646D01*
X142958456Y-149823216D01*
X143026376Y-149987188D01*
X143061000Y-150161259D01*
X143061000Y-150338741D01*
X143026376Y-150512812D01*
X142958456Y-150676784D01*
X142859853Y-150824354D01*
X142734354Y-150949853D01*
X142586784Y-151048456D01*
X142422812Y-151116376D01*
X142273512Y-151146073D01*
X142248742Y-151151000D01*
X142071258Y-151151000D01*
X142046488Y-151146073D01*
X141897188Y-151116376D01*
X141733216Y-151048456D01*
X141585646Y-150949853D01*
X141460147Y-150824354D01*
X141361544Y-150676784D01*
X141293624Y-150512812D01*
X141259000Y-150338741D01*
X141259000Y-150161259D01*
X141293624Y-149987188D01*
X141361544Y-149823216D01*
X141460147Y-149675646D01*
X141585646Y-149550147D01*
X141733216Y-149451544D01*
X141897188Y-149383624D01*
X142058469Y-149351544D01*
X142071258Y-149349000D01*
X142248742Y-149349000D01*
X142261531Y-149351544D01*
G37*
G36*
X144801531Y-149351544D02*
G01*
X144962812Y-149383624D01*
X145126784Y-149451544D01*
X145274354Y-149550147D01*
X145399853Y-149675646D01*
X145498456Y-149823216D01*
X145566376Y-149987188D01*
X145601000Y-150161259D01*
X145601000Y-150338741D01*
X145566376Y-150512812D01*
X145498456Y-150676784D01*
X145399853Y-150824354D01*
X145274354Y-150949853D01*
X145126784Y-151048456D01*
X144962812Y-151116376D01*
X144813512Y-151146073D01*
X144788742Y-151151000D01*
X144611258Y-151151000D01*
X144586488Y-151146073D01*
X144437188Y-151116376D01*
X144273216Y-151048456D01*
X144125646Y-150949853D01*
X144000147Y-150824354D01*
X143901544Y-150676784D01*
X143833624Y-150512812D01*
X143799000Y-150338741D01*
X143799000Y-150161259D01*
X143833624Y-149987188D01*
X143901544Y-149823216D01*
X144000147Y-149675646D01*
X144125646Y-149550147D01*
X144273216Y-149451544D01*
X144437188Y-149383624D01*
X144598469Y-149351544D01*
X144611258Y-149349000D01*
X144788742Y-149349000D01*
X144801531Y-149351544D01*
G37*
G36*
X147341531Y-149351544D02*
G01*
X147502812Y-149383624D01*
X147666784Y-149451544D01*
X147814354Y-149550147D01*
X147939853Y-149675646D01*
X148038456Y-149823216D01*
X148106376Y-149987188D01*
X148141000Y-150161259D01*
X148141000Y-150338741D01*
X148106376Y-150512812D01*
X148038456Y-150676784D01*
X147939853Y-150824354D01*
X147814354Y-150949853D01*
X147666784Y-151048456D01*
X147502812Y-151116376D01*
X147353512Y-151146073D01*
X147328742Y-151151000D01*
X147151258Y-151151000D01*
X147126488Y-151146073D01*
X146977188Y-151116376D01*
X146813216Y-151048456D01*
X146665646Y-150949853D01*
X146540147Y-150824354D01*
X146441544Y-150676784D01*
X146373624Y-150512812D01*
X146339000Y-150338741D01*
X146339000Y-150161259D01*
X146373624Y-149987188D01*
X146441544Y-149823216D01*
X146540147Y-149675646D01*
X146665646Y-149550147D01*
X146813216Y-149451544D01*
X146977188Y-149383624D01*
X147138469Y-149351544D01*
X147151258Y-149349000D01*
X147328742Y-149349000D01*
X147341531Y-149351544D01*
G37*
G36*
X149881531Y-149351544D02*
G01*
X150042812Y-149383624D01*
X150206784Y-149451544D01*
X150354354Y-149550147D01*
X150479853Y-149675646D01*
X150578456Y-149823216D01*
X150646376Y-149987188D01*
X150681000Y-150161259D01*
X150681000Y-150338741D01*
X150646376Y-150512812D01*
X150578456Y-150676784D01*
X150479853Y-150824354D01*
X150354354Y-150949853D01*
X150206784Y-151048456D01*
X150042812Y-151116376D01*
X149893512Y-151146073D01*
X149868742Y-151151000D01*
X149691258Y-151151000D01*
X149666488Y-151146073D01*
X149517188Y-151116376D01*
X149353216Y-151048456D01*
X149205646Y-150949853D01*
X149080147Y-150824354D01*
X148981544Y-150676784D01*
X148913624Y-150512812D01*
X148879000Y-150338741D01*
X148879000Y-150161259D01*
X148913624Y-149987188D01*
X148981544Y-149823216D01*
X149080147Y-149675646D01*
X149205646Y-149550147D01*
X149353216Y-149451544D01*
X149517188Y-149383624D01*
X149678469Y-149351544D01*
X149691258Y-149349000D01*
X149868742Y-149349000D01*
X149881531Y-149351544D01*
G37*
G36*
X152421531Y-149351544D02*
G01*
X152582812Y-149383624D01*
X152746784Y-149451544D01*
X152894354Y-149550147D01*
X153019853Y-149675646D01*
X153118456Y-149823216D01*
X153186376Y-149987188D01*
X153221000Y-150161259D01*
X153221000Y-150338741D01*
X153186376Y-150512812D01*
X153118456Y-150676784D01*
X153019853Y-150824354D01*
X152894354Y-150949853D01*
X152746784Y-151048456D01*
X152582812Y-151116376D01*
X152433512Y-151146073D01*
X152408742Y-151151000D01*
X152231258Y-151151000D01*
X152206488Y-151146073D01*
X152057188Y-151116376D01*
X151893216Y-151048456D01*
X151745646Y-150949853D01*
X151620147Y-150824354D01*
X151521544Y-150676784D01*
X151453624Y-150512812D01*
X151419000Y-150338741D01*
X151419000Y-150161259D01*
X151453624Y-149987188D01*
X151521544Y-149823216D01*
X151620147Y-149675646D01*
X151745646Y-149550147D01*
X151893216Y-149451544D01*
X152057188Y-149383624D01*
X152218469Y-149351544D01*
X152231258Y-149349000D01*
X152408742Y-149349000D01*
X152421531Y-149351544D01*
G37*
G36*
X155761000Y-151151000D02*
G01*
X153959000Y-151151000D01*
X153959000Y-149349000D01*
X155761000Y-149349000D01*
X155761000Y-151151000D01*
G37*
G36*
X159421531Y-149351544D02*
G01*
X159582812Y-149383624D01*
X159746784Y-149451544D01*
X159894354Y-149550147D01*
X160019853Y-149675646D01*
X160118456Y-149823216D01*
X160186376Y-149987188D01*
X160221000Y-150161259D01*
X160221000Y-150338741D01*
X160186376Y-150512812D01*
X160118456Y-150676784D01*
X160019853Y-150824354D01*
X159894354Y-150949853D01*
X159746784Y-151048456D01*
X159582812Y-151116376D01*
X159433512Y-151146073D01*
X159408742Y-151151000D01*
X159231258Y-151151000D01*
X159206488Y-151146073D01*
X159057188Y-151116376D01*
X158893216Y-151048456D01*
X158745646Y-150949853D01*
X158620147Y-150824354D01*
X158521544Y-150676784D01*
X158453624Y-150512812D01*
X158419000Y-150338741D01*
X158419000Y-150161259D01*
X158453624Y-149987188D01*
X158521544Y-149823216D01*
X158620147Y-149675646D01*
X158745646Y-149550147D01*
X158893216Y-149451544D01*
X159057188Y-149383624D01*
X159218469Y-149351544D01*
X159231258Y-149349000D01*
X159408742Y-149349000D01*
X159421531Y-149351544D01*
G37*
G36*
X164501531Y-149351544D02*
G01*
X164662812Y-149383624D01*
X164826784Y-149451544D01*
X164974354Y-149550147D01*
X165099853Y-149675646D01*
X165198456Y-149823216D01*
X165266376Y-149987188D01*
X165301000Y-150161259D01*
X165301000Y-150338741D01*
X165266376Y-150512812D01*
X165198456Y-150676784D01*
X165099853Y-150824354D01*
X164974354Y-150949853D01*
X164826784Y-151048456D01*
X164662812Y-151116376D01*
X164513512Y-151146073D01*
X164488742Y-151151000D01*
X164311258Y-151151000D01*
X164286488Y-151146073D01*
X164137188Y-151116376D01*
X163973216Y-151048456D01*
X163825646Y-150949853D01*
X163700147Y-150824354D01*
X163601544Y-150676784D01*
X163533624Y-150512812D01*
X163499000Y-150338741D01*
X163499000Y-150161259D01*
X163533624Y-149987188D01*
X163601544Y-149823216D01*
X163700147Y-149675646D01*
X163825646Y-149550147D01*
X163973216Y-149451544D01*
X164137188Y-149383624D01*
X164298469Y-149351544D01*
X164311258Y-149349000D01*
X164488742Y-149349000D01*
X164501531Y-149351544D01*
G37*
G36*
X172921000Y-151151000D02*
G01*
X171119000Y-151151000D01*
X171119000Y-149349000D01*
X172921000Y-149349000D01*
X172921000Y-151151000D01*
G37*
G36*
X169581531Y-149351544D02*
G01*
X169742812Y-149383624D01*
X169906784Y-149451544D01*
X170054354Y-149550147D01*
X170179853Y-149675646D01*
X170278456Y-149823216D01*
X170346376Y-149987188D01*
X170381000Y-150161259D01*
X170381000Y-150338741D01*
X170346376Y-150512812D01*
X170278456Y-150676784D01*
X170179853Y-150824354D01*
X170054354Y-150949853D01*
X169906784Y-151048456D01*
X169742812Y-151116376D01*
X169593512Y-151146073D01*
X169568742Y-151151000D01*
X169391258Y-151151000D01*
X169366488Y-151146073D01*
X169217188Y-151116376D01*
X169053216Y-151048456D01*
X168905646Y-150949853D01*
X168780147Y-150824354D01*
X168681544Y-150676784D01*
X168613624Y-150512812D01*
X168579000Y-150338741D01*
X168579000Y-150161259D01*
X168613624Y-149987188D01*
X168681544Y-149823216D01*
X168780147Y-149675646D01*
X168905646Y-149550147D01*
X169053216Y-149451544D01*
X169217188Y-149383624D01*
X169378469Y-149351544D01*
X169391258Y-149349000D01*
X169568742Y-149349000D01*
X169581531Y-149351544D01*
G37*
G36*
X138381000Y-151151000D02*
G01*
X136579000Y-151151000D01*
X136579000Y-149349000D01*
X138381000Y-149349000D01*
X138381000Y-151151000D01*
G37*
G36*
X135041531Y-149351544D02*
G01*
X135202812Y-149383624D01*
X135366784Y-149451544D01*
X135514354Y-149550147D01*
X135639853Y-149675646D01*
X135738456Y-149823216D01*
X135806376Y-149987188D01*
X135841000Y-150161259D01*
X135841000Y-150338741D01*
X135806376Y-150512812D01*
X135738456Y-150676784D01*
X135639853Y-150824354D01*
X135514354Y-150949853D01*
X135366784Y-151048456D01*
X135202812Y-151116376D01*
X135053512Y-151146073D01*
X135028742Y-151151000D01*
X134851258Y-151151000D01*
X134826488Y-151146073D01*
X134677188Y-151116376D01*
X134513216Y-151048456D01*
X134365646Y-150949853D01*
X134240147Y-150824354D01*
X134141544Y-150676784D01*
X134073624Y-150512812D01*
X134039000Y-150338741D01*
X134039000Y-150161259D01*
X134073624Y-149987188D01*
X134141544Y-149823216D01*
X134240147Y-149675646D01*
X134365646Y-149550147D01*
X134513216Y-149451544D01*
X134677188Y-149383624D01*
X134838469Y-149351544D01*
X134851258Y-149349000D01*
X135028742Y-149349000D01*
X135041531Y-149351544D01*
G37*
G36*
X132501531Y-149351544D02*
G01*
X132662812Y-149383624D01*
X132826784Y-149451544D01*
X132974354Y-149550147D01*
X133099853Y-149675646D01*
X133198456Y-149823216D01*
X133266376Y-149987188D01*
X133301000Y-150161259D01*
X133301000Y-150338741D01*
X133266376Y-150512812D01*
X133198456Y-150676784D01*
X133099853Y-150824354D01*
X132974354Y-150949853D01*
X132826784Y-151048456D01*
X132662812Y-151116376D01*
X132513512Y-151146073D01*
X132488742Y-151151000D01*
X132311258Y-151151000D01*
X132286488Y-151146073D01*
X132137188Y-151116376D01*
X131973216Y-151048456D01*
X131825646Y-150949853D01*
X131700147Y-150824354D01*
X131601544Y-150676784D01*
X131533624Y-150512812D01*
X131499000Y-150338741D01*
X131499000Y-150161259D01*
X131533624Y-149987188D01*
X131601544Y-149823216D01*
X131700147Y-149675646D01*
X131825646Y-149550147D01*
X131973216Y-149451544D01*
X132137188Y-149383624D01*
X132298469Y-149351544D01*
X132311258Y-149349000D01*
X132488742Y-149349000D01*
X132501531Y-149351544D01*
G37*
G36*
X129961531Y-149351544D02*
G01*
X130122812Y-149383624D01*
X130286784Y-149451544D01*
X130434354Y-149550147D01*
X130559853Y-149675646D01*
X130658456Y-149823216D01*
X130726376Y-149987188D01*
X130761000Y-150161259D01*
X130761000Y-150338741D01*
X130726376Y-150512812D01*
X130658456Y-150676784D01*
X130559853Y-150824354D01*
X130434354Y-150949853D01*
X130286784Y-151048456D01*
X130122812Y-151116376D01*
X129973512Y-151146073D01*
X129948742Y-151151000D01*
X129771258Y-151151000D01*
X129746488Y-151146073D01*
X129597188Y-151116376D01*
X129433216Y-151048456D01*
X129285646Y-150949853D01*
X129160147Y-150824354D01*
X129061544Y-150676784D01*
X128993624Y-150512812D01*
X128959000Y-150338741D01*
X128959000Y-150161259D01*
X128993624Y-149987188D01*
X129061544Y-149823216D01*
X129160147Y-149675646D01*
X129285646Y-149550147D01*
X129433216Y-149451544D01*
X129597188Y-149383624D01*
X129758469Y-149351544D01*
X129771258Y-149349000D01*
X129948742Y-149349000D01*
X129961531Y-149351544D01*
G37*
G36*
X161961531Y-149351544D02*
G01*
X162122812Y-149383624D01*
X162286784Y-149451544D01*
X162434354Y-149550147D01*
X162559853Y-149675646D01*
X162658456Y-149823216D01*
X162726376Y-149987188D01*
X162761000Y-150161259D01*
X162761000Y-150338741D01*
X162726376Y-150512812D01*
X162658456Y-150676784D01*
X162559853Y-150824354D01*
X162434354Y-150949853D01*
X162286784Y-151048456D01*
X162122812Y-151116376D01*
X161973512Y-151146073D01*
X161948742Y-151151000D01*
X161771258Y-151151000D01*
X161746488Y-151146073D01*
X161597188Y-151116376D01*
X161433216Y-151048456D01*
X161285646Y-150949853D01*
X161160147Y-150824354D01*
X161061544Y-150676784D01*
X160993624Y-150512812D01*
X160959000Y-150338741D01*
X160959000Y-150161259D01*
X160993624Y-149987188D01*
X161061544Y-149823216D01*
X161160147Y-149675646D01*
X161285646Y-149550147D01*
X161433216Y-149451544D01*
X161597188Y-149383624D01*
X161758469Y-149351544D01*
X161771258Y-149349000D01*
X161948742Y-149349000D01*
X161961531Y-149351544D01*
G37*
G36*
X110233512Y-149253927D02*
G01*
X110382812Y-149283624D01*
X110546784Y-149351544D01*
X110694354Y-149450147D01*
X110819853Y-149575646D01*
X110918456Y-149723216D01*
X110986376Y-149887188D01*
X111021000Y-150061259D01*
X111021000Y-150238741D01*
X110986376Y-150412812D01*
X110918456Y-150576784D01*
X110819853Y-150724354D01*
X110694354Y-150849853D01*
X110546784Y-150948456D01*
X110382812Y-151016376D01*
X110233512Y-151046073D01*
X110208742Y-151051000D01*
X110031258Y-151051000D01*
X110006488Y-151046073D01*
X109857188Y-151016376D01*
X109693216Y-150948456D01*
X109545646Y-150849853D01*
X109420147Y-150724354D01*
X109321544Y-150576784D01*
X109253624Y-150412812D01*
X109219000Y-150238741D01*
X109219000Y-150061259D01*
X109253624Y-149887188D01*
X109321544Y-149723216D01*
X109420147Y-149575646D01*
X109545646Y-149450147D01*
X109693216Y-149351544D01*
X109857188Y-149283624D01*
X110006488Y-149253927D01*
X110031258Y-149249000D01*
X110208742Y-149249000D01*
X110233512Y-149253927D01*
G37*
G36*
X121181000Y-151051000D02*
G01*
X119379000Y-151051000D01*
X119379000Y-149249000D01*
X121181000Y-149249000D01*
X121181000Y-151051000D01*
G37*
G36*
X117853512Y-149253927D02*
G01*
X118002812Y-149283624D01*
X118166784Y-149351544D01*
X118314354Y-149450147D01*
X118439853Y-149575646D01*
X118538456Y-149723216D01*
X118606376Y-149887188D01*
X118641000Y-150061259D01*
X118641000Y-150238741D01*
X118606376Y-150412812D01*
X118538456Y-150576784D01*
X118439853Y-150724354D01*
X118314354Y-150849853D01*
X118166784Y-150948456D01*
X118002812Y-151016376D01*
X117853512Y-151046073D01*
X117828742Y-151051000D01*
X117651258Y-151051000D01*
X117626488Y-151046073D01*
X117477188Y-151016376D01*
X117313216Y-150948456D01*
X117165646Y-150849853D01*
X117040147Y-150724354D01*
X116941544Y-150576784D01*
X116873624Y-150412812D01*
X116839000Y-150238741D01*
X116839000Y-150061259D01*
X116873624Y-149887188D01*
X116941544Y-149723216D01*
X117040147Y-149575646D01*
X117165646Y-149450147D01*
X117313216Y-149351544D01*
X117477188Y-149283624D01*
X117626488Y-149253927D01*
X117651258Y-149249000D01*
X117828742Y-149249000D01*
X117853512Y-149253927D01*
G37*
G36*
X115313512Y-149253927D02*
G01*
X115462812Y-149283624D01*
X115626784Y-149351544D01*
X115774354Y-149450147D01*
X115899853Y-149575646D01*
X115998456Y-149723216D01*
X116066376Y-149887188D01*
X116101000Y-150061259D01*
X116101000Y-150238741D01*
X116066376Y-150412812D01*
X115998456Y-150576784D01*
X115899853Y-150724354D01*
X115774354Y-150849853D01*
X115626784Y-150948456D01*
X115462812Y-151016376D01*
X115313512Y-151046073D01*
X115288742Y-151051000D01*
X115111258Y-151051000D01*
X115086488Y-151046073D01*
X114937188Y-151016376D01*
X114773216Y-150948456D01*
X114625646Y-150849853D01*
X114500147Y-150724354D01*
X114401544Y-150576784D01*
X114333624Y-150412812D01*
X114299000Y-150238741D01*
X114299000Y-150061259D01*
X114333624Y-149887188D01*
X114401544Y-149723216D01*
X114500147Y-149575646D01*
X114625646Y-149450147D01*
X114773216Y-149351544D01*
X114937188Y-149283624D01*
X115086488Y-149253927D01*
X115111258Y-149249000D01*
X115288742Y-149249000D01*
X115313512Y-149253927D01*
G37*
G36*
X112773512Y-149253927D02*
G01*
X112922812Y-149283624D01*
X113086784Y-149351544D01*
X113234354Y-149450147D01*
X113359853Y-149575646D01*
X113458456Y-149723216D01*
X113526376Y-149887188D01*
X113561000Y-150061259D01*
X113561000Y-150238741D01*
X113526376Y-150412812D01*
X113458456Y-150576784D01*
X113359853Y-150724354D01*
X113234354Y-150849853D01*
X113086784Y-150948456D01*
X112922812Y-151016376D01*
X112773512Y-151046073D01*
X112748742Y-151051000D01*
X112571258Y-151051000D01*
X112546488Y-151046073D01*
X112397188Y-151016376D01*
X112233216Y-150948456D01*
X112085646Y-150849853D01*
X111960147Y-150724354D01*
X111861544Y-150576784D01*
X111793624Y-150412812D01*
X111759000Y-150238741D01*
X111759000Y-150061259D01*
X111793624Y-149887188D01*
X111861544Y-149723216D01*
X111960147Y-149575646D01*
X112085646Y-149450147D01*
X112233216Y-149351544D01*
X112397188Y-149283624D01*
X112546488Y-149253927D01*
X112571258Y-149249000D01*
X112748742Y-149249000D01*
X112773512Y-149253927D01*
G37*
G36*
X107693512Y-149253927D02*
G01*
X107842812Y-149283624D01*
X108006784Y-149351544D01*
X108154354Y-149450147D01*
X108279853Y-149575646D01*
X108378456Y-149723216D01*
X108446376Y-149887188D01*
X108481000Y-150061259D01*
X108481000Y-150238741D01*
X108446376Y-150412812D01*
X108378456Y-150576784D01*
X108279853Y-150724354D01*
X108154354Y-150849853D01*
X108006784Y-150948456D01*
X107842812Y-151016376D01*
X107693512Y-151046073D01*
X107668742Y-151051000D01*
X107491258Y-151051000D01*
X107466488Y-151046073D01*
X107317188Y-151016376D01*
X107153216Y-150948456D01*
X107005646Y-150849853D01*
X106880147Y-150724354D01*
X106781544Y-150576784D01*
X106713624Y-150412812D01*
X106679000Y-150238741D01*
X106679000Y-150061259D01*
X106713624Y-149887188D01*
X106781544Y-149723216D01*
X106880147Y-149575646D01*
X107005646Y-149450147D01*
X107153216Y-149351544D01*
X107317188Y-149283624D01*
X107466488Y-149253927D01*
X107491258Y-149249000D01*
X107668742Y-149249000D01*
X107693512Y-149253927D01*
G37*
G36*
X128797142Y-145108242D02*
G01*
X128945101Y-145169529D01*
X129078255Y-145258499D01*
X129191501Y-145371745D01*
X129280471Y-145504899D01*
X129341758Y-145652858D01*
X129373000Y-145809925D01*
X129373000Y-145970075D01*
X129341758Y-146127142D01*
X129280471Y-146275101D01*
X129191501Y-146408255D01*
X129078255Y-146521501D01*
X128945101Y-146610471D01*
X128797142Y-146671758D01*
X128640075Y-146703000D01*
X128479925Y-146703000D01*
X128322858Y-146671758D01*
X128174899Y-146610471D01*
X128041745Y-146521501D01*
X127928499Y-146408255D01*
X127839529Y-146275101D01*
X127778242Y-146127142D01*
X127747000Y-145970075D01*
X127747000Y-145809925D01*
X127778242Y-145652858D01*
X127839529Y-145504899D01*
X127928499Y-145371745D01*
X128041745Y-145258499D01*
X128174899Y-145169529D01*
X128322858Y-145108242D01*
X128479925Y-145077000D01*
X128640075Y-145077000D01*
X128797142Y-145108242D01*
G37*
G36*
X133877142Y-145108242D02*
G01*
X134025101Y-145169529D01*
X134158255Y-145258499D01*
X134271501Y-145371745D01*
X134360471Y-145504899D01*
X134421758Y-145652858D01*
X134453000Y-145809925D01*
X134453000Y-145970075D01*
X134421758Y-146127142D01*
X134360471Y-146275101D01*
X134271501Y-146408255D01*
X134158255Y-146521501D01*
X134025101Y-146610471D01*
X133877142Y-146671758D01*
X133720075Y-146703000D01*
X133559925Y-146703000D01*
X133402858Y-146671758D01*
X133254899Y-146610471D01*
X133121745Y-146521501D01*
X133008499Y-146408255D01*
X132919529Y-146275101D01*
X132858242Y-146127142D01*
X132827000Y-145970075D01*
X132827000Y-145809925D01*
X132858242Y-145652858D01*
X132919529Y-145504899D01*
X133008499Y-145371745D01*
X133121745Y-145258499D01*
X133254899Y-145169529D01*
X133402858Y-145108242D01*
X133559925Y-145077000D01*
X133720075Y-145077000D01*
X133877142Y-145108242D01*
G37*
G36*
X131337142Y-145108242D02*
G01*
X131485101Y-145169529D01*
X131618255Y-145258499D01*
X131731501Y-145371745D01*
X131820471Y-145504899D01*
X131881758Y-145652858D01*
X131913000Y-145809925D01*
X131913000Y-145970075D01*
X131881758Y-146127142D01*
X131820471Y-146275101D01*
X131731501Y-146408255D01*
X131618255Y-146521501D01*
X131485101Y-146610471D01*
X131337142Y-146671758D01*
X131180075Y-146703000D01*
X131019925Y-146703000D01*
X130862858Y-146671758D01*
X130714899Y-146610471D01*
X130581745Y-146521501D01*
X130468499Y-146408255D01*
X130379529Y-146275101D01*
X130318242Y-146127142D01*
X130287000Y-145970075D01*
X130287000Y-145809925D01*
X130318242Y-145652858D01*
X130379529Y-145504899D01*
X130468499Y-145371745D01*
X130581745Y-145258499D01*
X130714899Y-145169529D01*
X130862858Y-145108242D01*
X131019925Y-145077000D01*
X131180075Y-145077000D01*
X131337142Y-145108242D01*
G37*
G36*
X146197142Y-145108242D02*
G01*
X146345101Y-145169529D01*
X146478255Y-145258499D01*
X146591501Y-145371745D01*
X146680471Y-145504899D01*
X146741758Y-145652858D01*
X146773000Y-145809925D01*
X146773000Y-145970075D01*
X146741758Y-146127142D01*
X146680471Y-146275101D01*
X146591501Y-146408255D01*
X146478255Y-146521501D01*
X146345101Y-146610471D01*
X146197142Y-146671758D01*
X146040075Y-146703000D01*
X145879925Y-146703000D01*
X145722858Y-146671758D01*
X145574899Y-146610471D01*
X145441745Y-146521501D01*
X145328499Y-146408255D01*
X145239529Y-146275101D01*
X145178242Y-146127142D01*
X145147000Y-145970075D01*
X145147000Y-145809925D01*
X145178242Y-145652858D01*
X145239529Y-145504899D01*
X145328499Y-145371745D01*
X145441745Y-145258499D01*
X145574899Y-145169529D01*
X145722858Y-145108242D01*
X145879925Y-145077000D01*
X146040075Y-145077000D01*
X146197142Y-145108242D01*
G37*
G36*
X151277142Y-145108242D02*
G01*
X151425101Y-145169529D01*
X151558255Y-145258499D01*
X151671501Y-145371745D01*
X151760471Y-145504899D01*
X151821758Y-145652858D01*
X151853000Y-145809925D01*
X151853000Y-145970075D01*
X151821758Y-146127142D01*
X151760471Y-146275101D01*
X151671501Y-146408255D01*
X151558255Y-146521501D01*
X151425101Y-146610471D01*
X151277142Y-146671758D01*
X151120075Y-146703000D01*
X150959925Y-146703000D01*
X150802858Y-146671758D01*
X150654899Y-146610471D01*
X150521745Y-146521501D01*
X150408499Y-146408255D01*
X150319529Y-146275101D01*
X150258242Y-146127142D01*
X150227000Y-145970075D01*
X150227000Y-145809925D01*
X150258242Y-145652858D01*
X150319529Y-145504899D01*
X150408499Y-145371745D01*
X150521745Y-145258499D01*
X150654899Y-145169529D01*
X150802858Y-145108242D01*
X150959925Y-145077000D01*
X151120075Y-145077000D01*
X151277142Y-145108242D01*
G37*
G36*
X148737142Y-145108242D02*
G01*
X148885101Y-145169529D01*
X149018255Y-145258499D01*
X149131501Y-145371745D01*
X149220471Y-145504899D01*
X149281758Y-145652858D01*
X149313000Y-145809925D01*
X149313000Y-145970075D01*
X149281758Y-146127142D01*
X149220471Y-146275101D01*
X149131501Y-146408255D01*
X149018255Y-146521501D01*
X148885101Y-146610471D01*
X148737142Y-146671758D01*
X148580075Y-146703000D01*
X148419925Y-146703000D01*
X148262858Y-146671758D01*
X148114899Y-146610471D01*
X147981745Y-146521501D01*
X147868499Y-146408255D01*
X147779529Y-146275101D01*
X147718242Y-146127142D01*
X147687000Y-145970075D01*
X147687000Y-145809925D01*
X147718242Y-145652858D01*
X147779529Y-145504899D01*
X147868499Y-145371745D01*
X147981745Y-145258499D01*
X148114899Y-145169529D01*
X148262858Y-145108242D01*
X148419925Y-145077000D01*
X148580075Y-145077000D01*
X148737142Y-145108242D01*
G37*
G36*
X168477142Y-145078242D02*
G01*
X168625101Y-145139529D01*
X168758255Y-145228499D01*
X168871501Y-145341745D01*
X168960471Y-145474899D01*
X169021758Y-145622858D01*
X169053000Y-145779925D01*
X169053000Y-145940075D01*
X169021758Y-146097142D01*
X168960471Y-146245101D01*
X168871501Y-146378255D01*
X168758255Y-146491501D01*
X168625101Y-146580471D01*
X168477142Y-146641758D01*
X168320075Y-146673000D01*
X168159925Y-146673000D01*
X168002858Y-146641758D01*
X167854899Y-146580471D01*
X167721745Y-146491501D01*
X167608499Y-146378255D01*
X167519529Y-146245101D01*
X167458242Y-146097142D01*
X167427000Y-145940075D01*
X167427000Y-145779925D01*
X167458242Y-145622858D01*
X167519529Y-145474899D01*
X167608499Y-145341745D01*
X167721745Y-145228499D01*
X167854899Y-145139529D01*
X168002858Y-145078242D01*
X168159925Y-145047000D01*
X168320075Y-145047000D01*
X168477142Y-145078242D01*
G37*
G36*
X165937142Y-145078242D02*
G01*
X166085101Y-145139529D01*
X166218255Y-145228499D01*
X166331501Y-145341745D01*
X166420471Y-145474899D01*
X166481758Y-145622858D01*
X166513000Y-145779925D01*
X166513000Y-145940075D01*
X166481758Y-146097142D01*
X166420471Y-146245101D01*
X166331501Y-146378255D01*
X166218255Y-146491501D01*
X166085101Y-146580471D01*
X165937142Y-146641758D01*
X165780075Y-146673000D01*
X165619925Y-146673000D01*
X165462858Y-146641758D01*
X165314899Y-146580471D01*
X165181745Y-146491501D01*
X165068499Y-146378255D01*
X164979529Y-146245101D01*
X164918242Y-146097142D01*
X164887000Y-145940075D01*
X164887000Y-145779925D01*
X164918242Y-145622858D01*
X164979529Y-145474899D01*
X165068499Y-145341745D01*
X165181745Y-145228499D01*
X165314899Y-145139529D01*
X165462858Y-145078242D01*
X165619925Y-145047000D01*
X165780075Y-145047000D01*
X165937142Y-145078242D01*
G37*
G36*
X163397142Y-145078242D02*
G01*
X163545101Y-145139529D01*
X163678255Y-145228499D01*
X163791501Y-145341745D01*
X163880471Y-145474899D01*
X163941758Y-145622858D01*
X163973000Y-145779925D01*
X163973000Y-145940075D01*
X163941758Y-146097142D01*
X163880471Y-146245101D01*
X163791501Y-146378255D01*
X163678255Y-146491501D01*
X163545101Y-146580471D01*
X163397142Y-146641758D01*
X163240075Y-146673000D01*
X163079925Y-146673000D01*
X162922858Y-146641758D01*
X162774899Y-146580471D01*
X162641745Y-146491501D01*
X162528499Y-146378255D01*
X162439529Y-146245101D01*
X162378242Y-146097142D01*
X162347000Y-145940075D01*
X162347000Y-145779925D01*
X162378242Y-145622858D01*
X162439529Y-145474899D01*
X162528499Y-145341745D01*
X162641745Y-145228499D01*
X162774899Y-145139529D01*
X162922858Y-145078242D01*
X163079925Y-145047000D01*
X163240075Y-145047000D01*
X163397142Y-145078242D01*
G37*
G36*
X114187142Y-145028242D02*
G01*
X114335101Y-145089529D01*
X114468255Y-145178499D01*
X114581501Y-145291745D01*
X114670471Y-145424899D01*
X114731758Y-145572858D01*
X114763000Y-145729925D01*
X114763000Y-145890075D01*
X114731758Y-146047142D01*
X114670471Y-146195101D01*
X114581501Y-146328255D01*
X114468255Y-146441501D01*
X114335101Y-146530471D01*
X114187142Y-146591758D01*
X114030075Y-146623000D01*
X113869925Y-146623000D01*
X113712858Y-146591758D01*
X113564899Y-146530471D01*
X113431745Y-146441501D01*
X113318499Y-146328255D01*
X113229529Y-146195101D01*
X113168242Y-146047142D01*
X113137000Y-145890075D01*
X113137000Y-145729925D01*
X113168242Y-145572858D01*
X113229529Y-145424899D01*
X113318499Y-145291745D01*
X113431745Y-145178499D01*
X113564899Y-145089529D01*
X113712858Y-145028242D01*
X113869925Y-144997000D01*
X114030075Y-144997000D01*
X114187142Y-145028242D01*
G37*
G36*
X116727142Y-145028242D02*
G01*
X116875101Y-145089529D01*
X117008255Y-145178499D01*
X117121501Y-145291745D01*
X117210471Y-145424899D01*
X117271758Y-145572858D01*
X117303000Y-145729925D01*
X117303000Y-145890075D01*
X117271758Y-146047142D01*
X117210471Y-146195101D01*
X117121501Y-146328255D01*
X117008255Y-146441501D01*
X116875101Y-146530471D01*
X116727142Y-146591758D01*
X116570075Y-146623000D01*
X116409925Y-146623000D01*
X116252858Y-146591758D01*
X116104899Y-146530471D01*
X115971745Y-146441501D01*
X115858499Y-146328255D01*
X115769529Y-146195101D01*
X115708242Y-146047142D01*
X115677000Y-145890075D01*
X115677000Y-145729925D01*
X115708242Y-145572858D01*
X115769529Y-145424899D01*
X115858499Y-145291745D01*
X115971745Y-145178499D01*
X116104899Y-145089529D01*
X116252858Y-145028242D01*
X116409925Y-144997000D01*
X116570075Y-144997000D01*
X116727142Y-145028242D01*
G37*
G36*
X111647142Y-145028242D02*
G01*
X111795101Y-145089529D01*
X111928255Y-145178499D01*
X112041501Y-145291745D01*
X112130471Y-145424899D01*
X112191758Y-145572858D01*
X112223000Y-145729925D01*
X112223000Y-145890075D01*
X112191758Y-146047142D01*
X112130471Y-146195101D01*
X112041501Y-146328255D01*
X111928255Y-146441501D01*
X111795101Y-146530471D01*
X111647142Y-146591758D01*
X111490075Y-146623000D01*
X111329925Y-146623000D01*
X111172858Y-146591758D01*
X111024899Y-146530471D01*
X110891745Y-146441501D01*
X110778499Y-146328255D01*
X110689529Y-146195101D01*
X110628242Y-146047142D01*
X110597000Y-145890075D01*
X110597000Y-145729925D01*
X110628242Y-145572858D01*
X110689529Y-145424899D01*
X110778499Y-145291745D01*
X110891745Y-145178499D01*
X111024899Y-145089529D01*
X111172858Y-145028242D01*
X111329925Y-144997000D01*
X111490075Y-144997000D01*
X111647142Y-145028242D01*
G37*
G36*
X131337142Y-142568242D02*
G01*
X131485101Y-142629529D01*
X131618255Y-142718499D01*
X131731501Y-142831745D01*
X131820471Y-142964899D01*
X131881758Y-143112858D01*
X131913000Y-143269925D01*
X131913000Y-143430075D01*
X131881758Y-143587142D01*
X131820471Y-143735101D01*
X131731501Y-143868255D01*
X131618255Y-143981501D01*
X131485101Y-144070471D01*
X131337142Y-144131758D01*
X131180075Y-144163000D01*
X131019925Y-144163000D01*
X130862858Y-144131758D01*
X130714899Y-144070471D01*
X130581745Y-143981501D01*
X130468499Y-143868255D01*
X130379529Y-143735101D01*
X130318242Y-143587142D01*
X130287000Y-143430075D01*
X130287000Y-143269925D01*
X130318242Y-143112858D01*
X130379529Y-142964899D01*
X130468499Y-142831745D01*
X130581745Y-142718499D01*
X130714899Y-142629529D01*
X130862858Y-142568242D01*
X131019925Y-142537000D01*
X131180075Y-142537000D01*
X131337142Y-142568242D01*
G37*
G36*
X148737142Y-142568242D02*
G01*
X148885101Y-142629529D01*
X149018255Y-142718499D01*
X149131501Y-142831745D01*
X149220471Y-142964899D01*
X149281758Y-143112858D01*
X149313000Y-143269925D01*
X149313000Y-143430075D01*
X149281758Y-143587142D01*
X149220471Y-143735101D01*
X149131501Y-143868255D01*
X149018255Y-143981501D01*
X148885101Y-144070471D01*
X148737142Y-144131758D01*
X148580075Y-144163000D01*
X148419925Y-144163000D01*
X148262858Y-144131758D01*
X148114899Y-144070471D01*
X147981745Y-143981501D01*
X147868499Y-143868255D01*
X147779529Y-143735101D01*
X147718242Y-143587142D01*
X147687000Y-143430075D01*
X147687000Y-143269925D01*
X147718242Y-143112858D01*
X147779529Y-142964899D01*
X147868499Y-142831745D01*
X147981745Y-142718499D01*
X148114899Y-142629529D01*
X148262858Y-142568242D01*
X148419925Y-142537000D01*
X148580075Y-142537000D01*
X148737142Y-142568242D01*
G37*
G36*
X165937142Y-142538242D02*
G01*
X166085101Y-142599529D01*
X166218255Y-142688499D01*
X166331501Y-142801745D01*
X166420471Y-142934899D01*
X166481758Y-143082858D01*
X166513000Y-143239925D01*
X166513000Y-143400075D01*
X166481758Y-143557142D01*
X166420471Y-143705101D01*
X166331501Y-143838255D01*
X166218255Y-143951501D01*
X166085101Y-144040471D01*
X165937142Y-144101758D01*
X165780075Y-144133000D01*
X165619925Y-144133000D01*
X165462858Y-144101758D01*
X165314899Y-144040471D01*
X165181745Y-143951501D01*
X165068499Y-143838255D01*
X164979529Y-143705101D01*
X164918242Y-143557142D01*
X164887000Y-143400075D01*
X164887000Y-143239925D01*
X164918242Y-143082858D01*
X164979529Y-142934899D01*
X165068499Y-142801745D01*
X165181745Y-142688499D01*
X165314899Y-142599529D01*
X165462858Y-142538242D01*
X165619925Y-142507000D01*
X165780075Y-142507000D01*
X165937142Y-142538242D01*
G37*
G36*
X114187142Y-142488242D02*
G01*
X114335101Y-142549529D01*
X114468255Y-142638499D01*
X114581501Y-142751745D01*
X114670471Y-142884899D01*
X114731758Y-143032858D01*
X114763000Y-143189925D01*
X114763000Y-143350075D01*
X114731758Y-143507142D01*
X114670471Y-143655101D01*
X114581501Y-143788255D01*
X114468255Y-143901501D01*
X114335101Y-143990471D01*
X114187142Y-144051758D01*
X114030075Y-144083000D01*
X113869925Y-144083000D01*
X113712858Y-144051758D01*
X113564899Y-143990471D01*
X113431745Y-143901501D01*
X113318499Y-143788255D01*
X113229529Y-143655101D01*
X113168242Y-143507142D01*
X113137000Y-143350075D01*
X113137000Y-143189925D01*
X113168242Y-143032858D01*
X113229529Y-142884899D01*
X113318499Y-142751745D01*
X113431745Y-142638499D01*
X113564899Y-142549529D01*
X113712858Y-142488242D01*
X113869925Y-142457000D01*
X114030075Y-142457000D01*
X114187142Y-142488242D01*
G37*
G36*
X110498228Y-136801703D02*
G01*
X110653100Y-136865853D01*
X110792481Y-136958985D01*
X110911015Y-137077519D01*
X111004147Y-137216900D01*
X111068297Y-137371772D01*
X111101000Y-137536184D01*
X111101000Y-137703816D01*
X111068297Y-137868228D01*
X111004147Y-138023100D01*
X110911015Y-138162481D01*
X110792481Y-138281015D01*
X110653100Y-138374147D01*
X110498228Y-138438297D01*
X110333816Y-138471000D01*
X110166184Y-138471000D01*
X110001772Y-138438297D01*
X109846900Y-138374147D01*
X109707519Y-138281015D01*
X109588985Y-138162481D01*
X109495853Y-138023100D01*
X109431703Y-137868228D01*
X109399000Y-137703816D01*
X109399000Y-137536184D01*
X109431703Y-137371772D01*
X109495853Y-137216900D01*
X109588985Y-137077519D01*
X109707519Y-136958985D01*
X109846900Y-136865853D01*
X110001772Y-136801703D01*
X110166184Y-136769000D01*
X110333816Y-136769000D01*
X110498228Y-136801703D01*
G37*
G36*
X125738228Y-136801703D02*
G01*
X125893100Y-136865853D01*
X126032481Y-136958985D01*
X126151015Y-137077519D01*
X126244147Y-137216900D01*
X126308297Y-137371772D01*
X126341000Y-137536184D01*
X126341000Y-137703816D01*
X126308297Y-137868228D01*
X126244147Y-138023100D01*
X126151015Y-138162481D01*
X126032481Y-138281015D01*
X125893100Y-138374147D01*
X125738228Y-138438297D01*
X125573816Y-138471000D01*
X125406184Y-138471000D01*
X125241772Y-138438297D01*
X125086900Y-138374147D01*
X124947519Y-138281015D01*
X124828985Y-138162481D01*
X124735853Y-138023100D01*
X124671703Y-137868228D01*
X124639000Y-137703816D01*
X124639000Y-137536184D01*
X124671703Y-137371772D01*
X124735853Y-137216900D01*
X124828985Y-137077519D01*
X124947519Y-136958985D01*
X125086900Y-136865853D01*
X125241772Y-136801703D01*
X125406184Y-136769000D01*
X125573816Y-136769000D01*
X125738228Y-136801703D01*
G37*
G36*
X100338228Y-136801703D02*
G01*
X100493100Y-136865853D01*
X100632481Y-136958985D01*
X100751015Y-137077519D01*
X100844147Y-137216900D01*
X100908297Y-137371772D01*
X100941000Y-137536184D01*
X100941000Y-137703816D01*
X100908297Y-137868228D01*
X100844147Y-138023100D01*
X100751015Y-138162481D01*
X100632481Y-138281015D01*
X100493100Y-138374147D01*
X100338228Y-138438297D01*
X100173816Y-138471000D01*
X100006184Y-138471000D01*
X99841772Y-138438297D01*
X99686900Y-138374147D01*
X99547519Y-138281015D01*
X99428985Y-138162481D01*
X99335853Y-138023100D01*
X99271703Y-137868228D01*
X99239000Y-137703816D01*
X99239000Y-137536184D01*
X99271703Y-137371772D01*
X99335853Y-137216900D01*
X99428985Y-137077519D01*
X99547519Y-136958985D01*
X99686900Y-136865853D01*
X99841772Y-136801703D01*
X100006184Y-136769000D01*
X100173816Y-136769000D01*
X100338228Y-136801703D01*
G37*
G36*
X102878228Y-136801703D02*
G01*
X103033100Y-136865853D01*
X103172481Y-136958985D01*
X103291015Y-137077519D01*
X103384147Y-137216900D01*
X103448297Y-137371772D01*
X103481000Y-137536184D01*
X103481000Y-137703816D01*
X103448297Y-137868228D01*
X103384147Y-138023100D01*
X103291015Y-138162481D01*
X103172481Y-138281015D01*
X103033100Y-138374147D01*
X102878228Y-138438297D01*
X102713816Y-138471000D01*
X102546184Y-138471000D01*
X102381772Y-138438297D01*
X102226900Y-138374147D01*
X102087519Y-138281015D01*
X101968985Y-138162481D01*
X101875853Y-138023100D01*
X101811703Y-137868228D01*
X101779000Y-137703816D01*
X101779000Y-137536184D01*
X101811703Y-137371772D01*
X101875853Y-137216900D01*
X101968985Y-137077519D01*
X102087519Y-136958985D01*
X102226900Y-136865853D01*
X102381772Y-136801703D01*
X102546184Y-136769000D01*
X102713816Y-136769000D01*
X102878228Y-136801703D01*
G37*
G36*
X105418228Y-136801703D02*
G01*
X105573100Y-136865853D01*
X105712481Y-136958985D01*
X105831015Y-137077519D01*
X105924147Y-137216900D01*
X105988297Y-137371772D01*
X106021000Y-137536184D01*
X106021000Y-137703816D01*
X105988297Y-137868228D01*
X105924147Y-138023100D01*
X105831015Y-138162481D01*
X105712481Y-138281015D01*
X105573100Y-138374147D01*
X105418228Y-138438297D01*
X105253816Y-138471000D01*
X105086184Y-138471000D01*
X104921772Y-138438297D01*
X104766900Y-138374147D01*
X104627519Y-138281015D01*
X104508985Y-138162481D01*
X104415853Y-138023100D01*
X104351703Y-137868228D01*
X104319000Y-137703816D01*
X104319000Y-137536184D01*
X104351703Y-137371772D01*
X104415853Y-137216900D01*
X104508985Y-137077519D01*
X104627519Y-136958985D01*
X104766900Y-136865853D01*
X104921772Y-136801703D01*
X105086184Y-136769000D01*
X105253816Y-136769000D01*
X105418228Y-136801703D01*
G37*
G36*
X107958228Y-136801703D02*
G01*
X108113100Y-136865853D01*
X108252481Y-136958985D01*
X108371015Y-137077519D01*
X108464147Y-137216900D01*
X108528297Y-137371772D01*
X108561000Y-137536184D01*
X108561000Y-137703816D01*
X108528297Y-137868228D01*
X108464147Y-138023100D01*
X108371015Y-138162481D01*
X108252481Y-138281015D01*
X108113100Y-138374147D01*
X107958228Y-138438297D01*
X107793816Y-138471000D01*
X107626184Y-138471000D01*
X107461772Y-138438297D01*
X107306900Y-138374147D01*
X107167519Y-138281015D01*
X107048985Y-138162481D01*
X106955853Y-138023100D01*
X106891703Y-137868228D01*
X106859000Y-137703816D01*
X106859000Y-137536184D01*
X106891703Y-137371772D01*
X106955853Y-137216900D01*
X107048985Y-137077519D01*
X107167519Y-136958985D01*
X107306900Y-136865853D01*
X107461772Y-136801703D01*
X107626184Y-136769000D01*
X107793816Y-136769000D01*
X107958228Y-136801703D01*
G37*
G36*
X113038228Y-136801703D02*
G01*
X113193100Y-136865853D01*
X113332481Y-136958985D01*
X113451015Y-137077519D01*
X113544147Y-137216900D01*
X113608297Y-137371772D01*
X113641000Y-137536184D01*
X113641000Y-137703816D01*
X113608297Y-137868228D01*
X113544147Y-138023100D01*
X113451015Y-138162481D01*
X113332481Y-138281015D01*
X113193100Y-138374147D01*
X113038228Y-138438297D01*
X112873816Y-138471000D01*
X112706184Y-138471000D01*
X112541772Y-138438297D01*
X112386900Y-138374147D01*
X112247519Y-138281015D01*
X112128985Y-138162481D01*
X112035853Y-138023100D01*
X111971703Y-137868228D01*
X111939000Y-137703816D01*
X111939000Y-137536184D01*
X111971703Y-137371772D01*
X112035853Y-137216900D01*
X112128985Y-137077519D01*
X112247519Y-136958985D01*
X112386900Y-136865853D01*
X112541772Y-136801703D01*
X112706184Y-136769000D01*
X112873816Y-136769000D01*
X113038228Y-136801703D01*
G37*
G36*
X115578228Y-136801703D02*
G01*
X115733100Y-136865853D01*
X115872481Y-136958985D01*
X115991015Y-137077519D01*
X116084147Y-137216900D01*
X116148297Y-137371772D01*
X116181000Y-137536184D01*
X116181000Y-137703816D01*
X116148297Y-137868228D01*
X116084147Y-138023100D01*
X115991015Y-138162481D01*
X115872481Y-138281015D01*
X115733100Y-138374147D01*
X115578228Y-138438297D01*
X115413816Y-138471000D01*
X115246184Y-138471000D01*
X115081772Y-138438297D01*
X114926900Y-138374147D01*
X114787519Y-138281015D01*
X114668985Y-138162481D01*
X114575853Y-138023100D01*
X114511703Y-137868228D01*
X114479000Y-137703816D01*
X114479000Y-137536184D01*
X114511703Y-137371772D01*
X114575853Y-137216900D01*
X114668985Y-137077519D01*
X114787519Y-136958985D01*
X114926900Y-136865853D01*
X115081772Y-136801703D01*
X115246184Y-136769000D01*
X115413816Y-136769000D01*
X115578228Y-136801703D01*
G37*
G36*
X118118228Y-136801703D02*
G01*
X118273100Y-136865853D01*
X118412481Y-136958985D01*
X118531015Y-137077519D01*
X118624147Y-137216900D01*
X118688297Y-137371772D01*
X118721000Y-137536184D01*
X118721000Y-137703816D01*
X118688297Y-137868228D01*
X118624147Y-138023100D01*
X118531015Y-138162481D01*
X118412481Y-138281015D01*
X118273100Y-138374147D01*
X118118228Y-138438297D01*
X117953816Y-138471000D01*
X117786184Y-138471000D01*
X117621772Y-138438297D01*
X117466900Y-138374147D01*
X117327519Y-138281015D01*
X117208985Y-138162481D01*
X117115853Y-138023100D01*
X117051703Y-137868228D01*
X117019000Y-137703816D01*
X117019000Y-137536184D01*
X117051703Y-137371772D01*
X117115853Y-137216900D01*
X117208985Y-137077519D01*
X117327519Y-136958985D01*
X117466900Y-136865853D01*
X117621772Y-136801703D01*
X117786184Y-136769000D01*
X117953816Y-136769000D01*
X118118228Y-136801703D01*
G37*
G36*
X123198228Y-136801703D02*
G01*
X123353100Y-136865853D01*
X123492481Y-136958985D01*
X123611015Y-137077519D01*
X123704147Y-137216900D01*
X123768297Y-137371772D01*
X123801000Y-137536184D01*
X123801000Y-137703816D01*
X123768297Y-137868228D01*
X123704147Y-138023100D01*
X123611015Y-138162481D01*
X123492481Y-138281015D01*
X123353100Y-138374147D01*
X123198228Y-138438297D01*
X123033816Y-138471000D01*
X122866184Y-138471000D01*
X122701772Y-138438297D01*
X122546900Y-138374147D01*
X122407519Y-138281015D01*
X122288985Y-138162481D01*
X122195853Y-138023100D01*
X122131703Y-137868228D01*
X122099000Y-137703816D01*
X122099000Y-137536184D01*
X122131703Y-137371772D01*
X122195853Y-137216900D01*
X122288985Y-137077519D01*
X122407519Y-136958985D01*
X122546900Y-136865853D01*
X122701772Y-136801703D01*
X122866184Y-136769000D01*
X123033816Y-136769000D01*
X123198228Y-136801703D01*
G37*
G36*
X120658228Y-136801703D02*
G01*
X120813100Y-136865853D01*
X120952481Y-136958985D01*
X121071015Y-137077519D01*
X121164147Y-137216900D01*
X121228297Y-137371772D01*
X121261000Y-137536184D01*
X121261000Y-137703816D01*
X121228297Y-137868228D01*
X121164147Y-138023100D01*
X121071015Y-138162481D01*
X120952481Y-138281015D01*
X120813100Y-138374147D01*
X120658228Y-138438297D01*
X120493816Y-138471000D01*
X120326184Y-138471000D01*
X120161772Y-138438297D01*
X120006900Y-138374147D01*
X119867519Y-138281015D01*
X119748985Y-138162481D01*
X119655853Y-138023100D01*
X119591703Y-137868228D01*
X119559000Y-137703816D01*
X119559000Y-137536184D01*
X119591703Y-137371772D01*
X119655853Y-137216900D01*
X119748985Y-137077519D01*
X119867519Y-136958985D01*
X120006900Y-136865853D01*
X120161772Y-136801703D01*
X120326184Y-136769000D01*
X120493816Y-136769000D01*
X120658228Y-136801703D01*
G37*
G36*
X133358228Y-136801703D02*
G01*
X133513100Y-136865853D01*
X133652481Y-136958985D01*
X133771015Y-137077519D01*
X133864147Y-137216900D01*
X133928297Y-137371772D01*
X133961000Y-137536184D01*
X133961000Y-137703816D01*
X133928297Y-137868228D01*
X133864147Y-138023100D01*
X133771015Y-138162481D01*
X133652481Y-138281015D01*
X133513100Y-138374147D01*
X133358228Y-138438297D01*
X133193816Y-138471000D01*
X133026184Y-138471000D01*
X132861772Y-138438297D01*
X132706900Y-138374147D01*
X132567519Y-138281015D01*
X132448985Y-138162481D01*
X132355853Y-138023100D01*
X132291703Y-137868228D01*
X132259000Y-137703816D01*
X132259000Y-137536184D01*
X132291703Y-137371772D01*
X132355853Y-137216900D01*
X132448985Y-137077519D01*
X132567519Y-136958985D01*
X132706900Y-136865853D01*
X132861772Y-136801703D01*
X133026184Y-136769000D01*
X133193816Y-136769000D01*
X133358228Y-136801703D01*
G37*
G36*
X130818228Y-136801703D02*
G01*
X130973100Y-136865853D01*
X131112481Y-136958985D01*
X131231015Y-137077519D01*
X131324147Y-137216900D01*
X131388297Y-137371772D01*
X131421000Y-137536184D01*
X131421000Y-137703816D01*
X131388297Y-137868228D01*
X131324147Y-138023100D01*
X131231015Y-138162481D01*
X131112481Y-138281015D01*
X130973100Y-138374147D01*
X130818228Y-138438297D01*
X130653816Y-138471000D01*
X130486184Y-138471000D01*
X130321772Y-138438297D01*
X130166900Y-138374147D01*
X130027519Y-138281015D01*
X129908985Y-138162481D01*
X129815853Y-138023100D01*
X129751703Y-137868228D01*
X129719000Y-137703816D01*
X129719000Y-137536184D01*
X129751703Y-137371772D01*
X129815853Y-137216900D01*
X129908985Y-137077519D01*
X130027519Y-136958985D01*
X130166900Y-136865853D01*
X130321772Y-136801703D01*
X130486184Y-136769000D01*
X130653816Y-136769000D01*
X130818228Y-136801703D01*
G37*
G36*
X128278228Y-136801703D02*
G01*
X128433100Y-136865853D01*
X128572481Y-136958985D01*
X128691015Y-137077519D01*
X128784147Y-137216900D01*
X128848297Y-137371772D01*
X128881000Y-137536184D01*
X128881000Y-137703816D01*
X128848297Y-137868228D01*
X128784147Y-138023100D01*
X128691015Y-138162481D01*
X128572481Y-138281015D01*
X128433100Y-138374147D01*
X128278228Y-138438297D01*
X128113816Y-138471000D01*
X127946184Y-138471000D01*
X127781772Y-138438297D01*
X127626900Y-138374147D01*
X127487519Y-138281015D01*
X127368985Y-138162481D01*
X127275853Y-138023100D01*
X127211703Y-137868228D01*
X127179000Y-137703816D01*
X127179000Y-137536184D01*
X127211703Y-137371772D01*
X127275853Y-137216900D01*
X127368985Y-137077519D01*
X127487519Y-136958985D01*
X127626900Y-136865853D01*
X127781772Y-136801703D01*
X127946184Y-136769000D01*
X128113816Y-136769000D01*
X128278228Y-136801703D01*
G37*
G36*
X139246564Y-135329389D02*
G01*
X139437833Y-135408615D01*
X139437835Y-135408616D01*
X139609973Y-135523635D01*
X139756365Y-135670027D01*
X139866027Y-135834147D01*
X139871385Y-135842167D01*
X139950611Y-136033436D01*
X139991000Y-136236484D01*
X139991000Y-136443516D01*
X139950611Y-136646564D01*
X139871385Y-136837833D01*
X139871384Y-136837835D01*
X139756365Y-137009973D01*
X139609973Y-137156365D01*
X139437835Y-137271384D01*
X139437834Y-137271385D01*
X139437833Y-137271385D01*
X139246564Y-137350611D01*
X139043516Y-137391000D01*
X138836484Y-137391000D01*
X138633436Y-137350611D01*
X138442167Y-137271385D01*
X138442166Y-137271385D01*
X138442165Y-137271384D01*
X138270027Y-137156365D01*
X138123635Y-137009973D01*
X138008616Y-136837835D01*
X138008615Y-136837833D01*
X137929389Y-136646564D01*
X137889000Y-136443516D01*
X137889000Y-136236484D01*
X137929389Y-136033436D01*
X138008615Y-135842167D01*
X138013974Y-135834147D01*
X138123635Y-135670027D01*
X138270027Y-135523635D01*
X138442165Y-135408616D01*
X138442167Y-135408615D01*
X138633436Y-135329389D01*
X138836484Y-135289000D01*
X139043516Y-135289000D01*
X139246564Y-135329389D01*
G37*
G36*
X177819059Y-134977860D02*
G01*
X177955732Y-135034472D01*
X178078735Y-135116660D01*
X178183340Y-135221265D01*
X178265528Y-135344268D01*
X178265529Y-135344270D01*
X178322140Y-135480941D01*
X178351000Y-135626032D01*
X178351000Y-135773968D01*
X178326270Y-135898295D01*
X178322140Y-135919059D01*
X178265528Y-136055732D01*
X178183340Y-136178735D01*
X178078735Y-136283340D01*
X177955732Y-136365528D01*
X177955731Y-136365529D01*
X177955730Y-136365529D01*
X177819059Y-136422140D01*
X177673968Y-136451000D01*
X177526032Y-136451000D01*
X177380941Y-136422140D01*
X177244270Y-136365529D01*
X177244269Y-136365529D01*
X177244268Y-136365528D01*
X177121265Y-136283340D01*
X177016660Y-136178735D01*
X176934472Y-136055732D01*
X176877860Y-135919059D01*
X176873730Y-135898295D01*
X176849000Y-135773968D01*
X176849000Y-135626032D01*
X176877860Y-135480941D01*
X176934471Y-135344270D01*
X176934472Y-135344268D01*
X177016660Y-135221265D01*
X177121265Y-135116660D01*
X177244268Y-135034472D01*
X177380941Y-134977860D01*
X177526032Y-134949000D01*
X177673968Y-134949000D01*
X177819059Y-134977860D01*
G37*
G36*
X133358228Y-134261703D02*
G01*
X133513100Y-134325853D01*
X133652481Y-134418985D01*
X133771015Y-134537519D01*
X133864147Y-134676900D01*
X133928297Y-134831772D01*
X133961000Y-134996184D01*
X133961000Y-135163816D01*
X133928297Y-135328228D01*
X133864147Y-135483100D01*
X133771015Y-135622481D01*
X133652481Y-135741015D01*
X133513100Y-135834147D01*
X133358228Y-135898297D01*
X133193816Y-135931000D01*
X133026184Y-135931000D01*
X132861772Y-135898297D01*
X132706900Y-135834147D01*
X132567519Y-135741015D01*
X132448985Y-135622481D01*
X132355853Y-135483100D01*
X132291703Y-135328228D01*
X132259000Y-135163816D01*
X132259000Y-134996184D01*
X132291703Y-134831772D01*
X132355853Y-134676900D01*
X132448985Y-134537519D01*
X132567519Y-134418985D01*
X132706900Y-134325853D01*
X132861772Y-134261703D01*
X133026184Y-134229000D01*
X133193816Y-134229000D01*
X133358228Y-134261703D01*
G37*
G36*
X125738228Y-134261703D02*
G01*
X125893100Y-134325853D01*
X126032481Y-134418985D01*
X126151015Y-134537519D01*
X126244147Y-134676900D01*
X126308297Y-134831772D01*
X126341000Y-134996184D01*
X126341000Y-135163816D01*
X126308297Y-135328228D01*
X126244147Y-135483100D01*
X126151015Y-135622481D01*
X126032481Y-135741015D01*
X125893100Y-135834147D01*
X125738228Y-135898297D01*
X125573816Y-135931000D01*
X125406184Y-135931000D01*
X125241772Y-135898297D01*
X125086900Y-135834147D01*
X124947519Y-135741015D01*
X124828985Y-135622481D01*
X124735853Y-135483100D01*
X124671703Y-135328228D01*
X124639000Y-135163816D01*
X124639000Y-134996184D01*
X124671703Y-134831772D01*
X124735853Y-134676900D01*
X124828985Y-134537519D01*
X124947519Y-134418985D01*
X125086900Y-134325853D01*
X125241772Y-134261703D01*
X125406184Y-134229000D01*
X125573816Y-134229000D01*
X125738228Y-134261703D01*
G37*
G36*
X128278228Y-134261703D02*
G01*
X128433100Y-134325853D01*
X128572481Y-134418985D01*
X128691015Y-134537519D01*
X128784147Y-134676900D01*
X128848297Y-134831772D01*
X128881000Y-134996184D01*
X128881000Y-135163816D01*
X128848297Y-135328228D01*
X128784147Y-135483100D01*
X128691015Y-135622481D01*
X128572481Y-135741015D01*
X128433100Y-135834147D01*
X128278228Y-135898297D01*
X128113816Y-135931000D01*
X127946184Y-135931000D01*
X127781772Y-135898297D01*
X127626900Y-135834147D01*
X127487519Y-135741015D01*
X127368985Y-135622481D01*
X127275853Y-135483100D01*
X127211703Y-135328228D01*
X127179000Y-135163816D01*
X127179000Y-134996184D01*
X127211703Y-134831772D01*
X127275853Y-134676900D01*
X127368985Y-134537519D01*
X127487519Y-134418985D01*
X127626900Y-134325853D01*
X127781772Y-134261703D01*
X127946184Y-134229000D01*
X128113816Y-134229000D01*
X128278228Y-134261703D01*
G37*
G36*
X162151000Y-134651000D02*
G01*
X158249000Y-134651000D01*
X158249000Y-130749000D01*
X162151000Y-130749000D01*
X162151000Y-134651000D01*
G37*
G36*
X169401000Y-134501000D02*
G01*
X165799000Y-134501000D01*
X165799000Y-130899000D01*
X169401000Y-130899000D01*
X169401000Y-134501000D01*
G37*
G36*
X125738228Y-131721703D02*
G01*
X125893100Y-131785853D01*
X126032481Y-131878985D01*
X126151015Y-131997519D01*
X126244147Y-132136900D01*
X126308297Y-132291772D01*
X126341000Y-132456184D01*
X126341000Y-132623816D01*
X126308297Y-132788228D01*
X126244147Y-132943100D01*
X126151015Y-133082481D01*
X126032481Y-133201015D01*
X125893100Y-133294147D01*
X125738228Y-133358297D01*
X125573816Y-133391000D01*
X125406184Y-133391000D01*
X125241772Y-133358297D01*
X125086900Y-133294147D01*
X124947519Y-133201015D01*
X124828985Y-133082481D01*
X124735853Y-132943100D01*
X124671703Y-132788228D01*
X124639000Y-132623816D01*
X124639000Y-132456184D01*
X124671703Y-132291772D01*
X124735853Y-132136900D01*
X124828985Y-131997519D01*
X124947519Y-131878985D01*
X125086900Y-131785853D01*
X125241772Y-131721703D01*
X125406184Y-131689000D01*
X125573816Y-131689000D01*
X125738228Y-131721703D01*
G37*
G36*
X128278228Y-131721703D02*
G01*
X128433100Y-131785853D01*
X128572481Y-131878985D01*
X128691015Y-131997519D01*
X128784147Y-132136900D01*
X128848297Y-132291772D01*
X128881000Y-132456184D01*
X128881000Y-132623816D01*
X128848297Y-132788228D01*
X128784147Y-132943100D01*
X128691015Y-133082481D01*
X128572481Y-133201015D01*
X128433100Y-133294147D01*
X128278228Y-133358297D01*
X128113816Y-133391000D01*
X127946184Y-133391000D01*
X127781772Y-133358297D01*
X127626900Y-133294147D01*
X127487519Y-133201015D01*
X127368985Y-133082481D01*
X127275853Y-132943100D01*
X127211703Y-132788228D01*
X127179000Y-132623816D01*
X127179000Y-132456184D01*
X127211703Y-132291772D01*
X127275853Y-132136900D01*
X127368985Y-131997519D01*
X127487519Y-131878985D01*
X127626900Y-131785853D01*
X127781772Y-131721703D01*
X127946184Y-131689000D01*
X128113816Y-131689000D01*
X128278228Y-131721703D01*
G37*
G36*
X133358228Y-131721703D02*
G01*
X133513100Y-131785853D01*
X133652481Y-131878985D01*
X133771015Y-131997519D01*
X133864147Y-132136900D01*
X133928297Y-132291772D01*
X133961000Y-132456184D01*
X133961000Y-132623816D01*
X133928297Y-132788228D01*
X133864147Y-132943100D01*
X133771015Y-133082481D01*
X133652481Y-133201015D01*
X133513100Y-133294147D01*
X133358228Y-133358297D01*
X133193816Y-133391000D01*
X133026184Y-133391000D01*
X132861772Y-133358297D01*
X132706900Y-133294147D01*
X132567519Y-133201015D01*
X132448985Y-133082481D01*
X132355853Y-132943100D01*
X132291703Y-132788228D01*
X132259000Y-132623816D01*
X132259000Y-132456184D01*
X132291703Y-132291772D01*
X132355853Y-132136900D01*
X132448985Y-131997519D01*
X132567519Y-131878985D01*
X132706900Y-131785853D01*
X132861772Y-131721703D01*
X133026184Y-131689000D01*
X133193816Y-131689000D01*
X133358228Y-131721703D01*
G37*
G36*
X137907142Y-131748242D02*
G01*
X138055101Y-131809529D01*
X138188255Y-131898499D01*
X138301501Y-132011745D01*
X138390471Y-132144899D01*
X138451758Y-132292858D01*
X138483000Y-132449925D01*
X138483000Y-132610075D01*
X138451758Y-132767142D01*
X138390471Y-132915101D01*
X138301501Y-133048255D01*
X138188255Y-133161501D01*
X138055101Y-133250471D01*
X137907142Y-133311758D01*
X137750075Y-133343000D01*
X137589925Y-133343000D01*
X137432858Y-133311758D01*
X137284899Y-133250471D01*
X137151745Y-133161501D01*
X137038499Y-133048255D01*
X136949529Y-132915101D01*
X136888242Y-132767142D01*
X136857000Y-132610075D01*
X136857000Y-132449925D01*
X136888242Y-132292858D01*
X136949529Y-132144899D01*
X137038499Y-132011745D01*
X137151745Y-131898499D01*
X137284899Y-131809529D01*
X137432858Y-131748242D01*
X137589925Y-131717000D01*
X137750075Y-131717000D01*
X137907142Y-131748242D01*
G37*
G36*
X133358228Y-129181703D02*
G01*
X133513100Y-129245853D01*
X133652481Y-129338985D01*
X133771015Y-129457519D01*
X133864147Y-129596900D01*
X133928297Y-129751772D01*
X133961000Y-129916184D01*
X133961000Y-130083816D01*
X133928297Y-130248228D01*
X133864147Y-130403100D01*
X133771015Y-130542481D01*
X133652481Y-130661015D01*
X133513100Y-130754147D01*
X133358228Y-130818297D01*
X133193816Y-130851000D01*
X133026184Y-130851000D01*
X132861772Y-130818297D01*
X132706900Y-130754147D01*
X132567519Y-130661015D01*
X132448985Y-130542481D01*
X132355853Y-130403100D01*
X132291703Y-130248228D01*
X132259000Y-130083816D01*
X132259000Y-129916184D01*
X132291703Y-129751772D01*
X132355853Y-129596900D01*
X132448985Y-129457519D01*
X132567519Y-129338985D01*
X132706900Y-129245853D01*
X132861772Y-129181703D01*
X133026184Y-129149000D01*
X133193816Y-129149000D01*
X133358228Y-129181703D01*
G37*
G36*
X128278228Y-129181703D02*
G01*
X128433100Y-129245853D01*
X128572481Y-129338985D01*
X128691015Y-129457519D01*
X128784147Y-129596900D01*
X128848297Y-129751772D01*
X128881000Y-129916184D01*
X128881000Y-130083816D01*
X128848297Y-130248228D01*
X128784147Y-130403100D01*
X128691015Y-130542481D01*
X128572481Y-130661015D01*
X128433100Y-130754147D01*
X128278228Y-130818297D01*
X128113816Y-130851000D01*
X127946184Y-130851000D01*
X127781772Y-130818297D01*
X127626900Y-130754147D01*
X127487519Y-130661015D01*
X127368985Y-130542481D01*
X127275853Y-130403100D01*
X127211703Y-130248228D01*
X127179000Y-130083816D01*
X127179000Y-129916184D01*
X127211703Y-129751772D01*
X127275853Y-129596900D01*
X127368985Y-129457519D01*
X127487519Y-129338985D01*
X127626900Y-129245853D01*
X127781772Y-129181703D01*
X127946184Y-129149000D01*
X128113816Y-129149000D01*
X128278228Y-129181703D01*
G37*
G36*
X125738228Y-129181703D02*
G01*
X125893100Y-129245853D01*
X126032481Y-129338985D01*
X126151015Y-129457519D01*
X126244147Y-129596900D01*
X126308297Y-129751772D01*
X126341000Y-129916184D01*
X126341000Y-130083816D01*
X126308297Y-130248228D01*
X126244147Y-130403100D01*
X126151015Y-130542481D01*
X126032481Y-130661015D01*
X125893100Y-130754147D01*
X125738228Y-130818297D01*
X125573816Y-130851000D01*
X125406184Y-130851000D01*
X125241772Y-130818297D01*
X125086900Y-130754147D01*
X124947519Y-130661015D01*
X124828985Y-130542481D01*
X124735853Y-130403100D01*
X124671703Y-130248228D01*
X124639000Y-130083816D01*
X124639000Y-129916184D01*
X124671703Y-129751772D01*
X124735853Y-129596900D01*
X124828985Y-129457519D01*
X124947519Y-129338985D01*
X125086900Y-129245853D01*
X125241772Y-129181703D01*
X125406184Y-129149000D01*
X125573816Y-129149000D01*
X125738228Y-129181703D01*
G37*
G36*
X137907142Y-129208242D02*
G01*
X138055101Y-129269529D01*
X138188255Y-129358499D01*
X138301501Y-129471745D01*
X138390471Y-129604899D01*
X138451758Y-129752858D01*
X138483000Y-129909925D01*
X138483000Y-130070075D01*
X138451758Y-130227142D01*
X138390471Y-130375101D01*
X138301501Y-130508255D01*
X138188255Y-130621501D01*
X138055101Y-130710471D01*
X137907142Y-130771758D01*
X137750075Y-130803000D01*
X137589925Y-130803000D01*
X137432858Y-130771758D01*
X137284899Y-130710471D01*
X137151745Y-130621501D01*
X137038499Y-130508255D01*
X136949529Y-130375101D01*
X136888242Y-130227142D01*
X136857000Y-130070075D01*
X136857000Y-129909925D01*
X136888242Y-129752858D01*
X136949529Y-129604899D01*
X137038499Y-129471745D01*
X137151745Y-129358499D01*
X137284899Y-129269529D01*
X137432858Y-129208242D01*
X137589925Y-129177000D01*
X137750075Y-129177000D01*
X137907142Y-129208242D01*
G37*
G36*
X160769085Y-125823975D02*
G01*
X161124143Y-125971045D01*
X161124145Y-125971046D01*
X161443690Y-126184559D01*
X161715441Y-126456310D01*
X161882180Y-126705853D01*
X161928955Y-126775857D01*
X162076025Y-127130915D01*
X162151000Y-127507842D01*
X162151000Y-127892158D01*
X162076025Y-128269085D01*
X162072210Y-128278295D01*
X161928954Y-128624145D01*
X161715441Y-128943690D01*
X161443690Y-129215441D01*
X161124145Y-129428954D01*
X161124144Y-129428955D01*
X161124143Y-129428955D01*
X160769085Y-129576025D01*
X160392158Y-129651000D01*
X160007842Y-129651000D01*
X159630915Y-129576025D01*
X159275857Y-129428955D01*
X159275856Y-129428955D01*
X159275855Y-129428954D01*
X158956310Y-129215441D01*
X158684559Y-128943690D01*
X158471046Y-128624145D01*
X158327790Y-128278295D01*
X158323975Y-128269085D01*
X158249000Y-127892158D01*
X158249000Y-127507842D01*
X158323975Y-127130915D01*
X158471045Y-126775857D01*
X158517820Y-126705853D01*
X158684559Y-126456310D01*
X158956310Y-126184559D01*
X159275855Y-125971046D01*
X159275857Y-125971045D01*
X159630915Y-125823975D01*
X160007842Y-125749000D01*
X160392158Y-125749000D01*
X160769085Y-125823975D01*
G37*
G36*
X168125331Y-125968211D02*
G01*
X168453092Y-126103974D01*
X168748070Y-126301072D01*
X168998928Y-126551930D01*
X169196026Y-126846908D01*
X169331789Y-127174669D01*
X169401000Y-127522616D01*
X169401000Y-127877384D01*
X169331789Y-128225331D01*
X169196026Y-128553092D01*
X168998928Y-128848070D01*
X168748070Y-129098928D01*
X168453092Y-129296026D01*
X168125331Y-129431789D01*
X167777384Y-129501000D01*
X167422616Y-129501000D01*
X167074669Y-129431789D01*
X166746908Y-129296026D01*
X166451930Y-129098928D01*
X166201072Y-128848070D01*
X166003974Y-128553092D01*
X165868211Y-128225331D01*
X165799000Y-127877384D01*
X165799000Y-127522616D01*
X165868211Y-127174669D01*
X166003974Y-126846908D01*
X166201072Y-126551930D01*
X166451930Y-126301072D01*
X166746908Y-126103974D01*
X167074669Y-125968211D01*
X167422616Y-125899000D01*
X167777384Y-125899000D01*
X168125331Y-125968211D01*
G37*
G36*
X133358228Y-126641703D02*
G01*
X133513100Y-126705853D01*
X133652481Y-126798985D01*
X133771015Y-126917519D01*
X133864147Y-127056900D01*
X133928297Y-127211772D01*
X133961000Y-127376184D01*
X133961000Y-127543816D01*
X133928297Y-127708228D01*
X133864147Y-127863100D01*
X133771015Y-128002481D01*
X133652481Y-128121015D01*
X133513100Y-128214147D01*
X133358228Y-128278297D01*
X133193816Y-128311000D01*
X133026184Y-128311000D01*
X132861772Y-128278297D01*
X132706900Y-128214147D01*
X132567519Y-128121015D01*
X132448985Y-128002481D01*
X132355853Y-127863100D01*
X132291703Y-127708228D01*
X132259000Y-127543816D01*
X132259000Y-127376184D01*
X132291703Y-127211772D01*
X132355853Y-127056900D01*
X132448985Y-126917519D01*
X132567519Y-126798985D01*
X132706900Y-126705853D01*
X132861772Y-126641703D01*
X133026184Y-126609000D01*
X133193816Y-126609000D01*
X133358228Y-126641703D01*
G37*
G36*
X128278228Y-126641703D02*
G01*
X128433100Y-126705853D01*
X128572481Y-126798985D01*
X128691015Y-126917519D01*
X128784147Y-127056900D01*
X128848297Y-127211772D01*
X128881000Y-127376184D01*
X128881000Y-127543816D01*
X128848297Y-127708228D01*
X128784147Y-127863100D01*
X128691015Y-128002481D01*
X128572481Y-128121015D01*
X128433100Y-128214147D01*
X128278228Y-128278297D01*
X128113816Y-128311000D01*
X127946184Y-128311000D01*
X127781772Y-128278297D01*
X127626900Y-128214147D01*
X127487519Y-128121015D01*
X127368985Y-128002481D01*
X127275853Y-127863100D01*
X127211703Y-127708228D01*
X127179000Y-127543816D01*
X127179000Y-127376184D01*
X127211703Y-127211772D01*
X127275853Y-127056900D01*
X127368985Y-126917519D01*
X127487519Y-126798985D01*
X127626900Y-126705853D01*
X127781772Y-126641703D01*
X127946184Y-126609000D01*
X128113816Y-126609000D01*
X128278228Y-126641703D01*
G37*
G36*
X125738228Y-126641703D02*
G01*
X125893100Y-126705853D01*
X126032481Y-126798985D01*
X126151015Y-126917519D01*
X126244147Y-127056900D01*
X126308297Y-127211772D01*
X126341000Y-127376184D01*
X126341000Y-127543816D01*
X126308297Y-127708228D01*
X126244147Y-127863100D01*
X126151015Y-128002481D01*
X126032481Y-128121015D01*
X125893100Y-128214147D01*
X125738228Y-128278297D01*
X125573816Y-128311000D01*
X125406184Y-128311000D01*
X125241772Y-128278297D01*
X125086900Y-128214147D01*
X124947519Y-128121015D01*
X124828985Y-128002481D01*
X124735853Y-127863100D01*
X124671703Y-127708228D01*
X124639000Y-127543816D01*
X124639000Y-127376184D01*
X124671703Y-127211772D01*
X124735853Y-127056900D01*
X124828985Y-126917519D01*
X124947519Y-126798985D01*
X125086900Y-126705853D01*
X125241772Y-126641703D01*
X125406184Y-126609000D01*
X125573816Y-126609000D01*
X125738228Y-126641703D01*
G37*
G36*
X137907142Y-126668242D02*
G01*
X138055101Y-126729529D01*
X138188255Y-126818499D01*
X138301501Y-126931745D01*
X138390471Y-127064899D01*
X138451758Y-127212858D01*
X138483000Y-127369925D01*
X138483000Y-127530075D01*
X138451758Y-127687142D01*
X138390471Y-127835101D01*
X138301501Y-127968255D01*
X138188255Y-128081501D01*
X138055101Y-128170471D01*
X137907142Y-128231758D01*
X137750075Y-128263000D01*
X137589925Y-128263000D01*
X137432858Y-128231758D01*
X137284899Y-128170471D01*
X137151745Y-128081501D01*
X137038499Y-127968255D01*
X136949529Y-127835101D01*
X136888242Y-127687142D01*
X136857000Y-127530075D01*
X136857000Y-127369925D01*
X136888242Y-127212858D01*
X136949529Y-127064899D01*
X137038499Y-126931745D01*
X137151745Y-126818499D01*
X137284899Y-126729529D01*
X137432858Y-126668242D01*
X137589925Y-126637000D01*
X137750075Y-126637000D01*
X137907142Y-126668242D01*
G37*
G36*
X125738228Y-124101703D02*
G01*
X125893100Y-124165853D01*
X126032481Y-124258985D01*
X126151015Y-124377519D01*
X126244147Y-124516900D01*
X126308297Y-124671772D01*
X126341000Y-124836184D01*
X126341000Y-125003816D01*
X126308297Y-125168228D01*
X126244147Y-125323100D01*
X126151015Y-125462481D01*
X126032481Y-125581015D01*
X125893100Y-125674147D01*
X125738228Y-125738297D01*
X125573816Y-125771000D01*
X125406184Y-125771000D01*
X125241772Y-125738297D01*
X125086900Y-125674147D01*
X124947519Y-125581015D01*
X124828985Y-125462481D01*
X124735853Y-125323100D01*
X124671703Y-125168228D01*
X124639000Y-125003816D01*
X124639000Y-124836184D01*
X124671703Y-124671772D01*
X124735853Y-124516900D01*
X124828985Y-124377519D01*
X124947519Y-124258985D01*
X125086900Y-124165853D01*
X125241772Y-124101703D01*
X125406184Y-124069000D01*
X125573816Y-124069000D01*
X125738228Y-124101703D01*
G37*
G36*
X128278228Y-124101703D02*
G01*
X128433100Y-124165853D01*
X128572481Y-124258985D01*
X128691015Y-124377519D01*
X128784147Y-124516900D01*
X128848297Y-124671772D01*
X128881000Y-124836184D01*
X128881000Y-125003816D01*
X128848297Y-125168228D01*
X128784147Y-125323100D01*
X128691015Y-125462481D01*
X128572481Y-125581015D01*
X128433100Y-125674147D01*
X128278228Y-125738297D01*
X128113816Y-125771000D01*
X127946184Y-125771000D01*
X127781772Y-125738297D01*
X127626900Y-125674147D01*
X127487519Y-125581015D01*
X127368985Y-125462481D01*
X127275853Y-125323100D01*
X127211703Y-125168228D01*
X127179000Y-125003816D01*
X127179000Y-124836184D01*
X127211703Y-124671772D01*
X127275853Y-124516900D01*
X127368985Y-124377519D01*
X127487519Y-124258985D01*
X127626900Y-124165853D01*
X127781772Y-124101703D01*
X127946184Y-124069000D01*
X128113816Y-124069000D01*
X128278228Y-124101703D01*
G37*
G36*
X102878228Y-124101703D02*
G01*
X103033100Y-124165853D01*
X103172481Y-124258985D01*
X103291015Y-124377519D01*
X103384147Y-124516900D01*
X103448297Y-124671772D01*
X103481000Y-124836184D01*
X103481000Y-125003816D01*
X103448297Y-125168228D01*
X103384147Y-125323100D01*
X103291015Y-125462481D01*
X103172481Y-125581015D01*
X103033100Y-125674147D01*
X102878228Y-125738297D01*
X102713816Y-125771000D01*
X102546184Y-125771000D01*
X102381772Y-125738297D01*
X102226900Y-125674147D01*
X102087519Y-125581015D01*
X101968985Y-125462481D01*
X101875853Y-125323100D01*
X101811703Y-125168228D01*
X101779000Y-125003816D01*
X101779000Y-124836184D01*
X101811703Y-124671772D01*
X101875853Y-124516900D01*
X101968985Y-124377519D01*
X102087519Y-124258985D01*
X102226900Y-124165853D01*
X102381772Y-124101703D01*
X102546184Y-124069000D01*
X102713816Y-124069000D01*
X102878228Y-124101703D01*
G37*
G36*
X133358228Y-124101703D02*
G01*
X133513100Y-124165853D01*
X133652481Y-124258985D01*
X133771015Y-124377519D01*
X133864147Y-124516900D01*
X133928297Y-124671772D01*
X133961000Y-124836184D01*
X133961000Y-125003816D01*
X133928297Y-125168228D01*
X133864147Y-125323100D01*
X133771015Y-125462481D01*
X133652481Y-125581015D01*
X133513100Y-125674147D01*
X133358228Y-125738297D01*
X133193816Y-125771000D01*
X133026184Y-125771000D01*
X132861772Y-125738297D01*
X132706900Y-125674147D01*
X132567519Y-125581015D01*
X132448985Y-125462481D01*
X132355853Y-125323100D01*
X132291703Y-125168228D01*
X132259000Y-125003816D01*
X132259000Y-124836184D01*
X132291703Y-124671772D01*
X132355853Y-124516900D01*
X132448985Y-124377519D01*
X132567519Y-124258985D01*
X132706900Y-124165853D01*
X132861772Y-124101703D01*
X133026184Y-124069000D01*
X133193816Y-124069000D01*
X133358228Y-124101703D01*
G37*
G36*
X137907142Y-124128242D02*
G01*
X138055101Y-124189529D01*
X138188255Y-124278499D01*
X138301501Y-124391745D01*
X138390471Y-124524899D01*
X138451758Y-124672858D01*
X138483000Y-124829925D01*
X138483000Y-124990075D01*
X138451758Y-125147142D01*
X138390471Y-125295101D01*
X138301501Y-125428255D01*
X138188255Y-125541501D01*
X138055101Y-125630471D01*
X137907142Y-125691758D01*
X137750075Y-125723000D01*
X137589925Y-125723000D01*
X137432858Y-125691758D01*
X137284899Y-125630471D01*
X137151745Y-125541501D01*
X137038499Y-125428255D01*
X136949529Y-125295101D01*
X136888242Y-125147142D01*
X136857000Y-124990075D01*
X136857000Y-124829925D01*
X136888242Y-124672858D01*
X136949529Y-124524899D01*
X137038499Y-124391745D01*
X137151745Y-124278499D01*
X137284899Y-124189529D01*
X137432858Y-124128242D01*
X137589925Y-124097000D01*
X137750075Y-124097000D01*
X137907142Y-124128242D01*
G37*
G36*
X177819059Y-123977860D02*
G01*
X177955732Y-124034472D01*
X178078735Y-124116660D01*
X178183340Y-124221265D01*
X178221584Y-124278501D01*
X178265529Y-124344270D01*
X178322140Y-124480941D01*
X178351000Y-124626032D01*
X178351000Y-124773968D01*
X178339869Y-124829926D01*
X178322140Y-124919059D01*
X178265528Y-125055732D01*
X178183340Y-125178735D01*
X178078735Y-125283340D01*
X177955732Y-125365528D01*
X177955731Y-125365529D01*
X177955730Y-125365529D01*
X177819059Y-125422140D01*
X177673968Y-125451000D01*
X177526032Y-125451000D01*
X177380941Y-125422140D01*
X177244270Y-125365529D01*
X177244269Y-125365529D01*
X177244268Y-125365528D01*
X177121265Y-125283340D01*
X177016660Y-125178735D01*
X176934472Y-125055732D01*
X176877860Y-124919059D01*
X176860131Y-124829926D01*
X176849000Y-124773968D01*
X176849000Y-124626032D01*
X176877860Y-124480941D01*
X176934471Y-124344270D01*
X176978416Y-124278501D01*
X177016660Y-124221265D01*
X177121265Y-124116660D01*
X177244268Y-124034472D01*
X177380941Y-123977860D01*
X177526032Y-123949000D01*
X177673968Y-123949000D01*
X177819059Y-123977860D01*
G37*
G36*
X152206564Y-122389389D02*
G01*
X152386247Y-122463816D01*
X152397835Y-122468616D01*
X152569973Y-122583635D01*
X152716365Y-122730027D01*
X152822090Y-122888255D01*
X152831385Y-122902167D01*
X152910611Y-123093436D01*
X152951000Y-123296484D01*
X152951000Y-123503516D01*
X152910611Y-123706564D01*
X152831385Y-123897833D01*
X152831384Y-123897835D01*
X152716365Y-124069973D01*
X152569973Y-124216365D01*
X152397835Y-124331384D01*
X152397834Y-124331385D01*
X152397833Y-124331385D01*
X152206564Y-124410611D01*
X152003516Y-124451000D01*
X151796484Y-124451000D01*
X151593436Y-124410611D01*
X151402167Y-124331385D01*
X151402166Y-124331385D01*
X151402165Y-124331384D01*
X151230027Y-124216365D01*
X151083635Y-124069973D01*
X150968616Y-123897835D01*
X150968615Y-123897833D01*
X150889389Y-123706564D01*
X150849000Y-123503516D01*
X150849000Y-123296484D01*
X150889389Y-123093436D01*
X150968615Y-122902167D01*
X150977911Y-122888255D01*
X151083635Y-122730027D01*
X151230027Y-122583635D01*
X151402165Y-122468616D01*
X151413753Y-122463816D01*
X151593436Y-122389389D01*
X151796484Y-122349000D01*
X152003516Y-122349000D01*
X152206564Y-122389389D01*
G37*
G36*
X102878228Y-121561703D02*
G01*
X103033100Y-121625853D01*
X103172481Y-121718985D01*
X103291015Y-121837519D01*
X103384147Y-121976900D01*
X103448297Y-122131772D01*
X103481000Y-122296184D01*
X103481000Y-122463816D01*
X103448297Y-122628228D01*
X103384147Y-122783100D01*
X103291015Y-122922481D01*
X103172481Y-123041015D01*
X103033100Y-123134147D01*
X102878228Y-123198297D01*
X102713816Y-123231000D01*
X102546184Y-123231000D01*
X102381772Y-123198297D01*
X102226900Y-123134147D01*
X102087519Y-123041015D01*
X101968985Y-122922481D01*
X101875853Y-122783100D01*
X101811703Y-122628228D01*
X101779000Y-122463816D01*
X101779000Y-122296184D01*
X101811703Y-122131772D01*
X101875853Y-121976900D01*
X101968985Y-121837519D01*
X102087519Y-121718985D01*
X102226900Y-121625853D01*
X102381772Y-121561703D01*
X102546184Y-121529000D01*
X102713816Y-121529000D01*
X102878228Y-121561703D01*
G37*
G36*
X123198228Y-121561703D02*
G01*
X123353100Y-121625853D01*
X123492481Y-121718985D01*
X123611015Y-121837519D01*
X123704147Y-121976900D01*
X123768297Y-122131772D01*
X123801000Y-122296184D01*
X123801000Y-122463816D01*
X123768297Y-122628228D01*
X123704147Y-122783100D01*
X123611015Y-122922481D01*
X123492481Y-123041015D01*
X123353100Y-123134147D01*
X123198228Y-123198297D01*
X123033816Y-123231000D01*
X122866184Y-123231000D01*
X122701772Y-123198297D01*
X122546900Y-123134147D01*
X122407519Y-123041015D01*
X122288985Y-122922481D01*
X122195853Y-122783100D01*
X122131703Y-122628228D01*
X122099000Y-122463816D01*
X122099000Y-122296184D01*
X122131703Y-122131772D01*
X122195853Y-121976900D01*
X122288985Y-121837519D01*
X122407519Y-121718985D01*
X122546900Y-121625853D01*
X122701772Y-121561703D01*
X122866184Y-121529000D01*
X123033816Y-121529000D01*
X123198228Y-121561703D01*
G37*
G36*
X130818228Y-121561703D02*
G01*
X130973100Y-121625853D01*
X131112481Y-121718985D01*
X131231015Y-121837519D01*
X131324147Y-121976900D01*
X131388297Y-122131772D01*
X131421000Y-122296184D01*
X131421000Y-122463816D01*
X131388297Y-122628228D01*
X131324147Y-122783100D01*
X131231015Y-122922481D01*
X131112481Y-123041015D01*
X130973100Y-123134147D01*
X130818228Y-123198297D01*
X130653816Y-123231000D01*
X130486184Y-123231000D01*
X130321772Y-123198297D01*
X130166900Y-123134147D01*
X130027519Y-123041015D01*
X129908985Y-122922481D01*
X129815853Y-122783100D01*
X129751703Y-122628228D01*
X129719000Y-122463816D01*
X129719000Y-122296184D01*
X129751703Y-122131772D01*
X129815853Y-121976900D01*
X129908985Y-121837519D01*
X130027519Y-121718985D01*
X130166900Y-121625853D01*
X130321772Y-121561703D01*
X130486184Y-121529000D01*
X130653816Y-121529000D01*
X130818228Y-121561703D01*
G37*
G36*
X128278228Y-121561703D02*
G01*
X128433100Y-121625853D01*
X128572481Y-121718985D01*
X128691015Y-121837519D01*
X128784147Y-121976900D01*
X128848297Y-122131772D01*
X128881000Y-122296184D01*
X128881000Y-122463816D01*
X128848297Y-122628228D01*
X128784147Y-122783100D01*
X128691015Y-122922481D01*
X128572481Y-123041015D01*
X128433100Y-123134147D01*
X128278228Y-123198297D01*
X128113816Y-123231000D01*
X127946184Y-123231000D01*
X127781772Y-123198297D01*
X127626900Y-123134147D01*
X127487519Y-123041015D01*
X127368985Y-122922481D01*
X127275853Y-122783100D01*
X127211703Y-122628228D01*
X127179000Y-122463816D01*
X127179000Y-122296184D01*
X127211703Y-122131772D01*
X127275853Y-121976900D01*
X127368985Y-121837519D01*
X127487519Y-121718985D01*
X127626900Y-121625853D01*
X127781772Y-121561703D01*
X127946184Y-121529000D01*
X128113816Y-121529000D01*
X128278228Y-121561703D01*
G37*
G36*
X125738228Y-121561703D02*
G01*
X125893100Y-121625853D01*
X126032481Y-121718985D01*
X126151015Y-121837519D01*
X126244147Y-121976900D01*
X126308297Y-122131772D01*
X126341000Y-122296184D01*
X126341000Y-122463816D01*
X126308297Y-122628228D01*
X126244147Y-122783100D01*
X126151015Y-122922481D01*
X126032481Y-123041015D01*
X125893100Y-123134147D01*
X125738228Y-123198297D01*
X125573816Y-123231000D01*
X125406184Y-123231000D01*
X125241772Y-123198297D01*
X125086900Y-123134147D01*
X124947519Y-123041015D01*
X124828985Y-122922481D01*
X124735853Y-122783100D01*
X124671703Y-122628228D01*
X124639000Y-122463816D01*
X124639000Y-122296184D01*
X124671703Y-122131772D01*
X124735853Y-121976900D01*
X124828985Y-121837519D01*
X124947519Y-121718985D01*
X125086900Y-121625853D01*
X125241772Y-121561703D01*
X125406184Y-121529000D01*
X125573816Y-121529000D01*
X125738228Y-121561703D01*
G37*
G36*
X118118228Y-121561703D02*
G01*
X118273100Y-121625853D01*
X118412481Y-121718985D01*
X118531015Y-121837519D01*
X118624147Y-121976900D01*
X118688297Y-122131772D01*
X118721000Y-122296184D01*
X118721000Y-122463816D01*
X118688297Y-122628228D01*
X118624147Y-122783100D01*
X118531015Y-122922481D01*
X118412481Y-123041015D01*
X118273100Y-123134147D01*
X118118228Y-123198297D01*
X117953816Y-123231000D01*
X117786184Y-123231000D01*
X117621772Y-123198297D01*
X117466900Y-123134147D01*
X117327519Y-123041015D01*
X117208985Y-122922481D01*
X117115853Y-122783100D01*
X117051703Y-122628228D01*
X117019000Y-122463816D01*
X117019000Y-122296184D01*
X117051703Y-122131772D01*
X117115853Y-121976900D01*
X117208985Y-121837519D01*
X117327519Y-121718985D01*
X117466900Y-121625853D01*
X117621772Y-121561703D01*
X117786184Y-121529000D01*
X117953816Y-121529000D01*
X118118228Y-121561703D01*
G37*
G36*
X120658228Y-121561703D02*
G01*
X120813100Y-121625853D01*
X120952481Y-121718985D01*
X121071015Y-121837519D01*
X121164147Y-121976900D01*
X121228297Y-122131772D01*
X121261000Y-122296184D01*
X121261000Y-122463816D01*
X121228297Y-122628228D01*
X121164147Y-122783100D01*
X121071015Y-122922481D01*
X120952481Y-123041015D01*
X120813100Y-123134147D01*
X120658228Y-123198297D01*
X120493816Y-123231000D01*
X120326184Y-123231000D01*
X120161772Y-123198297D01*
X120006900Y-123134147D01*
X119867519Y-123041015D01*
X119748985Y-122922481D01*
X119655853Y-122783100D01*
X119591703Y-122628228D01*
X119559000Y-122463816D01*
X119559000Y-122296184D01*
X119591703Y-122131772D01*
X119655853Y-121976900D01*
X119748985Y-121837519D01*
X119867519Y-121718985D01*
X120006900Y-121625853D01*
X120161772Y-121561703D01*
X120326184Y-121529000D01*
X120493816Y-121529000D01*
X120658228Y-121561703D01*
G37*
G36*
X100338228Y-121561703D02*
G01*
X100493100Y-121625853D01*
X100632481Y-121718985D01*
X100751015Y-121837519D01*
X100844147Y-121976900D01*
X100908297Y-122131772D01*
X100941000Y-122296184D01*
X100941000Y-122463816D01*
X100908297Y-122628228D01*
X100844147Y-122783100D01*
X100751015Y-122922481D01*
X100632481Y-123041015D01*
X100493100Y-123134147D01*
X100338228Y-123198297D01*
X100173816Y-123231000D01*
X100006184Y-123231000D01*
X99841772Y-123198297D01*
X99686900Y-123134147D01*
X99547519Y-123041015D01*
X99428985Y-122922481D01*
X99335853Y-122783100D01*
X99271703Y-122628228D01*
X99239000Y-122463816D01*
X99239000Y-122296184D01*
X99271703Y-122131772D01*
X99335853Y-121976900D01*
X99428985Y-121837519D01*
X99547519Y-121718985D01*
X99686900Y-121625853D01*
X99841772Y-121561703D01*
X100006184Y-121529000D01*
X100173816Y-121529000D01*
X100338228Y-121561703D01*
G37*
G36*
X115578228Y-121561703D02*
G01*
X115733100Y-121625853D01*
X115872481Y-121718985D01*
X115991015Y-121837519D01*
X116084147Y-121976900D01*
X116148297Y-122131772D01*
X116181000Y-122296184D01*
X116181000Y-122463816D01*
X116148297Y-122628228D01*
X116084147Y-122783100D01*
X115991015Y-122922481D01*
X115872481Y-123041015D01*
X115733100Y-123134147D01*
X115578228Y-123198297D01*
X115413816Y-123231000D01*
X115246184Y-123231000D01*
X115081772Y-123198297D01*
X114926900Y-123134147D01*
X114787519Y-123041015D01*
X114668985Y-122922481D01*
X114575853Y-122783100D01*
X114511703Y-122628228D01*
X114479000Y-122463816D01*
X114479000Y-122296184D01*
X114511703Y-122131772D01*
X114575853Y-121976900D01*
X114668985Y-121837519D01*
X114787519Y-121718985D01*
X114926900Y-121625853D01*
X115081772Y-121561703D01*
X115246184Y-121529000D01*
X115413816Y-121529000D01*
X115578228Y-121561703D01*
G37*
G36*
X133358228Y-121561703D02*
G01*
X133513100Y-121625853D01*
X133652481Y-121718985D01*
X133771015Y-121837519D01*
X133864147Y-121976900D01*
X133928297Y-122131772D01*
X133961000Y-122296184D01*
X133961000Y-122463816D01*
X133928297Y-122628228D01*
X133864147Y-122783100D01*
X133771015Y-122922481D01*
X133652481Y-123041015D01*
X133513100Y-123134147D01*
X133358228Y-123198297D01*
X133193816Y-123231000D01*
X133026184Y-123231000D01*
X132861772Y-123198297D01*
X132706900Y-123134147D01*
X132567519Y-123041015D01*
X132448985Y-122922481D01*
X132355853Y-122783100D01*
X132291703Y-122628228D01*
X132259000Y-122463816D01*
X132259000Y-122296184D01*
X132291703Y-122131772D01*
X132355853Y-121976900D01*
X132448985Y-121837519D01*
X132567519Y-121718985D01*
X132706900Y-121625853D01*
X132861772Y-121561703D01*
X133026184Y-121529000D01*
X133193816Y-121529000D01*
X133358228Y-121561703D01*
G37*
G36*
X110498228Y-121561703D02*
G01*
X110653100Y-121625853D01*
X110792481Y-121718985D01*
X110911015Y-121837519D01*
X111004147Y-121976900D01*
X111068297Y-122131772D01*
X111101000Y-122296184D01*
X111101000Y-122463816D01*
X111068297Y-122628228D01*
X111004147Y-122783100D01*
X110911015Y-122922481D01*
X110792481Y-123041015D01*
X110653100Y-123134147D01*
X110498228Y-123198297D01*
X110333816Y-123231000D01*
X110166184Y-123231000D01*
X110001772Y-123198297D01*
X109846900Y-123134147D01*
X109707519Y-123041015D01*
X109588985Y-122922481D01*
X109495853Y-122783100D01*
X109431703Y-122628228D01*
X109399000Y-122463816D01*
X109399000Y-122296184D01*
X109431703Y-122131772D01*
X109495853Y-121976900D01*
X109588985Y-121837519D01*
X109707519Y-121718985D01*
X109846900Y-121625853D01*
X110001772Y-121561703D01*
X110166184Y-121529000D01*
X110333816Y-121529000D01*
X110498228Y-121561703D01*
G37*
G36*
X113038228Y-121561703D02*
G01*
X113193100Y-121625853D01*
X113332481Y-121718985D01*
X113451015Y-121837519D01*
X113544147Y-121976900D01*
X113608297Y-122131772D01*
X113641000Y-122296184D01*
X113641000Y-122463816D01*
X113608297Y-122628228D01*
X113544147Y-122783100D01*
X113451015Y-122922481D01*
X113332481Y-123041015D01*
X113193100Y-123134147D01*
X113038228Y-123198297D01*
X112873816Y-123231000D01*
X112706184Y-123231000D01*
X112541772Y-123198297D01*
X112386900Y-123134147D01*
X112247519Y-123041015D01*
X112128985Y-122922481D01*
X112035853Y-122783100D01*
X111971703Y-122628228D01*
X111939000Y-122463816D01*
X111939000Y-122296184D01*
X111971703Y-122131772D01*
X112035853Y-121976900D01*
X112128985Y-121837519D01*
X112247519Y-121718985D01*
X112386900Y-121625853D01*
X112541772Y-121561703D01*
X112706184Y-121529000D01*
X112873816Y-121529000D01*
X113038228Y-121561703D01*
G37*
G36*
X107958228Y-121561703D02*
G01*
X108113100Y-121625853D01*
X108252481Y-121718985D01*
X108371015Y-121837519D01*
X108464147Y-121976900D01*
X108528297Y-122131772D01*
X108561000Y-122296184D01*
X108561000Y-122463816D01*
X108528297Y-122628228D01*
X108464147Y-122783100D01*
X108371015Y-122922481D01*
X108252481Y-123041015D01*
X108113100Y-123134147D01*
X107958228Y-123198297D01*
X107793816Y-123231000D01*
X107626184Y-123231000D01*
X107461772Y-123198297D01*
X107306900Y-123134147D01*
X107167519Y-123041015D01*
X107048985Y-122922481D01*
X106955853Y-122783100D01*
X106891703Y-122628228D01*
X106859000Y-122463816D01*
X106859000Y-122296184D01*
X106891703Y-122131772D01*
X106955853Y-121976900D01*
X107048985Y-121837519D01*
X107167519Y-121718985D01*
X107306900Y-121625853D01*
X107461772Y-121561703D01*
X107626184Y-121529000D01*
X107793816Y-121529000D01*
X107958228Y-121561703D01*
G37*
G36*
X105418228Y-121561703D02*
G01*
X105573100Y-121625853D01*
X105712481Y-121718985D01*
X105831015Y-121837519D01*
X105924147Y-121976900D01*
X105988297Y-122131772D01*
X106021000Y-122296184D01*
X106021000Y-122463816D01*
X105988297Y-122628228D01*
X105924147Y-122783100D01*
X105831015Y-122922481D01*
X105712481Y-123041015D01*
X105573100Y-123134147D01*
X105418228Y-123198297D01*
X105253816Y-123231000D01*
X105086184Y-123231000D01*
X104921772Y-123198297D01*
X104766900Y-123134147D01*
X104627519Y-123041015D01*
X104508985Y-122922481D01*
X104415853Y-122783100D01*
X104351703Y-122628228D01*
X104319000Y-122463816D01*
X104319000Y-122296184D01*
X104351703Y-122131772D01*
X104415853Y-121976900D01*
X104508985Y-121837519D01*
X104627519Y-121718985D01*
X104766900Y-121625853D01*
X104921772Y-121561703D01*
X105086184Y-121529000D01*
X105253816Y-121529000D01*
X105418228Y-121561703D01*
G37*
G36*
X148597142Y-121588242D02*
G01*
X148745101Y-121649529D01*
X148878255Y-121738499D01*
X148991501Y-121851745D01*
X149080471Y-121984899D01*
X149141758Y-122132858D01*
X149173000Y-122289925D01*
X149173000Y-122450075D01*
X149141758Y-122607142D01*
X149080471Y-122755101D01*
X148991501Y-122888255D01*
X148878255Y-123001501D01*
X148745101Y-123090471D01*
X148597142Y-123151758D01*
X148440075Y-123183000D01*
X148279925Y-123183000D01*
X148122858Y-123151758D01*
X147974899Y-123090471D01*
X147841745Y-123001501D01*
X147728499Y-122888255D01*
X147639529Y-122755101D01*
X147578242Y-122607142D01*
X147547000Y-122450075D01*
X147547000Y-122289925D01*
X147578242Y-122132858D01*
X147639529Y-121984899D01*
X147728499Y-121851745D01*
X147841745Y-121738499D01*
X147974899Y-121649529D01*
X148122858Y-121588242D01*
X148279925Y-121557000D01*
X148440075Y-121557000D01*
X148597142Y-121588242D01*
G37*
G36*
X137907142Y-121588242D02*
G01*
X138055101Y-121649529D01*
X138188255Y-121738499D01*
X138301501Y-121851745D01*
X138390471Y-121984899D01*
X138451758Y-122132858D01*
X138483000Y-122289925D01*
X138483000Y-122450075D01*
X138451758Y-122607142D01*
X138390471Y-122755101D01*
X138301501Y-122888255D01*
X138188255Y-123001501D01*
X138055101Y-123090471D01*
X137907142Y-123151758D01*
X137750075Y-123183000D01*
X137589925Y-123183000D01*
X137432858Y-123151758D01*
X137284899Y-123090471D01*
X137151745Y-123001501D01*
X137038499Y-122888255D01*
X136949529Y-122755101D01*
X136888242Y-122607142D01*
X136857000Y-122450075D01*
X136857000Y-122289925D01*
X136888242Y-122132858D01*
X136949529Y-121984899D01*
X137038499Y-121851745D01*
X137151745Y-121738499D01*
X137284899Y-121649529D01*
X137432858Y-121588242D01*
X137589925Y-121557000D01*
X137750075Y-121557000D01*
X137907142Y-121588242D01*
G37*
G36*
X103173512Y-117603927D02*
G01*
X103322812Y-117633624D01*
X103486784Y-117701544D01*
X103634354Y-117800147D01*
X103759853Y-117925646D01*
X103858456Y-118073216D01*
X103926376Y-118237188D01*
X103961000Y-118411259D01*
X103961000Y-118588741D01*
X103926376Y-118762812D01*
X103858456Y-118926784D01*
X103759853Y-119074354D01*
X103634354Y-119199853D01*
X103486784Y-119298456D01*
X103322812Y-119366376D01*
X103173512Y-119396073D01*
X103148742Y-119401000D01*
X102971258Y-119401000D01*
X102946488Y-119396073D01*
X102797188Y-119366376D01*
X102633216Y-119298456D01*
X102485646Y-119199853D01*
X102360147Y-119074354D01*
X102261544Y-118926784D01*
X102193624Y-118762812D01*
X102159000Y-118588741D01*
X102159000Y-118411259D01*
X102193624Y-118237188D01*
X102261544Y-118073216D01*
X102360147Y-117925646D01*
X102485646Y-117800147D01*
X102633216Y-117701544D01*
X102797188Y-117633624D01*
X102946488Y-117603927D01*
X102971258Y-117599000D01*
X103148742Y-117599000D01*
X103173512Y-117603927D01*
G37*
G36*
X100633512Y-117603927D02*
G01*
X100782812Y-117633624D01*
X100946784Y-117701544D01*
X101094354Y-117800147D01*
X101219853Y-117925646D01*
X101318456Y-118073216D01*
X101386376Y-118237188D01*
X101421000Y-118411259D01*
X101421000Y-118588741D01*
X101386376Y-118762812D01*
X101318456Y-118926784D01*
X101219853Y-119074354D01*
X101094354Y-119199853D01*
X100946784Y-119298456D01*
X100782812Y-119366376D01*
X100633512Y-119396073D01*
X100608742Y-119401000D01*
X100431258Y-119401000D01*
X100406488Y-119396073D01*
X100257188Y-119366376D01*
X100093216Y-119298456D01*
X99945646Y-119199853D01*
X99820147Y-119074354D01*
X99721544Y-118926784D01*
X99653624Y-118762812D01*
X99619000Y-118588741D01*
X99619000Y-118411259D01*
X99653624Y-118237188D01*
X99721544Y-118073216D01*
X99820147Y-117925646D01*
X99945646Y-117800147D01*
X100093216Y-117701544D01*
X100257188Y-117633624D01*
X100406488Y-117603927D01*
X100431258Y-117599000D01*
X100608742Y-117599000D01*
X100633512Y-117603927D01*
G37*
G36*
X106501000Y-119401000D02*
G01*
X104699000Y-119401000D01*
X104699000Y-117599000D01*
X106501000Y-117599000D01*
X106501000Y-119401000D01*
G37*
G36*
X154190000Y-119011000D02*
G01*
X152388000Y-119011000D01*
X152388000Y-117209000D01*
X154190000Y-117209000D01*
X154190000Y-119011000D01*
G37*
G36*
X150380000Y-119011000D02*
G01*
X148578000Y-119011000D01*
X148578000Y-117209000D01*
X150380000Y-117209000D01*
X150380000Y-119011000D01*
G37*
G36*
X167271000Y-119011000D02*
G01*
X165469000Y-119011000D01*
X165469000Y-117209000D01*
X167271000Y-117209000D01*
X167271000Y-119011000D01*
G37*
G36*
X171081000Y-119011000D02*
G01*
X169279000Y-119011000D01*
X169279000Y-117209000D01*
X171081000Y-117209000D01*
X171081000Y-119011000D01*
G37*
G36*
X158000000Y-119011000D02*
G01*
X156198000Y-119011000D01*
X156198000Y-117209000D01*
X158000000Y-117209000D01*
X158000000Y-119011000D01*
G37*
G36*
X163461000Y-119011000D02*
G01*
X161659000Y-119011000D01*
X161659000Y-117209000D01*
X163461000Y-117209000D01*
X163461000Y-119011000D01*
G37*
G36*
X126587142Y-115498242D02*
G01*
X126735101Y-115559529D01*
X126868255Y-115648499D01*
X126981501Y-115761745D01*
X127070471Y-115894899D01*
X127131758Y-116042858D01*
X127163000Y-116199925D01*
X127163000Y-116360075D01*
X127131758Y-116517142D01*
X127070471Y-116665101D01*
X126981501Y-116798255D01*
X126868255Y-116911501D01*
X126735101Y-117000471D01*
X126587142Y-117061758D01*
X126430075Y-117093000D01*
X126269925Y-117093000D01*
X126112858Y-117061758D01*
X125964899Y-117000471D01*
X125831745Y-116911501D01*
X125718499Y-116798255D01*
X125629529Y-116665101D01*
X125568242Y-116517142D01*
X125537000Y-116360075D01*
X125537000Y-116199925D01*
X125568242Y-116042858D01*
X125629529Y-115894899D01*
X125718499Y-115761745D01*
X125831745Y-115648499D01*
X125964899Y-115559529D01*
X126112858Y-115498242D01*
X126269925Y-115467000D01*
X126430075Y-115467000D01*
X126587142Y-115498242D01*
G37*
G36*
X139487142Y-115458242D02*
G01*
X139635101Y-115519529D01*
X139768255Y-115608499D01*
X139881501Y-115721745D01*
X139970471Y-115854899D01*
X140031758Y-116002858D01*
X140063000Y-116159925D01*
X140063000Y-116320075D01*
X140031758Y-116477142D01*
X139970471Y-116625101D01*
X139881501Y-116758255D01*
X139768255Y-116871501D01*
X139635101Y-116960471D01*
X139487142Y-117021758D01*
X139330075Y-117053000D01*
X139169925Y-117053000D01*
X139012858Y-117021758D01*
X138864899Y-116960471D01*
X138731745Y-116871501D01*
X138618499Y-116758255D01*
X138529529Y-116625101D01*
X138468242Y-116477142D01*
X138437000Y-116320075D01*
X138437000Y-116159925D01*
X138468242Y-116002858D01*
X138529529Y-115854899D01*
X138618499Y-115721745D01*
X138731745Y-115608499D01*
X138864899Y-115519529D01*
X139012858Y-115458242D01*
X139169925Y-115427000D01*
X139330075Y-115427000D01*
X139487142Y-115458242D01*
G37*
G36*
X166483512Y-114673927D02*
G01*
X166632812Y-114703624D01*
X166796784Y-114771544D01*
X166944354Y-114870147D01*
X167069853Y-114995646D01*
X167168456Y-115143216D01*
X167236376Y-115307188D01*
X167271000Y-115481259D01*
X167271000Y-115658741D01*
X167236376Y-115832812D01*
X167168456Y-115996784D01*
X167069853Y-116144354D01*
X166944354Y-116269853D01*
X166796784Y-116368456D01*
X166632812Y-116436376D01*
X166483512Y-116466073D01*
X166458742Y-116471000D01*
X166281258Y-116471000D01*
X166256488Y-116466073D01*
X166107188Y-116436376D01*
X165943216Y-116368456D01*
X165795646Y-116269853D01*
X165670147Y-116144354D01*
X165571544Y-115996784D01*
X165503624Y-115832812D01*
X165469000Y-115658741D01*
X165469000Y-115481259D01*
X165503624Y-115307188D01*
X165571544Y-115143216D01*
X165670147Y-114995646D01*
X165795646Y-114870147D01*
X165943216Y-114771544D01*
X166107188Y-114703624D01*
X166256488Y-114673927D01*
X166281258Y-114669000D01*
X166458742Y-114669000D01*
X166483512Y-114673927D01*
G37*
G36*
X170293512Y-114673927D02*
G01*
X170442812Y-114703624D01*
X170606784Y-114771544D01*
X170754354Y-114870147D01*
X170879853Y-114995646D01*
X170978456Y-115143216D01*
X171046376Y-115307188D01*
X171081000Y-115481259D01*
X171081000Y-115658741D01*
X171046376Y-115832812D01*
X170978456Y-115996784D01*
X170879853Y-116144354D01*
X170754354Y-116269853D01*
X170606784Y-116368456D01*
X170442812Y-116436376D01*
X170293512Y-116466073D01*
X170268742Y-116471000D01*
X170091258Y-116471000D01*
X170066488Y-116466073D01*
X169917188Y-116436376D01*
X169753216Y-116368456D01*
X169605646Y-116269853D01*
X169480147Y-116144354D01*
X169381544Y-115996784D01*
X169313624Y-115832812D01*
X169279000Y-115658741D01*
X169279000Y-115481259D01*
X169313624Y-115307188D01*
X169381544Y-115143216D01*
X169480147Y-114995646D01*
X169605646Y-114870147D01*
X169753216Y-114771544D01*
X169917188Y-114703624D01*
X170066488Y-114673927D01*
X170091258Y-114669000D01*
X170268742Y-114669000D01*
X170293512Y-114673927D01*
G37*
G36*
X162673512Y-114673927D02*
G01*
X162822812Y-114703624D01*
X162986784Y-114771544D01*
X163134354Y-114870147D01*
X163259853Y-114995646D01*
X163358456Y-115143216D01*
X163426376Y-115307188D01*
X163461000Y-115481259D01*
X163461000Y-115658741D01*
X163426376Y-115832812D01*
X163358456Y-115996784D01*
X163259853Y-116144354D01*
X163134354Y-116269853D01*
X162986784Y-116368456D01*
X162822812Y-116436376D01*
X162673512Y-116466073D01*
X162648742Y-116471000D01*
X162471258Y-116471000D01*
X162446488Y-116466073D01*
X162297188Y-116436376D01*
X162133216Y-116368456D01*
X161985646Y-116269853D01*
X161860147Y-116144354D01*
X161761544Y-115996784D01*
X161693624Y-115832812D01*
X161659000Y-115658741D01*
X161659000Y-115481259D01*
X161693624Y-115307188D01*
X161761544Y-115143216D01*
X161860147Y-114995646D01*
X161985646Y-114870147D01*
X162133216Y-114771544D01*
X162297188Y-114703624D01*
X162446488Y-114673927D01*
X162471258Y-114669000D01*
X162648742Y-114669000D01*
X162673512Y-114673927D01*
G37*
G36*
X157212512Y-114673927D02*
G01*
X157361812Y-114703624D01*
X157525784Y-114771544D01*
X157673354Y-114870147D01*
X157798853Y-114995646D01*
X157897456Y-115143216D01*
X157965376Y-115307188D01*
X158000000Y-115481259D01*
X158000000Y-115658741D01*
X157965376Y-115832812D01*
X157897456Y-115996784D01*
X157798853Y-116144354D01*
X157673354Y-116269853D01*
X157525784Y-116368456D01*
X157361812Y-116436376D01*
X157212512Y-116466073D01*
X157187742Y-116471000D01*
X157010258Y-116471000D01*
X156985488Y-116466073D01*
X156836188Y-116436376D01*
X156672216Y-116368456D01*
X156524646Y-116269853D01*
X156399147Y-116144354D01*
X156300544Y-115996784D01*
X156232624Y-115832812D01*
X156198000Y-115658741D01*
X156198000Y-115481259D01*
X156232624Y-115307188D01*
X156300544Y-115143216D01*
X156399147Y-114995646D01*
X156524646Y-114870147D01*
X156672216Y-114771544D01*
X156836188Y-114703624D01*
X156985488Y-114673927D01*
X157010258Y-114669000D01*
X157187742Y-114669000D01*
X157212512Y-114673927D01*
G37*
G36*
X153402512Y-114673927D02*
G01*
X153551812Y-114703624D01*
X153715784Y-114771544D01*
X153863354Y-114870147D01*
X153988853Y-114995646D01*
X154087456Y-115143216D01*
X154155376Y-115307188D01*
X154190000Y-115481259D01*
X154190000Y-115658741D01*
X154155376Y-115832812D01*
X154087456Y-115996784D01*
X153988853Y-116144354D01*
X153863354Y-116269853D01*
X153715784Y-116368456D01*
X153551812Y-116436376D01*
X153402512Y-116466073D01*
X153377742Y-116471000D01*
X153200258Y-116471000D01*
X153175488Y-116466073D01*
X153026188Y-116436376D01*
X152862216Y-116368456D01*
X152714646Y-116269853D01*
X152589147Y-116144354D01*
X152490544Y-115996784D01*
X152422624Y-115832812D01*
X152388000Y-115658741D01*
X152388000Y-115481259D01*
X152422624Y-115307188D01*
X152490544Y-115143216D01*
X152589147Y-114995646D01*
X152714646Y-114870147D01*
X152862216Y-114771544D01*
X153026188Y-114703624D01*
X153175488Y-114673927D01*
X153200258Y-114669000D01*
X153377742Y-114669000D01*
X153402512Y-114673927D01*
G37*
G36*
X149592512Y-114673927D02*
G01*
X149741812Y-114703624D01*
X149905784Y-114771544D01*
X150053354Y-114870147D01*
X150178853Y-114995646D01*
X150277456Y-115143216D01*
X150345376Y-115307188D01*
X150380000Y-115481259D01*
X150380000Y-115658741D01*
X150345376Y-115832812D01*
X150277456Y-115996784D01*
X150178853Y-116144354D01*
X150053354Y-116269853D01*
X149905784Y-116368456D01*
X149741812Y-116436376D01*
X149592512Y-116466073D01*
X149567742Y-116471000D01*
X149390258Y-116471000D01*
X149365488Y-116466073D01*
X149216188Y-116436376D01*
X149052216Y-116368456D01*
X148904646Y-116269853D01*
X148779147Y-116144354D01*
X148680544Y-115996784D01*
X148612624Y-115832812D01*
X148578000Y-115658741D01*
X148578000Y-115481259D01*
X148612624Y-115307188D01*
X148680544Y-115143216D01*
X148779147Y-114995646D01*
X148904646Y-114870147D01*
X149052216Y-114771544D01*
X149216188Y-114703624D01*
X149365488Y-114673927D01*
X149390258Y-114669000D01*
X149567742Y-114669000D01*
X149592512Y-114673927D01*
G37*
G36*
X116001000Y-114601000D02*
G01*
X114199000Y-114601000D01*
X114199000Y-112799000D01*
X116001000Y-112799000D01*
X116001000Y-114601000D01*
G37*
G36*
X124047142Y-112958242D02*
G01*
X124195101Y-113019529D01*
X124328255Y-113108499D01*
X124441501Y-113221745D01*
X124530471Y-113354899D01*
X124591758Y-113502858D01*
X124623000Y-113659925D01*
X124623000Y-113820075D01*
X124591758Y-113977142D01*
X124530471Y-114125101D01*
X124441501Y-114258255D01*
X124328255Y-114371501D01*
X124195101Y-114460471D01*
X124047142Y-114521758D01*
X123890075Y-114553000D01*
X123729925Y-114553000D01*
X123572858Y-114521758D01*
X123424899Y-114460471D01*
X123291745Y-114371501D01*
X123178499Y-114258255D01*
X123089529Y-114125101D01*
X123028242Y-113977142D01*
X122997000Y-113820075D01*
X122997000Y-113659925D01*
X123028242Y-113502858D01*
X123089529Y-113354899D01*
X123178499Y-113221745D01*
X123291745Y-113108499D01*
X123424899Y-113019529D01*
X123572858Y-112958242D01*
X123729925Y-112927000D01*
X123890075Y-112927000D01*
X124047142Y-112958242D01*
G37*
G36*
X126587142Y-112958242D02*
G01*
X126735101Y-113019529D01*
X126868255Y-113108499D01*
X126981501Y-113221745D01*
X127070471Y-113354899D01*
X127131758Y-113502858D01*
X127163000Y-113659925D01*
X127163000Y-113820075D01*
X127131758Y-113977142D01*
X127070471Y-114125101D01*
X126981501Y-114258255D01*
X126868255Y-114371501D01*
X126735101Y-114460471D01*
X126587142Y-114521758D01*
X126430075Y-114553000D01*
X126269925Y-114553000D01*
X126112858Y-114521758D01*
X125964899Y-114460471D01*
X125831745Y-114371501D01*
X125718499Y-114258255D01*
X125629529Y-114125101D01*
X125568242Y-113977142D01*
X125537000Y-113820075D01*
X125537000Y-113659925D01*
X125568242Y-113502858D01*
X125629529Y-113354899D01*
X125718499Y-113221745D01*
X125831745Y-113108499D01*
X125964899Y-113019529D01*
X126112858Y-112958242D01*
X126269925Y-112927000D01*
X126430075Y-112927000D01*
X126587142Y-112958242D01*
G37*
G36*
X129127142Y-112958242D02*
G01*
X129275101Y-113019529D01*
X129408255Y-113108499D01*
X129521501Y-113221745D01*
X129610471Y-113354899D01*
X129671758Y-113502858D01*
X129703000Y-113659925D01*
X129703000Y-113820075D01*
X129671758Y-113977142D01*
X129610471Y-114125101D01*
X129521501Y-114258255D01*
X129408255Y-114371501D01*
X129275101Y-114460471D01*
X129127142Y-114521758D01*
X128970075Y-114553000D01*
X128809925Y-114553000D01*
X128652858Y-114521758D01*
X128504899Y-114460471D01*
X128371745Y-114371501D01*
X128258499Y-114258255D01*
X128169529Y-114125101D01*
X128108242Y-113977142D01*
X128077000Y-113820075D01*
X128077000Y-113659925D01*
X128108242Y-113502858D01*
X128169529Y-113354899D01*
X128258499Y-113221745D01*
X128371745Y-113108499D01*
X128504899Y-113019529D01*
X128652858Y-112958242D01*
X128809925Y-112927000D01*
X128970075Y-112927000D01*
X129127142Y-112958242D01*
G37*
G36*
X136947142Y-112918242D02*
G01*
X137095101Y-112979529D01*
X137228255Y-113068499D01*
X137341501Y-113181745D01*
X137430471Y-113314899D01*
X137491758Y-113462858D01*
X137523000Y-113619925D01*
X137523000Y-113780075D01*
X137491758Y-113937142D01*
X137430471Y-114085101D01*
X137341501Y-114218255D01*
X137228255Y-114331501D01*
X137095101Y-114420471D01*
X136947142Y-114481758D01*
X136790075Y-114513000D01*
X136629925Y-114513000D01*
X136472858Y-114481758D01*
X136324899Y-114420471D01*
X136191745Y-114331501D01*
X136078499Y-114218255D01*
X135989529Y-114085101D01*
X135928242Y-113937142D01*
X135897000Y-113780075D01*
X135897000Y-113619925D01*
X135928242Y-113462858D01*
X135989529Y-113314899D01*
X136078499Y-113181745D01*
X136191745Y-113068499D01*
X136324899Y-112979529D01*
X136472858Y-112918242D01*
X136629925Y-112887000D01*
X136790075Y-112887000D01*
X136947142Y-112918242D01*
G37*
G36*
X139487142Y-112918242D02*
G01*
X139635101Y-112979529D01*
X139768255Y-113068499D01*
X139881501Y-113181745D01*
X139970471Y-113314899D01*
X140031758Y-113462858D01*
X140063000Y-113619925D01*
X140063000Y-113780075D01*
X140031758Y-113937142D01*
X139970471Y-114085101D01*
X139881501Y-114218255D01*
X139768255Y-114331501D01*
X139635101Y-114420471D01*
X139487142Y-114481758D01*
X139330075Y-114513000D01*
X139169925Y-114513000D01*
X139012858Y-114481758D01*
X138864899Y-114420471D01*
X138731745Y-114331501D01*
X138618499Y-114218255D01*
X138529529Y-114085101D01*
X138468242Y-113937142D01*
X138437000Y-113780075D01*
X138437000Y-113619925D01*
X138468242Y-113462858D01*
X138529529Y-113314899D01*
X138618499Y-113181745D01*
X138731745Y-113068499D01*
X138864899Y-112979529D01*
X139012858Y-112918242D01*
X139169925Y-112887000D01*
X139330075Y-112887000D01*
X139487142Y-112918242D01*
G37*
G36*
X142027142Y-112918242D02*
G01*
X142175101Y-112979529D01*
X142308255Y-113068499D01*
X142421501Y-113181745D01*
X142510471Y-113314899D01*
X142571758Y-113462858D01*
X142603000Y-113619925D01*
X142603000Y-113780075D01*
X142571758Y-113937142D01*
X142510471Y-114085101D01*
X142421501Y-114218255D01*
X142308255Y-114331501D01*
X142175101Y-114420471D01*
X142027142Y-114481758D01*
X141870075Y-114513000D01*
X141709925Y-114513000D01*
X141552858Y-114481758D01*
X141404899Y-114420471D01*
X141271745Y-114331501D01*
X141158499Y-114218255D01*
X141069529Y-114085101D01*
X141008242Y-113937142D01*
X140977000Y-113780075D01*
X140977000Y-113619925D01*
X141008242Y-113462858D01*
X141069529Y-113314899D01*
X141158499Y-113181745D01*
X141271745Y-113068499D01*
X141404899Y-112979529D01*
X141552858Y-112918242D01*
X141709925Y-112887000D01*
X141870075Y-112887000D01*
X142027142Y-112918242D01*
G37*
G36*
X149592512Y-112133927D02*
G01*
X149741812Y-112163624D01*
X149905784Y-112231544D01*
X150053354Y-112330147D01*
X150178853Y-112455646D01*
X150277456Y-112603216D01*
X150345376Y-112767188D01*
X150380000Y-112941259D01*
X150380000Y-113118741D01*
X150345376Y-113292812D01*
X150277456Y-113456784D01*
X150178853Y-113604354D01*
X150053354Y-113729853D01*
X149905784Y-113828456D01*
X149741812Y-113896376D01*
X149592512Y-113926073D01*
X149567742Y-113931000D01*
X149390258Y-113931000D01*
X149365488Y-113926073D01*
X149216188Y-113896376D01*
X149052216Y-113828456D01*
X148904646Y-113729853D01*
X148779147Y-113604354D01*
X148680544Y-113456784D01*
X148612624Y-113292812D01*
X148578000Y-113118741D01*
X148578000Y-112941259D01*
X148612624Y-112767188D01*
X148680544Y-112603216D01*
X148779147Y-112455646D01*
X148904646Y-112330147D01*
X149052216Y-112231544D01*
X149216188Y-112163624D01*
X149365488Y-112133927D01*
X149390258Y-112129000D01*
X149567742Y-112129000D01*
X149592512Y-112133927D01*
G37*
G36*
X153402512Y-112133927D02*
G01*
X153551812Y-112163624D01*
X153715784Y-112231544D01*
X153863354Y-112330147D01*
X153988853Y-112455646D01*
X154087456Y-112603216D01*
X154155376Y-112767188D01*
X154190000Y-112941259D01*
X154190000Y-113118741D01*
X154155376Y-113292812D01*
X154087456Y-113456784D01*
X153988853Y-113604354D01*
X153863354Y-113729853D01*
X153715784Y-113828456D01*
X153551812Y-113896376D01*
X153402512Y-113926073D01*
X153377742Y-113931000D01*
X153200258Y-113931000D01*
X153175488Y-113926073D01*
X153026188Y-113896376D01*
X152862216Y-113828456D01*
X152714646Y-113729853D01*
X152589147Y-113604354D01*
X152490544Y-113456784D01*
X152422624Y-113292812D01*
X152388000Y-113118741D01*
X152388000Y-112941259D01*
X152422624Y-112767188D01*
X152490544Y-112603216D01*
X152589147Y-112455646D01*
X152714646Y-112330147D01*
X152862216Y-112231544D01*
X153026188Y-112163624D01*
X153175488Y-112133927D01*
X153200258Y-112129000D01*
X153377742Y-112129000D01*
X153402512Y-112133927D01*
G37*
G36*
X157212512Y-112133927D02*
G01*
X157361812Y-112163624D01*
X157525784Y-112231544D01*
X157673354Y-112330147D01*
X157798853Y-112455646D01*
X157897456Y-112603216D01*
X157965376Y-112767188D01*
X158000000Y-112941259D01*
X158000000Y-113118741D01*
X157965376Y-113292812D01*
X157897456Y-113456784D01*
X157798853Y-113604354D01*
X157673354Y-113729853D01*
X157525784Y-113828456D01*
X157361812Y-113896376D01*
X157212512Y-113926073D01*
X157187742Y-113931000D01*
X157010258Y-113931000D01*
X156985488Y-113926073D01*
X156836188Y-113896376D01*
X156672216Y-113828456D01*
X156524646Y-113729853D01*
X156399147Y-113604354D01*
X156300544Y-113456784D01*
X156232624Y-113292812D01*
X156198000Y-113118741D01*
X156198000Y-112941259D01*
X156232624Y-112767188D01*
X156300544Y-112603216D01*
X156399147Y-112455646D01*
X156524646Y-112330147D01*
X156672216Y-112231544D01*
X156836188Y-112163624D01*
X156985488Y-112133927D01*
X157010258Y-112129000D01*
X157187742Y-112129000D01*
X157212512Y-112133927D01*
G37*
G36*
X162673512Y-112133927D02*
G01*
X162822812Y-112163624D01*
X162986784Y-112231544D01*
X163134354Y-112330147D01*
X163259853Y-112455646D01*
X163358456Y-112603216D01*
X163426376Y-112767188D01*
X163461000Y-112941259D01*
X163461000Y-113118741D01*
X163426376Y-113292812D01*
X163358456Y-113456784D01*
X163259853Y-113604354D01*
X163134354Y-113729853D01*
X162986784Y-113828456D01*
X162822812Y-113896376D01*
X162673512Y-113926073D01*
X162648742Y-113931000D01*
X162471258Y-113931000D01*
X162446488Y-113926073D01*
X162297188Y-113896376D01*
X162133216Y-113828456D01*
X161985646Y-113729853D01*
X161860147Y-113604354D01*
X161761544Y-113456784D01*
X161693624Y-113292812D01*
X161659000Y-113118741D01*
X161659000Y-112941259D01*
X161693624Y-112767188D01*
X161761544Y-112603216D01*
X161860147Y-112455646D01*
X161985646Y-112330147D01*
X162133216Y-112231544D01*
X162297188Y-112163624D01*
X162446488Y-112133927D01*
X162471258Y-112129000D01*
X162648742Y-112129000D01*
X162673512Y-112133927D01*
G37*
G36*
X166483512Y-112133927D02*
G01*
X166632812Y-112163624D01*
X166796784Y-112231544D01*
X166944354Y-112330147D01*
X167069853Y-112455646D01*
X167168456Y-112603216D01*
X167236376Y-112767188D01*
X167271000Y-112941259D01*
X167271000Y-113118741D01*
X167236376Y-113292812D01*
X167168456Y-113456784D01*
X167069853Y-113604354D01*
X166944354Y-113729853D01*
X166796784Y-113828456D01*
X166632812Y-113896376D01*
X166483512Y-113926073D01*
X166458742Y-113931000D01*
X166281258Y-113931000D01*
X166256488Y-113926073D01*
X166107188Y-113896376D01*
X165943216Y-113828456D01*
X165795646Y-113729853D01*
X165670147Y-113604354D01*
X165571544Y-113456784D01*
X165503624Y-113292812D01*
X165469000Y-113118741D01*
X165469000Y-112941259D01*
X165503624Y-112767188D01*
X165571544Y-112603216D01*
X165670147Y-112455646D01*
X165795646Y-112330147D01*
X165943216Y-112231544D01*
X166107188Y-112163624D01*
X166256488Y-112133927D01*
X166281258Y-112129000D01*
X166458742Y-112129000D01*
X166483512Y-112133927D01*
G37*
G36*
X170293512Y-112133927D02*
G01*
X170442812Y-112163624D01*
X170606784Y-112231544D01*
X170754354Y-112330147D01*
X170879853Y-112455646D01*
X170978456Y-112603216D01*
X171046376Y-112767188D01*
X171081000Y-112941259D01*
X171081000Y-113118741D01*
X171046376Y-113292812D01*
X170978456Y-113456784D01*
X170879853Y-113604354D01*
X170754354Y-113729853D01*
X170606784Y-113828456D01*
X170442812Y-113896376D01*
X170293512Y-113926073D01*
X170268742Y-113931000D01*
X170091258Y-113931000D01*
X170066488Y-113926073D01*
X169917188Y-113896376D01*
X169753216Y-113828456D01*
X169605646Y-113729853D01*
X169480147Y-113604354D01*
X169381544Y-113456784D01*
X169313624Y-113292812D01*
X169279000Y-113118741D01*
X169279000Y-112941259D01*
X169313624Y-112767188D01*
X169381544Y-112603216D01*
X169480147Y-112455646D01*
X169605646Y-112330147D01*
X169753216Y-112231544D01*
X169917188Y-112163624D01*
X170066488Y-112133927D01*
X170091258Y-112129000D01*
X170268742Y-112129000D01*
X170293512Y-112133927D01*
G37*
G36*
X177903352Y-110630247D02*
G01*
X178052652Y-110659944D01*
X178216624Y-110727864D01*
X178364194Y-110826467D01*
X178489693Y-110951966D01*
X178588296Y-111099536D01*
X178656216Y-111263508D01*
X178690840Y-111437579D01*
X178690840Y-111615061D01*
X178656216Y-111789132D01*
X178588296Y-111953104D01*
X178489693Y-112100674D01*
X178364194Y-112226173D01*
X178216624Y-112324776D01*
X178052652Y-112392696D01*
X177903352Y-112422393D01*
X177878582Y-112427320D01*
X177701098Y-112427320D01*
X177676328Y-112422393D01*
X177527028Y-112392696D01*
X177363056Y-112324776D01*
X177215486Y-112226173D01*
X177089987Y-112100674D01*
X176991384Y-111953104D01*
X176923464Y-111789132D01*
X176888840Y-111615061D01*
X176888840Y-111437579D01*
X176923464Y-111263508D01*
X176991384Y-111099536D01*
X177089987Y-110951966D01*
X177215486Y-110826467D01*
X177363056Y-110727864D01*
X177527028Y-110659944D01*
X177676328Y-110630247D01*
X177701098Y-110625320D01*
X177878582Y-110625320D01*
X177903352Y-110630247D01*
G37*
G36*
X115213512Y-110263927D02*
G01*
X115362812Y-110293624D01*
X115526784Y-110361544D01*
X115674354Y-110460147D01*
X115799853Y-110585646D01*
X115898456Y-110733216D01*
X115966376Y-110897188D01*
X116001000Y-111071259D01*
X116001000Y-111248741D01*
X115966376Y-111422812D01*
X115898456Y-111586784D01*
X115799853Y-111734354D01*
X115674354Y-111859853D01*
X115526784Y-111958456D01*
X115362812Y-112026376D01*
X115213512Y-112056073D01*
X115188742Y-112061000D01*
X115011258Y-112061000D01*
X114986488Y-112056073D01*
X114837188Y-112026376D01*
X114673216Y-111958456D01*
X114525646Y-111859853D01*
X114400147Y-111734354D01*
X114301544Y-111586784D01*
X114233624Y-111422812D01*
X114199000Y-111248741D01*
X114199000Y-111071259D01*
X114233624Y-110897188D01*
X114301544Y-110733216D01*
X114400147Y-110585646D01*
X114525646Y-110460147D01*
X114673216Y-110361544D01*
X114837188Y-110293624D01*
X114986488Y-110263927D01*
X115011258Y-110259000D01*
X115188742Y-110259000D01*
X115213512Y-110263927D01*
G37*
G36*
X177895780Y-108088741D02*
G01*
X178052652Y-108119944D01*
X178216624Y-108187864D01*
X178364194Y-108286467D01*
X178489693Y-108411966D01*
X178588296Y-108559536D01*
X178656216Y-108723508D01*
X178690840Y-108897579D01*
X178690840Y-109075061D01*
X178656216Y-109249132D01*
X178588296Y-109413104D01*
X178489693Y-109560674D01*
X178364194Y-109686173D01*
X178216624Y-109784776D01*
X178052652Y-109852696D01*
X177903352Y-109882393D01*
X177878582Y-109887320D01*
X177701098Y-109887320D01*
X177676328Y-109882393D01*
X177527028Y-109852696D01*
X177363056Y-109784776D01*
X177215486Y-109686173D01*
X177089987Y-109560674D01*
X176991384Y-109413104D01*
X176923464Y-109249132D01*
X176888840Y-109075061D01*
X176888840Y-108897579D01*
X176923464Y-108723508D01*
X176991384Y-108559536D01*
X177089987Y-108411966D01*
X177215486Y-108286467D01*
X177363056Y-108187864D01*
X177527028Y-108119944D01*
X177683900Y-108088741D01*
X177701098Y-108085320D01*
X177878582Y-108085320D01*
X177895780Y-108088741D01*
G37*
G36*
X115213512Y-107723927D02*
G01*
X115362812Y-107753624D01*
X115526784Y-107821544D01*
X115674354Y-107920147D01*
X115799853Y-108045646D01*
X115898456Y-108193216D01*
X115966376Y-108357188D01*
X116001000Y-108531259D01*
X116001000Y-108708741D01*
X115966376Y-108882812D01*
X115898456Y-109046784D01*
X115799853Y-109194354D01*
X115674354Y-109319853D01*
X115526784Y-109418456D01*
X115362812Y-109486376D01*
X115213512Y-109516073D01*
X115188742Y-109521000D01*
X115011258Y-109521000D01*
X114986488Y-109516073D01*
X114837188Y-109486376D01*
X114673216Y-109418456D01*
X114525646Y-109319853D01*
X114400147Y-109194354D01*
X114301544Y-109046784D01*
X114233624Y-108882812D01*
X114199000Y-108708741D01*
X114199000Y-108531259D01*
X114233624Y-108357188D01*
X114301544Y-108193216D01*
X114400147Y-108045646D01*
X114525646Y-107920147D01*
X114673216Y-107821544D01*
X114837188Y-107753624D01*
X114986488Y-107723927D01*
X115011258Y-107719000D01*
X115188742Y-107719000D01*
X115213512Y-107723927D01*
G37*
G36*
X142983512Y-107153927D02*
G01*
X143132812Y-107183624D01*
X143296784Y-107251544D01*
X143444354Y-107350147D01*
X143569853Y-107475646D01*
X143668456Y-107623216D01*
X143736376Y-107787188D01*
X143771000Y-107961259D01*
X143771000Y-108138741D01*
X143736376Y-108312812D01*
X143668456Y-108476784D01*
X143569853Y-108624354D01*
X143444354Y-108749853D01*
X143296784Y-108848456D01*
X143132812Y-108916376D01*
X142983512Y-108946073D01*
X142958742Y-108951000D01*
X142781258Y-108951000D01*
X142756488Y-108946073D01*
X142607188Y-108916376D01*
X142443216Y-108848456D01*
X142295646Y-108749853D01*
X142170147Y-108624354D01*
X142071544Y-108476784D01*
X142003624Y-108312812D01*
X141969000Y-108138741D01*
X141969000Y-107961259D01*
X142003624Y-107787188D01*
X142071544Y-107623216D01*
X142170147Y-107475646D01*
X142295646Y-107350147D01*
X142443216Y-107251544D01*
X142607188Y-107183624D01*
X142756488Y-107153927D01*
X142781258Y-107149000D01*
X142958742Y-107149000D01*
X142983512Y-107153927D01*
G37*
G36*
X140443512Y-107153927D02*
G01*
X140592812Y-107183624D01*
X140756784Y-107251544D01*
X140904354Y-107350147D01*
X141029853Y-107475646D01*
X141128456Y-107623216D01*
X141196376Y-107787188D01*
X141231000Y-107961259D01*
X141231000Y-108138741D01*
X141196376Y-108312812D01*
X141128456Y-108476784D01*
X141029853Y-108624354D01*
X140904354Y-108749853D01*
X140756784Y-108848456D01*
X140592812Y-108916376D01*
X140443512Y-108946073D01*
X140418742Y-108951000D01*
X140241258Y-108951000D01*
X140216488Y-108946073D01*
X140067188Y-108916376D01*
X139903216Y-108848456D01*
X139755646Y-108749853D01*
X139630147Y-108624354D01*
X139531544Y-108476784D01*
X139463624Y-108312812D01*
X139429000Y-108138741D01*
X139429000Y-107961259D01*
X139463624Y-107787188D01*
X139531544Y-107623216D01*
X139630147Y-107475646D01*
X139755646Y-107350147D01*
X139903216Y-107251544D01*
X140067188Y-107183624D01*
X140216488Y-107153927D01*
X140241258Y-107149000D01*
X140418742Y-107149000D01*
X140443512Y-107153927D01*
G37*
G36*
X137903512Y-107153927D02*
G01*
X138052812Y-107183624D01*
X138216784Y-107251544D01*
X138364354Y-107350147D01*
X138489853Y-107475646D01*
X138588456Y-107623216D01*
X138656376Y-107787188D01*
X138691000Y-107961259D01*
X138691000Y-108138741D01*
X138656376Y-108312812D01*
X138588456Y-108476784D01*
X138489853Y-108624354D01*
X138364354Y-108749853D01*
X138216784Y-108848456D01*
X138052812Y-108916376D01*
X137903512Y-108946073D01*
X137878742Y-108951000D01*
X137701258Y-108951000D01*
X137676488Y-108946073D01*
X137527188Y-108916376D01*
X137363216Y-108848456D01*
X137215646Y-108749853D01*
X137090147Y-108624354D01*
X136991544Y-108476784D01*
X136923624Y-108312812D01*
X136889000Y-108138741D01*
X136889000Y-107961259D01*
X136923624Y-107787188D01*
X136991544Y-107623216D01*
X137090147Y-107475646D01*
X137215646Y-107350147D01*
X137363216Y-107251544D01*
X137527188Y-107183624D01*
X137676488Y-107153927D01*
X137701258Y-107149000D01*
X137878742Y-107149000D01*
X137903512Y-107153927D01*
G37*
G36*
X136151000Y-108951000D02*
G01*
X134349000Y-108951000D01*
X134349000Y-107149000D01*
X136151000Y-107149000D01*
X136151000Y-108951000D01*
G37*
G36*
X123201000Y-108901000D02*
G01*
X121399000Y-108901000D01*
X121399000Y-107099000D01*
X123201000Y-107099000D01*
X123201000Y-108901000D01*
G37*
G36*
X124953512Y-107103927D02*
G01*
X125102812Y-107133624D01*
X125266784Y-107201544D01*
X125414354Y-107300147D01*
X125539853Y-107425646D01*
X125638456Y-107573216D01*
X125706376Y-107737188D01*
X125741000Y-107911259D01*
X125741000Y-108088741D01*
X125706376Y-108262812D01*
X125638456Y-108426784D01*
X125539853Y-108574354D01*
X125414354Y-108699853D01*
X125266784Y-108798456D01*
X125102812Y-108866376D01*
X124953512Y-108896073D01*
X124928742Y-108901000D01*
X124751258Y-108901000D01*
X124726488Y-108896073D01*
X124577188Y-108866376D01*
X124413216Y-108798456D01*
X124265646Y-108699853D01*
X124140147Y-108574354D01*
X124041544Y-108426784D01*
X123973624Y-108262812D01*
X123939000Y-108088741D01*
X123939000Y-107911259D01*
X123973624Y-107737188D01*
X124041544Y-107573216D01*
X124140147Y-107425646D01*
X124265646Y-107300147D01*
X124413216Y-107201544D01*
X124577188Y-107133624D01*
X124726488Y-107103927D01*
X124751258Y-107099000D01*
X124928742Y-107099000D01*
X124953512Y-107103927D01*
G37*
G36*
X130033512Y-107103927D02*
G01*
X130182812Y-107133624D01*
X130346784Y-107201544D01*
X130494354Y-107300147D01*
X130619853Y-107425646D01*
X130718456Y-107573216D01*
X130786376Y-107737188D01*
X130821000Y-107911259D01*
X130821000Y-108088741D01*
X130786376Y-108262812D01*
X130718456Y-108426784D01*
X130619853Y-108574354D01*
X130494354Y-108699853D01*
X130346784Y-108798456D01*
X130182812Y-108866376D01*
X130033512Y-108896073D01*
X130008742Y-108901000D01*
X129831258Y-108901000D01*
X129806488Y-108896073D01*
X129657188Y-108866376D01*
X129493216Y-108798456D01*
X129345646Y-108699853D01*
X129220147Y-108574354D01*
X129121544Y-108426784D01*
X129053624Y-108262812D01*
X129019000Y-108088741D01*
X129019000Y-107911259D01*
X129053624Y-107737188D01*
X129121544Y-107573216D01*
X129220147Y-107425646D01*
X129345646Y-107300147D01*
X129493216Y-107201544D01*
X129657188Y-107133624D01*
X129806488Y-107103927D01*
X129831258Y-107099000D01*
X130008742Y-107099000D01*
X130033512Y-107103927D01*
G37*
G36*
X127493512Y-107103927D02*
G01*
X127642812Y-107133624D01*
X127806784Y-107201544D01*
X127954354Y-107300147D01*
X128079853Y-107425646D01*
X128178456Y-107573216D01*
X128246376Y-107737188D01*
X128281000Y-107911259D01*
X128281000Y-108088741D01*
X128246376Y-108262812D01*
X128178456Y-108426784D01*
X128079853Y-108574354D01*
X127954354Y-108699853D01*
X127806784Y-108798456D01*
X127642812Y-108866376D01*
X127493512Y-108896073D01*
X127468742Y-108901000D01*
X127291258Y-108901000D01*
X127266488Y-108896073D01*
X127117188Y-108866376D01*
X126953216Y-108798456D01*
X126805646Y-108699853D01*
X126680147Y-108574354D01*
X126581544Y-108426784D01*
X126513624Y-108262812D01*
X126479000Y-108088741D01*
X126479000Y-107911259D01*
X126513624Y-107737188D01*
X126581544Y-107573216D01*
X126680147Y-107425646D01*
X126805646Y-107300147D01*
X126953216Y-107201544D01*
X127117188Y-107133624D01*
X127266488Y-107103927D01*
X127291258Y-107099000D01*
X127468742Y-107099000D01*
X127493512Y-107103927D01*
G37*
G36*
X161022512Y-106799927D02*
G01*
X161171812Y-106829624D01*
X161335784Y-106897544D01*
X161483354Y-106996147D01*
X161608853Y-107121646D01*
X161707456Y-107269216D01*
X161775376Y-107433188D01*
X161810000Y-107607259D01*
X161810000Y-107784741D01*
X161775376Y-107958812D01*
X161707456Y-108122784D01*
X161608853Y-108270354D01*
X161483354Y-108395853D01*
X161335784Y-108494456D01*
X161171812Y-108562376D01*
X161022512Y-108592073D01*
X160997742Y-108597000D01*
X160820258Y-108597000D01*
X160795488Y-108592073D01*
X160646188Y-108562376D01*
X160482216Y-108494456D01*
X160334646Y-108395853D01*
X160209147Y-108270354D01*
X160110544Y-108122784D01*
X160042624Y-107958812D01*
X160008000Y-107784741D01*
X160008000Y-107607259D01*
X160042624Y-107433188D01*
X160110544Y-107269216D01*
X160209147Y-107121646D01*
X160334646Y-106996147D01*
X160482216Y-106897544D01*
X160646188Y-106829624D01*
X160795488Y-106799927D01*
X160820258Y-106795000D01*
X160997742Y-106795000D01*
X161022512Y-106799927D01*
G37*
G36*
X168795000Y-108597000D02*
G01*
X166993000Y-108597000D01*
X166993000Y-106795000D01*
X168795000Y-106795000D01*
X168795000Y-108597000D01*
G37*
G36*
X163562512Y-106799927D02*
G01*
X163711812Y-106829624D01*
X163875784Y-106897544D01*
X164023354Y-106996147D01*
X164148853Y-107121646D01*
X164247456Y-107269216D01*
X164315376Y-107433188D01*
X164350000Y-107607259D01*
X164350000Y-107784741D01*
X164315376Y-107958812D01*
X164247456Y-108122784D01*
X164148853Y-108270354D01*
X164023354Y-108395853D01*
X163875784Y-108494456D01*
X163711812Y-108562376D01*
X163562512Y-108592073D01*
X163537742Y-108597000D01*
X163360258Y-108597000D01*
X163335488Y-108592073D01*
X163186188Y-108562376D01*
X163022216Y-108494456D01*
X162874646Y-108395853D01*
X162749147Y-108270354D01*
X162650544Y-108122784D01*
X162582624Y-107958812D01*
X162548000Y-107784741D01*
X162548000Y-107607259D01*
X162582624Y-107433188D01*
X162650544Y-107269216D01*
X162749147Y-107121646D01*
X162874646Y-106996147D01*
X163022216Y-106897544D01*
X163186188Y-106829624D01*
X163335488Y-106799927D01*
X163360258Y-106795000D01*
X163537742Y-106795000D01*
X163562512Y-106799927D01*
G37*
G36*
X159270000Y-108597000D02*
G01*
X157468000Y-108597000D01*
X157468000Y-106795000D01*
X159270000Y-106795000D01*
X159270000Y-108597000D01*
G37*
G36*
X154164512Y-106799927D02*
G01*
X154313812Y-106829624D01*
X154477784Y-106897544D01*
X154625354Y-106996147D01*
X154750853Y-107121646D01*
X154849456Y-107269216D01*
X154917376Y-107433188D01*
X154952000Y-107607259D01*
X154952000Y-107784741D01*
X154917376Y-107958812D01*
X154849456Y-108122784D01*
X154750853Y-108270354D01*
X154625354Y-108395853D01*
X154477784Y-108494456D01*
X154313812Y-108562376D01*
X154164512Y-108592073D01*
X154139742Y-108597000D01*
X153962258Y-108597000D01*
X153937488Y-108592073D01*
X153788188Y-108562376D01*
X153624216Y-108494456D01*
X153476646Y-108395853D01*
X153351147Y-108270354D01*
X153252544Y-108122784D01*
X153184624Y-107958812D01*
X153150000Y-107784741D01*
X153150000Y-107607259D01*
X153184624Y-107433188D01*
X153252544Y-107269216D01*
X153351147Y-107121646D01*
X153476646Y-106996147D01*
X153624216Y-106897544D01*
X153788188Y-106829624D01*
X153937488Y-106799927D01*
X153962258Y-106795000D01*
X154139742Y-106795000D01*
X154164512Y-106799927D01*
G37*
G36*
X151624512Y-106799927D02*
G01*
X151773812Y-106829624D01*
X151937784Y-106897544D01*
X152085354Y-106996147D01*
X152210853Y-107121646D01*
X152309456Y-107269216D01*
X152377376Y-107433188D01*
X152412000Y-107607259D01*
X152412000Y-107784741D01*
X152377376Y-107958812D01*
X152309456Y-108122784D01*
X152210853Y-108270354D01*
X152085354Y-108395853D01*
X151937784Y-108494456D01*
X151773812Y-108562376D01*
X151624512Y-108592073D01*
X151599742Y-108597000D01*
X151422258Y-108597000D01*
X151397488Y-108592073D01*
X151248188Y-108562376D01*
X151084216Y-108494456D01*
X150936646Y-108395853D01*
X150811147Y-108270354D01*
X150712544Y-108122784D01*
X150644624Y-107958812D01*
X150610000Y-107784741D01*
X150610000Y-107607259D01*
X150644624Y-107433188D01*
X150712544Y-107269216D01*
X150811147Y-107121646D01*
X150936646Y-106996147D01*
X151084216Y-106897544D01*
X151248188Y-106829624D01*
X151397488Y-106799927D01*
X151422258Y-106795000D01*
X151599742Y-106795000D01*
X151624512Y-106799927D01*
G37*
G36*
X173087512Y-106799927D02*
G01*
X173236812Y-106829624D01*
X173400784Y-106897544D01*
X173548354Y-106996147D01*
X173673853Y-107121646D01*
X173772456Y-107269216D01*
X173840376Y-107433188D01*
X173875000Y-107607259D01*
X173875000Y-107784741D01*
X173840376Y-107958812D01*
X173772456Y-108122784D01*
X173673853Y-108270354D01*
X173548354Y-108395853D01*
X173400784Y-108494456D01*
X173236812Y-108562376D01*
X173087512Y-108592073D01*
X173062742Y-108597000D01*
X172885258Y-108597000D01*
X172860488Y-108592073D01*
X172711188Y-108562376D01*
X172547216Y-108494456D01*
X172399646Y-108395853D01*
X172274147Y-108270354D01*
X172175544Y-108122784D01*
X172107624Y-107958812D01*
X172073000Y-107784741D01*
X172073000Y-107607259D01*
X172107624Y-107433188D01*
X172175544Y-107269216D01*
X172274147Y-107121646D01*
X172399646Y-106996147D01*
X172547216Y-106897544D01*
X172711188Y-106829624D01*
X172860488Y-106799927D01*
X172885258Y-106795000D01*
X173062742Y-106795000D01*
X173087512Y-106799927D01*
G37*
G36*
X170547512Y-106799927D02*
G01*
X170696812Y-106829624D01*
X170860784Y-106897544D01*
X171008354Y-106996147D01*
X171133853Y-107121646D01*
X171232456Y-107269216D01*
X171300376Y-107433188D01*
X171335000Y-107607259D01*
X171335000Y-107784741D01*
X171300376Y-107958812D01*
X171232456Y-108122784D01*
X171133853Y-108270354D01*
X171008354Y-108395853D01*
X170860784Y-108494456D01*
X170696812Y-108562376D01*
X170547512Y-108592073D01*
X170522742Y-108597000D01*
X170345258Y-108597000D01*
X170320488Y-108592073D01*
X170171188Y-108562376D01*
X170007216Y-108494456D01*
X169859646Y-108395853D01*
X169734147Y-108270354D01*
X169635544Y-108122784D01*
X169567624Y-107958812D01*
X169533000Y-107784741D01*
X169533000Y-107607259D01*
X169567624Y-107433188D01*
X169635544Y-107269216D01*
X169734147Y-107121646D01*
X169859646Y-106996147D01*
X170007216Y-106897544D01*
X170171188Y-106829624D01*
X170320488Y-106799927D01*
X170345258Y-106795000D01*
X170522742Y-106795000D01*
X170547512Y-106799927D01*
G37*
G36*
X149872000Y-108597000D02*
G01*
X148070000Y-108597000D01*
X148070000Y-106795000D01*
X149872000Y-106795000D01*
X149872000Y-108597000D01*
G37*
G36*
X178690840Y-107347320D02*
G01*
X176888840Y-107347320D01*
X176888840Y-105545320D01*
X178690840Y-105545320D01*
X178690840Y-107347320D01*
G37*
G36*
X115213512Y-105183927D02*
G01*
X115362812Y-105213624D01*
X115526784Y-105281544D01*
X115674354Y-105380147D01*
X115799853Y-105505646D01*
X115898456Y-105653216D01*
X115966376Y-105817188D01*
X116001000Y-105991259D01*
X116001000Y-106168741D01*
X115966376Y-106342812D01*
X115898456Y-106506784D01*
X115799853Y-106654354D01*
X115674354Y-106779853D01*
X115526784Y-106878456D01*
X115362812Y-106946376D01*
X115213512Y-106976073D01*
X115188742Y-106981000D01*
X115011258Y-106981000D01*
X114986488Y-106976073D01*
X114837188Y-106946376D01*
X114673216Y-106878456D01*
X114525646Y-106779853D01*
X114400147Y-106654354D01*
X114301544Y-106506784D01*
X114233624Y-106342812D01*
X114199000Y-106168741D01*
X114199000Y-105991259D01*
X114233624Y-105817188D01*
X114301544Y-105653216D01*
X114400147Y-105505646D01*
X114525646Y-105380147D01*
X114673216Y-105281544D01*
X114837188Y-105213624D01*
X114986488Y-105183927D01*
X115011258Y-105179000D01*
X115188742Y-105179000D01*
X115213512Y-105183927D01*
G37*
G36*
X115213512Y-102643927D02*
G01*
X115362812Y-102673624D01*
X115526784Y-102741544D01*
X115674354Y-102840147D01*
X115799853Y-102965646D01*
X115898456Y-103113216D01*
X115966376Y-103277188D01*
X116001000Y-103451259D01*
X116001000Y-103628741D01*
X115966376Y-103802812D01*
X115898456Y-103966784D01*
X115799853Y-104114354D01*
X115674354Y-104239853D01*
X115526784Y-104338456D01*
X115362812Y-104406376D01*
X115213512Y-104436073D01*
X115188742Y-104441000D01*
X115011258Y-104441000D01*
X114986488Y-104436073D01*
X114837188Y-104406376D01*
X114673216Y-104338456D01*
X114525646Y-104239853D01*
X114400147Y-104114354D01*
X114301544Y-103966784D01*
X114233624Y-103802812D01*
X114199000Y-103628741D01*
X114199000Y-103451259D01*
X114233624Y-103277188D01*
X114301544Y-103113216D01*
X114400147Y-102965646D01*
X114525646Y-102840147D01*
X114673216Y-102741544D01*
X114837188Y-102673624D01*
X114986488Y-102643927D01*
X115011258Y-102639000D01*
X115188742Y-102639000D01*
X115213512Y-102643927D01*
G37*
G36*
X115213512Y-100103927D02*
G01*
X115362812Y-100133624D01*
X115526784Y-100201544D01*
X115674354Y-100300147D01*
X115799853Y-100425646D01*
X115898456Y-100573216D01*
X115966376Y-100737188D01*
X116001000Y-100911259D01*
X116001000Y-101088741D01*
X115966376Y-101262812D01*
X115898456Y-101426784D01*
X115799853Y-101574354D01*
X115674354Y-101699853D01*
X115526784Y-101798456D01*
X115362812Y-101866376D01*
X115213512Y-101896073D01*
X115188742Y-101901000D01*
X115011258Y-101901000D01*
X114986488Y-101896073D01*
X114837188Y-101866376D01*
X114673216Y-101798456D01*
X114525646Y-101699853D01*
X114400147Y-101574354D01*
X114301544Y-101426784D01*
X114233624Y-101262812D01*
X114199000Y-101088741D01*
X114199000Y-100911259D01*
X114233624Y-100737188D01*
X114301544Y-100573216D01*
X114400147Y-100425646D01*
X114525646Y-100300147D01*
X114673216Y-100201544D01*
X114837188Y-100133624D01*
X114986488Y-100103927D01*
X115011258Y-100099000D01*
X115188742Y-100099000D01*
X115213512Y-100103927D01*
G37*
G36*
X180375256Y-98391298D02*
G01*
X180481579Y-98412447D01*
X180782042Y-98536903D01*
X181052451Y-98717585D01*
X181282415Y-98947549D01*
X181282416Y-98947551D01*
X181463098Y-99217960D01*
X181587553Y-99518422D01*
X181651000Y-99837389D01*
X181651000Y-100162611D01*
X181623642Y-100300147D01*
X181587553Y-100481579D01*
X181463097Y-100782042D01*
X181282415Y-101052451D01*
X181052451Y-101282415D01*
X180782042Y-101463097D01*
X180481579Y-101587553D01*
X180375256Y-101608702D01*
X180162611Y-101651000D01*
X179837389Y-101651000D01*
X179624744Y-101608702D01*
X179518421Y-101587553D01*
X179217958Y-101463097D01*
X178947549Y-101282415D01*
X178717585Y-101052451D01*
X178536903Y-100782042D01*
X178412447Y-100481579D01*
X178376358Y-100300147D01*
X178349000Y-100162611D01*
X178349000Y-99837389D01*
X178412447Y-99518422D01*
X178536902Y-99217960D01*
X178717584Y-98947551D01*
X178717585Y-98947549D01*
X178947549Y-98717585D01*
X179217958Y-98536903D01*
X179518421Y-98412447D01*
X179624744Y-98391298D01*
X179837389Y-98349000D01*
X180162611Y-98349000D01*
X180375256Y-98391298D01*
G37*
G36*
X100375256Y-98391298D02*
G01*
X100481579Y-98412447D01*
X100782042Y-98536903D01*
X101052451Y-98717585D01*
X101282415Y-98947549D01*
X101282416Y-98947551D01*
X101463098Y-99217960D01*
X101587553Y-99518422D01*
X101651000Y-99837389D01*
X101651000Y-100162611D01*
X101623642Y-100300147D01*
X101587553Y-100481579D01*
X101463097Y-100782042D01*
X101282415Y-101052451D01*
X101052451Y-101282415D01*
X100782042Y-101463097D01*
X100481579Y-101587553D01*
X100375256Y-101608702D01*
X100162611Y-101651000D01*
X99837389Y-101651000D01*
X99624744Y-101608702D01*
X99518421Y-101587553D01*
X99217958Y-101463097D01*
X98947549Y-101282415D01*
X98717585Y-101052451D01*
X98536903Y-100782042D01*
X98412447Y-100481579D01*
X98376358Y-100300147D01*
X98349000Y-100162611D01*
X98349000Y-99837389D01*
X98412447Y-99518422D01*
X98536902Y-99217960D01*
X98717584Y-98947551D01*
X98717585Y-98947549D01*
X98947549Y-98717585D01*
X99217958Y-98536903D01*
X99518421Y-98412447D01*
X99624744Y-98391298D01*
X99837389Y-98349000D01*
X100162611Y-98349000D01*
X100375256Y-98391298D01*
G37*
M02*
