%FSLAX45Y45*%
G04 Gerber Fmt 4.5, Leading zero omitted, Abs format (unit mm)*
G04 Created by KiCad (PCBNEW (5.1.5)-3) date 2021-10-17 14:29:16*
%MOMM*%
%LPD*%
G04 APERTURE LIST*
%TA.AperFunction,Profile*%
%ADD10C,0.050000*%
%TD*%
%ADD11C,0.200000*%
%ADD12C,0.300000*%
G04 APERTURE END LIST*
D10*
X18000000Y-9600000D02*
X10000000Y-9600000D01*
X18400000Y-16000000D02*
X18400000Y-10000000D01*
X9600000Y-10000000D02*
G75*
G02X10000000Y-9600000I400000J0D01*
G01*
X18000000Y-9600000D02*
G75*
G02X18400000Y-10000000I0J-400000D01*
G01*
X18400000Y-16000000D02*
G75*
G02X18000000Y-16400000I-400000J0D01*
G01*
X10000000Y-16400000D02*
G75*
G02X9600000Y-16000000I0J400000D01*
G01*
X10000000Y-16400000D02*
X18000000Y-16400000D01*
X9600000Y-10000000D02*
X9600000Y-16000000D01*
D11*
X13794000Y-13534000D02*
X13994000Y-13734000D01*
X13994000Y-13534000D02*
X13794000Y-13734000D01*
X15090000Y-12240000D02*
X15290000Y-12440000D01*
X15290000Y-12240000D02*
X15090000Y-12440000D01*
X10160000Y-10000000D02*
G75*
G03X10160000Y-10000000I-160000J0D01*
G01*
X10160000Y-16000000D02*
G75*
G03X10160000Y-16000000I-160000J0D01*
G01*
X18160000Y-10000000D02*
G75*
G03X18160000Y-10000000I-160000J0D01*
G01*
X18160000Y-16000000D02*
G75*
G03X18160000Y-16000000I-160000J0D01*
G01*
D12*
X9883928Y-16868214D02*
X9883928Y-16568214D01*
X9955357Y-16568214D01*
X9998214Y-16582500D01*
X10026786Y-16611071D01*
X10041071Y-16639643D01*
X10055357Y-16696786D01*
X10055357Y-16739643D01*
X10041071Y-16796786D01*
X10026786Y-16825357D01*
X9998214Y-16853929D01*
X9955357Y-16868214D01*
X9883928Y-16868214D01*
X10183928Y-16868214D02*
X10183928Y-16668214D01*
X10183928Y-16725357D02*
X10198214Y-16696786D01*
X10212500Y-16682500D01*
X10241071Y-16668214D01*
X10269643Y-16668214D01*
X10369643Y-16868214D02*
X10369643Y-16668214D01*
X10369643Y-16568214D02*
X10355357Y-16582500D01*
X10369643Y-16596786D01*
X10383928Y-16582500D01*
X10369643Y-16568214D01*
X10369643Y-16596786D01*
X10555357Y-16868214D02*
X10526786Y-16853929D01*
X10512500Y-16825357D01*
X10512500Y-16568214D01*
X10712500Y-16868214D02*
X10683928Y-16853929D01*
X10669643Y-16825357D01*
X10669643Y-16568214D01*
X11055357Y-16868214D02*
X11055357Y-16568214D01*
X11155357Y-16782500D01*
X11255357Y-16568214D01*
X11255357Y-16868214D01*
X11526786Y-16868214D02*
X11526786Y-16711071D01*
X11512500Y-16682500D01*
X11483928Y-16668214D01*
X11426786Y-16668214D01*
X11398214Y-16682500D01*
X11526786Y-16853929D02*
X11498214Y-16868214D01*
X11426786Y-16868214D01*
X11398214Y-16853929D01*
X11383928Y-16825357D01*
X11383928Y-16796786D01*
X11398214Y-16768214D01*
X11426786Y-16753929D01*
X11498214Y-16753929D01*
X11526786Y-16739643D01*
X11669643Y-16668214D02*
X11669643Y-16968214D01*
X11669643Y-16682500D02*
X11698214Y-16668214D01*
X11755357Y-16668214D01*
X11783928Y-16682500D01*
X11798214Y-16696786D01*
X11812500Y-16725357D01*
X11812500Y-16811072D01*
X11798214Y-16839643D01*
X11783928Y-16853929D01*
X11755357Y-16868214D01*
X11698214Y-16868214D01*
X11669643Y-16853929D01*
X11941071Y-16839643D02*
X11955357Y-16853929D01*
X11941071Y-16868214D01*
X11926786Y-16853929D01*
X11941071Y-16839643D01*
X11941071Y-16868214D01*
X11941071Y-16682500D02*
X11955357Y-16696786D01*
X11941071Y-16711071D01*
X11926786Y-16696786D01*
X11941071Y-16682500D01*
X11941071Y-16711071D01*
X9397500Y-17262500D02*
X9597500Y-17462500D01*
X9597500Y-17262500D02*
X9397500Y-17462500D01*
X9869643Y-17226786D02*
X9883928Y-17212500D01*
X9912500Y-17198214D01*
X9983928Y-17198214D01*
X10012500Y-17212500D01*
X10026786Y-17226786D01*
X10041071Y-17255357D01*
X10041071Y-17283929D01*
X10026786Y-17326786D01*
X9855357Y-17498214D01*
X10041071Y-17498214D01*
X10169643Y-17469643D02*
X10183928Y-17483929D01*
X10169643Y-17498214D01*
X10155357Y-17483929D01*
X10169643Y-17469643D01*
X10169643Y-17498214D01*
X10369643Y-17198214D02*
X10398214Y-17198214D01*
X10426786Y-17212500D01*
X10441071Y-17226786D01*
X10455357Y-17255357D01*
X10469643Y-17312500D01*
X10469643Y-17383929D01*
X10455357Y-17441072D01*
X10441071Y-17469643D01*
X10426786Y-17483929D01*
X10398214Y-17498214D01*
X10369643Y-17498214D01*
X10341071Y-17483929D01*
X10326786Y-17469643D01*
X10312500Y-17441072D01*
X10298214Y-17383929D01*
X10298214Y-17312500D01*
X10312500Y-17255357D01*
X10326786Y-17226786D01*
X10341071Y-17212500D01*
X10369643Y-17198214D01*
X10655357Y-17198214D02*
X10683928Y-17198214D01*
X10712500Y-17212500D01*
X10726786Y-17226786D01*
X10741071Y-17255357D01*
X10755357Y-17312500D01*
X10755357Y-17383929D01*
X10741071Y-17441072D01*
X10726786Y-17469643D01*
X10712500Y-17483929D01*
X10683928Y-17498214D01*
X10655357Y-17498214D01*
X10626786Y-17483929D01*
X10612500Y-17469643D01*
X10598214Y-17441072D01*
X10583928Y-17383929D01*
X10583928Y-17312500D01*
X10598214Y-17255357D01*
X10612500Y-17226786D01*
X10626786Y-17212500D01*
X10655357Y-17198214D01*
X10883928Y-17498214D02*
X10883928Y-17298214D01*
X10883928Y-17326786D02*
X10898214Y-17312500D01*
X10926786Y-17298214D01*
X10969643Y-17298214D01*
X10998214Y-17312500D01*
X11012500Y-17341072D01*
X11012500Y-17498214D01*
X11012500Y-17341072D02*
X11026786Y-17312500D01*
X11055357Y-17298214D01*
X11098214Y-17298214D01*
X11126786Y-17312500D01*
X11141071Y-17341072D01*
X11141071Y-17498214D01*
X11283928Y-17498214D02*
X11283928Y-17298214D01*
X11283928Y-17326786D02*
X11298214Y-17312500D01*
X11326786Y-17298214D01*
X11369643Y-17298214D01*
X11398214Y-17312500D01*
X11412500Y-17341072D01*
X11412500Y-17498214D01*
X11412500Y-17341072D02*
X11426786Y-17312500D01*
X11455357Y-17298214D01*
X11498214Y-17298214D01*
X11526786Y-17312500D01*
X11541071Y-17341072D01*
X11541071Y-17498214D01*
X12126786Y-17183929D02*
X11869643Y-17569643D01*
X12512500Y-17198214D02*
X12541071Y-17198214D01*
X12569643Y-17212500D01*
X12583928Y-17226786D01*
X12598214Y-17255357D01*
X12612500Y-17312500D01*
X12612500Y-17383929D01*
X12598214Y-17441072D01*
X12583928Y-17469643D01*
X12569643Y-17483929D01*
X12541071Y-17498214D01*
X12512500Y-17498214D01*
X12483928Y-17483929D01*
X12469643Y-17469643D01*
X12455357Y-17441072D01*
X12441071Y-17383929D01*
X12441071Y-17312500D01*
X12455357Y-17255357D01*
X12469643Y-17226786D01*
X12483928Y-17212500D01*
X12512500Y-17198214D01*
X12741071Y-17469643D02*
X12755357Y-17483929D01*
X12741071Y-17498214D01*
X12726786Y-17483929D01*
X12741071Y-17469643D01*
X12741071Y-17498214D01*
X12941071Y-17198214D02*
X12969643Y-17198214D01*
X12998214Y-17212500D01*
X13012500Y-17226786D01*
X13026786Y-17255357D01*
X13041071Y-17312500D01*
X13041071Y-17383929D01*
X13026786Y-17441072D01*
X13012500Y-17469643D01*
X12998214Y-17483929D01*
X12969643Y-17498214D01*
X12941071Y-17498214D01*
X12912500Y-17483929D01*
X12898214Y-17469643D01*
X12883928Y-17441072D01*
X12869643Y-17383929D01*
X12869643Y-17312500D01*
X12883928Y-17255357D01*
X12898214Y-17226786D01*
X12912500Y-17212500D01*
X12941071Y-17198214D01*
X13141071Y-17198214D02*
X13341071Y-17198214D01*
X13212500Y-17498214D01*
X13469643Y-17498214D02*
X13526786Y-17498214D01*
X13555357Y-17483929D01*
X13569643Y-17469643D01*
X13598214Y-17426786D01*
X13612500Y-17369643D01*
X13612500Y-17255357D01*
X13598214Y-17226786D01*
X13583928Y-17212500D01*
X13555357Y-17198214D01*
X13498214Y-17198214D01*
X13469643Y-17212500D01*
X13455357Y-17226786D01*
X13441071Y-17255357D01*
X13441071Y-17326786D01*
X13455357Y-17355357D01*
X13469643Y-17369643D01*
X13498214Y-17383929D01*
X13555357Y-17383929D01*
X13583928Y-17369643D01*
X13598214Y-17355357D01*
X13612500Y-17326786D01*
X13726786Y-17198214D02*
X13726786Y-17255357D01*
X13841071Y-17198214D02*
X13841071Y-17255357D01*
X14283928Y-17612500D02*
X14269643Y-17598214D01*
X14241071Y-17555357D01*
X14226786Y-17526786D01*
X14212500Y-17483929D01*
X14198214Y-17412500D01*
X14198214Y-17355357D01*
X14212500Y-17283929D01*
X14226786Y-17241072D01*
X14241071Y-17212500D01*
X14269643Y-17169643D01*
X14283928Y-17155357D01*
X14383928Y-17226786D02*
X14398214Y-17212500D01*
X14426786Y-17198214D01*
X14498214Y-17198214D01*
X14526786Y-17212500D01*
X14541071Y-17226786D01*
X14555357Y-17255357D01*
X14555357Y-17283929D01*
X14541071Y-17326786D01*
X14369643Y-17498214D01*
X14555357Y-17498214D01*
X14912500Y-17498214D02*
X14912500Y-17198214D01*
X15041071Y-17498214D02*
X15041071Y-17341072D01*
X15026786Y-17312500D01*
X14998214Y-17298214D01*
X14955357Y-17298214D01*
X14926786Y-17312500D01*
X14912500Y-17326786D01*
X15226786Y-17498214D02*
X15198214Y-17483929D01*
X15183928Y-17469643D01*
X15169643Y-17441072D01*
X15169643Y-17355357D01*
X15183928Y-17326786D01*
X15198214Y-17312500D01*
X15226786Y-17298214D01*
X15269643Y-17298214D01*
X15298214Y-17312500D01*
X15312500Y-17326786D01*
X15326786Y-17355357D01*
X15326786Y-17441072D01*
X15312500Y-17469643D01*
X15298214Y-17483929D01*
X15269643Y-17498214D01*
X15226786Y-17498214D01*
X15498214Y-17498214D02*
X15469643Y-17483929D01*
X15455357Y-17455357D01*
X15455357Y-17198214D01*
X15726786Y-17483929D02*
X15698214Y-17498214D01*
X15641071Y-17498214D01*
X15612500Y-17483929D01*
X15598214Y-17455357D01*
X15598214Y-17341072D01*
X15612500Y-17312500D01*
X15641071Y-17298214D01*
X15698214Y-17298214D01*
X15726786Y-17312500D01*
X15741071Y-17341072D01*
X15741071Y-17369643D01*
X15598214Y-17398214D01*
X15855357Y-17483929D02*
X15883928Y-17498214D01*
X15941071Y-17498214D01*
X15969643Y-17483929D01*
X15983928Y-17455357D01*
X15983928Y-17441072D01*
X15969643Y-17412500D01*
X15941071Y-17398214D01*
X15898214Y-17398214D01*
X15869643Y-17383929D01*
X15855357Y-17355357D01*
X15855357Y-17341072D01*
X15869643Y-17312500D01*
X15898214Y-17298214D01*
X15941071Y-17298214D01*
X15969643Y-17312500D01*
X16083928Y-17612500D02*
X16098214Y-17598214D01*
X16126786Y-17555357D01*
X16141071Y-17526786D01*
X16155357Y-17483929D01*
X16169643Y-17412500D01*
X16169643Y-17355357D01*
X16155357Y-17283929D01*
X16141071Y-17241072D01*
X16126786Y-17212500D01*
X16098214Y-17169643D01*
X16083928Y-17155357D01*
X16626786Y-17612500D02*
X16612500Y-17598214D01*
X16583928Y-17555357D01*
X16569643Y-17526786D01*
X16555357Y-17483929D01*
X16541071Y-17412500D01*
X16541071Y-17355357D01*
X16555357Y-17283929D01*
X16569643Y-17241072D01*
X16583928Y-17212500D01*
X16612500Y-17169643D01*
X16626786Y-17155357D01*
X16741071Y-17298214D02*
X16741071Y-17498214D01*
X16741071Y-17326786D02*
X16755357Y-17312500D01*
X16783928Y-17298214D01*
X16826786Y-17298214D01*
X16855357Y-17312500D01*
X16869643Y-17341072D01*
X16869643Y-17498214D01*
X17055357Y-17498214D02*
X17026786Y-17483929D01*
X17012500Y-17469643D01*
X16998214Y-17441072D01*
X16998214Y-17355357D01*
X17012500Y-17326786D01*
X17026786Y-17312500D01*
X17055357Y-17298214D01*
X17098214Y-17298214D01*
X17126786Y-17312500D01*
X17141071Y-17326786D01*
X17155357Y-17355357D01*
X17155357Y-17441072D01*
X17141071Y-17469643D01*
X17126786Y-17483929D01*
X17098214Y-17498214D01*
X17055357Y-17498214D01*
X17241071Y-17298214D02*
X17355357Y-17298214D01*
X17283928Y-17198214D02*
X17283928Y-17455357D01*
X17298214Y-17483929D01*
X17326786Y-17498214D01*
X17355357Y-17498214D01*
X17683928Y-17298214D02*
X17683928Y-17598214D01*
X17683928Y-17312500D02*
X17712500Y-17298214D01*
X17769643Y-17298214D01*
X17798214Y-17312500D01*
X17812500Y-17326786D01*
X17826786Y-17355357D01*
X17826786Y-17441072D01*
X17812500Y-17469643D01*
X17798214Y-17483929D01*
X17769643Y-17498214D01*
X17712500Y-17498214D01*
X17683928Y-17483929D01*
X17998214Y-17498214D02*
X17969643Y-17483929D01*
X17955357Y-17455357D01*
X17955357Y-17198214D01*
X18241071Y-17498214D02*
X18241071Y-17341072D01*
X18226786Y-17312500D01*
X18198214Y-17298214D01*
X18141071Y-17298214D01*
X18112500Y-17312500D01*
X18241071Y-17483929D02*
X18212500Y-17498214D01*
X18141071Y-17498214D01*
X18112500Y-17483929D01*
X18098214Y-17455357D01*
X18098214Y-17426786D01*
X18112500Y-17398214D01*
X18141071Y-17383929D01*
X18212500Y-17383929D01*
X18241071Y-17369643D01*
X18341071Y-17298214D02*
X18455357Y-17298214D01*
X18383928Y-17198214D02*
X18383928Y-17455357D01*
X18398214Y-17483929D01*
X18426786Y-17498214D01*
X18455357Y-17498214D01*
X18669643Y-17483929D02*
X18641071Y-17498214D01*
X18583928Y-17498214D01*
X18555357Y-17483929D01*
X18541071Y-17455357D01*
X18541071Y-17341072D01*
X18555357Y-17312500D01*
X18583928Y-17298214D01*
X18641071Y-17298214D01*
X18669643Y-17312500D01*
X18683928Y-17341072D01*
X18683928Y-17369643D01*
X18541071Y-17398214D01*
X18941071Y-17498214D02*
X18941071Y-17198214D01*
X18941071Y-17483929D02*
X18912500Y-17498214D01*
X18855357Y-17498214D01*
X18826786Y-17483929D01*
X18812500Y-17469643D01*
X18798214Y-17441072D01*
X18798214Y-17355357D01*
X18812500Y-17326786D01*
X18826786Y-17312500D01*
X18855357Y-17298214D01*
X18912500Y-17298214D01*
X18941071Y-17312500D01*
X19055357Y-17612500D02*
X19069643Y-17598214D01*
X19098214Y-17555357D01*
X19112500Y-17526786D01*
X19126786Y-17483929D01*
X19141071Y-17412500D01*
X19141071Y-17355357D01*
X19126786Y-17283929D01*
X19112500Y-17241072D01*
X19098214Y-17212500D01*
X19069643Y-17169643D01*
X19055357Y-17155357D01*
X9597500Y-17758500D02*
G75*
G03X9597500Y-17758500I-160000J0D01*
G01*
X9855357Y-17594214D02*
X10041071Y-17594214D01*
X9941071Y-17708500D01*
X9983928Y-17708500D01*
X10012500Y-17722786D01*
X10026786Y-17737072D01*
X10041071Y-17765643D01*
X10041071Y-17837072D01*
X10026786Y-17865643D01*
X10012500Y-17879929D01*
X9983928Y-17894214D01*
X9898214Y-17894214D01*
X9869643Y-17879929D01*
X9855357Y-17865643D01*
X10169643Y-17865643D02*
X10183928Y-17879929D01*
X10169643Y-17894214D01*
X10155357Y-17879929D01*
X10169643Y-17865643D01*
X10169643Y-17894214D01*
X10298214Y-17622786D02*
X10312500Y-17608500D01*
X10341071Y-17594214D01*
X10412500Y-17594214D01*
X10441071Y-17608500D01*
X10455357Y-17622786D01*
X10469643Y-17651357D01*
X10469643Y-17679929D01*
X10455357Y-17722786D01*
X10283928Y-17894214D01*
X10469643Y-17894214D01*
X10655357Y-17594214D02*
X10683928Y-17594214D01*
X10712500Y-17608500D01*
X10726786Y-17622786D01*
X10741071Y-17651357D01*
X10755357Y-17708500D01*
X10755357Y-17779929D01*
X10741071Y-17837072D01*
X10726786Y-17865643D01*
X10712500Y-17879929D01*
X10683928Y-17894214D01*
X10655357Y-17894214D01*
X10626786Y-17879929D01*
X10612500Y-17865643D01*
X10598214Y-17837072D01*
X10583928Y-17779929D01*
X10583928Y-17708500D01*
X10598214Y-17651357D01*
X10612500Y-17622786D01*
X10626786Y-17608500D01*
X10655357Y-17594214D01*
X10883928Y-17894214D02*
X10883928Y-17694214D01*
X10883928Y-17722786D02*
X10898214Y-17708500D01*
X10926786Y-17694214D01*
X10969643Y-17694214D01*
X10998214Y-17708500D01*
X11012500Y-17737072D01*
X11012500Y-17894214D01*
X11012500Y-17737072D02*
X11026786Y-17708500D01*
X11055357Y-17694214D01*
X11098214Y-17694214D01*
X11126786Y-17708500D01*
X11141071Y-17737072D01*
X11141071Y-17894214D01*
X11283928Y-17894214D02*
X11283928Y-17694214D01*
X11283928Y-17722786D02*
X11298214Y-17708500D01*
X11326786Y-17694214D01*
X11369643Y-17694214D01*
X11398214Y-17708500D01*
X11412500Y-17737072D01*
X11412500Y-17894214D01*
X11412500Y-17737072D02*
X11426786Y-17708500D01*
X11455357Y-17694214D01*
X11498214Y-17694214D01*
X11526786Y-17708500D01*
X11541071Y-17737072D01*
X11541071Y-17894214D01*
X12126786Y-17579929D02*
X11869643Y-17965643D01*
X12512500Y-17594214D02*
X12541071Y-17594214D01*
X12569643Y-17608500D01*
X12583928Y-17622786D01*
X12598214Y-17651357D01*
X12612500Y-17708500D01*
X12612500Y-17779929D01*
X12598214Y-17837072D01*
X12583928Y-17865643D01*
X12569643Y-17879929D01*
X12541071Y-17894214D01*
X12512500Y-17894214D01*
X12483928Y-17879929D01*
X12469643Y-17865643D01*
X12455357Y-17837072D01*
X12441071Y-17779929D01*
X12441071Y-17708500D01*
X12455357Y-17651357D01*
X12469643Y-17622786D01*
X12483928Y-17608500D01*
X12512500Y-17594214D01*
X12741071Y-17865643D02*
X12755357Y-17879929D01*
X12741071Y-17894214D01*
X12726786Y-17879929D01*
X12741071Y-17865643D01*
X12741071Y-17894214D01*
X13041071Y-17894214D02*
X12869643Y-17894214D01*
X12955357Y-17894214D02*
X12955357Y-17594214D01*
X12926786Y-17637072D01*
X12898214Y-17665643D01*
X12869643Y-17679929D01*
X13155357Y-17622786D02*
X13169643Y-17608500D01*
X13198214Y-17594214D01*
X13269643Y-17594214D01*
X13298214Y-17608500D01*
X13312500Y-17622786D01*
X13326786Y-17651357D01*
X13326786Y-17679929D01*
X13312500Y-17722786D01*
X13141071Y-17894214D01*
X13326786Y-17894214D01*
X13583928Y-17594214D02*
X13526786Y-17594214D01*
X13498214Y-17608500D01*
X13483928Y-17622786D01*
X13455357Y-17665643D01*
X13441071Y-17722786D01*
X13441071Y-17837072D01*
X13455357Y-17865643D01*
X13469643Y-17879929D01*
X13498214Y-17894214D01*
X13555357Y-17894214D01*
X13583928Y-17879929D01*
X13598214Y-17865643D01*
X13612500Y-17837072D01*
X13612500Y-17765643D01*
X13598214Y-17737072D01*
X13583928Y-17722786D01*
X13555357Y-17708500D01*
X13498214Y-17708500D01*
X13469643Y-17722786D01*
X13455357Y-17737072D01*
X13441071Y-17765643D01*
X13726786Y-17594214D02*
X13726786Y-17651357D01*
X13841071Y-17594214D02*
X13841071Y-17651357D01*
X14283928Y-18008500D02*
X14269643Y-17994214D01*
X14241071Y-17951357D01*
X14226786Y-17922786D01*
X14212500Y-17879929D01*
X14198214Y-17808500D01*
X14198214Y-17751357D01*
X14212500Y-17679929D01*
X14226786Y-17637072D01*
X14241071Y-17608500D01*
X14269643Y-17565643D01*
X14283928Y-17551357D01*
X14526786Y-17694214D02*
X14526786Y-17894214D01*
X14455357Y-17579929D02*
X14383928Y-17794214D01*
X14569643Y-17794214D01*
X14912500Y-17894214D02*
X14912500Y-17594214D01*
X15041071Y-17894214D02*
X15041071Y-17737072D01*
X15026786Y-17708500D01*
X14998214Y-17694214D01*
X14955357Y-17694214D01*
X14926786Y-17708500D01*
X14912500Y-17722786D01*
X15226786Y-17894214D02*
X15198214Y-17879929D01*
X15183928Y-17865643D01*
X15169643Y-17837072D01*
X15169643Y-17751357D01*
X15183928Y-17722786D01*
X15198214Y-17708500D01*
X15226786Y-17694214D01*
X15269643Y-17694214D01*
X15298214Y-17708500D01*
X15312500Y-17722786D01*
X15326786Y-17751357D01*
X15326786Y-17837072D01*
X15312500Y-17865643D01*
X15298214Y-17879929D01*
X15269643Y-17894214D01*
X15226786Y-17894214D01*
X15498214Y-17894214D02*
X15469643Y-17879929D01*
X15455357Y-17851357D01*
X15455357Y-17594214D01*
X15726786Y-17879929D02*
X15698214Y-17894214D01*
X15641071Y-17894214D01*
X15612500Y-17879929D01*
X15598214Y-17851357D01*
X15598214Y-17737072D01*
X15612500Y-17708500D01*
X15641071Y-17694214D01*
X15698214Y-17694214D01*
X15726786Y-17708500D01*
X15741071Y-17737072D01*
X15741071Y-17765643D01*
X15598214Y-17794214D01*
X15855357Y-17879929D02*
X15883928Y-17894214D01*
X15941071Y-17894214D01*
X15969643Y-17879929D01*
X15983928Y-17851357D01*
X15983928Y-17837072D01*
X15969643Y-17808500D01*
X15941071Y-17794214D01*
X15898214Y-17794214D01*
X15869643Y-17779929D01*
X15855357Y-17751357D01*
X15855357Y-17737072D01*
X15869643Y-17708500D01*
X15898214Y-17694214D01*
X15941071Y-17694214D01*
X15969643Y-17708500D01*
X16083928Y-18008500D02*
X16098214Y-17994214D01*
X16126786Y-17951357D01*
X16141071Y-17922786D01*
X16155357Y-17879929D01*
X16169643Y-17808500D01*
X16169643Y-17751357D01*
X16155357Y-17679929D01*
X16141071Y-17637072D01*
X16126786Y-17608500D01*
X16098214Y-17565643D01*
X16083928Y-17551357D01*
X16626786Y-18008500D02*
X16612500Y-17994214D01*
X16583928Y-17951357D01*
X16569643Y-17922786D01*
X16555357Y-17879929D01*
X16541071Y-17808500D01*
X16541071Y-17751357D01*
X16555357Y-17679929D01*
X16569643Y-17637072D01*
X16583928Y-17608500D01*
X16612500Y-17565643D01*
X16626786Y-17551357D01*
X16741071Y-17694214D02*
X16741071Y-17894214D01*
X16741071Y-17722786D02*
X16755357Y-17708500D01*
X16783928Y-17694214D01*
X16826786Y-17694214D01*
X16855357Y-17708500D01*
X16869643Y-17737072D01*
X16869643Y-17894214D01*
X17055357Y-17894214D02*
X17026786Y-17879929D01*
X17012500Y-17865643D01*
X16998214Y-17837072D01*
X16998214Y-17751357D01*
X17012500Y-17722786D01*
X17026786Y-17708500D01*
X17055357Y-17694214D01*
X17098214Y-17694214D01*
X17126786Y-17708500D01*
X17141071Y-17722786D01*
X17155357Y-17751357D01*
X17155357Y-17837072D01*
X17141071Y-17865643D01*
X17126786Y-17879929D01*
X17098214Y-17894214D01*
X17055357Y-17894214D01*
X17241071Y-17694214D02*
X17355357Y-17694214D01*
X17283928Y-17594214D02*
X17283928Y-17851357D01*
X17298214Y-17879929D01*
X17326786Y-17894214D01*
X17355357Y-17894214D01*
X17683928Y-17694214D02*
X17683928Y-17994214D01*
X17683928Y-17708500D02*
X17712500Y-17694214D01*
X17769643Y-17694214D01*
X17798214Y-17708500D01*
X17812500Y-17722786D01*
X17826786Y-17751357D01*
X17826786Y-17837072D01*
X17812500Y-17865643D01*
X17798214Y-17879929D01*
X17769643Y-17894214D01*
X17712500Y-17894214D01*
X17683928Y-17879929D01*
X17998214Y-17894214D02*
X17969643Y-17879929D01*
X17955357Y-17851357D01*
X17955357Y-17594214D01*
X18241071Y-17894214D02*
X18241071Y-17737072D01*
X18226786Y-17708500D01*
X18198214Y-17694214D01*
X18141071Y-17694214D01*
X18112500Y-17708500D01*
X18241071Y-17879929D02*
X18212500Y-17894214D01*
X18141071Y-17894214D01*
X18112500Y-17879929D01*
X18098214Y-17851357D01*
X18098214Y-17822786D01*
X18112500Y-17794214D01*
X18141071Y-17779929D01*
X18212500Y-17779929D01*
X18241071Y-17765643D01*
X18341071Y-17694214D02*
X18455357Y-17694214D01*
X18383928Y-17594214D02*
X18383928Y-17851357D01*
X18398214Y-17879929D01*
X18426786Y-17894214D01*
X18455357Y-17894214D01*
X18669643Y-17879929D02*
X18641071Y-17894214D01*
X18583928Y-17894214D01*
X18555357Y-17879929D01*
X18541071Y-17851357D01*
X18541071Y-17737072D01*
X18555357Y-17708500D01*
X18583928Y-17694214D01*
X18641071Y-17694214D01*
X18669643Y-17708500D01*
X18683928Y-17737072D01*
X18683928Y-17765643D01*
X18541071Y-17794214D01*
X18941071Y-17894214D02*
X18941071Y-17594214D01*
X18941071Y-17879929D02*
X18912500Y-17894214D01*
X18855357Y-17894214D01*
X18826786Y-17879929D01*
X18812500Y-17865643D01*
X18798214Y-17837072D01*
X18798214Y-17751357D01*
X18812500Y-17722786D01*
X18826786Y-17708500D01*
X18855357Y-17694214D01*
X18912500Y-17694214D01*
X18941071Y-17708500D01*
X19055357Y-18008500D02*
X19069643Y-17994214D01*
X19098214Y-17951357D01*
X19112500Y-17922786D01*
X19126786Y-17879929D01*
X19141071Y-17808500D01*
X19141071Y-17751357D01*
X19126786Y-17679929D01*
X19112500Y-17637072D01*
X19098214Y-17608500D01*
X19069643Y-17565643D01*
X19055357Y-17551357D01*
M02*
